<svg id="Layer_1" data-name="Layer 1" xmlns="http://www.w3.org/2000/svg" viewBox="0 0 768.76 429.01"><defs><style>.cls-1{opacity:0.36;}.cls-2{opacity:0.96;}.cls-3{fill:#eee;}.cls-4{fill:none;}.cls-5{fill:#e8e6e8;}</style></defs><title>pantheon</title><g id="Group_242" data-name="Group 242" class="cls-1"><g id="Group_241" data-name="Group 241" class="cls-2"><path id="Path_1370" data-name="Path 1370" class="cls-3" d="M756.68,504.62H741.73L735,287.43l6.05-8,.68-.9v-4.72h5.83V203.83h15.33V185.06L400.44,110,37.94,185.06v18.77H53.28v69.94h6.33v4.72l.68.9,6,8L59.64,504.62H44.2V516H16.06v23H784.82V516H756.68ZM69.65,287H94.22l6.58,218.19H62.93Zm578.43-16.8-40.83,3.22,40.83,3.21v.43H604.75v-7.43h43.33ZM611.47,287H636l6.58,218.19H604.75Zm39.94,217.62-6.69-217.19,6-8,.68-.9v-4.72h40.29v4.72l.68.9,6.05,8-6.69,217.19Zm87-234.42-40.84,3.22,40.84,3.21v.43H695.07v-7.43h43.34ZM701.79,287h24.57l6.57,218.19H695.07Zm36.62-28.39H62.47v-52.7H738.41ZM521.15,287h24.56l6.58,218.19H514.43Zm36.65-16.8L517,273.42l40.83,3.21v.43H514.46v-7.43H557.8Zm-46,214,0,1.43c-4.47.11-9.3.18-14.52.25-8.22.08-17.31.26-27,.36l-.07-2.64c9.69.1,18.81.28,27.07.35C502.45,484,507.31,484.06,511.78,484.16ZM430.87,287h24.56L462,505.19H424.14Zm36.61-16.8-40.83,3.22,40.83,3.21v.43H424.14v-7.43h43.34v.57Zm-46,213.07-.11,3.22-20.95.11L380,486.49l-.11-3.22,20.6-.11ZM340.54,287h24.57l6.58,218.19H333.82Zm36.66-16.8-40.84,3.22,40.83,3.21v.43H333.86v-7.43H377.2Zm-46,213.36-.08,2.64c-9.83-.1-19.09-.28-27.46-.35-5-.11-9.72-.18-14-.29l0-1.36c4.33-.07,9.05-.18,14.09-.29C312.05,483.81,321.31,483.66,331.18,483.56ZM250.26,287h24.56l6.58,218.19H243.54Zm36.61-16.8L246,273.42l40.83,3.21v.43H243.54v-7.43h43.33Zm-46.3,224.05,0,1.75c-5.72-.14-10.83-.29-15.12-.36l-16.45-.5,16.45-.5C229.7,494.5,234.81,494.39,240.57,494.25ZM290,496.86l-.11-3.54c12.59-.22,26.1-.43,40.26-.47h.79l-.14,4.47h-.65C316,497.29,302.5,497.07,290,496.86Zm90.32.71-.14-5,20.31-.1,20.77.1-.14,5-20.63.11Zm90.5-.21h-.18l-.14-4.47h.32c14.3.07,28,.29,40.73.46l-.11,3.54c-12.69.18-26.35.4-40.62.47Zm90.07-1.4,0-1.71c5.55.14,10.52.29,14.74.36l16.44.5-16.44.5c-4.22.07-9.16.21-14.7.35Zm-451.25,8.66-6.68-217.19,6-8,.68-.9v-4.72h40.3v4.72l.68.9,6,8L150,504.62ZM159.94,287H184.5l6.58,218.19H153.22Zm36.65-16.8-40.84,3.22,40.84,3.21v.43H153.25v-7.43h43.34Zm-133.66-.54h43.34v.54l-40.84,3.22,40.84,3.21v.43H62.93ZM184.32,509.91c29.47-.15,63.87-.32,100.69-.54l115.43-.21,115.42.21c36.83.18,71.22.36,100.69.54l98.26,1s-39.3.4-98.26,1c-29.47.14-63.86.32-100.69.53l-115.42.22L285,512.37c-36.82-.17-71.22-.35-100.69-.53-58.92-.57-98.22-1-98.22-1ZM400.44,122.2l343.44,71.12H57Zm252.08,410c-34.36.14-74.48.32-117.46.53l-134.62.22-134.63-.22c-43-.18-83.06-.36-117.46-.53l-114.59-1,114.59-1c34.37-.14,74.48-.32,117.46-.53l134.63-.22,134.62.22c43,.18,83.06.36,117.46.53l114.6,1s-45.84.36-114.6,1ZM767.12,521l-114.6,1c-34.36.15-74.48.32-117.46.54l-134.62.21-134.63-.21c-43-.18-83.06-.36-117.46-.54L33.76,521s45.84-.4,114.59-1c34.37-.14,74.48-.32,117.46-.53l134.63-.22,134.62.22c43,.17,83.06.35,117.46.53C721.28,520.6,767.12,521,767.12,521Z" transform="translate(-16.06 -110.01)"/><path id="Path_1371" data-name="Path 1371" class="cls-4" d="M731.58,212.7H69.3v39.08H731.58Zm-38.76,28.46c-17.49.22-42.48.72-72.48,1s-65,.71-102.48.79l-117.46.32c-40-.11-80-.25-117.46-.36s-72.44-.57-102.44-.79c-30-.39-55-.71-72.48-1l-27.5-.5,27.5-.51c17.48-.21,42.48-.57,72.48-1,30-.22,65-.68,102.48-.79s77.48-.21,117.46-.36l117.46.33c37.47.07,72.47.57,102.47.78s55,.76,72.48,1l27.5.5s-10,.25-27.53.57Zm0-17c-17.49.21-42.48.71-72.48,1s-65,.72-102.48.79l-117.46.32c-40-.11-80-.25-117.46-.36s-72.48-.57-102.48-.78c-30-.4-55-.72-72.48-1l-27.49-.5,27.49-.5c17.49-.22,42.48-.57,72.48-1,30-.21,65-.68,102.48-.78s77.48-.22,117.46-.36l117.46.32c37.47.07,72.48.57,102.48.79s55,.75,72.48,1l27.49.5s-10,.26-27.49.58Z" transform="translate(-16.06 -110.01)"/><path id="Path_1372" data-name="Path 1372" class="cls-3" d="M626.42,181.24,441.48,137.68l-41-8.51L149.1,181.24Zm-256.73-40.3c1.82-.14,4.47-.47,7.61-.64,6.3-.43,14.73-.72,23.14-.72s16.84.29,23.13.72c3.15.17,5.79.5,7.62.64s2.89.32,2.89.32-1,.14-2.89.32-4.47.47-7.62.65c-6.29.42-14.73.71-23.13.71s-16.84-.29-23.14-.71c-3.14-.18-5.79-.51-7.61-.65s-2.9-.32-2.9-.32S367.83,141.12,369.69,140.94Zm-39.12,12.73c4.18-.18,10.15-.57,17.3-.75s15.52-.54,24.5-.65,18.52-.21,28.07-.25c19.13,0,38.22.36,52.56.86,7.15.21,13.12.61,17.3.79l6.58.39-6.58.39c-4.18.18-10.15.54-17.3.79-14.34.53-33.43.86-52.56.86-9.55,0-19.13-.07-28.07-.25s-17.31-.47-24.5-.65-13.12-.57-17.3-.75l-6.58-.39Zm-30,13.08c13.62-.21,29.5-.67,46.52-.75l53.35-.32,53.35.32c17,.07,32.89.57,46.51.75s25,.72,32.9.93l12.48.51s-4.54.17-12.48.5-19.31.71-32.9.93-29.5.68-46.51.75l-53.35.32-53.35-.32c-17-.11-32.9-.57-46.52-.75s-25-.72-32.9-.93l-12.48-.5,12.48-.51C275.61,167.47,287,167,300.57,166.75Z" transform="translate(-16.06 -110.01)"/><path id="Path_1373" data-name="Path 1373" class="cls-3" d="M715.81,470.25c.14,10,.46,18.38.61,24.21s.32,9.19.32,9.19.1-3.32.32-9.19.46-14.19.61-24.21.43-21.7.5-34.21.14-25.89.21-39.26-.14-26.71-.21-39.26-.36-24.21-.5-34.22-.47-18.38-.61-24.21-.32-9.19-.32-9.19-.11,3.32-.32,9.19-.47,14.19-.61,24.21-.47,21.7-.5,34.21-.15,25.89-.22,39.27.14,26.71.22,39.26S715.66,460.24,715.81,470.25Z" transform="translate(-16.06 -110.01)"/><path id="Path_1374" data-name="Path 1374" class="cls-3" d="M708.44,503.65s.11-3.32.32-9.19.47-14.19.79-24.21.5-21.7.82-34.21.43-25.89.65-39.23.21-26.71.32-39.26,0-24.21,0-34.26-.14-18.37-.18-24.2-.1-9.19-.1-9.19-.11,3.32-.32,9.19-.58,14.19-.79,24.2-.5,21.71-.82,34.22-.43,25.89-.65,39.23-.21,26.71-.32,39.26,0,24.21,0,34.25.14,18.38.17,24.21S708.44,503.65,708.44,503.65Z" transform="translate(-16.06 -110.01)"/><path id="Path_1375" data-name="Path 1375" class="cls-3" d="M722.17,396.81c.25,13.38.47,26.71.86,39.23s.86,24.2,1.22,34.22.89,18.34,1.14,24.2.57,9.19.57,9.19.11-3.32.29-9.19.39-14.19.43-24.24.21-21.7.18-34.25-.18-25.89-.32-39.27-.47-26.71-.86-39.22-.86-24.21-1.22-34.22-.89-18.34-1.15-24.21-.57-9.19-.57-9.19-.11,3.33-.28,9.19-.4,14.2-.43,24.25-.22,21.7-.18,34.25S722,383.44,722.17,396.81Z" transform="translate(-16.06 -110.01)"/><path id="Path_1376" data-name="Path 1376" class="cls-3" d="M626.74,494.46c.14-5.83.46-14.19.61-24.21s.43-21.7.5-34.21.14-25.89.21-39.26-.14-26.71-.21-39.26-.36-24.21-.5-34.22-.47-18.38-.61-24.21-.32-9.19-.32-9.19-.11,3.32-.32,9.19-.47,14.19-.61,24.21S625,345,625,357.52s-.15,25.88-.22,39.26.14,26.71.22,39.26.35,24.2.5,34.21.46,18.38.61,24.21.32,9.19.32,9.19S626.56,500.33,626.74,494.46Z" transform="translate(-16.06 -110.01)"/><path id="Path_1377" data-name="Path 1377" class="cls-3" d="M620.84,289.9s-.11,3.32-.32,9.19-.58,14.19-.79,24.21-.5,21.7-.82,34.22-.43,25.88-.65,39.22-.21,26.71-.32,39.26,0,24.21,0,34.26.14,18.37.18,24.2.1,9.19.1,9.19.11-3.32.32-9.19.47-14.19.79-24.2.5-21.71.82-34.22.43-25.89.65-39.23.21-26.71.32-39.26,0-24.21,0-34.25-.14-18.38-.17-24.21S620.84,289.9,620.84,289.9Z" transform="translate(-16.06 -110.01)"/><path id="Path_1378" data-name="Path 1378" class="cls-3" d="M631.89,396.81c.25,13.38.46,26.71.86,39.23s.85,24.2,1.21,34.22.9,18.34,1.15,24.2.57,9.19.57,9.19.11-3.32.28-9.19.4-14.19.43-24.24.22-21.7.18-34.25-.18-25.89-.32-39.27-.46-26.71-.86-39.22-.86-24.21-1.21-34.22-.9-18.34-1.15-24.21-.57-9.19-.57-9.19-.11,3.33-.29,9.19-.39,14.2-.43,24.25-.21,21.7-.17,34.25S631.74,383.44,631.89,396.81Z" transform="translate(-16.06 -110.01)"/><path id="Path_1379" data-name="Path 1379" class="cls-3" d="M535.2,470.25c.15,10,.47,18.38.61,24.21s.32,9.19.32,9.19.11-3.32.32-9.19.47-14.19.61-24.21.43-21.7.5-34.21.15-25.89.22-39.26-.15-26.71-.22-39.26-.35-24.21-.5-34.22-.46-18.38-.61-24.21-.32-9.19-.32-9.19-.11,3.32-.32,9.19-.46,14.19-.61,24.21-.46,21.7-.5,34.22-.14,25.88-.21,39.26.14,26.71.21,39.26S535.06,460.24,535.2,470.25Z" transform="translate(-16.06 -110.01)"/><path id="Path_1380" data-name="Path 1380" class="cls-3" d="M528.16,494.46c.18-5.83.46-14.19.78-24.21s.51-21.7.83-34.21.43-25.89.64-39.23.21-26.71.32-39.26,0-24.21,0-34.25-.15-18.38-.18-24.21-.11-9.19-.11-9.19-.11,3.32-.32,9.19-.57,14.19-.79,24.21-.5,21.7-.82,34.21-.43,25.89-.64,39.23-.22,26.71-.33,39.26,0,24.21,0,34.25.14,18.38.18,24.21.11,9.19.11,9.19S528,500.33,528.16,494.46Z" transform="translate(-16.06 -110.01)"/><path id="Path_1381" data-name="Path 1381" class="cls-3" d="M541.57,396.81c.25,13.38.46,26.71.85,39.23s.86,24.2,1.22,34.22.89,18.34,1.15,24.2.57,9.19.57,9.19.1-3.32.28-9.19.4-14.19.43-24.24.22-21.7.18-34.25-.18-25.89-.32-39.27-.47-26.71-.86-39.22-.86-24.21-1.21-34.22-.9-18.34-1.15-24.21-.57-9.19-.57-9.19-.11,3.33-.29,9.19-.39,14.2-.43,24.25-.21,21.7-.17,34.25S541.42,383.44,541.57,396.81Z" transform="translate(-16.06 -110.01)"/><path id="Path_1382" data-name="Path 1382" class="cls-3" d="M444.88,470.25c.14,10,.47,18.38.61,24.21s.32,9.19.32,9.19.11-3.32.32-9.19.47-14.19.61-24.21.43-21.7.5-34.21.15-25.89.22-39.26-.15-26.71-.22-39.26-.36-24.21-.5-34.22-.46-18.38-.61-24.21-.32-9.19-.32-9.19-.11,3.32-.32,9.19-.47,14.19-.61,24.21-.46,21.7-.5,34.22-.14,25.88-.21,39.26.14,26.71.21,39.26S444.74,460.24,444.88,470.25Z" transform="translate(-16.06 -110.01)"/><path id="Path_1383" data-name="Path 1383" class="cls-3" d="M437.87,494.46c.18-5.83.47-14.19.79-24.21s.5-21.7.82-34.21.43-25.89.65-39.23.21-26.71.32-39.26,0-24.21,0-34.25-.14-18.38-.17-24.21-.11-9.19-.11-9.19-.11,3.32-.32,9.19-.58,14.19-.79,24.21-.5,21.7-.82,34.21-.43,25.89-.65,39.23-.21,26.71-.32,39.26,0,24.21,0,34.25.14,18.38.17,24.21.11,9.19.11,9.19S437.66,500.33,437.87,494.46Z" transform="translate(-16.06 -110.01)"/><path id="Path_1384" data-name="Path 1384" class="cls-3" d="M451.28,396.81c.25,13.38.5,26.71.86,39.23s.86,24.2,1.22,34.22.89,18.34,1.14,24.2.57,9.19.57,9.19.11-3.32.29-9.19.39-14.19.43-24.24.21-21.7.18-34.25-.18-25.89-.32-39.27-.47-26.71-.86-39.22-.86-24.21-1.22-34.22-.89-18.34-1.14-24.21-.58-9.19-.58-9.19-.1,3.33-.28,9.19-.39,14.2-.43,24.25-.22,21.7-.18,34.25S451.1,383.44,451.28,396.81Z" transform="translate(-16.06 -110.01)"/><path id="Path_1385" data-name="Path 1385" class="cls-3" d="M354.6,470.25c.14,10,.46,18.38.6,24.21s.33,9.19.33,9.19.1-3.32.32-9.19.46-14.19.61-24.21.42-21.7.5-34.21.14-25.89.21-39.26-.14-26.71-.21-39.26-.36-24.21-.5-34.22-.47-18.38-.61-24.21-.32-9.19-.32-9.19-.11,3.32-.32,9.19-.47,14.19-.61,24.21-.47,21.7-.5,34.21-.15,25.89-.22,39.27.14,26.71.22,39.26S354.45,460.24,354.6,470.25Z" transform="translate(-16.06 -110.01)"/><path id="Path_1386" data-name="Path 1386" class="cls-3" d="M347.55,494.46c.18-5.83.47-14.19.79-24.21s.5-21.7.82-34.21.43-25.89.65-39.23.21-26.71.32-39.26,0-24.21,0-34.25-.14-18.38-.18-24.21-.1-9.19-.1-9.19-.11,3.32-.33,9.19-.57,14.19-.78,24.21-.5,21.7-.82,34.21-.43,25.89-.65,39.23-.21,26.71-.32,39.26,0,24.21,0,34.25.15,18.38.18,24.21.11,9.19.11,9.19S347.37,500.33,347.55,494.46Z" transform="translate(-16.06 -110.01)"/><path id="Path_1387" data-name="Path 1387" class="cls-3" d="M361,396.81c.25,13.38.5,26.71.86,39.23s.86,24.2,1.22,34.22.89,18.34,1.14,24.2.57,9.19.57,9.19.11-3.32.29-9.19.39-14.19.43-24.24.21-21.7.18-34.25-.18-25.89-.33-39.27-.46-26.71-.85-39.22-.86-24.21-1.22-34.22-.89-18.34-1.18-24.21-.57-9.19-.57-9.19-.11,3.33-.29,9.19-.39,14.2-.43,24.25-.21,21.7-.18,34.25S360.82,383.44,361,396.81Z" transform="translate(-16.06 -110.01)"/><path id="Path_1388" data-name="Path 1388" class="cls-3" d="M264.28,470.25c.14,10,.46,18.38.6,24.21s.33,9.19.33,9.19.1-3.32.32-9.19.46-14.19.61-24.21.42-21.7.5-34.21.14-25.89.21-39.26-.14-26.71-.21-39.26-.36-24.21-.5-34.22-.47-18.38-.61-24.21-.32-9.19-.32-9.19-.11,3.32-.33,9.19-.46,14.19-.6,24.21-.47,21.7-.5,34.21-.15,25.89-.22,39.27.14,26.71.22,39.26S264.13,460.24,264.28,470.25Z" transform="translate(-16.06 -110.01)"/><path id="Path_1389" data-name="Path 1389" class="cls-3" d="M257.27,494.46c.18-5.83.46-14.19.78-24.21s.51-21.7.83-34.21.43-25.89.64-39.23.22-26.71.32-39.26,0-24.21,0-34.25-.15-18.38-.18-24.21-.11-9.19-.11-9.19-.11,3.32-.32,9.19-.57,14.19-.79,24.21-.5,21.7-.82,34.21-.43,25.89-.64,39.23-.22,26.71-.32,39.26,0,24.21,0,34.25.14,18.38.18,24.21.11,9.19.11,9.19S257.05,500.33,257.27,494.46Z" transform="translate(-16.06 -110.01)"/><path id="Path_1390" data-name="Path 1390" class="cls-3" d="M270.68,396.81c.25,13.38.46,26.71.86,39.23s.85,24.2,1.21,34.21.89,18.35,1.15,24.21.57,9.19.57,9.19.1-3.32.28-9.19.4-14.19.43-24.24.22-21.7.18-34.26-.18-25.88-.32-39.26-.47-26.71-.86-39.22-.86-24.21-1.21-34.22-.9-18.34-1.15-24.21-.57-9.19-.57-9.19-.11,3.33-.29,9.19-.39,14.2-.43,24.25-.21,21.7-.17,34.25S270.5,383.44,270.68,396.81Z" transform="translate(-16.06 -110.01)"/><path id="Path_1391" data-name="Path 1391" class="cls-3" d="M175.24,494.46c.15-5.83.47-14.19.61-24.21s.43-21.7.5-34.21.15-25.89.22-39.26-.15-26.71-.22-39.26-.36-24.21-.5-34.22-.46-18.38-.61-24.21-.32-9.19-.32-9.19-.11,3.32-.32,9.19-.47,14.19-.61,24.21-.46,21.7-.5,34.22-.14,25.88-.22,39.26c.08,13.37.15,26.71.22,39.26s.36,24.2.5,34.21.47,18.38.61,24.21.32,9.19.32,9.19S175,500.33,175.24,494.46Z" transform="translate(-16.06 -110.01)"/><path id="Path_1392" data-name="Path 1392" class="cls-3" d="M169.34,289.9s-.1,3.32-.32,9.19-.57,14.19-.79,24.21-.5,21.7-.82,34.22-.43,25.88-.64,39.22-.22,26.71-.32,39.26,0,24.21,0,34.26.14,18.37.18,24.2.11,9.19.11,9.19.1-3.32.32-9.19.46-14.19.79-24.2.5-21.71.82-34.22.43-25.89.64-39.23.22-26.71.32-39.26,0-24.21,0-34.25-.14-18.38-.18-24.21S169.34,289.9,169.34,289.9Z" transform="translate(-16.06 -110.01)"/><path id="Path_1393" data-name="Path 1393" class="cls-3" d="M180.36,396.81c.25,13.38.46,26.71.85,39.23s.86,24.2,1.22,34.22.89,18.34,1.14,24.2.58,9.19.58,9.19.1-3.32.28-9.19.4-14.19.43-24.24.22-21.7.18-34.25-.18-25.89-.32-39.27-.47-26.71-.86-39.22-.86-24.21-1.22-34.22-.89-18.34-1.18-24.21-.57-9.19-.57-9.19-.1,3.33-.28,9.19-.4,14.2-.43,24.25S180,345,180,357.55,180.21,383.44,180.36,396.81Z" transform="translate(-16.06 -110.01)"/><path id="Path_1394" data-name="Path 1394" class="cls-3" d="M83.67,470.25c.14,10,.47,18.38.61,24.21s.32,9.19.32,9.19.11-3.32.32-9.19.47-14.19.61-24.21S86,448.55,86,436s.14-25.89.22-39.26c-.08-13.38-.15-26.71-.22-39.26s-.36-24.21-.5-34.22-.46-18.38-.61-24.21-.32-9.19-.32-9.19-.11,3.32-.32,9.19-.47,14.19-.61,24.21-.46,21.7-.5,34.21S83,383.4,83,396.78c.08,13.37.15,26.71.22,39.26S83.53,460.24,83.67,470.25Z" transform="translate(-16.06 -110.01)"/><path id="Path_1395" data-name="Path 1395" class="cls-3" d="M76.34,503.65s.11-3.32.32-9.19.47-14.19.79-24.21.5-21.7.82-34.21.43-25.89.65-39.23.21-26.71.32-39.26,0-24.21,0-34.26-.14-18.37-.18-24.2-.1-9.19-.1-9.19-.11,3.32-.32,9.19-.58,14.19-.79,24.2-.5,21.71-.82,34.22-.43,25.89-.65,39.23-.21,26.71-.32,39.26,0,24.21,0,34.25.14,18.38.17,24.21S76.34,503.65,76.34,503.65Z" transform="translate(-16.06 -110.01)"/><path id="Path_1396" data-name="Path 1396" class="cls-3" d="M90.07,396.81c.25,13.38.5,26.71.86,39.23s.86,24.2,1.22,34.22.89,18.34,1.14,24.2.57,9.19.57,9.19.11-3.32.29-9.19.39-14.19.43-24.24.21-21.7.18-34.25-.18-25.89-.33-39.27S94,370,93.58,357.48s-.86-24.21-1.22-34.22-.89-18.34-1.18-24.21-.57-9.19-.57-9.19-.11,3.33-.29,9.19-.39,14.2-.43,24.25-.21,21.7-.18,34.25S89.89,383.44,90.07,396.81Z" transform="translate(-16.06 -110.01)"/></g><rect id="Rectangle_75" data-name="Rectangle 75" class="cls-5" x="44.96" y="94.05" width="680.93" height="56.05"/></g></svg>