<svg id="Group_73" data-name="Group 73" xmlns="http://www.w3.org/2000/svg" xmlns:xlink="http://www.w3.org/1999/xlink" width="1282.956" height="729.765" viewBox="0 0 1282.956 729.765">
  <defs>
    <linearGradient id="linear-gradient" x1="0.5" y1="1" x2="0.5" gradientUnits="objectBoundingBox">
      <stop offset="0.028" stop-color="#ffc0b6"/>
      <stop offset="1" stop-color="#ffefd1"/>
    </linearGradient>
    <linearGradient id="linear-gradient-2" x1="0.499" y1="1.04" x2="0.503" y2="0.009" gradientUnits="objectBoundingBox">
      <stop offset="0" stop-color="#d8487f"/>
      <stop offset="1" stop-color="#ea9f95"/>
    </linearGradient>
    <linearGradient id="linear-gradient-4" x1="0.42" y1="1.001" x2="0.58" y2="-0.001" xlink:href="#linear-gradient-2"/>
    <linearGradient id="linear-gradient-5" x1="0.5" y1="1" x2="0.5" y2="-0.001" xlink:href="#linear-gradient"/>
    <linearGradient id="linear-gradient-6" x1="0.5" y1="1.001" x2="0.5" y2="0.001" xlink:href="#linear-gradient"/>
    <linearGradient id="linear-gradient-7" x1="0.5" y1="1" x2="0.5" y2="0" xlink:href="#linear-gradient"/>
    <linearGradient id="linear-gradient-8" x1="0.497" y1="1.012" x2="0.511" y2="-0.012" xlink:href="#linear-gradient-2"/>
    <linearGradient id="linear-gradient-9" x1="1" y1="0.5" x2="0" y2="0.5" gradientUnits="objectBoundingBox">
      <stop offset="0" stop-color="#d8487f"/>
      <stop offset="1" stop-color="#ea6360"/>
    </linearGradient>
    <linearGradient id="linear-gradient-10" x1="0.5" y1="1" x2="0.5" y2="0" xlink:href="#linear-gradient"/>
    <linearGradient id="linear-gradient-11" x1="0.492" y1="1.008" x2="0.511" y2="-0.008" xlink:href="#linear-gradient-2"/>
    <linearGradient id="linear-gradient-12" x1="0.5" y1="1" x2="0.5" y2="0" xlink:href="#linear-gradient"/>
    <linearGradient id="linear-gradient-13" x1="0.496" y1="1.019" x2="0.505" y2="-0.019" xlink:href="#linear-gradient-2"/>
    <radialGradient id="radial-gradient" cx="2.816" cy="0.575" r="2.291" gradientTransform="matrix(-3.634, 0, 0, 1.141, 13.048, -0.27)" gradientUnits="objectBoundingBox">
      <stop offset="0.006" stop-color="#33a7a6"/>
      <stop offset="1" stop-color="#18638b"/>
    </radialGradient>
    <radialGradient id="radial-gradient-2" cx="4.013" cy="0.598" r="2.284" gradientTransform="matrix(-3.659, 0, 0, 1.141, 18.699, -0.271)" xlink:href="#radial-gradient"/>
    <radialGradient id="radial-gradient-3" cx="5.295" cy="0.618" r="2.259" gradientTransform="matrix(-3.707, 0, 0, 1.141, 24.923, -0.272)" xlink:href="#radial-gradient"/>
    <radialGradient id="radial-gradient-4" cx="6.605" cy="0.645" r="2.246" gradientTransform="matrix(-3.735, 0, 0, 1.141, 31.275, -0.274)" xlink:href="#radial-gradient"/>
    <radialGradient id="radial-gradient-5" cx="7.948" cy="0.681" r="2.246" gradientTransform="matrix(-3.735, 0, 0, 1.141, 37.633, -0.279)" xlink:href="#radial-gradient"/>
    <radialGradient id="radial-gradient-6" cx="-3.17" cy="0.94" r="1.182" gradientTransform="matrix(-6.679, 0, 0, 1.141, -24.341, -0.304)" xlink:href="#radial-gradient"/>
    <radialGradient id="radial-gradient-7" cx="-4.371" cy="0.991" r="1.181" gradientTransform="matrix(-6.681, 0, 0, 1.141, -33.574, -0.311)" xlink:href="#radial-gradient"/>
    <radialGradient id="radial-gradient-8" cx="-5.654" cy="1.049" r="1.182" gradientTransform="matrix(-6.679, 0, 0, 1.141, -43.412, -0.319)" xlink:href="#radial-gradient"/>
    <radialGradient id="radial-gradient-9" cx="-6.978" cy="1.109" r="1.182" gradientTransform="matrix(-6.679, 0, 0, 1.141, -53.58, -0.328)" xlink:href="#radial-gradient"/>
    <radialGradient id="radial-gradient-10" cx="-8.302" cy="1.161" r="1.182" gradientTransform="matrix(-6.679, 0, 0, 1.141, -63.748, -0.335)" xlink:href="#radial-gradient"/>
    <linearGradient id="linear-gradient-15" x1="0.497" y1="1.002" x2="0.591" y2="-0.001" xlink:href="#linear-gradient-2"/>
    <radialGradient id="radial-gradient-11" cx="1.033" cy="0.115" r="0.47" gradientTransform="matrix(-5.02, 0, 0, 1.141, 6.215, -0.032)" gradientUnits="objectBoundingBox">
      <stop offset="0" stop-color="#e5feae"/>
      <stop offset="1" stop-color="#1888a9"/>
    </radialGradient>
    <radialGradient id="radial-gradient-12" cx="0.802" cy="0.331" r="0.337" gradientTransform="matrix(-7.219, 0, 0, 1.141, 6.593, -0.059)" xlink:href="#radial-gradient"/>
    <linearGradient id="linear-gradient-16" x1="1" y1="0.5" x2="0" y2="0.5" gradientUnits="objectBoundingBox">
      <stop offset="0" stop-color="#ffc"/>
      <stop offset="1" stop-color="#aed4b3"/>
    </linearGradient>
    <linearGradient id="linear-gradient-17" x1="0.5" y1="1" x2="0.5" gradientUnits="objectBoundingBox">
      <stop offset="0" stop-color="#84a4cc"/>
      <stop offset="1" stop-color="#ffeae7"/>
    </linearGradient>
    <linearGradient id="linear-gradient-18" x1="0.5" y1="1" x2="0.5" y2="0" xlink:href="#linear-gradient-17"/>
    <linearGradient id="linear-gradient-19" x1="0.857" y1="0.579" x2="0.857" y2="-0.431" gradientUnits="objectBoundingBox">
      <stop offset="0.028" stop-color="#dd897c"/>
      <stop offset="1" stop-color="#ffefd1"/>
    </linearGradient>
    <linearGradient id="linear-gradient-20" x1="0.5" y1="1" x2="0.5" y2="0" xlink:href="#linear-gradient-9"/>
    <linearGradient id="linear-gradient-21" x1="1" y1="0.5" x2="0" y2="0.5" gradientUnits="objectBoundingBox">
      <stop offset="0" stop-color="#ffba72"/>
      <stop offset="0.972" stop-color="#ff8672"/>
    </linearGradient>
    <linearGradient id="linear-gradient-22" x1="0.5" y1="1" x2="0.5" y2="0" xlink:href="#linear-gradient-9"/>
    <linearGradient id="linear-gradient-23" x1="0.5" y1="1" x2="0.5" gradientUnits="objectBoundingBox">
      <stop offset="0.028" stop-color="#ff8672"/>
      <stop offset="1" stop-color="#ffba72"/>
    </linearGradient>
    <linearGradient id="linear-gradient-24" x1="0.5" y1="1" x2="0.5" y2="0" xlink:href="#linear-gradient-9"/>
    <linearGradient id="linear-gradient-25" x1="0.743" y1="0.296" x2="0.743" y2="-0.726" xlink:href="#linear-gradient-23"/>
    <linearGradient id="linear-gradient-26" x1="0.743" y1="0.302" x2="0.743" y2="-0.722" xlink:href="#linear-gradient-9"/>
    <linearGradient id="linear-gradient-27" x1="0.5" y1="1" x2="0.5" y2="0" xlink:href="#linear-gradient-19"/>
    <linearGradient id="linear-gradient-28" x1="0.5" y1="1" x2="0.5" y2="0" xlink:href="#linear-gradient-23"/>
    <linearGradient id="linear-gradient-29" x1="0.5" y1="1" x2="0.5" y2="0" xlink:href="#linear-gradient-9"/>
    <linearGradient id="linear-gradient-30" x1="0.5" y1="1" x2="0.5" y2="0" xlink:href="#linear-gradient-9"/>
    <linearGradient id="linear-gradient-31" x1="1" y1="0.5" x2="0" y2="0.5" xlink:href="#linear-gradient-21"/>
    <linearGradient id="linear-gradient-32" x1="0.5" y1="1" x2="0.5" y2="0" xlink:href="#linear-gradient"/>
    <linearGradient id="linear-gradient-33" x1="-11.438" y1="1" x2="-11.438" y2="0" xlink:href="#linear-gradient"/>
    <linearGradient id="linear-gradient-34" x1="0.5" y1="1" x2="0.5" y2="0" xlink:href="#linear-gradient-23"/>
    <linearGradient id="linear-gradient-35" x1="0.5" y1="1" x2="0.5" y2="0" xlink:href="#linear-gradient-9"/>
    <linearGradient id="linear-gradient-36" x1="0.5" y1="1" x2="0.5" gradientUnits="objectBoundingBox">
      <stop offset="0.028" stop-color="#ff8672"/>
      <stop offset="1" stop-color="#ff906d"/>
    </linearGradient>
    <linearGradient id="linear-gradient-37" x1="0.5" y1="1" x2="0.5" gradientUnits="objectBoundingBox">
      <stop offset="0.028" stop-color="#ff8672"/>
      <stop offset="1" stop-color="#ff9a6b"/>
    </linearGradient>
    <linearGradient id="linear-gradient-38" x1="1" y1="0.5" x2="0" y2="0.5" xlink:href="#linear-gradient-9"/>
    <linearGradient id="linear-gradient-39" x1="0.5" y1="1" x2="0.5" y2="0" xlink:href="#linear-gradient-23"/>
    <linearGradient id="linear-gradient-40" x1="0.5" y1="1" x2="0.5" gradientUnits="objectBoundingBox">
      <stop offset="0" stop-color="#edacb3"/>
      <stop offset="1" stop-color="#ffeae7"/>
    </linearGradient>
    <linearGradient id="linear-gradient-41" x1="0.5" y1="1" x2="0.5" y2="0" xlink:href="#linear-gradient-9"/>
    <linearGradient id="linear-gradient-43" x1="0.5" y1="1" x2="0.5" gradientUnits="objectBoundingBox">
      <stop offset="0" stop-color="#ea6360"/>
      <stop offset="1" stop-color="#e56881"/>
    </linearGradient>
    <linearGradient id="linear-gradient-44" x1="1" y1="0.5" x2="0" y2="0.5" xlink:href="#linear-gradient-21"/>
    <linearGradient id="linear-gradient-45" x1="0.5" y1="1" x2="0.5" gradientUnits="objectBoundingBox">
      <stop offset="0" stop-color="#eaa295"/>
      <stop offset="1" stop-color="#e56881"/>
    </linearGradient>
    <linearGradient id="linear-gradient-46" x1="0.5" y1="1" x2="0.5" y2="0" xlink:href="#linear-gradient-23"/>
    <linearGradient id="linear-gradient-47" x1="0.5" y1="1" x2="0.5" y2="0" xlink:href="#linear-gradient-23"/>
    <linearGradient id="linear-gradient-48" x1="0.5" y1="1" x2="0.5" y2="0" xlink:href="#linear-gradient-23"/>
    <linearGradient id="linear-gradient-49" x1="0.5" y1="1" x2="0.5" y2="0" xlink:href="#linear-gradient-23"/>
    <linearGradient id="linear-gradient-50" x1="1.001" y1="0.5" x2="0.001" y2="0.5" xlink:href="#linear-gradient-43"/>
    <linearGradient id="linear-gradient-51" x1="0.5" y1="1" x2="0.5" y2="0" xlink:href="#linear-gradient-43"/>
    <linearGradient id="linear-gradient-52" x1="1" y1="0.5" x2="0" y2="0.5" xlink:href="#linear-gradient-21"/>
    <linearGradient id="linear-gradient-53" x1="0.5" y1="1" x2="0.5" gradientUnits="objectBoundingBox">
      <stop offset="0" stop-color="#ffeae7"/>
      <stop offset="1" stop-color="#edacb3"/>
    </linearGradient>
    <linearGradient id="linear-gradient-54" x1="0.5" y1="1" x2="0.5" y2="0" xlink:href="#linear-gradient-53"/>
    <linearGradient id="linear-gradient-55" x1="1" y1="0.5" x2="0" y2="0.5" gradientUnits="objectBoundingBox">
      <stop offset="0" stop-color="#ffab72"/>
      <stop offset="0.972" stop-color="#ff6066"/>
    </linearGradient>
    <linearGradient id="linear-gradient-56" x1="0.5" y1="1" x2="0.5" y2="0" xlink:href="#linear-gradient-9"/>
    <linearGradient id="linear-gradient-57" x1="0.5" y1="1" x2="0.5" y2="0" xlink:href="#linear-gradient-23"/>
    <linearGradient id="linear-gradient-58" x1="0.5" y1="1" x2="0.5" y2="0" xlink:href="#linear-gradient-9"/>
    <linearGradient id="linear-gradient-59" x1="0.5" y1="1" x2="0.5" y2="0" xlink:href="#linear-gradient-9"/>
    <linearGradient id="linear-gradient-60" x1="0.5" y1="1" x2="0.5" y2="0" xlink:href="#linear-gradient-23"/>
    <linearGradient id="linear-gradient-61" x1="0.5" y1="1" x2="0.5" y2="0" xlink:href="#linear-gradient-9"/>
    <linearGradient id="linear-gradient-62" x1="0.499" y1="1" x2="0.499" y2="0" xlink:href="#linear-gradient-45"/>
    <linearGradient id="linear-gradient-63" x1="0.498" y1="1" x2="0.498" y2="-0.001" xlink:href="#linear-gradient-45"/>
    <linearGradient id="linear-gradient-64" x1="0.5" y1="1" x2="0.5" y2="0" xlink:href="#linear-gradient-37"/>
    <linearGradient id="linear-gradient-67" x1="0.501" y1="1" x2="0.501" y2="0" xlink:href="#linear-gradient-9"/>
    <linearGradient id="linear-gradient-68" x1="0.5" y1="1" x2="0.5" y2="0" xlink:href="#linear-gradient-9"/>
    <linearGradient id="linear-gradient-69" x1="1" y1="0.5" x2="0" y2="0.5" xlink:href="#linear-gradient-9"/>
    <linearGradient id="linear-gradient-70" x1="0.5" y1="1" x2="0.5" y2="0" xlink:href="#linear-gradient-9"/>
    <linearGradient id="linear-gradient-71" x1="0.999" y1="0.5" x2="-0.001" y2="0.5" xlink:href="#linear-gradient-40"/>
    <linearGradient id="linear-gradient-72" x1="1" y1="0.5" x2="0" y2="0.5" xlink:href="#linear-gradient-40"/>
    <linearGradient id="linear-gradient-73" x1="0.999" y1="0.5" x2="-0.001" y2="0.5" xlink:href="#linear-gradient-40"/>
    <linearGradient id="linear-gradient-74" x1="1.001" y1="0.5" x2="0.001" y2="0.5" xlink:href="#linear-gradient-40"/>
    <linearGradient id="linear-gradient-75" x1="1.001" y1="0.5" x2="-0.001" y2="0.5" xlink:href="#linear-gradient-40"/>
    <linearGradient id="linear-gradient-76" x1="0.5" y1="1" x2="0.5" y2="0" xlink:href="#linear-gradient-40"/>
    <linearGradient id="linear-gradient-77" x1="0.5" y1="1" x2="0.5" y2="0" xlink:href="#linear-gradient-53"/>
    <linearGradient id="linear-gradient-78" x1="0.5" y1="1" x2="0.5" y2="0" xlink:href="#linear-gradient-40"/>
    <linearGradient id="linear-gradient-80" x1="0.5" y1="1" x2="0.5" y2="0" xlink:href="#linear-gradient"/>
    <linearGradient id="linear-gradient-81" x1="-25.228" y1="1" x2="-25.228" y2="0" xlink:href="#linear-gradient"/>
    <linearGradient id="linear-gradient-82" x1="0.5" y1="1" x2="0.5" y2="0" xlink:href="#linear-gradient-45"/>
    <linearGradient id="linear-gradient-83" x1="0.499" y1="1" x2="0.499" y2="0" xlink:href="#linear-gradient-45"/>
    <linearGradient id="linear-gradient-84" x1="0.501" y1="1" x2="0.501" y2="0" xlink:href="#linear-gradient-45"/>
    <linearGradient id="linear-gradient-85" x1="0.499" y1="1" x2="0.499" y2="0" xlink:href="#linear-gradient-45"/>
    <linearGradient id="linear-gradient-86" x1="0.501" y1="1" x2="0.501" y2="0" xlink:href="#linear-gradient-45"/>
    <linearGradient id="linear-gradient-87" x1="0.5" y1="1.001" x2="0.5" y2="0" xlink:href="#linear-gradient-45"/>
    <linearGradient id="linear-gradient-88" x1="0.5" y1="1" x2="0.5" y2="0" xlink:href="#linear-gradient-45"/>
    <linearGradient id="linear-gradient-89" x1="0.5" y1="1" x2="0.5" y2="0" xlink:href="#linear-gradient-40"/>
    <linearGradient id="linear-gradient-90" x1="0.5" y1="1" x2="0.5" y2="0" xlink:href="#linear-gradient"/>
    <linearGradient id="linear-gradient-91" x1="0.5" y1="1" x2="0.5" y2="0" xlink:href="#linear-gradient-37"/>
    <linearGradient id="linear-gradient-92" x1="0.5" y1="1" x2="0.5" y2="0" xlink:href="#linear-gradient-9"/>
    <linearGradient id="linear-gradient-93" x1="-0.071" y1="0.98" x2="1.071" y2="0.02" xlink:href="#linear-gradient-9"/>
    <linearGradient id="linear-gradient-94" x1="0.5" y1="1" x2="0.5" y2="0" xlink:href="#linear-gradient-23"/>
    <linearGradient id="linear-gradient-95" x1="0.5" y1="1" x2="0.5" y2="0" xlink:href="#linear-gradient-9"/>
    <linearGradient id="linear-gradient-96" x1="0.5" y1="1" x2="0.5" y2="0" xlink:href="#linear-gradient-23"/>
    <linearGradient id="linear-gradient-97" x1="0.5" y1="1" x2="0.5" y2="0" xlink:href="#linear-gradient-9"/>
    <linearGradient id="linear-gradient-98" x1="0.028" y1="1" x2="1.037" y2="0.012" xlink:href="#linear-gradient-9"/>
    <linearGradient id="linear-gradient-99" x1="-0.115" y1="0.969" x2="1.117" y2="0.03" xlink:href="#linear-gradient-9"/>
    <linearGradient id="linear-gradient-100" x1="-0.115" y1="0.969" x2="1.117" y2="0.03" xlink:href="#linear-gradient-9"/>
    <linearGradient id="linear-gradient-101" x1="1.001" y1="0.499" x2="0" y2="0.499" xlink:href="#linear-gradient-9"/>
    <linearGradient id="linear-gradient-102" x1="1.002" y1="0.499" x2="0.001" y2="0.499" xlink:href="#linear-gradient-9"/>
    <linearGradient id="linear-gradient-103" x1="1" y1="0.5" x2="0" y2="0.5" xlink:href="#linear-gradient-21"/>
    <linearGradient id="linear-gradient-104" x1="1" y1="0.5" x2="0" y2="0.5" xlink:href="#linear-gradient-9"/>
    <linearGradient id="linear-gradient-105" x1="1" y1="0.5" x2="0" y2="0.5" xlink:href="#linear-gradient-21"/>
    <linearGradient id="linear-gradient-106" x1="0.5" y1="1" x2="0.5" y2="0" xlink:href="#linear-gradient"/>
    <linearGradient id="linear-gradient-107" x1="1" y1="0.5" x2="0" y2="0.5" xlink:href="#linear-gradient-9"/>
    <linearGradient id="linear-gradient-108" x1="0.5" y1="1" x2="0.5" y2="0" xlink:href="#linear-gradient-2"/>
    <linearGradient id="linear-gradient-109" x1="1" y1="0.5" x2="0" y2="0.5" xlink:href="#linear-gradient-2"/>
    <linearGradient id="linear-gradient-110" x1="0.5" y1="1" x2="0.5" y2="0" xlink:href="#linear-gradient-2"/>
    <linearGradient id="linear-gradient-111" x1="0.5" y1="1" x2="0.5" y2="0" xlink:href="#linear-gradient"/>
    <linearGradient id="linear-gradient-112" x1="1" y1="0.501" x2="0" y2="0.501" gradientUnits="objectBoundingBox">
      <stop offset="0" stop-color="#ffefd1"/>
      <stop offset="0.972" stop-color="#ffc0b6"/>
    </linearGradient>
    <linearGradient id="linear-gradient-113" x1="0.5" y1="1" x2="0.5" gradientUnits="objectBoundingBox">
      <stop offset="0.028" stop-color="#ff9d98"/>
      <stop offset="1" stop-color="#ffefd1"/>
    </linearGradient>
    <radialGradient id="radial-gradient-13" cx="0.5" cy="0.5" r="1.485" gradientTransform="matrix(-0.245, 0, 0, 1, 0.623, 0)" xlink:href="#radial-gradient"/>
    <radialGradient id="radial-gradient-14" cx="0.5" cy="0.5" r="1.698" gradientTransform="matrix(-0.213, 0, 0, 1, 0.606, 0)" xlink:href="#radial-gradient"/>
    <linearGradient id="linear-gradient-114" x1="1" y1="0.5" x2="0" y2="0.5" gradientUnits="objectBoundingBox">
      <stop offset="0" stop-color="#ffffbd"/>
      <stop offset="0.177" stop-color="#c7d3c1"/>
      <stop offset="0.324" stop-color="#9fb3c3"/>
      <stop offset="0.399" stop-color="#90a7c4"/>
      <stop offset="0.527" stop-color="#9daec4"/>
      <stop offset="0.821" stop-color="#b6bbc4"/>
      <stop offset="1" stop-color="#bfc0c4"/>
    </linearGradient>
    <linearGradient id="linear-gradient-115" x1="1" y1="0.5" x2="0" y2="0.5" xlink:href="#linear-gradient-114"/>
    <linearGradient id="linear-gradient-116" x1="0.5" y1="1" x2="0.5" y2="0" xlink:href="#linear-gradient"/>
    <linearGradient id="linear-gradient-117" x1="1.915" y1="0.265" x2="-0.924" y2="0.744" xlink:href="#linear-gradient-112"/>
  </defs>
  <g id="Group_19" data-name="Group 19" transform="translate(359.942 37.168)">
    <path id="Path_1" data-name="Path 1" d="M466.2,185.277,453.322,146.9h-5.6L436.533,16.25H431.57l-3.957,131.013h-5.947L410.39,189.188Z" transform="translate(-360.62 -16.25)" fill-rule="evenodd" fill="url(#linear-gradient)"/>
    <path id="Path_2" data-name="Path 2" d="M438.585,16.25s-1.487,123.053,0,125.043,16.125,5.581,16.125,5.581H437.922l-6.038,38.38-13.4,1.349,10.178-39.363h5.947Z" transform="translate(-367.635 -16.25)" fill="#e4c2dd" fill-rule="evenodd"/>
    <path id="Path_3" data-name="Path 3" d="M524.057,114.291v-8.806l-15.988-3.2V97.251L445.536,87.21l-39.2,8.531v5.009l-13.4,4.735v10.5Z" transform="translate(-378.543 75.092)" fill-rule="evenodd" fill="url(#linear-gradient-2)"/>
    <path id="Path_4" data-name="Path 4" d="M500.5,563.749,489.067,104.816,383.74,94.34l3.179,465.91Z" transform="translate(-333.97 84.27)" fill-rule="evenodd" fill="url(#linear-gradient)"/>
    <path id="Path_5" data-name="Path 5" d="M483.17,94.34l-49.77,6.724v466.23l52.949-7.045Z" transform="translate(-433.4 84.27)" fill-rule="evenodd" fill="url(#linear-gradient-4)"/>
    <path id="Path_6" data-name="Path 6" d="M487.576,100.941,392.93,90.74v8.234l94.646,9.515Z" transform="translate(-342.062 79.636)" fill-rule="evenodd" fill="url(#linear-gradient-5)"/>
    <path id="Path_7" data-name="Path 7" d="M465.175,97.251v5.032L399.92,93.935l2.722-6.725Z" transform="translate(-335.649 75.092)" fill-rule="evenodd" fill="url(#linear-gradient-6)"/>
    <path id="Path_8" data-name="Path 8" d="M389.33,552.05l89.477,3.522-8.76-447.429-78.361-7.433Z" transform="translate(-325.059 92.47)" fill="#ffbbb4" fill-rule="evenodd"/>
    <g id="Group_1" data-name="Group 1" transform="translate(66.308 243.991)">
      <rect id="Rectangle_3" data-name="Rectangle 3" width="79.89" height="1.967" transform="matrix(-0.997, -0.082, 0.082, -0.997, 79.621, 8.504)" fill="#ffe0d1"/>
    </g>
    <g id="Group_2" data-name="Group 2" transform="translate(66.155 275.809)">
      <rect id="Rectangle_4" data-name="Rectangle 4" width="80.004" height="1.967" transform="translate(79.791 7.786) rotate(-175.825)" fill="#ffe0d1"/>
    </g>
    <g id="Group_3" data-name="Group 3" transform="translate(65.964 304.251)">
      <rect id="Rectangle_5" data-name="Rectangle 5" width="81.358" height="1.967" transform="matrix(-0.997, -0.076, 0.076, -0.997, 81.121, 8.161)" fill="#ffe0d1"/>
    </g>
    <g id="Group_4" data-name="Group 4" transform="translate(66.092 332.966)">
      <rect id="Rectangle_6" data-name="Rectangle 6" width="81.063" height="1.967" transform="translate(80.97 5.839) rotate(-177.26)" fill="#ffe0d1"/>
    </g>
    <g id="Group_5" data-name="Group 5" transform="translate(66.089 361.278)">
      <rect id="Rectangle_7" data-name="Rectangle 7" width="81.063" height="1.967" transform="translate(80.97 5.839) rotate(-177.26)" fill="#ffe0d1"/>
    </g>
    <g id="Group_6" data-name="Group 6" transform="translate(66.089 389.595)">
      <rect id="Rectangle_8" data-name="Rectangle 8" width="81.063" height="1.967" transform="translate(80.97 5.839) rotate(-177.26)" fill="#ffe0d1"/>
    </g>
    <g id="Group_7" data-name="Group 7" transform="translate(66.089 417.94)">
      <rect id="Rectangle_9" data-name="Rectangle 9" width="81.063" height="1.967" transform="translate(80.97 5.839) rotate(-177.26)" fill="#ffe0d1"/>
    </g>
    <g id="Group_8" data-name="Group 8" transform="translate(66.067 446.26)">
      <rect id="Rectangle_10" data-name="Rectangle 10" width="83.808" height="1.967" transform="translate(83.712 5.971) rotate(-177.26)" fill="#ffe0d1"/>
    </g>
    <g id="Group_9" data-name="Group 9" transform="translate(66.089 474.587)">
      <rect id="Rectangle_11" data-name="Rectangle 11" width="84.357" height="1.967" transform="translate(84.26 5.997) rotate(-177.26)" fill="#ffe0d1"/>
    </g>
    <g id="Group_10" data-name="Group 10" transform="translate(66.085 502.909)">
      <rect id="Rectangle_12" data-name="Rectangle 12" width="84.906" height="1.967" transform="translate(84.809 6.023) rotate(-177.26)" fill="#ffe0d1"/>
    </g>
    <g id="Group_11" data-name="Group 11" transform="translate(66.141 531.303)">
      <rect id="Rectangle_13" data-name="Rectangle 13" width="85.428" height="1.784" transform="translate(85.36 5.2) rotate(-177.708)" fill="#ffe0d1"/>
    </g>
    <g id="Group_12" data-name="Group 12" transform="translate(66.086 559.559)">
      <rect id="Rectangle_14" data-name="Rectangle 14" width="85.455" height="1.967" transform="translate(85.357 6.049) rotate(-177.26)" fill="#ffe0d1"/>
    </g>
    <g id="Group_13" data-name="Group 13" transform="translate(66.086 587.876)">
      <rect id="Rectangle_15" data-name="Rectangle 15" width="85.455" height="1.967" transform="translate(85.357 6.049) rotate(-177.26)" fill="#ffe0d1"/>
    </g>
    <g id="Group_14" data-name="Group 14" transform="translate(66.086 616.199)">
      <rect id="Rectangle_16" data-name="Rectangle 16" width="87.125" height="1.967" transform="translate(87.025 6.129) rotate(-177.26)" fill="#ffe0d1"/>
    </g>
    <g id="Group_15" data-name="Group 15" transform="translate(66.07 217.001)">
      <rect id="Rectangle_17" data-name="Rectangle 17" width="79.118" height="1.967" transform="matrix(-0.996, -0.089, 0.089, -0.996, 78.807, 8.969)" fill="#ffe0d1"/>
    </g>
    <g id="Group_16" data-name="Group 16" transform="translate(128.572 199.131)">
      <rect id="Rectangle_18" data-name="Rectangle 18" width="445.74" height="1.967" transform="matrix(-0.02, -1, 1, -0.02, 9.093, 445.687)" fill="#ffe0d1"/>
    </g>
    <g id="Group_17" data-name="Group 17" transform="translate(105.781 197.012)">
      <rect id="Rectangle_19" data-name="Rectangle 19" width="451.119" height="1.967" transform="translate(8.211 451.08) rotate(-91.043)" fill="#ffe0d1"/>
    </g>
    <g id="Group_18" data-name="Group 18" transform="translate(86.982 195.12)">
      <rect id="Rectangle_20" data-name="Rectangle 20" width="452.891" height="1.967" transform="translate(4.117 452.891) rotate(-90.521)" fill="#ffe0d1"/>
    </g>
  </g>
  <g id="Group_68" data-name="Group 68" transform="translate(0 52.986)">
    <path id="Path_42" data-name="Path 42" d="M626.98,73.94l-8.417-26.532L523.3,27.12V58.547Z" transform="translate(-419.711 -27.12)" fill-rule="evenodd" fill="url(#linear-gradient-7)"/>
    <path id="Path_43" data-name="Path 43" d="M642.965,27.12,575.4,54.475l-6.77,27.332,74.335-23.261Z" transform="translate(-539.376 -27.12)" fill-rule="evenodd" fill="url(#linear-gradient-8)"/>
    <path id="Path_44" data-name="Path 44" d="M753.392,65.138,636.72,92.813,505.57,77.832,600.193,45.01Z" transform="translate(-505.57 -4.091)" fill-rule="evenodd" fill="url(#linear-gradient-9)"/>
    <path id="Path_45" data-name="Path 45" d="M685.47,119.316l-3.133-56.358L577.764,52.46,526.53,70.278l-3.66,49.038Z" transform="translate(-477.217 5.499)" fill-rule="evenodd" fill="url(#linear-gradient-10)"/>
    <path id="Path_46" data-name="Path 46" d="M633.651,52.46l.595,60.131L569.7,120.414v-49.5Z" transform="translate(-533.104 5.499)" fill-rule="evenodd" fill="url(#linear-gradient-11)"/>
    <path id="Path_47" data-name="Path 47" d="M658.769,71.741l-1.052-8.76L505.57,39.88V51.614Z" transform="translate(-410.947 -10.695)" fill-rule="evenodd" fill="url(#linear-gradient-12)"/>
    <path id="Path_48" data-name="Path 48" d="M667.173,39.88,572.55,76.8v7.639l94.623-32.822Z" transform="translate(-572.55 -10.695)" fill-rule="evenodd" fill="url(#linear-gradient-13)"/>
    <path id="Path_49" data-name="Path 49" d="M541.505,109.25l-1.464-51.783L526.89,56.14l1.487,52.721Z" transform="translate(-342.447 10.236)" fill-rule="evenodd" fill="url(#radial-gradient)"/>
    <path id="Path_50" data-name="Path 50" d="M549.228,108.937l-1.487-52.652L534.59,55.37l1.487,53.178Z" transform="translate(-367.782 9.244)" fill-rule="evenodd" fill="url(#radial-gradient-2)"/>
    <path id="Path_51" data-name="Path 51" d="M557.491,108.885l-1.509-53.018L542.83,54.54l1.509,53.956Z" transform="translate(-394.891 8.176)" fill-rule="evenodd" fill="url(#radial-gradient-3)"/>
    <path id="Path_52" data-name="Path 52" d="M565.881,108.456l-1.51-53.43L551.22,53.7l1.51,54.345Z" transform="translate(-422.471 7.095)" fill-rule="evenodd" fill="url(#radial-gradient-4)"/>
    <path id="Path_53" data-name="Path 53" d="M574.5,107.6l-1.51-53.453-13.152-1.3,1.51,54.345Z" transform="translate(-450.807 5.988)" fill-rule="evenodd" fill="url(#radial-gradient-5)"/>
    <path id="Path_54" data-name="Path 54" d="M591.64,114.3l.869-53.407,7.456-2.2-.869,55.214Z" transform="translate(-549.006 13.531)" fill-rule="evenodd" fill="url(#radial-gradient-6)"/>
    <path id="Path_55" data-name="Path 55" d="M587.27,113.076l.846-53.453L595.6,57.45l-.892,55.214Z" transform="translate(-534.641 11.922)" fill-rule="evenodd" fill="url(#radial-gradient-7)"/>
    <path id="Path_56" data-name="Path 56" d="M582.6,111.653l.846-53.293,7.479-2.31-.892,55.214Z" transform="translate(-519.289 10.12)" fill-rule="evenodd" fill="url(#radial-gradient-8)"/>
    <path id="Path_57" data-name="Path 57" d="M577.78,110.2l.846-53.178,7.479-2.424-.892,55.214Z" transform="translate(-503.445 8.253)" fill-rule="evenodd" fill="url(#radial-gradient-9)"/>
    <path id="Path_58" data-name="Path 58" d="M572.96,108.923l.846-53.636,7.479-1.967-.892,55.214Z" transform="translate(-487.6 6.606)" fill-rule="evenodd" fill="url(#radial-gradient-10)"/>
    <path id="Path_59" data-name="Path 59" d="M653.531,628.549,642.873,85.033l-137.3-8.3,6.107,551.819Z" transform="translate(-405.709 45.784)" fill-rule="evenodd" fill="url(#linear-gradient)"/>
    <path id="Path_60" data-name="Path 60" d="M665.872,76.73,576.556,90,567.59,628.549H671.98Z" transform="translate(-566.012 45.784)" fill-rule="evenodd" fill="url(#linear-gradient-15)"/>
    <path id="Path_61" data-name="Path 61" d="M621.334,621.546,613.6,87.911,513.88,82.17l5.6,538.027Z" transform="translate(-392.519 52.786)" fill-rule="evenodd" fill="url(#radial-gradient-11)"/>
    <path id="Path_62" data-name="Path 62" d="M648.2,619.759,650.737,82.51,589.942,91.5,576.31,619.759Z" transform="translate(-564.714 53.224)" fill-rule="evenodd" fill="url(#radial-gradient-12)"/>
    <path id="Path_63" data-name="Path 63" d="M693.073,72.908,588.546,76.956,524,88.461V70.918L587.951,52.46l104.572,10.5Z" transform="translate(-487.404 5.499)" fill="#dcb0d3" fill-rule="evenodd"/>
    <g id="Group_45" data-name="Group 45" transform="translate(121.658 136.824)">
      <g id="Group_24" data-name="Group 24" transform="translate(86.35 2.957)">
        <rect id="Rectangle_21" data-name="Rectangle 21" width="534.445" height="1.098" transform="matrix(-0.012, -1, 1, -0.012, 6.52, 534.418)" fill="#ffdbab"/>
      </g>
      <g id="Group_25" data-name="Group 25" transform="translate(69.913 2.214)">
        <rect id="Rectangle_22" data-name="Rectangle 22" width="534.971" height="1.098" transform="matrix(-0.012, -1, 1, -0.012, 6.527, 534.944)" fill="#ffdbab"/>
      </g>
      <g id="Group_26" data-name="Group 26" transform="translate(55.796 2.125)">
        <rect id="Rectangle_23" data-name="Rectangle 23" width="535.368" height="1.098" transform="translate(4.379 535.359) rotate(-90.469)" fill="#ffdbab"/>
      </g>
      <g id="Group_27" data-name="Group 27" transform="translate(36.891 0.236)">
        <rect id="Rectangle_24" data-name="Rectangle 24" width="536.855" height="1.098" transform="translate(4.391 536.846) rotate(-90.469)" fill="#ffdbab"/>
      </g>
      <g id="Group_28" data-name="Group 28" transform="translate(17.501)">
        <rect id="Rectangle_25" data-name="Rectangle 25" width="537.084" height="1.098" transform="translate(4.393 537.075) rotate(-90.469)" fill="#ffdbab"/>
      </g>
      <g id="Group_29" data-name="Group 29" transform="translate(0 28.209)">
        <path id="Path_64" data-name="Path 64" d="M616.888,102.41l.069-1.1L517.118,95.32l-.068,1.1Z" transform="translate(-517.05 -95.32)" fill="#ffdbab"/>
      </g>
      <g id="Group_30" data-name="Group 30" transform="translate(0 59.613)">
        <path id="Path_65" data-name="Path 65" d="M617.66,116.186l.068-1.075-101.21-6.061-.068,1.075Z" transform="translate(-516.45 -109.05)" fill="#ffdbab"/>
      </g>
      <g id="Group_31" data-name="Group 31" transform="translate(0 90.994)">
        <path id="Path_66" data-name="Path 66" d="M618.175,129.975l.069-1.075-102.125-6.13-.069,1.075Z" transform="translate(-516.05 -122.77)" fill="#ffdbab"/>
      </g>
      <g id="Group_32" data-name="Group 32" transform="translate(0 122.375)">
        <path id="Path_67" data-name="Path 67" d="M617.66,143.649l.068-1.075-101.21-6.084-.068,1.1Z" transform="translate(-516.45 -136.49)" fill="#ffdbab"/>
      </g>
      <g id="Group_33" data-name="Group 33" transform="translate(0 153.778)">
        <path id="Path_68" data-name="Path 68" d="M618.175,157.425l.069-1.1L516.119,150.22l-.069,1.075Z" transform="translate(-516.05 -150.22)" fill="#ffdbab"/>
      </g>
      <g id="Group_34" data-name="Group 34" transform="translate(0 185.159)">
        <path id="Path_69" data-name="Path 69" d="M618.175,171.145l.069-1.075-102.125-6.13-.069,1.075Z" transform="translate(-516.05 -163.94)" fill="#ffdbab"/>
      </g>
      <g id="Group_35" data-name="Group 35" transform="translate(1.944 216.655)">
        <path id="Path_70" data-name="Path 70" d="M616.488,184.823l.069-1.075L515.919,177.71l-.069,1.1Z" transform="translate(-515.85 -177.71)" fill="#ffdbab"/>
      </g>
      <g id="Group_36" data-name="Group 36" transform="translate(2.287 248.058)">
        <path id="Path_71" data-name="Path 71" d="M616.39,198.576l.068-1.075-100.73-6.061-.069,1.1Z" transform="translate(-515.66 -191.44)" fill="#ffdbab"/>
      </g>
      <g id="Group_37" data-name="Group 37" transform="translate(2.607 279.439)">
        <path id="Path_72" data-name="Path 72" d="M616.337,210.947l.046-1.075L515.539,205.16l-.069,1.1Z" transform="translate(-515.47 -205.16)" fill="#ffdbab"/>
      </g>
      <g id="Group_38" data-name="Group 38" transform="translate(2.971 310.689)">
        <rect id="Rectangle_26" data-name="Rectangle 26" width="101.528" height="1.098" transform="translate(101.459 4.844) rotate(-177.885)" fill="#ffdbab"/>
      </g>
      <g id="Group_39" data-name="Group 39" transform="translate(3.271 342.292)">
        <path id="Path_73" data-name="Path 73" d="M616.179,239.8l.069-1.1L515.106,232.64l-.046,1.075Z" transform="translate(-515.06 -232.64)" fill="#ffdbab"/>
      </g>
      <g id="Group_40" data-name="Group 40" transform="translate(4.391 373.742)">
        <path id="Path_74" data-name="Path 74" d="M615.316,253.5l.069-1.075L514.929,246.39l-.069,1.1Z" transform="translate(-514.86 -246.39)" fill="#ffdbab"/>
      </g>
      <g id="Group_41" data-name="Group 41" transform="translate(3.92 405.043)">
        <rect id="Rectangle_27" data-name="Rectangle 27" width="101.394" height="1.098" transform="translate(101.353 4.007) rotate(-178.355)" fill="#ffdbab"/>
      </g>
      <g id="Group_42" data-name="Group 42" transform="translate(4.264 436.387)">
        <rect id="Rectangle_28" data-name="Rectangle 28" width="102.424" height="1.098" transform="translate(102.381 4.037) rotate(-178.355)" fill="#ffdbab"/>
      </g>
      <g id="Group_43" data-name="Group 43" transform="translate(4.59 467.79)">
        <rect id="Rectangle_29" data-name="Rectangle 29" width="102.606" height="1.098" transform="matrix(-1, -0.028, 0.028, -1, 102.564, 4.022)" fill="#ffdbab"/>
      </g>
      <g id="Group_44" data-name="Group 44" transform="translate(4.946 499.603)">
        <rect id="Rectangle_30" data-name="Rectangle 30" width="101.759" height="1.098" transform="translate(101.729 3.591) rotate(-178.596)" fill="#ffdbab"/>
      </g>
    </g>
    <g id="Group_67" data-name="Group 67" transform="translate(15.256 137.618)">
      <g id="Group_46" data-name="Group 46" transform="translate(8.282 6.6)">
        <rect id="Rectangle_31" data-name="Rectangle 31" width="0.869" height="528.738" transform="translate(0.869 528.725) rotate(-179.491)" fill="#ffdbab"/>
      </g>
      <g id="Group_47" data-name="Group 47" transform="translate(19.03 4.978)">
        <path id="Path_75" data-name="Path 75" d="M597.352,615.6,602.11,85.533l-.869-.023L596.46,615.6Z" transform="translate(-596.46 -85.51)" fill="#ffdbab"/>
      </g>
      <g id="Group_48" data-name="Group 48" transform="translate(29.772 3.634)">
        <rect id="Rectangle_32" data-name="Rectangle 32" width="0.869" height="531.838" transform="translate(0.869 531.833) rotate(-179.659)" fill="#ffdbab"/>
      </g>
      <g id="Group_49" data-name="Group 49" transform="translate(42.153 1.808)">
        <rect id="Rectangle_33" data-name="Rectangle 33" width="0.869" height="533.278" transform="translate(0.869 533.274) rotate(-179.665)" fill="#ffdbab"/>
      </g>
      <g id="Group_50" data-name="Group 50" transform="translate(55.21 0)">
        <rect id="Rectangle_34" data-name="Rectangle 34" width="0.869" height="535.081" transform="translate(0.869 535.08) rotate(-179.742)" fill="#ffdbab"/>
      </g>
      <g id="Group_51" data-name="Group 51" transform="translate(9.182 30.162)">
        <rect id="Rectangle_35" data-name="Rectangle 35" width="0.869" height="61.116" transform="translate(0.079 6.403) rotate(-95.198)" fill="#ffdbab"/>
      </g>
      <g id="Group_52" data-name="Group 52" transform="translate(8.41 61.295)">
        <rect id="Rectangle_36" data-name="Rectangle 36" width="0.869" height="61.916" transform="translate(0.079 6.475) rotate(-95.198)" fill="#ffdbab"/>
      </g>
      <g id="Group_53" data-name="Group 53" transform="translate(7.589 92.462)">
        <rect id="Rectangle_37" data-name="Rectangle 37" width="0.869" height="62.717" transform="translate(0.079 6.548) rotate(-95.198)" fill="#ffdbab"/>
      </g>
      <g id="Group_54" data-name="Group 54" transform="translate(6.771 123.597)">
        <rect id="Rectangle_38" data-name="Rectangle 38" width="0.869" height="63.54" transform="translate(0.079 6.622) rotate(-95.198)" fill="#ffdbab"/>
      </g>
      <g id="Group_55" data-name="Group 55" transform="translate(5.976 154.739)">
        <rect id="Rectangle_39" data-name="Rectangle 39" width="0.869" height="64.341" transform="translate(0.079 6.695) rotate(-95.198)" fill="#ffdbab"/>
      </g>
      <g id="Group_56" data-name="Group 56" transform="translate(5.229 185.878)">
        <rect id="Rectangle_40" data-name="Rectangle 40" width="0.869" height="65.141" transform="translate(0.079 6.767) rotate(-95.198)" fill="#ffdbab"/>
      </g>
      <g id="Group_57" data-name="Group 57" transform="translate(4.36 217.032)">
        <rect id="Rectangle_41" data-name="Rectangle 41" width="0.869" height="65.965" transform="translate(0.079 6.842) rotate(-95.198)" fill="#ffdbab"/>
      </g>
      <g id="Group_58" data-name="Group 58" transform="translate(3.573 248.188)">
        <rect id="Rectangle_42" data-name="Rectangle 42" width="0.869" height="66.765" transform="translate(0.079 6.914) rotate(-95.198)" fill="#ffdbab"/>
      </g>
      <g id="Group_59" data-name="Group 59" transform="translate(2.433 279.358)">
        <rect id="Rectangle_43" data-name="Rectangle 43" width="0.869" height="67.839" transform="translate(0.061 5.65) rotate(-94.043)" fill="#ffdbab"/>
      </g>
      <g id="Group_60" data-name="Group 60" transform="translate(1.784 310.484)">
        <path id="Path_76" data-name="Path 76" d="M576.646,223.655l68.274-3.682-.046-.892L576.6,222.785Z" transform="translate(-576.6 -219.08)" fill="#ffdbab"/>
      </g>
      <g id="Group_61" data-name="Group 61" transform="translate(1.789 341.635)">
        <rect id="Rectangle_44" data-name="Rectangle 44" width="0.869" height="68.549" transform="translate(0.079 7.076) rotate(-95.198)" fill="#ffdbab"/>
      </g>
      <g id="Group_62" data-name="Group 62" transform="translate(1.48 372.776)">
        <rect id="Rectangle_45" data-name="Rectangle 45" width="0.869" height="68.847" transform="translate(0.079 7.103) rotate(-95.198)" fill="#ffdbab"/>
      </g>
      <g id="Group_63" data-name="Group 63" transform="translate(1.212 403.941)">
        <path id="Path_77" data-name="Path 77" d="M576.646,263.851l68.846-3.042-.046-.869L576.6,262.982Z" transform="translate(-576.6 -259.94)" fill="#ffdbab"/>
      </g>
      <g id="Group_64" data-name="Group 64" transform="translate(0.32 435.093)">
        <path id="Path_78" data-name="Path 78" d="M576.646,277.4l69.738-2.973-.046-.869L576.6,276.511Z" transform="translate(-576.6 -273.56)" fill="#ffdbab"/>
      </g>
      <g id="Group_65" data-name="Group 65" transform="translate(0 466.222)">
        <path id="Path_79" data-name="Path 79" d="M576.646,291.035l70.058-2.973-.046-.892L576.6,290.143Z" transform="translate(-576.6 -287.17)" fill="#ffdbab"/>
      </g>
      <g id="Group_66" data-name="Group 66" transform="translate(0.32 497.374)">
        <path id="Path_80" data-name="Path 80" d="M576.646,304.633l69.738-2.973-.046-.869L576.6,303.763Z" transform="translate(-576.6 -300.79)" fill="#ffdbab"/>
      </g>
    </g>
    <path id="Path_81" data-name="Path 81" d="M599.874,269.875v31.381l-16.033-.961V267.588H569.317l-2.424-31.381-18.847-1.372,1.1-30.031-.549-62.785L516.07,139.3l1.784-31.7,63.4,3-.32-24.382,16.514,3,.274,21.386,12.923,12.877,2.264,147.184Z" transform="translate(-389.105 51.658)" fill="url(#linear-gradient-16)"/>
    <path id="Path_82" data-name="Path 82" d="M562.672,179.586l.457,32.113-19.4-1.876-.343-31.4Z" transform="translate(-401.81 172.591)" fill="#ffffdb"/>
    <path id="Path_83" data-name="Path 83" d="M632.587,442.875V405.707h-6.7l-1.144-37.076V310.924l.5-28.019-10.27,1.349.96-63.539-10.75-.046-1.212,92.564-8.669.732L590.41,441.914Z" transform="translate(-578.814 231.069)" fill="url(#linear-gradient-17)"/>
    <path id="Path_84" data-name="Path 84" d="M591.618,342.185l-.435-31.884-15.073-1.006-2.424-29.848h-17.68l-1.212-30.557-19.4-2.379,1.144,63.379.686,32.3-17.5-1.372.32,31.77h16.926l.252,31.106H576.11l-.32-29.62h33.119l-.892-30.786Z" transform="translate(-393.474 264.331)" opacity="0.5" fill="url(#linear-gradient-18)"/>
    <path id="Path_85" data-name="Path 85" d="M600.184,210.386l.183-30.946-12.374,1.121-.183,30.718Z" transform="translate(-540.647 173.926)" fill="#84a4cc" fill-rule="evenodd" opacity="0.5"/>
    <path id="Path_86" data-name="Path 86" d="M594.7,169.235l-.5-31.175L583.016,139.5l-.846,29.963Z" transform="translate(-522.084 119.306)" fill="#84a4cc" fill-rule="evenodd" opacity="0.5"/>
    <path id="Path_87" data-name="Path 87" d="M552.692,113.15v30.557l-16.079-1.418v31.747L522.5,172.893v-30.6l12.854-.206L536.269,111Z" transform="translate(-343.592 83.734)" fill="#ffffdb"/>
  </g>
  <g id="Group_69" data-name="Group 69" transform="translate(500.607 61.092)">
    <path id="Path_89" data-name="Path 89" d="M359.787,126.746s3.865-2.219,5.672-10.293S351.758,88,351.758,88s-12.305,16.537-13.609,25.754,4.414,13.449,4.414,13.449l7.479-2.356Z" transform="translate(-235.018 52.185)" fill-rule="evenodd" fill="url(#linear-gradient-19)"/>
    <path id="Path_90" data-name="Path 90" d="M378.094,233.034l-3.728-50.914-29,1.075-2.493,49.839Z" transform="translate(-258.745 173.339)" fill-rule="evenodd" fill="url(#linear-gradient-20)"/>
    <path id="Path_91" data-name="Path 91" d="M329.23,182.12l33.234,2.493,1.692,49.061H329.322Z" transform="translate(-213.61 173.339)" fill-rule="evenodd" fill="url(#linear-gradient-21)"/>
    <path id="Path_92" data-name="Path 92" d="M343.65,275.271,357.1,261l1.67-146.406,15.3-4,.526,146.841L372.652,274.2Z" transform="translate(-257.032 81.263)" fill-rule="evenodd" fill="url(#linear-gradient-22)"/>
    <path id="Path_93" data-name="Path 93" d="M363.2,276.689l-12.991-15.37-3.637-147.5-15.187-3.225.526,146.841L329.97,274.2Z" transform="translate(-214.35 81.263)" fill-rule="evenodd" fill="url(#linear-gradient-23)"/>
    <path id="Path_94" data-name="Path 94" d="M341.385,156.624l-7.3-5.787-1.029-16.262,22.209-3.385,26.166,1.258-.869,17.108-7.068,7.068H341.385Z" transform="translate(-239.649 107.78)" fill-rule="evenodd" fill="url(#linear-gradient-24)"/>
    <path id="Path_95" data-name="Path 95" d="M358.357,149.557l-25.3-1.6V131.19l26.166,1.258Z" transform="translate(-217.44 107.78)" fill="#ffc58b" fill-rule="evenodd"/>
    <path id="Path_96" data-name="Path 96" d="M370.954,125.3l7.845-10.041-6.953-9.515L353.96,103.62l-15.713,4.437-3.957,8.188,7.914,10.5,13.037-2.585Z" transform="translate(-239.827 72.291)" fill-rule="evenodd" fill="url(#linear-gradient-25)"/>
    <path id="Path_97" data-name="Path 97" d="M378.8,115.262l-25.64-1.6.8-10.041-15.713,4.437-3.957,8.188,7.228,10.636,13.723-2.722,16.88,1.235Z" transform="translate(-239.827 72.291)" fill-rule="evenodd" fill="url(#linear-gradient-26)"/>
    <path id="Path_98" data-name="Path 98" d="M350.212,176.49H331.457l-1.487,12.877L363.2,191.86Z" transform="translate(-214.35 166.092)" fill="#ffe095" fill-rule="evenodd"/>
    <path id="Path_99" data-name="Path 99" d="M152.976,75.8s3.843-2.447,5.306-10.8c1.464-8.326-15.37-28.43-15.37-28.43s-11.779,17.5-12.671,26.967,5.146,13.54,5.146,13.54l7.525-2.745Z" transform="translate(447.515 -14.018)" fill-rule="evenodd" fill="url(#linear-gradient-27)"/>
    <path id="Path_100" data-name="Path 100" d="M159.657,104.171l-2.264-42.977L141.519,59.25,128.39,64.145v37.739Z" transform="translate(450.258 15.177)" fill-rule="evenodd" fill="url(#linear-gradient-28)"/>
    <path id="Path_101" data-name="Path 101" d="M149.449,59.25V94.656H136.32V64.145Z" transform="translate(442.328 15.177)" fill-rule="evenodd" fill="url(#linear-gradient-29)"/>
    <path id="Path_102" data-name="Path 102" d="M177.957,237.512,173.2,172.76l-36.893,1.372-3.156,63.379Z" transform="translate(421.07 161.291)" fill-rule="evenodd" fill="url(#linear-gradient-30)"/>
    <path id="Path_103" data-name="Path 103" d="M115.8,172.76l42.291,3.179,2.15,62.419H115.914Z" transform="translate(478.47 161.291)" fill-rule="evenodd" fill="url(#linear-gradient-31)"/>
    <path id="Path_104" data-name="Path 104" d="M289.707,231.811s-1.624-19.51-18.824-48.741c-20.151-34.217-62.693-49.77-62.693-49.77v98.511Z" transform="translate(137.686 110.496)" fill-rule="evenodd" fill="url(#linear-gradient-32)"/>
    <path id="Path_105" data-name="Path 105" d="M243.08,231.811S244.7,212.3,261.9,183.07C282.054,148.853,324.6,133.3,324.6,133.3v98.511Z" transform="translate(22.994 110.496)" fill-rule="evenodd" fill="url(#linear-gradient-33)"/>
    <path id="Path_106" data-name="Path 106" d="M413.687,253.094,411.56,208.9,397.585,201.2V181.938s-28.911-8.234-72.871-9.629c-71.27-2.241-108.484,9.629-108.484,9.629v20.539L204.5,212.106l-7.937,42.954Z" transform="translate(40.306 160.347)" fill-rule="evenodd" fill="url(#linear-gradient-34)"/>
    <path id="Path_107" data-name="Path 107" d="M748.877,229.116,759.192,221l3.248-20.677H229.72l-120.08,9.492v19.3l9.423,6.633Z" transform="translate(-109.64 196.767)" fill-rule="evenodd" fill="url(#linear-gradient-35)"/>
    <path id="Path_108" data-name="Path 108" d="M642.36,200.32,639.112,221l-523.777-2.973-5.7-17.7Z" transform="translate(10.44 196.767)" fill-rule="evenodd" fill="url(#linear-gradient-36)"/>
    <path id="Path_109" data-name="Path 109" d="M637.082,212.91H123.62L115.18,451.1H637.974Z" transform="translate(2.155 212.973)" fill-rule="evenodd" fill="url(#linear-gradient-37)"/>
    <path id="Path_110" data-name="Path 110" d="M194.942,431.547l2.2-212.827H169.3L163.63,431.547Z" transform="translate(332.174 220.452)" fill-rule="evenodd" fill="url(#linear-gradient-38)"/>
    <path id="Path_111" data-name="Path 111" d="M416.823,455.672,409.389,217.48,174.6,209.36,167.56,455.672Z" transform="translate(103.5 208.404)" fill-rule="evenodd" fill="url(#linear-gradient-39)"/>
    <path id="Path_112" data-name="Path 112" d="M365.891,203.812s-1.578,12.648-55.854,5.558-65.232-25.32-67.7-35.727c-3.019-12.6,34.469-36.893,34.469-36.893s-46,20.173-67.153,88.745c0,0,62.83-17.886,160.267-1.3C369.894,224.191,367.263,210.879,365.891,203.812Z" transform="translate(54.137 114.937)" fill-rule="evenodd" opacity="0.5" fill="url(#linear-gradient-40)"/>
    <path id="Path_113" data-name="Path 113" d="M314.653,209.36l-36.55,8.12L273.46,455.672h34.148Z" transform="translate(-36.548 208.404)" fill-rule="evenodd" fill="url(#linear-gradient-41)"/>
    <path id="Path_114" data-name="Path 114" d="M461.1,212.91l-116.352,6.633L340.06,451.1H461.1Z" transform="translate(-335.325 212.973)" fill-rule="evenodd" fill="url(#linear-gradient-41)"/>
    <path id="Path_115" data-name="Path 115" d="M443.538,234.626l4.849-11.093,2.585-24.13L205.254,196.04,167.56,206.424v14.821l4.643,13.38,36.458-4.6Z" transform="translate(69.352 191.258)" fill-rule="evenodd" fill="url(#linear-gradient-43)"/>
    <path id="Path_116" data-name="Path 116" d="M413.278,199.4l-2.585,24.13L171.06,218.455l-3.5-22.415Z" transform="translate(107.045 191.258)" fill-rule="evenodd" fill="url(#linear-gradient-44)"/>
    <path id="Path_117" data-name="Path 117" d="M404.521,195.377S312,178.245,197.48,198.579l11.734-9.629s77.972-13.495,181.355-1.281Z" transform="translate(47.369 173.897)" fill="#ffc7a0" fill-rule="evenodd"/>
    <path id="Path_118" data-name="Path 118" d="M247.977,160.577,245.9,113.3h-1.624l-2.081,47.277Z" transform="translate(101.65 84.752)" fill-rule="evenodd" fill="url(#linear-gradient-45)"/>
    <path id="Path_119" data-name="Path 119" d="M218.963,192.735l-7.525-30.306-3.248-.709s4.529,9.1,7.411,30.329Z" transform="translate(208.43 147.08)" fill-rule="evenodd" fill="url(#linear-gradient-46)"/>
    <path id="Path_120" data-name="Path 120" d="M236.677,189.106,233.5,162.048l-8.3-1.738-.64,1.212-.595,26.555Z" transform="translate(154.646 145.265)" fill-rule="evenodd" fill="url(#linear-gradient-47)"/>
    <path id="Path_121" data-name="Path 121" d="M264.84,189.137l4.186-29.231-.572-.526h-8.348l-5.535,30.58Z" transform="translate(52.285 144.068)" fill-rule="evenodd" fill="url(#linear-gradient-48)"/>
    <path id="Path_122" data-name="Path 122" d="M279.725,189.942a97.144,97.144,0,0,1,8.165-26.052h-3.545l-9.355,27.149Z" transform="translate(-13.284 149.873)" fill-rule="evenodd" fill="url(#linear-gradient-49)"/>
    <path id="Path_123" data-name="Path 123" d="M258.756,159.906l-.572-.526-3.614,29.757,3.865-.274Z" transform="translate(62.555 144.068)" fill-rule="evenodd" fill="url(#linear-gradient-50)"/>
    <path id="Path_124" data-name="Path 124" d="M231.605,188.329l-2.47-28.019-.64,1.212-.595,26.555Z" transform="translate(150.706 145.265)" fill-rule="evenodd" fill="url(#linear-gradient-51)"/>
    <path id="Path_125" data-name="Path 125" d="M115.18,451.1l4.643-238.193h46.545L167.26,451.1Z" transform="translate(472.868 212.973)" fill-rule="evenodd" fill="url(#linear-gradient-52)"/>
    <path id="Path_126" data-name="Path 126" d="M152,212.91,147.356,451.1H135.92l5.924-238.193Z" transform="translate(440.692 212.973)" fill-rule="evenodd" fill="url(#linear-gradient-53)"/>
    <path id="Path_127" data-name="Path 127" d="M423.568,221.509l-.823,235.837H412.361L421.921,221.6l-73.878,4.186-9.423-6.633L464.4,208.06l3.294,8.623Z" transform="translate(-338.62 206.73)" fill-rule="evenodd" fill="url(#linear-gradient-54)"/>
    <path id="Path_128" data-name="Path 128" d="M395.484,214.128s-30.306-5.878-63.631,1.738L329.36,452.321h66.124Z" transform="translate(-245.236 211.755)" fill-rule="evenodd" fill="url(#linear-gradient-55)"/>
    <path id="Path_129" data-name="Path 129" d="M134.14,291.284l12.6-16.674,2.264-188.949,23.856-3.911.663,186.844-2.493,21.317Z" transform="translate(423.236 44.139)" fill-rule="evenodd" fill="url(#linear-gradient-56)"/>
    <path id="Path_130" data-name="Path 130" d="M159.031,293.091l-11.413-19.556L143.089,84.906,118.57,81.75l.663,186.844-2.493,21.317Z" transform="translate(477.53 44.139)" fill-rule="evenodd" fill="url(#linear-gradient-57)"/>
    <path id="Path_131" data-name="Path 131" d="M125.816,140.312,122,132.97l-1.327-20.7,28.247-4.3,33.3,1.578-1.1,21.774-3.705,8.989h-51.6Z" transform="translate(445.352 77.891)" fill-rule="evenodd" fill="url(#linear-gradient-58)"/>
    <path id="Path_132" data-name="Path 132" d="M152.874,131.323l-32.2-2.036V107.97l33.3,1.578Z" transform="translate(473.6 77.891)" fill="#ffc58b" fill-rule="evenodd"/>
    <path id="Path_133" data-name="Path 133" d="M126.878,103.184l-4.872-7.365-1.327-20.7,28.247-4.3,33.3,1.578-1.1,21.8-5.741,8.989H126.878Z" transform="translate(445.319 30.07)" fill-rule="evenodd" fill="url(#linear-gradient-59)"/>
    <path id="Path_134" data-name="Path 134" d="M152.884,94.2l-32.2-2.058V70.82l33.3,1.578Z" transform="translate(473.567 30.07)" fill="#ffc58b" fill-rule="evenodd"/>
    <path id="Path_135" data-name="Path 135" d="M163.857,74.571l7.571-10.613-7.571-9.4L147.091,52.11l-17.474,6.381-3.637,8.577,8.577,10.361,13.2-3.271Z" transform="translate(443.999 5.986)" fill-rule="evenodd" fill="url(#linear-gradient-60)"/>
    <path id="Path_136" data-name="Path 136" d="M171.427,63.958l-26.257-1.51,1.921-10.338-17.474,6.381-3.637,8.577,8.577,10.361,13.2-3.271,16.1.412Z" transform="translate(443.999 5.986)" fill-rule="evenodd" fill="url(#linear-gradient-61)"/>
    <path id="Path_137" data-name="Path 137" d="M138.927,50.932l-.686-24.222h-1.235l-.686,24.222Z" transform="translate(452.849 -26.71)" fill-rule="evenodd" fill="url(#linear-gradient-62)"/>
    <path id="Path_138" data-name="Path 138" d="M345.606,99.72l-.526-19.03H344.1l-.526,19.03Z" transform="translate(-227.859 42.775)" fill-rule="evenodd" fill="url(#linear-gradient-63)"/>
    <path id="Path_139" data-name="Path 139" d="M147.618,165.6H118.661l-1.921,16.377,42.291,3.179Z" transform="translate(477.53 152.074)" fill="#ffe095" fill-rule="evenodd"/>
    <path id="Path_140" data-name="Path 140" d="M247.4,226.78H183.678l-5.4,206.469h73.809Z" transform="translate(243.715 230.827)" fill-rule="evenodd" fill="url(#linear-gradient-64)"/>
    <path id="Path_141" data-name="Path 141" d="M179.767,226.78l4.689,206.469h-4.117L178.28,226.78Z" transform="translate(311.349 230.827)" fill-rule="evenodd" fill="url(#linear-gradient-41)"/>
    <path id="Path_142" data-name="Path 142" d="M299.67,226.78H235.925L230.55,433.249h73.809Z" transform="translate(71.891 230.827)" fill-rule="evenodd" fill="url(#linear-gradient-64)"/>
    <path id="Path_143" data-name="Path 143" d="M232.311,226.78,237,433.249h-4.643L230.55,226.78Z" transform="translate(139.25 230.827)" fill-rule="evenodd" fill="url(#linear-gradient-67)"/>
    <path id="Path_144" data-name="Path 144" d="M239.11,419.9h43.3V269.1S279.32,252.086,261.3,237.15a37.974,37.974,0,0,0-8.234,7.273,60.017,60.017,0,0,0-12.9,24.656Z" transform="translate(74.264 244.176)" fill-rule="evenodd" fill="url(#linear-gradient-68)"/>
    <path id="Path_145" data-name="Path 145" d="M327.2,431.5l2.173-212.827H301.539L295.89,431.5Z" transform="translate(-102.573 220.388)" fill-rule="evenodd" fill="url(#linear-gradient-69)"/>
    <path id="Path_146" data-name="Path 146" d="M246.02,415.794h27.493V265s-2.173-11.985-13.563-24.656A60.015,60.015,0,0,0,247.049,265Z" transform="translate(67.354 248.282)" fill="#722d59" fill-rule="evenodd"/>
    <path id="Path_147" data-name="Path 147" d="M187.1,419.9h43.275V269.1s-3.088-17.017-21.111-31.953a37.973,37.973,0,0,0-8.234,7.273,60.015,60.015,0,0,0-12.9,24.656Z" transform="translate(245.256 244.176)" fill-rule="evenodd" fill="url(#linear-gradient-70)"/>
    <path id="Path_148" data-name="Path 148" d="M194,415.794h27.493V265s-2.173-11.985-13.563-24.656A60.016,60.016,0,0,0,195.029,265Z" transform="translate(238.356 248.282)" fill="#722d59" fill-rule="evenodd"/>
    <path id="Path_149" data-name="Path 149" d="M333.035,200.915l-16.605-.595-4.849,18.344,4.849,10.453L289.44,467.309h43.595l4.643-238.193-4.643-10.453Z" transform="translate(-96.123 196.767)" fill="#dcb0d3" fill-rule="evenodd"/>
    <path id="Path_150" data-name="Path 150" d="M125.33,450.433l-3.225-237h-3.088l-1.967,237Z" transform="translate(510.522 213.643)" fill-rule="evenodd" fill="url(#linear-gradient-71)"/>
    <path id="Path_151" data-name="Path 151" d="M350.439,452.184,348.2,212.07H345.11l-1.99,240.114Z" transform="translate(-231.663 211.892)" fill-rule="evenodd" fill="url(#linear-gradient-72)"/>
    <path id="Path_152" data-name="Path 152" d="M357.25,451.1l1.418-238.193-3.111.663L353.59,451.1Z" transform="translate(-263.839 212.973)" fill-rule="evenodd" fill="url(#linear-gradient-73)"/>
    <path id="Path_153" data-name="Path 153" d="M133.04,451.1,131.324,212.91H126.75L124.76,451.1Z" transform="translate(485.177 212.973)" fill-rule="evenodd" fill="url(#linear-gradient-74)"/>
    <path id="Path_154" data-name="Path 154" d="M339.975,452.21l-1.738-239.931-2.4-.229L333.25,452.21Z" transform="translate(-198.623 211.866)" fill-rule="evenodd" fill="url(#linear-gradient-75)"/>
    <path id="Path_155" data-name="Path 155" d="M427.086,398.867l1.533-145.377H413.775l-2.562,20.745-3.728,1.464-6.061,54.573-12.9,1.029V287l-22.667,5.146L357.6,398.867Z" transform="translate(-342.962 265.209)" fill-rule="evenodd" fill="url(#linear-gradient-76)"/>
    <path id="Path_156" data-name="Path 156" d="M405.5,215.53v51.394L393.9,270.4V253.8l-2.333,1.532L388.731,323.1l-7.411,1.464,2.2-108.392Z" transform="translate(-374.092 216.346)" fill-rule="evenodd" fill="url(#linear-gradient-77)"/>
    <path id="Path_157" data-name="Path 157" d="M204.405,400.759l2.9-148.739-6.29,3.362v71l-22.987,1.693v15.942h-4.3V309.384l-28.064-4-8.989,7.639v87.738Z" transform="translate(383.643 263.317)" fill-rule="evenodd" opacity="0.63" fill="url(#linear-gradient-78)"/>
  </g>
  <g id="Group_70" data-name="Group 70" transform="translate(118.319 220.878)">
    <path id="Path_159" data-name="Path 159" d="M398.38,426.489,395.7,138.732,369.79,135.21V427.953Z" transform="translate(41.684 -46.831)" fill-rule="evenodd" fill="url(#linear-gradient-57)"/>
    <path id="Path_160" data-name="Path 160" d="M482.516,287.155V262.7s-3.728-26.006-23.467-50.411S419.32,180.41,419.32,180.41V294.452Z" transform="translate(-155.739 11.352)" fill-rule="evenodd" fill="url(#linear-gradient-80)"/>
    <path id="Path_161" data-name="Path 161" d="M446.81,287.155V262.7s3.728-26.006,23.467-50.411,39.729-31.884,39.729-31.884V294.452Z" transform="translate(-246.105 11.352)" fill-rule="evenodd" fill="url(#linear-gradient-81)"/>
    <path id="Path_162" data-name="Path 162" d="M428.208,234.1V218.482l-5.718-.252v15.736Z" transform="translate(-108.681 60.035)" fill-rule="evenodd" fill="url(#linear-gradient-82)"/>
    <path id="Path_163" data-name="Path 163" d="M436.065,233.3V217.682l-5.7-.252v15.736Z" transform="translate(-134.562 59.005)" fill-rule="evenodd" fill="url(#linear-gradient-83)"/>
    <path id="Path_164" data-name="Path 164" d="M443.945,232.753V217.132l-5.7-.252v15.736Z" transform="translate(-160.465 58.297)" fill-rule="evenodd" fill="url(#linear-gradient-84)"/>
    <path id="Path_165" data-name="Path 165" d="M451.815,232.753V217.132l-5.7-.252v15.736Z" transform="translate(-186.336 58.297)" fill-rule="evenodd" fill="url(#linear-gradient-85)"/>
    <path id="Path_166" data-name="Path 166" d="M459.7,232.612V216.99l-5.7.229v15.256Z" transform="translate(-212.239 58.439)" fill-rule="evenodd" fill="url(#linear-gradient-86)"/>
    <path id="Path_167" data-name="Path 167" d="M467.588,233.745V217.3l-5.718.572v15.759Z" transform="translate(-238.133 58.838)" fill-rule="evenodd" fill="url(#linear-gradient-87)"/>
    <path id="Path_168" data-name="Path 168" d="M475.445,233.962V218.34l-5.7,1.1v14.387Z" transform="translate(-264.013 60.177)" fill-rule="evenodd" fill="url(#linear-gradient-88)"/>
    <path id="Path_169" data-name="Path 169" d="M545.393,254.827s-75.021-3.66-97.322-16.079c-22.3-12.443,2.768-45.1,12.305-52.218,0,0-26.44,15.828-41.056,68.3l.274,20.082,125.775-4.8V254.827Z" transform="translate(-218.615 19.23)" fill-rule="evenodd" opacity="0.5" fill="url(#linear-gradient-89)"/>
    <path id="Path_170" data-name="Path 170" d="M451.3,207.907l-2.081-47.277h-1.6l-2.081,47.277Z" transform="translate(-184.498 -14.11)" fill-rule="evenodd" fill="url(#linear-gradient-90)"/>
    <path id="Path_171" data-name="Path 171" d="M734.382,391.789,731.363,262.56H368.47V391.789Z" transform="translate(-291.299 117.098)" fill-rule="evenodd" fill="url(#linear-gradient-91)"/>
    <path id="Path_172" data-name="Path 172" d="M605.621,262.56l-75,1.532-2.173,127.7h77.171Z" transform="translate(-528.45 117.098)" fill-rule="evenodd" fill="url(#linear-gradient-92)"/>
    <path id="Path_173" data-name="Path 173" d="M438.1,370.481l-.046-101.851H388.63V370.481Z" transform="translate(-41.13 124.912)" fill-rule="evenodd" opacity="0.5" fill="url(#linear-gradient-93)"/>
    <path id="Path_174" data-name="Path 174" d="M554.675,405.9V252.561L407.491,251.6,399.44,405.9Z" transform="translate(-182.427 102.99)" fill-rule="evenodd" fill="url(#linear-gradient-94)"/>
    <path id="Path_175" data-name="Path 175" d="M530.9,251.6l-62.99,4.323L463.79,405.9H527.4Z" transform="translate(-305.834 102.99)" fill-rule="evenodd" fill="url(#linear-gradient-95)"/>
    <path id="Path_176" data-name="Path 176" d="M609.614,289.286l-33.051-39.409L572.7,225.151l-90.826-2.081-51.463,5.672-3.088,26.28L399.44,292.648l62.99-4.323Z" transform="translate(-237.366 66.265)" fill-rule="evenodd" fill="url(#linear-gradient-96)"/>
    <path id="Path_177" data-name="Path 177" d="M518.28,288.325l16.582-37.648,2.859-27.607-51.463,5.672-3.088,26.28L455.29,292.648Z" transform="translate(-293.216 66.265)" fill-rule="evenodd" fill="url(#linear-gradient-97)"/>
    <path id="Path_178" data-name="Path 178" d="M546.624,274.2,513.573,234.79l-97.551.8L399.44,273.238Z" transform="translate(-174.376 81.352)" fill="#ffe095" fill-rule="evenodd"/>
    <path id="Path_179" data-name="Path 179" d="M558.021,375.462l-61.161-1.006,4.734-107.225h56.426Z" transform="translate(-408.596 123.11)" fill-rule="evenodd" opacity="0.5" fill="url(#linear-gradient-98)"/>
    <path id="Path_180" data-name="Path 180" d="M458.956,391.235H402.965L402.53,262.99h56.426Z" transform="translate(-93.776 117.652)" fill-rule="evenodd" opacity="0.5" fill="url(#linear-gradient-99)"/>
    <path id="Path_181" data-name="Path 181" d="M490.976,391.235H434.984L434.55,262.99h56.426Z" transform="translate(-199.033 117.652)" fill-rule="evenodd" opacity="0.5" fill="url(#linear-gradient-100)"/>
    <path id="Path_182" data-name="Path 182" d="M438.176,350.7s0-54.116-14.432-56.175S408.35,350.7,408.35,350.7Z" transform="translate(-86.307 158.183)" fill="#843c59" fill-rule="evenodd"/>
    <path id="Path_183" data-name="Path 183" d="M469.426,350.7s0-54.116-14.432-56.175S439.6,350.7,439.6,350.7Z" transform="translate(-189.033 158.183)" fill="#843c59" fill-rule="evenodd"/>
    <path id="Path_184" data-name="Path 184" d="M379.2,156.912s0-14-3.728-14.524-3.98,14.524-3.98,14.524Z" transform="translate(56.978 -37.609)" fill-rule="evenodd" fill="url(#linear-gradient-101)"/>
    <path id="Path_185" data-name="Path 185" d="M384.362,156.912s0-14-2.745-14.524-2.928,14.524-2.928,14.524Z" transform="translate(35.345 -37.609)" fill-rule="evenodd" fill="url(#linear-gradient-102)"/>
    <path id="Path_186" data-name="Path 186" d="M406.792,262.56H365.05l17.017,21.386-1.029,107.843h28.773l-2.493-109.261,10.315-19.968Z" transform="translate(33.272 117.098)" fill-rule="evenodd" fill="url(#linear-gradient-103)"/>
    <path id="Path_187" data-name="Path 187" d="M407.3,282.541s-12.808-1.029-19.076,4.117-7.2,105.121-7.2,105.121H370.448l4.392-107.18L365.05,262.55h52.561Z" transform="translate(33.295 117.085)" fill="#efa7a9" fill-rule="evenodd"/>
    <path id="Path_188" data-name="Path 188" d="M417.634,179.85V203.5l-12.26,13.54H378.2L365.05,205.787V179.85Z" transform="translate(33.272 10.631)" fill-rule="evenodd" fill="url(#linear-gradient-104)"/>
    <path id="Path_189" data-name="Path 189" d="M417.634,203.5l-52.584,2.287V179.85h52.584Z" transform="translate(33.272 10.631)" fill-rule="evenodd" fill="url(#linear-gradient-105)"/>
    <path id="Path_190" data-name="Path 190" d="M402.666,184.949,387.982,96.57,375.15,184.949l-8.76,6.176h46.888Z" transform="translate(34.563 -96.57)" fill-rule="evenodd" fill="url(#linear-gradient-106)"/>
  </g>
  <g id="Group_72" data-name="Group 72" transform="translate(1144.945)">
    <path id="Path_191" data-name="Path 191" d="M53.84,587H158.481l-.3-11.322-.229-8.646-.48-18.8-.366-14.455-.412-16.239-.412-15.279-.709-28.362-.16-6.084-.823-32.73-.412-15.9-.732-28.225-.48-18.732-1.1-42.726-.069-2.516-1.3-50.525-.023-.755-1.144-45.539-.16-6.244-1.51-58.05v-.137l-1.349-53.407-.8,21.729-6.587-2.585-19.6-7.639-1.235-.48-10.041-3.888-5.009-1.944-18.275-7.136-8.394-3.271-8.486-3.294-.32,11.322-.64,21.889-1.372,47.529-.046.823-1.052,37.1-.3,10.178-1.189,40.759-.206,6.793-1.3,44.83-.274,9.057-1.075,36.733-.663,23.536-.778,26.486-.48,16.216-.846,29.551-.252,8.806-.778,26.189-.435,15.393-.526,17.635-.366,13.083-.595,19.945-.229,7.685Z" transform="translate(-22.391 133.641)" fill-rule="evenodd" fill="url(#linear-gradient-107)"/>
    <g id="Group_71" data-name="Group 71">
      <path id="Path_192" data-name="Path 192" d="M91.66,563.339,104.08,125.1l5.718-2.9L98.179,563.339Z" transform="translate(-90.608 157.3)" fill="url(#linear-gradient-108)"/>
      <path id="Path_193" data-name="Path 193" d="M71.116,563.339,59.405,122.2h-5.7L65.169,563.339Z" transform="translate(65.272 157.3)" fill="url(#linear-gradient-109)"/>
      <path id="Path_194" data-name="Path 194" d="M56.735,583.854c1.854-.846,3.859-1.784,6.017-2.836-1.914-1.51-3.829-3.065-5.743-4.643l.7-19.419c2.7-1.532,5.622-3.294,8.813-5.215-2.8-2.4-5.592-4.94-8.387-7.525l.608-17.177c3.92-2.1,8.387-4.62,13.219-7.594q-4.422-4.8-8.752-9.972c-1.4.915-2.735,1.784-3.951,2.562l.912-25.5c1.854,2.539,3.707,5.009,5.592,7.433,2.8-2.081,5.774-4.392,8.874-6.907-3.464-4.094-6.9-8.394-10.241-12.809-1.4,1.349-2.7,2.585-3.92,3.728l1-28.773c1.519,2.424,3.1,4.8,4.68,7.159,1.945-1.99,4.011-4.094,6.108-6.336-3.555-5.283-7.02-10.819-10.211-16.628l.912-25.777c.669,1.6,1.337,3.156,2.066,4.735,2.948-2.9,6.169-6.13,9.542-9.675q-4.923-9.16-9.451-19.144c-.456.412-.942.8-1.367,1.144L65,348.909q2.416,7.479,5.105,14.593,3.829-3.74,8.023-8.074c-3.312-6.176-6.473-12.511-9.421-18.961-1.216,1.3-2.34,2.516-3.434,3.637l1.55-43.663q2.644,9.126,5.987,18.023c1.945-2.241,3.951-4.62,5.987-7.113-3.252-6.473-6.351-13.2-9.39-20.151-.821.915-1.611,1.784-2.34,2.63l1.4-39.706c1.611,4.872,3.312,9.584,5.045,14.272,1.155-1.418,2.34-2.9,3.525-4.414-2.887-6.358-5.652-12.946-8.235-19.785l1.246-36.115.122-.023c1.185,4.437,2.431,8.783,3.768,13.106,1.763-2.081,3.616-4.3,5.47-6.679-1.914-4.026-3.768-8.074-5.561-12.214q-1.96,2.676-3.738,5.009l1.611-46.294c1.459,4.849,3.039,9.675,4.741,14.41q2.917-5.421,5.744-11.5c-3.464-7.845-6.716-15.942-9.724-24.222a314.034,314.034,0,0,1-10.727-36.3l12.368-1.853a296.348,296.348,0,0,0,8.722,30.306c1.823,5.375,3.8,10.659,5.865,15.9,1.459-4.048,2.765-8.3,3.981-12.694.881-3.2,1.7-6.519,2.431-9.9-2.158-6.93-4.194-14.158-6.017-21.729l12.368-1.944c1.55,6.45,3.252,12.648,5.075,18.641l2.31.274c-.273,1.441-.547,2.859-.851,4.254,1.945,5.993,3.981,11.779,6.139,17.291,1.064,2.768,2.188,5.512,3.312,8.165.851-2.058,1.732-4.14,2.553-6.267,2.431-6.107,4.741-12.511,6.9-19.167-.3-1.418-.608-2.859-.851-4.3l2.31-.274c1.823-5.97,3.525-12.168,5.045-18.6l12.368,1.944c-1.793,7.548-3.829,14.776-6.017,21.729a184.879,184.879,0,0,0,6.442,22.575,319.448,319.448,0,0,0,14.587-46.2l12.4,1.853a327.331,327.331,0,0,1-16.9,52.172c-1.155,2.79-2.34,5.558-3.525,8.3,1.854,4.048,3.768,7.891,5.713,11.5,2.006-5.7,3.89-11.436,5.592-17.292l1.58.5.942,30.329c0,.023-.03.069-.03.091a.072.072,0,0,1,.03.069l1.763,56.54c-.638-.572-1.307-1.212-2.036-1.876-2.644,6.976-5.47,13.723-8.418,20.265,1.216,1.51,2.37,2.951,3.525,4.392,2.036-5.535,4.042-11.139,5.926-16.926l1.155.252,1.337,44.349c-1.337-1.441-2.8-3.088-4.376-4.872-3.008,6.976-6.139,13.678-9.36,20.173,2.036,2.516,4.042,4.872,5.987,7.113,2.674-7.159,5.045-14.432,7.02-21.8l.76.114,1.55,49.2c-1.519-1.578-3.252-3.431-5.227-5.512q-4.422,9.641-9.421,18.915c2.8,2.928,5.47,5.6,8.023,8.074,2.34-6.13,4.528-12.488,6.5-19.053l.152.046,1.276,41.6c-.912-.778-1.914-1.6-2.978-2.516-2.978,6.656-6.139,13.014-9.451,19.144,3.4,3.545,6.625,6.77,9.573,9.652,1.185-2.63,2.34-5.306,3.434-8.028l.851,27.47a1.782,1.782,0,0,0-.243-.229c-3.525,6.5-7.324,12.626-11.274,18.481,2.1,2.219,4.133,4.346,6.078,6.336q3.054-4.46,5.926-9.126l.972,31.884c-1.519-1.418-3.252-3.042-5.136-4.872-3.343,4.437-6.777,8.714-10.241,12.809,3.1,2.539,6.078,4.826,8.874,6.907,2.249-2.9,4.467-5.855,6.686-8.92l.851,27.63c-1.519-.938-3.16-1.99-4.984-3.2-2.887,3.454-5.835,6.77-8.752,9.972,5.257,3.2,10.059,5.924,14.222,8.1l.486,15.828c-3.069,2.928-6.169,5.7-9.238,8.371,3.525,2.173,6.777,4.048,9.694,5.718l.547,18.321c-2.158,1.807-4.315,3.545-6.442,5.238,2.37,1.167,4.619,2.219,6.686,3.156L179.2,595.2h-1.854c-4.133-1.738-9.177-4-14.891-6.885-2.644,1.921-5.227,3.8-7.81,5.558,1.276.5,2.431.961,3.4,1.327h-26.53c-4.315-2.127-9.026-4.6-14.1-7.456-5.045,2.859-9.755,5.329-14.07,7.456H76.823c.972-.366,2.127-.823,3.4-1.327-2.553-1.761-5.2-3.614-7.84-5.558C66.642,591.2,61.658,593.46,57.5,595.2H56.31Zm9.117-48.238c3.586,3.385,7.172,6.633,10.758,9.7,3.951-2.607,8.114-5.467,12.4-8.577-3.069-2.9-6.169-5.9-9.238-9.012C74.665,530.79,69.985,533.42,65.852,535.616Zm36.5-336.064c-2.978,4.391-5.926,8.44-8.782,12.214,2.553,5.146,5.136,10.2,7.81,15.141q4.513-6.656,9.026-13.792C107.7,208.7,104.993,204.2,102.349,199.552Zm.638-24.2c2.583-4.552,5.136-9.332,7.628-14.387-2.826-6.038-5.622-12.351-8.235-19.076-2.066,6.381-4.346,12.42-6.777,18.046C97.973,165.2,100.435,170.321,102.987,175.353ZM101.255,498.86c2.461-1.99,4.953-4.048,7.445-6.2-3.525-3.339-7.111-6.862-10.606-10.544-2.34,2.15-4.65,4.163-6.9,6.107C94.539,491.884,97.882,495.452,101.255,498.86Zm-1,15.164c-3.586,2.63-7.111,5.078-10.515,7.342,2.887,2.928,5.774,5.7,8.661,8.394q5.014-3.842,10.211-8.143C105.844,519.17,103.048,516.655,100.252,514.024Zm17.17-29.254c3.616-3.408,7.233-7,10.788-10.8-3.555-3.5-7.141-7.251-10.788-11.207q-5.47,5.935-10.788,11.207C110.22,477.794,113.806,481.362,117.422,484.77Zm-7.84,22.163c2.644,2.447,5.227,4.849,7.84,7.159,2.613-2.31,5.227-4.712,7.84-7.159q-3.92-3.122-7.84-6.519Q113.5,503.812,109.582,506.934Zm7.84-179.274c-2.583,3.431-5.136,6.724-7.719,9.881q3.829,6.107,7.719,11.848c2.583-3.82,5.136-7.777,7.719-11.848C122.588,334.385,120.005,331.068,117.422,327.66Zm.03-20.768c3.525-5.238,7.081-10.7,10.515-16.468-3.464-4.666-7.02-9.584-10.545-14.73-3.525,5.123-7.081,10.041-10.515,14.707C110.342,296.165,113.9,301.632,117.453,306.892Zm-9.238,75.3c3.039,4.574,6.139,9.012,9.208,13.335q4.649-6.484,9.208-13.335-4.558-5.661-9.208-11.917Q112.773,376.516,108.214,382.188Zm-2.37,47.437q5.744,7.891,11.609,15c3.89-4.735,7.78-9.721,11.609-15-3.829-4.6-7.719-9.4-11.609-14.432C113.532,420.225,109.643,425.028,105.844,429.625Zm-7.05,35.589c3.525-3.568,7.141-7.365,10.727-11.39-3.951-4.643-7.871-9.538-11.73-14.753-3.586,4.094-7.081,7.983-10.423,11.619C91.045,455.814,94.874,460.617,98.794,465.215Zm.152-45.539c3.677-4.529,7.415-9.263,11.153-14.2-3.282-4.437-6.534-9.035-9.755-13.746q-5.7,6.656-11,12.4C92.442,409.52,95.664,414.712,98.946,419.676Zm2.4-48.146q4.285-5.524,8.661-11.573c-2.826-4.071-5.683-8.257-8.509-12.648-2.978,3.431-5.926,6.656-8.752,9.7C95.542,361.946,98.429,366.795,101.346,371.529Zm1.732-44.921q3.464-4.392,6.929-9.149c-3.707-5.261-7.415-10.819-11.031-16.628-2.036,2.585-4.011,5.1-5.926,7.5Q97.928,317.837,103.079,326.608Zm-2.644-47.392c3.252-4.506,6.534-9.24,9.846-14.135-3.4-5.192-6.777-10.521-10.12-16.079q-4.65,6.347-9.086,12.008Q95.633,270.445,100.435,279.217Zm7.385-40.827q4.741,8.131,9.6,15.782,4.877-7.651,9.6-15.782c-3.16-4.529-6.382-9.286-9.6-14.2C114.2,229.1,111.01,233.861,107.819,238.389Zm25.648-11.5q4.011-7.411,7.84-15.119c-2.857-3.774-5.8-7.822-8.782-12.214-2.644,4.62-5.348,9.149-8.053,13.54C127.451,217.85,130.489,222.447,133.468,226.885Zm-8.9,38.2q4.969,7.376,9.846,14.158,4.832-8.749,9.329-18.206c-2.948-3.774-5.987-7.8-9.117-12.008C131.31,254.56,127.937,259.912,124.564,265.081ZM135.9,300.854q-5.47,8.714-11.031,16.605c2.31,3.156,4.619,6.2,6.9,9.149q5.151-8.783,10.059-18.229C139.91,305.931,137.9,303.438,135.9,300.854Zm-11.062,59.1q4.376,6.038,8.661,11.573,4.422-7.1,8.57-14.524-4.239-4.563-8.722-9.7C130.52,351.7,127.663,355.885,124.837,359.956Zm-.061,45.516c3.738,4.94,7.476,9.675,11.153,14.2,3.282-4.963,6.5-10.155,9.6-15.553-3.525-3.8-7.2-7.937-11-12.374C131.31,396.437,128.058,401.035,124.776,405.472Zm.577,48.352q5.379,6.038,10.727,11.39c3.92-4.6,7.749-9.4,11.457-14.5-3.343-3.66-6.837-7.525-10.423-11.642Q131.234,446.86,125.354,453.824Zm11.4,28.293c-3.525,3.682-7.081,7.2-10.606,10.544,2.492,2.15,4.984,4.231,7.445,6.2,3.373-3.408,6.716-6.976,10.059-10.659C141.4,486.28,139.12,484.244,136.75,482.117Zm-10.484,39.5c3.464,2.859,6.868,5.558,10.211,8.166,2.887-2.722,5.774-5.489,8.63-8.394-3.4-2.264-6.929-4.712-10.515-7.342C131.8,516.655,129.031,519.17,126.265,521.618Zm11.062,22.872c-3.555,3.111-7.081,6.038-10.575,8.852,3.829,2.813,7.6,5.444,11.244,7.914,3.707-2.676,7.445-5.512,11.274-8.531C145.441,550.208,141.46,547.441,137.327,544.49Zm-9.39-6.976q-5.151-3.946-10.515-8.371-5.288,4.392-10.484,8.371c3.525,3.065,7.02,5.947,10.515,8.737C120.917,543.484,124.412,540.6,127.937,537.514ZM97.548,544.49c-4.133,2.951-8.114,5.718-11.943,8.234q5.744,4.529,11.3,8.554c3.677-2.447,7.415-5.078,11.274-7.914C104.628,550.551,101.1,547.6,97.548,544.49ZM72.842,502.771c3.008,3.568,6.047,7,9.056,10.293,3.282-2.173,6.655-4.552,10.12-7.091-3.282-3.294-6.564-6.747-9.816-10.315C78.919,498.265,75.759,500.621,72.842,502.771ZM83.6,479.487q3.282-2.882,6.655-6.038c-3.829-4.414-7.567-9.035-11.214-13.906-2.158,2.241-4.224,4.346-6.169,6.313Q78.069,472.957,83.6,479.487ZM70.319,423.2c3.252,6.2,6.716,12.1,10.332,17.726q4.969-5.455,10.18-11.573c-3.495-5.123-6.929-10.476-10.271-16.1C76.853,417,73.419,420.293,70.319,423.2Zm4.406-48.192c2.7,6.313,5.592,12.351,8.6,18.184q4.923-5.524,10.12-11.779-4.832-7.514-9.39-15.37C80.773,369.311,77.613,372.33,74.726,375.006Zm2.948-48.466C80.5,333.15,83.6,339.645,86.851,346c2.644-2.951,5.348-6.038,8.083-9.309-3.495-5.81-6.959-11.871-10.332-18.184Q80.956,322.834,77.673,326.54Zm9.6-29.78c1.732-2.173,3.464-4.437,5.227-6.747-3.373-5.878-6.686-11.985-9.846-18.366-1.459,1.784-2.887,3.5-4.254,5.123C81.2,283.677,84.207,290.31,87.276,296.76ZM78.251,230c2.31,6.5,4.771,12.763,7.385,18.893q3.966-5.249,8.083-11c-2.917-5.123-5.744-10.361-8.539-15.736C82.779,225.032,80.439,227.639,78.251,230Zm10.575-55.877q-3.373,6.381-6.838,11.939c1.854,4.506,3.738,8.966,5.744,13.38,2.613-3.682,5.288-7.662,7.962-11.871Q92.184,180.945,88.826,174.118Zm28.6.389c-2.553,4.757-5.136,9.286-7.719,13.54,2.553,4.62,5.136,9.149,7.719,13.54,2.613-4.392,5.2-8.92,7.719-13.54C122.588,183.793,119.975,179.264,117.422,174.507Zm15.043-32.616c-.243.572-.456,1.167-.7,1.738-2.4,6.084-4.923,11.825-7.536,17.337,2.492,5.055,5.045,9.835,7.628,14.387,2.553-5.009,5.014-10.155,7.385-15.393q-3.236-7.479-6.017-15.851C132.951,143.378,132.708,142.623,132.465,141.891Zm13.553,32.227c-2.249,4.574-4.528,9.035-6.868,13.426,2.674,4.231,5.348,8.211,7.962,11.894q2.963-6.622,5.713-13.4Q149.452,180.511,146.018,174.118Zm14.86,43c1.337-4.277,2.613-8.623,3.768-13.083l.82.137c-1.428-1.807-2.917-3.8-4.467-5.947-1.823,4.117-3.647,8.211-5.561,12.214C157.293,212.818,159.146,215.06,160.878,217.118Zm-11.244,5.032c-2.735,5.375-5.592,10.636-8.479,15.736,2.735,3.843,5.44,7.5,8.053,11,2.613-6.107,5.075-12.374,7.385-18.893C154.406,227.617,152.1,225.032,149.635,222.15Zm6.838,54.619c-1.368-1.624-2.8-3.339-4.254-5.123-3.16,6.358-6.473,12.488-9.846,18.366,1.732,2.31,3.495,4.575,5.227,6.747C150.668,290.31,153.646,283.654,156.472,276.769Zm.7,49.77c-2.188-2.493-4.528-5.169-6.929-8.005-3.373,6.313-6.838,12.351-10.332,18.138,2.735,3.294,5.44,6.359,8.053,9.309Q152.932,336.443,157.171,326.54Zm-6.382,39.455q-4.558,7.857-9.39,15.37,5.2,6.313,10.12,11.8c3.008-5.832,5.9-11.871,8.6-18.184C157.232,372.33,154.071,369.311,150.789,365.994Zm13.766,57.2c-3.13-2.9-6.534-6.2-10.241-9.927q-5.014,8.406-10.3,16.1,5.242,6.073,10.211,11.573C157.84,435.3,161.3,429.374,164.556,423.2Zm-2.583,42.68c-1.945-1.99-4.042-4.071-6.169-6.313q-5.47,7.308-11.214,13.906,3.373,3.156,6.655,6.038C154.922,475.118,158.508,470.59,161.972,465.878Zm-9.3,29.78c-3.252,3.568-6.534,7.022-9.816,10.315,3.464,2.539,6.838,4.918,10.12,7.091q4.558-4.941,9.056-10.293C159.085,500.621,155.955,498.265,152.673,495.658Zm16.349,39.958c-4.133-2.173-8.813-4.826-13.918-7.914-3.069,3.133-6.139,6.13-9.238,9.035,4.346,3.11,8.479,5.947,12.429,8.554C161.851,542.249,165.437,539,169.023,535.616Zm-7.962,39.661q5.333-4.117,10.818-8.76c-3.677-2.059-7.9-4.506-12.49-7.342q-5.7,4.6-11.214,8.6C152.7,570.565,157.049,573.058,161.061,575.276ZM142.554,588.5c2.887-1.9,5.835-3.888,8.813-6.038-4.133-2.31-8.509-4.849-13.067-7.685q-5.105,3.431-9.937,6.473C133.559,584.105,138.33,586.507,142.554,588.5ZM117.422,574.91c3.434-2.081,7.02-4.346,10.667-6.793q-5.2-3.534-10.667-7.594c-3.616,2.7-7.172,5.215-10.667,7.594Q112.271,571.788,117.422,574.91ZM92.382,588.5c4.194-1.99,8.934-4.414,14.1-7.251-3.221-2.013-6.534-4.186-9.937-6.473-4.528,2.836-8.9,5.375-13.007,7.662Q88.006,585.66,92.382,588.5Zm-18.537-13.22q6.063-3.294,12.855-7.456c-3.707-2.722-7.445-5.581-11.214-8.623-4.589,2.813-8.813,5.261-12.49,7.319C66.642,569.6,70.289,572.509,73.844,575.276Z" transform="translate(-48.762 125.441)" fill="url(#linear-gradient-110)"/>
      <path id="Path_195" data-name="Path 195" d="M99.705,74.452,98.7,48.4H70.726L70.04,73.857Z" transform="translate(-15.867 62.302)" fill-rule="evenodd" fill="url(#linear-gradient-111)"/>
      <rect id="Rectangle_46" data-name="Rectangle 46" width="51.211" height="13.243" transform="translate(43.4 134.97)" fill="url(#linear-gradient-112)"/>
      <path id="Path_196" data-name="Path 196" d="M169.824,195.239,166.209,65.85H58.23l2.326,129.389Z" transform="translate(-43.775 84.764)" fill-rule="evenodd" fill="url(#linear-gradient-113)"/>
      <path id="Path_197" data-name="Path 197" d="M168.158,69.31H59.18V88.683L168.6,88.111Z" transform="translate(-44.725 89.218)" fill-rule="evenodd" fill="url(#radial-gradient-13)"/>
      <path id="Path_198" data-name="Path 198" d="M168.7,81.752,59.1,80.38V97.237H168.7Z" transform="translate(-44.645 103.468)" fill-rule="evenodd" fill="url(#radial-gradient-14)"/>
      <path id="Path_199" data-name="Path 199" d="M168.231,68.54l.19-3.111L59.32,63.76v4.78Z" transform="translate(-44.865 82.074)" fill-rule="evenodd" fill="url(#linear-gradient-114)"/>
      <path id="Path_200" data-name="Path 200" d="M116.541,59.01v1.532l-51.211.846V59.01Z" transform="translate(-21.93 75.96)" fill-rule="evenodd" fill="url(#linear-gradient-115)"/>
      <path id="Path_201" data-name="Path 201" d="M90.41,110.7S79.18,49.2,82.5,0h-2.4s.778,73.26-7.2,110.7Z" transform="translate(-13.241)" fill-rule="evenodd" fill="url(#linear-gradient-116)"/>
      <path id="Path_202" data-name="Path 202" d="M53.44,583.841c2.083-.846,4.341-1.784,6.747-2.836-2.141-1.51-4.283-3.065-6.453-4.643l.792-19.419c3.021-1.533,6.336-3.294,9.915-5.215-3.139-2.4-6.277-4.94-9.416-7.525l.675-17.177c4.4-2.1,9.416-4.62,14.872-7.594-3.285-3.2-6.6-6.519-9.827-9.972-1.584.915-3.051,1.784-4.459,2.562l1.027-25.5c2.053,2.539,4.165,5.009,6.277,7.434,3.139-2.081,6.483-4.392,9.973-6.907-3.9-4.094-7.744-8.394-11.5-12.809-1.555,1.349-3.021,2.585-4.4,3.728l1.115-28.773c1.7,2.425,3.491,4.8,5.251,7.159,2.2-1.99,4.488-4.094,6.864-6.336-3.989-5.283-7.861-10.819-11.5-16.628l1.027-25.777c.763,1.6,1.525,3.156,2.317,4.735,3.315-2.9,6.923-6.13,10.736-9.675q-5.544-9.16-10.619-19.144c-.528.412-1.056.8-1.555,1.144L62.709,348.9q2.728,7.479,5.72,14.593c2.875-2.493,5.9-5.192,9.035-8.074-3.725-6.176-7.275-12.511-10.56-18.961-1.349,1.3-2.64,2.516-3.843,3.637l1.731-43.663q2.992,9.126,6.717,18.023c2.171-2.241,4.429-4.62,6.717-7.113-3.637-6.473-7.128-13.2-10.53-20.151-.909.915-1.819,1.784-2.64,2.63L66.64,250.11c1.819,4.872,3.725,9.584,5.691,14.272,1.32-1.418,2.611-2.9,3.989-4.414-3.256-6.358-6.365-12.946-9.269-19.785l1.408-36.115.117-.023c1.32,4.437,2.757,8.783,4.224,13.106,1.995-2.081,4.048-4.3,6.16-6.679-2.141-4.026-4.224-8.074-6.248-12.214-1.467,1.784-2.845,3.454-4.224,5.009l1.819-46.294c1.643,4.849,3.432,9.675,5.309,14.41q3.3-5.421,6.424-11.5c-3.9-7.845-11.381,5.764-11.733-2.9-1.2-29.162-10.912-45.1-14.08-57.5l16.749-1.944a269.219,269.219,0,0,0,9.8,30.306c2.053,5.375,4.253,10.659,6.6,15.9,1.613-4.048,3.109-8.3,4.488-12.694,1-3.2,1.907-6.519,2.757-9.9C94.183,114.2,91.9,106.975,89.872,99.4l13.9-1.944c1.731,6.45,3.667,12.648,5.691,18.641,0,0,1.965,3.134,1.613,4.552,2.171,5.993,4.488,11.779,6.893,17.292,1.2,2.768,2.464,5.512,3.725,8.165.968-2.059,1.936-4.14,2.875-6.267,2.728-6.107,5.309-12.511,7.744-19.167-.352-1.418,1.613-4.6,1.613-4.6q3.08-8.955,5.691-18.6l13.9,1.944c-2.024,7.548-4.312,14.776-6.747,21.729a178.968,178.968,0,0,0,7.216,22.575,291.508,291.508,0,0,0,16.368-46.2l18.656,3.728c-4.9,16.605-11.147,31.953-13.229,53.315-.293,2.951-13.112,2.539-14.461,5.284,2.053,4.048,4.224,7.891,6.424,11.5,2.259-5.7,4.371-11.436,6.277-17.291l1.789.5,1.056,30.329c0,.023-.029.069-.029.091a.073.073,0,0,1,.029.069l1.995,56.54c-.7-.572-1.467-1.212-2.288-1.876q-4.488,10.464-9.475,20.265c1.349,1.51,2.669,2.951,3.989,4.391,2.288-5.535,4.547-11.139,6.659-16.925l1.32.252,1.525,44.349c-1.5-1.441-3.139-3.088-4.928-4.872-3.373,6.976-6.893,13.678-10.531,20.173,2.288,2.516,4.547,4.872,6.717,7.113a212.814,212.814,0,0,0,7.891-21.8l.851.114,1.613,49.153c-1.7-1.578-3.667-3.431-5.867-5.512-3.285,6.427-6.835,12.74-10.56,18.915,3.139,2.928,6.16,5.6,9.035,8.074,2.611-6.13,5.075-12.488,7.3-19.053l.176.046,1.437,41.6c-1.027-.778-2.141-1.6-3.344-2.516-3.344,6.656-6.893,13.014-10.619,19.144,3.813,3.545,7.421,6.77,10.765,9.652,1.32-2.63,2.64-5.306,3.872-8.028l.939,27.47a2.562,2.562,0,0,0-.293-.229c-3.989,6.5-8.243,12.626-12.672,18.481,2.347,2.219,4.664,4.346,6.835,6.336,2.288-2.973,4.488-6.015,6.659-9.126l1.085,31.884c-1.7-1.418-3.637-3.042-5.749-4.872-3.755,4.437-7.627,8.714-11.5,12.809,3.491,2.539,6.835,4.826,9.973,6.907,2.552-2.9,5.016-5.855,7.509-8.92l.939,27.63c-1.7-.938-3.549-1.99-5.6-3.2q-4.884,5.181-9.827,9.972c5.925,3.2,11.293,5.924,15.957,8.1l.557,15.828c-3.461,2.928-6.923,5.7-10.384,8.371,3.989,2.173,7.627,4.048,10.883,5.718l.616,18.321c-2.435,1.807-4.84,3.545-7.216,5.238,2.669,1.166,5.192,2.219,7.509,3.156l.381,11.047h-2.053c-4.664-1.738-10.3-4-16.749-6.885-2.963,1.921-5.9,3.8-8.771,5.558,1.437.5,2.728.961,3.813,1.327h-29.8c-4.84-2.127-10.149-4.6-15.84-7.456-5.691,2.859-10.971,5.329-15.81,7.456H76.026c1.085-.366,2.376-.823,3.813-1.327-2.875-1.761-5.837-3.614-8.8-5.558-6.424,2.882-12.056,5.146-16.72,6.885H53ZM63.677,535.6c4.019,3.385,8.067,6.633,12.085,9.7,4.429-2.607,9.093-5.467,13.933-8.577q-5.192-4.357-10.384-9.012C73.592,530.777,68.341,533.407,63.677,535.6Zm40.978-336.064c-3.344,4.391-6.659,8.44-9.856,12.214q4.268,7.719,8.8,15.141,5.06-6.656,10.12-13.792C110.7,208.688,107.647,204.182,104.655,199.539Zm.733-24.2c2.9-4.552,5.749-9.332,8.565-14.387-3.2-6.038-6.307-12.351-9.24-19.076a190.412,190.412,0,0,1-7.627,18.046C99.786,165.185,102.543,170.308,105.389,175.34Zm-1.936,323.507q4.18-2.985,8.36-6.2-5.984-5.009-11.939-10.544c-2.64,2.15-5.192,4.163-7.744,6.107C95.914,491.871,99.669,495.439,103.453,498.847Zm-1.115,15.164c-4.019,2.63-7.979,5.078-11.821,7.342,3.256,2.928,6.483,5.7,9.739,8.394,3.755-2.562,7.6-5.284,11.469-8.143C108.586,519.158,105.477,516.642,102.338,514.011Zm19.272-29.254q6.072-5.112,12.115-10.8c-3.989-3.5-8.037-7.251-12.115-11.207-4.077,3.957-8.1,7.685-12.114,11.207C113.514,477.781,117.562,481.35,121.61,484.758Zm-8.8,22.163c2.963,2.448,5.9,4.849,8.829,7.159,2.933-2.31,5.867-4.712,8.829-7.159-2.933-2.081-5.867-4.254-8.829-6.519C118.676,502.667,115.743,504.839,112.81,506.921Zm8.8-179.273q-4.356,5.146-8.653,9.881,4.312,6.107,8.653,11.848,4.356-5.73,8.653-11.848C127.388,334.372,124.514,331.055,121.61,327.647Zm.029-20.768c3.989-5.238,7.949-10.7,11.821-16.468q-5.852-7-11.851-14.73c-3.989,5.123-7.949,10.041-11.821,14.707C113.661,296.152,117.65,301.619,121.639,306.879Zm-10.384,75.3q5.148,6.862,10.355,13.335,5.236-6.484,10.325-13.335c-3.4-3.774-6.864-7.754-10.325-11.917Q116.418,376.5,111.255,382.175Zm-2.669,47.437q6.424,7.891,13.024,15c4.371-4.735,8.741-9.721,13.024-15-4.283-4.6-8.653-9.4-13.024-14.432C117.239,420.212,112.869,425.015,108.586,429.612ZM100.7,465.2q5.984-5.352,12.027-11.39c-4.429-4.643-8.829-9.538-13.171-14.753-4.019,4.094-7.949,7.982-11.733,11.619C91.983,455.8,96.266,460.6,100.7,465.2Zm.147-45.539c4.136-4.529,8.36-9.263,12.525-14.2-3.7-4.437-7.363-9.035-10.971-13.746-4.253,4.437-8.389,8.577-12.349,12.4Q95.283,412.206,100.842,419.663Zm2.728-48.146c3.227-3.682,6.453-7.548,9.739-11.573-3.2-4.071-6.395-8.257-9.563-12.648-3.344,3.431-6.659,6.656-9.827,9.7C97.029,361.933,100.285,366.782,103.57,371.517Zm1.936-44.921c2.581-2.928,5.192-5.97,7.773-9.149-4.165-5.261-8.331-10.819-12.408-16.628-2.288,2.585-4.488,5.1-6.659,7.5C97.879,314.656,101.663,320.763,105.506,326.6ZM102.543,279.2c3.667-4.506,7.363-9.24,11.059-14.135-3.813-5.192-7.627-10.521-11.352-16.079Q97.014,255.336,92.042,261,97.146,270.432,102.543,279.2Zm8.3-40.827q5.324,8.131,10.765,15.782,5.456-7.651,10.765-15.782c-3.549-4.529-7.157-9.286-10.765-14.2C118,229.09,114.394,233.848,110.845,238.377Zm28.8-11.5c3.021-4.94,5.925-9.972,8.8-15.119-3.227-3.774-6.512-7.822-9.856-12.214-2.992,4.62-6.013,9.149-9.064,13.54C132.9,217.837,136.306,222.435,139.65,226.872Zm-10.032,38.2c3.725,4.918,7.392,9.629,11.059,14.158,3.608-5.832,7.128-11.917,10.5-18.206-3.285-3.774-6.717-7.8-10.237-12.008Q135.352,257.315,129.618,265.069Zm12.76,35.772q-6.116,8.714-12.379,16.605c2.581,3.156,5.192,6.2,7.744,9.149,3.843-5.855,7.627-11.939,11.293-18.229C146.865,305.919,144.607,303.426,142.378,300.841Zm-12.437,59.1q4.884,6.038,9.739,11.573c3.285-4.735,6.512-9.584,9.621-14.524q-4.8-4.563-9.8-9.7C136.335,351.686,133.138,355.872,129.94,359.943Zm-.088,45.516c4.195,4.94,8.389,9.675,12.525,14.2,3.7-4.963,7.3-10.155,10.765-15.553-3.96-3.8-8.1-7.937-12.349-12.374C137.215,396.424,133.548,401.022,129.852,405.459Zm.675,48.352c4.019,4.026,8.067,7.822,12.027,11.39,4.4-4.6,8.712-9.4,12.877-14.5-3.755-3.66-7.685-7.525-11.733-11.642Q137.142,446.847,130.527,453.811ZM143.346,482.1q-5.94,5.524-11.939,10.544c2.787,2.15,5.6,4.231,8.36,6.2,3.784-3.408,7.568-6.976,11.293-10.658C148.537,486.267,145.985,484.231,143.346,482.1Zm-11.821,39.5c3.9,2.859,7.715,5.558,11.5,8.165,3.256-2.722,6.483-5.489,9.709-8.394-3.813-2.264-7.773-4.712-11.821-7.342C137.772,516.642,134.663,519.158,131.524,521.6Zm12.437,22.872c-3.989,3.111-7.949,6.038-11.88,8.852,4.283,2.813,8.536,5.444,12.643,7.914,4.165-2.676,8.36-5.512,12.672-8.531C153.084,550.2,148.625,547.428,143.962,544.477ZM133.431,537.5q-5.808-3.945-11.792-8.371c-3.989,2.928-7.891,5.718-11.763,8.371,3.989,3.065,7.891,5.947,11.792,8.737C125.54,543.471,129.471,540.589,133.431,537.5Zm-34.144,6.976c-4.635,2.951-9.123,5.718-13.435,8.234,4.283,3.019,8.536,5.878,12.7,8.554q6.2-3.671,12.672-7.914Q105.286,549.132,99.287,544.477ZM71.509,502.758q5.06,5.352,10.179,10.293c3.7-2.173,7.48-4.552,11.352-7.091-3.7-3.294-7.363-6.747-11-10.315C78.344,498.252,74.824,500.608,71.509,502.758Zm12.114-23.284q3.7-2.882,7.48-6.038c-4.283-4.414-8.507-9.035-12.584-13.906-2.435,2.241-4.723,4.346-6.923,6.313Q77.4,472.944,83.624,479.474Zm-14.93-56.289c3.637,6.2,7.539,12.1,11.616,17.726q5.588-5.455,11.44-11.573c-3.931-5.123-7.8-10.475-11.528-16.1C76.056,416.987,72.213,420.28,68.693,423.185Zm4.987-48.192c3.021,6.313,6.277,12.351,9.651,18.183q5.544-5.524,11.381-11.779-5.412-7.514-10.531-15.37C80.456,369.3,76.906,372.317,73.68,374.993Zm3.285-48.467c3.2,6.61,6.659,13.106,10.3,19.464,2.992-2.95,5.984-6.038,9.064-9.309-3.931-5.81-7.832-11.871-11.616-18.184Q80.661,322.821,76.965,326.527Zm10.765-29.78c1.936-2.173,3.9-4.437,5.867-6.747-3.784-5.878-7.509-11.985-11.059-18.367-1.643,1.784-3.256,3.5-4.781,5.123C80.954,283.664,84.3,290.3,87.73,296.747ZM77.61,229.982c2.581,6.5,5.368,12.763,8.3,18.893q4.444-5.249,9.064-11-4.884-7.685-9.563-15.736C82.685,225.019,80.074,227.627,77.61,229.982Zm11.88-55.877c-2.523,4.254-5.1,8.234-7.656,11.939,2.053,4.506,4.224,8.966,6.424,13.38,2.933-3.682,5.925-7.662,8.947-11.871C94.565,183.14,92.013,178.657,89.49,174.105Zm32.12.389c-2.875,4.757-5.779,9.286-8.683,13.54,2.845,4.62,5.749,9.149,8.683,13.54,2.933-4.392,5.837-8.92,8.683-13.54C127.388,183.78,124.484,179.251,121.61,174.494Zm16.9-32.616c-.264.572-.528,1.167-.792,1.738-2.7,6.084-5.544,11.825-8.448,17.337,2.787,5.055,5.661,9.835,8.565,14.387,2.845-5.009,5.632-10.155,8.3-15.393-2.405-4.986-4.693-10.27-6.776-15.851C139.063,143.365,138.77,142.61,138.506,141.878Zm15.253,32.227c-2.523,4.574-5.075,9.035-7.715,13.426,3.021,4.231,5.984,8.211,8.947,11.894q3.344-6.622,6.395-13.4Q157.557,180.5,153.759,174.105Zm16.69,43c1.5-4.277,2.933-8.623,4.224-13.083l.909.137c-1.584-1.807-3.256-3.8-5.016-5.947-2.053,4.117-4.107,8.211-6.248,12.214C166.4,212.805,168.484,215.047,170.449,217.105Zm-12.643,5.032c-3.08,5.375-6.277,10.636-9.533,15.736,3.051,3.842,6.1,7.5,9.064,11,2.933-6.107,5.691-12.374,8.3-18.893C163.175,227.6,160.535,225.019,157.807,222.137Zm7.685,54.619c-1.555-1.624-3.139-3.339-4.781-5.123-3.549,6.359-7.275,12.488-11.059,18.367,1.965,2.31,3.931,4.574,5.867,6.747C158.951,290.3,162.295,283.641,165.492,276.756Zm.792,49.77c-2.464-2.493-5.075-5.169-7.773-8.005q-5.676,9.469-11.587,18.138c3.051,3.294,6.1,6.359,9.064,9.309C159.625,339.61,163.087,333.114,166.284,326.527Zm-7.216,39.455q-5.1,7.857-10.531,15.37,5.852,6.313,11.381,11.8c3.373-5.832,6.629-11.871,9.651-18.184C166.343,372.317,162.793,369.3,159.068,365.981Zm15.488,57.2c-3.52-2.9-7.363-6.2-11.5-9.927-3.755,5.6-7.627,10.979-11.557,16.1q5.9,6.073,11.469,11.573C167.017,435.285,170.919,429.361,174.556,423.185Zm-2.9,42.68c-2.2-1.99-4.517-4.071-6.923-6.313-4.077,4.872-8.3,9.515-12.584,13.906,2.552,2.1,5.016,4.117,7.48,6.038C163.732,475.105,167.78,470.577,171.652,465.865Zm-10.443,29.78c-3.637,3.568-7.333,7.022-11,10.315,3.9,2.539,7.685,4.918,11.352,7.091,3.432-3.294,6.805-6.725,10.179-10.293C168.425,500.608,164.876,498.252,161.209,495.645ZM179.572,535.6c-4.635-2.173-9.915-4.826-15.634-7.914-3.461,3.133-6.893,6.13-10.384,9.035,4.869,3.111,9.533,5.947,13.962,8.554C171.505,542.236,175.524,538.988,179.572,535.6Zm-8.917,39.661c3.989-2.745,8.067-5.672,12.144-8.76-4.136-2.059-8.859-4.506-14.021-7.342q-6.38,4.6-12.584,8.6C161.268,570.552,166.108,573.045,170.655,575.263Zm-20.8,13.22c3.256-1.9,6.541-3.888,9.915-6.038-4.664-2.31-9.563-4.849-14.666-7.685q-5.72,3.431-11.176,6.473C139.738,584.092,145.105,586.494,149.857,588.484ZM121.61,574.9q5.808-3.122,11.968-6.793-5.852-3.534-11.968-7.594c-4.048,2.7-8.067,5.215-11.968,7.594Q115.8,571.775,121.61,574.9Zm-28.13,13.586c4.723-1.99,10.032-4.414,15.84-7.251-3.608-2.013-7.363-4.186-11.176-6.473-5.1,2.836-10,5.375-14.637,7.662C86.909,584.573,90.194,586.585,93.479,588.484Zm-20.8-13.22c4.517-2.2,9.357-4.689,14.432-7.456-4.165-2.722-8.36-5.581-12.613-8.623C69.338,562,64.616,564.445,60.48,566.5,64.586,569.591,68.664,572.5,72.682,575.263Z" transform="translate(-53 125.454)" fill="url(#linear-gradient-117)"/>
    </g>
  </g>
</svg>
