<svg id="Layer_1" data-name="Layer 1" xmlns="http://www.w3.org/2000/svg" xmlns:xlink="http://www.w3.org/1999/xlink" viewBox="0 0 570.45 321.93"><defs><style>.cls-1,.cls-10,.cls-100,.cls-101,.cls-102,.cls-103,.cls-104,.cls-105,.cls-106,.cls-107,.cls-108,.cls-109,.cls-11,.cls-110,.cls-111,.cls-112,.cls-113,.cls-114,.cls-115,.cls-116,.cls-117,.cls-118,.cls-119,.cls-12,.cls-120,.cls-121,.cls-122,.cls-123,.cls-124,.cls-125,.cls-126,.cls-127,.cls-128,.cls-129,.cls-13,.cls-130,.cls-131,.cls-132,.cls-136,.cls-138,.cls-139,.cls-14,.cls-140,.cls-141,.cls-142,.cls-143,.cls-15,.cls-16,.cls-17,.cls-18,.cls-19,.cls-2,.cls-20,.cls-21,.cls-22,.cls-23,.cls-24,.cls-25,.cls-26,.cls-27,.cls-28,.cls-29,.cls-3,.cls-30,.cls-31,.cls-37,.cls-38,.cls-39,.cls-4,.cls-40,.cls-41,.cls-42,.cls-43,.cls-44,.cls-45,.cls-46,.cls-47,.cls-48,.cls-49,.cls-5,.cls-50,.cls-51,.cls-52,.cls-53,.cls-54,.cls-55,.cls-56,.cls-57,.cls-58,.cls-59,.cls-6,.cls-60,.cls-61,.cls-62,.cls-63,.cls-64,.cls-65,.cls-66,.cls-67,.cls-68,.cls-69,.cls-7,.cls-70,.cls-71,.cls-72,.cls-73,.cls-74,.cls-75,.cls-76,.cls-77,.cls-78,.cls-79,.cls-8,.cls-80,.cls-81,.cls-82,.cls-83,.cls-84,.cls-85,.cls-86,.cls-87,.cls-88,.cls-89,.cls-90,.cls-91,.cls-92,.cls-93,.cls-94,.cls-95,.cls-96,.cls-97,.cls-98,.cls-99{fill-rule:evenodd;}.cls-1{fill:url(#linear-gradient);}.cls-2{fill:#e3c1dc;}.cls-3{fill:url(#linear-gradient-2);}.cls-4{fill:url(#linear-gradient-3);}.cls-5{fill:url(#linear-gradient-4);}.cls-6{fill:url(#linear-gradient-5);}.cls-7{fill:url(#linear-gradient-6);}.cls-8{fill:#f9bab4;}.cls-9{fill:#fde0d1;}.cls-10{fill:url(#linear-gradient-7);}.cls-11{fill:url(#linear-gradient-8);}.cls-12{fill:url(#linear-gradient-9);}.cls-13{fill:url(#linear-gradient-10);}.cls-14{fill:url(#linear-gradient-11);}.cls-15{fill:url(#linear-gradient-12);}.cls-16{fill:url(#linear-gradient-13);}.cls-17{fill:url(#radial-gradient);}.cls-18{fill:url(#radial-gradient-2);}.cls-19{fill:url(#radial-gradient-3);}.cls-20{fill:url(#radial-gradient-4);}.cls-21{fill:url(#radial-gradient-5);}.cls-22{fill:url(#radial-gradient-6);}.cls-23{fill:url(#radial-gradient-7);}.cls-24{fill:url(#radial-gradient-8);}.cls-25{fill:url(#radial-gradient-9);}.cls-26{fill:url(#radial-gradient-10);}.cls-27{fill:url(#linear-gradient-14);}.cls-28{fill:url(#linear-gradient-15);}.cls-29{fill:url(#radial-gradient-11);}.cls-30{fill:url(#radial-gradient-12);}.cls-31{fill:#dbb0d2;}.cls-32{fill:#ffdbab;}.cls-33{fill:url(#linear-gradient-16);}.cls-34{fill:#fdfbdc;}.cls-35{fill:url(#linear-gradient-17);}.cls-112,.cls-116,.cls-121,.cls-122,.cls-123,.cls-36,.cls-37,.cls-61{opacity:0.5;}.cls-101,.cls-112,.cls-116,.cls-121,.cls-122,.cls-123,.cls-36,.cls-37,.cls-61{isolation:isolate;}.cls-36{fill:url(#linear-gradient-18);}.cls-37{fill:#84a4cc;}.cls-38{fill:url(#linear-gradient-19);}.cls-39{fill:url(#linear-gradient-20);}.cls-40{fill:url(#linear-gradient-21);}.cls-41{fill:url(#linear-gradient-22);}.cls-42{fill:url(#linear-gradient-23);}.cls-43{fill:url(#linear-gradient-24);}.cls-44{fill:#fdc58b;}.cls-45{fill:url(#linear-gradient-25);}.cls-46{fill:url(#linear-gradient-26);}.cls-47{fill:#ffe094;}.cls-48{fill:url(#linear-gradient-27);}.cls-49{fill:url(#linear-gradient-28);}.cls-50{fill:url(#linear-gradient-29);}.cls-51{fill:url(#linear-gradient-30);}.cls-52{fill:url(#linear-gradient-31);}.cls-53{fill:url(#linear-gradient-32);}.cls-54{fill:url(#linear-gradient-33);}.cls-55{fill:url(#linear-gradient-34);}.cls-56{fill:url(#linear-gradient-35);}.cls-57{fill:url(#linear-gradient-36);}.cls-58{fill:url(#linear-gradient-37);}.cls-59{fill:url(#linear-gradient-38);}.cls-60{fill:url(#linear-gradient-39);}.cls-61{fill:url(#linear-gradient-40);}.cls-62{fill:url(#linear-gradient-41);}.cls-63{fill:url(#linear-gradient-42);}.cls-64{fill:url(#linear-gradient-43);}.cls-65{fill:url(#linear-gradient-44);}.cls-66{fill:#fcc7a1;}.cls-67{fill:url(#linear-gradient-45);}.cls-68{fill:url(#linear-gradient-46);}.cls-69{fill:url(#linear-gradient-47);}.cls-70{fill:url(#linear-gradient-48);}.cls-71{fill:url(#linear-gradient-49);}.cls-72{fill:url(#linear-gradient-50);}.cls-73{fill:url(#linear-gradient-51);}.cls-74{fill:url(#linear-gradient-52);}.cls-75{fill:url(#linear-gradient-53);}.cls-76{fill:url(#linear-gradient-54);}.cls-77{fill:url(#linear-gradient-55);}.cls-78{fill:url(#linear-gradient-56);}.cls-79{fill:url(#linear-gradient-57);}.cls-80{fill:url(#linear-gradient-58);}.cls-81{fill:url(#linear-gradient-59);}.cls-82{fill:url(#linear-gradient-60);}.cls-83{fill:url(#linear-gradient-61);}.cls-84{fill:url(#linear-gradient-62);}.cls-85{fill:url(#linear-gradient-63);}.cls-86{fill:url(#linear-gradient-64);}.cls-87{fill:url(#linear-gradient-65);}.cls-88{fill:url(#linear-gradient-66);}.cls-89{fill:url(#linear-gradient-67);}.cls-90{fill:url(#linear-gradient-68);}.cls-91{fill:url(#linear-gradient-69);}.cls-92{fill:#722d59;}.cls-93{fill:url(#linear-gradient-70);}.cls-94{fill:url(#linear-gradient-71);}.cls-95{fill:url(#linear-gradient-72);}.cls-96{fill:url(#linear-gradient-73);}.cls-97{fill:url(#linear-gradient-74);}.cls-98{fill:url(#linear-gradient-75);}.cls-99{fill:url(#linear-gradient-76);}.cls-100{fill:url(#linear-gradient-77);}.cls-101{opacity:0.63;fill:url(#linear-gradient-78);}.cls-102{fill:url(#linear-gradient-79);}.cls-103{fill:url(#linear-gradient-80);}.cls-104{fill:url(#linear-gradient-81);}.cls-105{fill:url(#linear-gradient-82);}.cls-106{fill:url(#linear-gradient-83);}.cls-107{fill:url(#linear-gradient-84);}.cls-108{fill:url(#linear-gradient-85);}.cls-109{fill:url(#linear-gradient-86);}.cls-110{fill:url(#linear-gradient-87);}.cls-111{fill:url(#linear-gradient-88);}.cls-112{fill:url(#linear-gradient-89);}.cls-113{fill:url(#linear-gradient-90);}.cls-114{fill:url(#linear-gradient-91);}.cls-115{fill:url(#linear-gradient-92);}.cls-116{fill:url(#linear-gradient-93);}.cls-117{fill:url(#linear-gradient-94);}.cls-118{fill:url(#linear-gradient-95);}.cls-119{fill:url(#linear-gradient-96);}.cls-120{fill:url(#linear-gradient-97);}.cls-121{fill:url(#linear-gradient-98);}.cls-122{fill:url(#linear-gradient-99);}.cls-123{fill:url(#linear-gradient-100);}.cls-124{fill:#853c59;}.cls-125{fill:url(#linear-gradient-101);}.cls-126{fill:url(#linear-gradient-102);}.cls-127{fill:url(#linear-gradient-103);}.cls-128{fill:#efa6a9;}.cls-129{fill:url(#linear-gradient-104);}.cls-130{fill:url(#linear-gradient-105);}.cls-131{fill:url(#linear-gradient-106);}.cls-132{fill:url(#linear-gradient-107);}.cls-133{fill:url(#linear-gradient-108);}.cls-134{fill:url(#linear-gradient-109);}.cls-135{fill:url(#linear-gradient-110);}.cls-136{fill:url(#linear-gradient-111);}.cls-137{fill:url(#linear-gradient-112);}.cls-138{fill:url(#linear-gradient-113);}.cls-139{fill:url(#radial-gradient-13);}.cls-140{fill:url(#radial-gradient-14);}.cls-141{fill:url(#linear-gradient-114);}.cls-142{fill:url(#linear-gradient-115);}.cls-143{fill:url(#linear-gradient-116);}.cls-144{fill:url(#linear-gradient-117);}</style><linearGradient id="linear-gradient" x1="-2.59" y1="840.26" x2="-2.59" y2="840.71" gradientTransform="matrix(55.81, 0, 0, -172.94, 355.04, 145651.02)" gradientUnits="userSpaceOnUse"><stop offset="0.03" stop-color="#fabfb7"/><stop offset="1" stop-color="#fff0d2"/></linearGradient><linearGradient id="linear-gradient-2" x1="-0.25" y1="836.9" x2="-0.25" y2="837.36" gradientTransform="matrix(131.12, 0, 0, -28.78, 244.35, 24428.08)" gradientUnits="userSpaceOnUse"><stop offset="0" stop-color="#d84880"/><stop offset="1" stop-color="#ea9f95"/></linearGradient><linearGradient id="linear-gradient-3" x1="-0.6" y1="841.29" x2="-0.6" y2="841.74" gradientTransform="matrix(116.76, 0, 0, -469.41, 294.09, 395458.23)" xlink:href="#linear-gradient"/><linearGradient id="linear-gradient-4" x1="-2.32" y1="841.29" x2="-2.24" y2="841.74" gradientTransform="matrix(52.95, 0, 0, -472.95, 308.13, 398443.11)" xlink:href="#linear-gradient-2"/><linearGradient id="linear-gradient-5" x1="-1.03" y1="834.29" x2="-1.03" y2="834.74" gradientTransform="matrix(94.65, 0, 0, -17.75, 317.3, 15152.26)" xlink:href="#linear-gradient"/><linearGradient id="linear-gradient-6" x1="-2.16" y1="832.7" x2="-2.16" y2="833.15" gradientTransform="matrix(65.25, 0, 0, -15.07, 360.1, 12890.99)" xlink:href="#linear-gradient"/><linearGradient id="linear-gradient-7" x1="0.8" y1="836.99" x2="0.8" y2="837.44" gradientTransform="matrix(103.68, 0, 0, -46.82, 1.05, 39475.48)" xlink:href="#linear-gradient"/><linearGradient id="linear-gradient-8" x1="1.19" y1="837.64" x2="1.2" y2="838.1" gradientTransform="matrix(74.34, 0, 0, -54.69, -43.94, 46099.49)" xlink:href="#linear-gradient-2"/><linearGradient id="linear-gradient-9" x1="1.5" y1="837.78" x2="1.06" y2="837.78" gradientTransform="matrix(247.82, 0, 0, -47.8, -246.68, 40344.09)" gradientUnits="userSpaceOnUse"><stop offset="0" stop-color="#d84880"/><stop offset="1" stop-color="#e96360"/></linearGradient><linearGradient id="linear-gradient-10" x1="1.15" y1="838.84" x2="1.15" y2="839.29" gradientTransform="matrix(162.6, 0, 0, -66.86, -115.81, 56403.75)" xlink:href="#linear-gradient"/><linearGradient id="linear-gradient-11" x1="1.12" y1="838.88" x2="1.13" y2="839.33" gradientTransform="matrix(64.55, 0, 0, -67.95, -26.81, 57328.27)" xlink:href="#linear-gradient-2"/><linearGradient id="linear-gradient-12" x1="0.97" y1="835.36" x2="0.97" y2="835.81" gradientTransform="matrix(153.2, 0, 0, -31.86, -57.44, 26909.18)" xlink:href="#linear-gradient"/><linearGradient id="linear-gradient-13" x1="1.37" y1="837.12" x2="1.37" y2="837.58" gradientTransform="matrix(94.62, 0, 0, -44.56, -93.49, 37600.91)" xlink:href="#linear-gradient-2"/><radialGradient id="radial-gradient" cx="5.91" cy="838.7" r="1.02" gradientTransform="translate(429.39 51129.02) rotate(180) scale(53.11 60.6)" gradientUnits="userSpaceOnUse"><stop offset="0.01" stop-color="#31a7a6"/><stop offset="1" stop-color="#19638c"/></radialGradient><radialGradient id="radial-gradient-2" cx="7.09" cy="838.69" r="1.02" gradientTransform="translate(495.22 51566.13) rotate(180) scale(53.56 61.12)" xlink:href="#radial-gradient"/><radialGradient id="radial-gradient-3" cx="8.34" cy="838.71" r="1.01" gradientTransform="translate(568.82 52311.42) rotate(180) scale(54.35 62.01)" xlink:href="#radial-gradient"/><radialGradient id="radial-gradient-4" cx="9.63" cy="838.7" r="1" gradientTransform="translate(643.17 52704.13) rotate(180) scale(54.76 62.48)" xlink:href="#radial-gradient"/><radialGradient id="radial-gradient-5" cx="10.97" cy="838.66" r="1" gradientTransform="translate(716.71 52699.01) rotate(180) scale(54.76 62.47)" xlink:href="#radial-gradient"/><radialGradient id="radial-gradient-6" cx="-2.26" cy="838.7" r="0.53" gradientTransform="translate(-103.26 53531.23) rotate(180) scale(55.6 63.45)" xlink:href="#radial-gradient"/><radialGradient id="radial-gradient-7" cx="-3.46" cy="838.65" r="0.53" gradientTransform="translate(-170.25 53546.23) rotate(180) scale(55.65 63.47)" xlink:href="#radial-gradient"/><radialGradient id="radial-gradient-8" cx="-4.74" cy="838.59" r="0.53" gradientTransform="translate(-241.35 53520.5) rotate(180) scale(55.6 63.44)" xlink:href="#radial-gradient"/><radialGradient id="radial-gradient-9" cx="-6.06" cy="838.53" r="0.53" gradientTransform="translate(-314.98 53515.72) rotate(180) scale(55.6 63.44)" xlink:href="#radial-gradient"/><radialGradient id="radial-gradient-10" cx="-7.39" cy="838.48" r="0.53" gradientTransform="translate(-388.6 53513.37) rotate(180) scale(55.6 63.44)" xlink:href="#radial-gradient"/><linearGradient id="linear-gradient-14" x1="0.94" y1="841.29" x2="0.94" y2="841.74" gradientTransform="matrix(147.96, 0, 0, -551.82, -46.96, 464807.13)" xlink:href="#linear-gradient"/><linearGradient id="linear-gradient-15" x1="1.35" y1="841.29" x2="1.39" y2="841.74" gradientTransform="matrix(104.39, 0, 0, -551.82, -101.67, 464807.18)" xlink:href="#linear-gradient-2"/><radialGradient id="radial-gradient-11" cx="2.25" cy="841.71" r="0.21" gradientTransform="translate(1329.74 518361.2) rotate(180) scale(539.42 615.43)" gradientUnits="userSpaceOnUse"><stop offset="0" stop-color="#e4ecad"/><stop offset="1" stop-color="#1a88a9"/></radialGradient><radialGradient id="radial-gradient-12" cx="1.85" cy="841.6" r="0.15" gradientTransform="translate(1040.72 516304) rotate(180) scale(537.29 613)" xlink:href="#radial-gradient"/><linearGradient id="linear-gradient-16" x1="0.86" y1="841.14" x2="0.42" y2="841.14" gradientTransform="matrix(96.84, 0, 0, -215.04, 31.26, 181252.92)" gradientUnits="userSpaceOnUse"><stop offset="0" stop-color="#fcf9ce"/><stop offset="1" stop-color="#aed4b3"/></linearGradient><linearGradient id="linear-gradient-17" x1="1.4" y1="841.72" x2="1.4" y2="842.16" gradientTransform="matrix(42.18, 0, 0, -222.21, -29.44, 187602.24)" gradientUnits="userSpaceOnUse"><stop offset="0" stop-color="#84a4cc"/><stop offset="1" stop-color="#feeae7"/></linearGradient><linearGradient id="linear-gradient-18" x1="0.59" y1="841.99" x2="0.59" y2="842.44" gradientTransform="matrix(89.19, 0, 0, -157.18, 38.2, 132911.93)" xlink:href="#linear-gradient-17"/><linearGradient id="linear-gradient-19" x1="-10.36" y1="838.36" x2="-10.36" y2="838.82" gradientTransform="matrix(27.65, 0, 0, -39.2, 577.03, 33210.26)" gradientUnits="userSpaceOnUse"><stop offset="0.03" stop-color="#dd897c"/><stop offset="1" stop-color="#fff0d2"/></linearGradient><linearGradient id="linear-gradient-20" x1="-7.57" y1="841.29" x2="-7.57" y2="841.74" gradientTransform="matrix(35.22, 0, 0, -50.91, 550.65, 43286.2)" xlink:href="#linear-gradient-9"/><linearGradient id="linear-gradient-21" x1="-7.92" y1="841.52" x2="-8.37" y2="841.52" gradientTransform="matrix(34.93, 0, 0, -51.55, 582.44, 43825.07)" gradientUnits="userSpaceOnUse"><stop offset="0" stop-color="#fcb972"/><stop offset="0.97" stop-color="#f58573"/></linearGradient><linearGradient id="linear-gradient-22" x1="-8.83" y1="840.92" x2="-8.83" y2="841.37" gradientTransform="matrix(30.95, 0, 0, -164.68, 557.42, 138911.04)" xlink:href="#linear-gradient-9"/><linearGradient id="linear-gradient-23" x1="-8.63" y1="840.93" x2="-8.63" y2="841.38" gradientTransform="matrix(33.23, 0, 0, -166.1, 584.13, 140105)" gradientUnits="userSpaceOnUse"><stop offset="0.03" stop-color="#f58573"/><stop offset="1" stop-color="#fcb972"/></linearGradient><linearGradient id="linear-gradient-24" x1="-5.29" y1="838.5" x2="-5.29" y2="838.94" gradientTransform="matrix(48.38, 0, 0, -25.43, 546.78, 21715.54)" xlink:href="#linear-gradient-9"/><linearGradient id="linear-gradient-25" x1="-5.87" y1="837" x2="-5.87" y2="837.45" gradientTransform="matrix(44.51, 0, 0, -23.12, 551.7, 19708.3)" xlink:href="#linear-gradient-23"/><linearGradient id="linear-gradient-26" x1="-5.87" y1="837.02" x2="-5.87" y2="837.48" gradientTransform="matrix(44.51, 0, 0, -23.26, 551.7, 19822.82)" xlink:href="#linear-gradient-9"/><linearGradient id="linear-gradient-27" x1="-19.43" y1="836.68" x2="-19.43" y2="837.13" gradientTransform="matrix(28.22, 0, 0, -40.51, 1051.19, 34190.59)" xlink:href="#linear-gradient-19"/><linearGradient id="linear-gradient-28" x1="-17.44" y1="837.8" x2="-17.44" y2="838.24" gradientTransform="matrix(31.27, 0, 0, -44.92, 1049.13, 37959.05)" xlink:href="#linear-gradient-23"/><linearGradient id="linear-gradient-29" x1="-43.22" y1="836.79" x2="-43.22" y2="837.23" gradientTransform="matrix(13.13, 0, 0, -35.41, 1067.26, 29947.42)" xlink:href="#linear-gradient-9"/><linearGradient id="linear-gradient-30" x1="-11.5" y1="841.17" x2="-11.5" y2="841.61" gradientTransform="matrix(44.81, 0, 0, -64.75, 1011.16, 54916.38)" xlink:href="#linear-gradient-9"/><linearGradient id="linear-gradient-31" x1="-11.88" y1="841.39" x2="-12.32" y2="841.39" gradientTransform="matrix(44.44, 0, 0, -65.6, 1051.57, 55628.72)" xlink:href="#linear-gradient-21"/><linearGradient id="linear-gradient-32" x1="-4.35" y1="840.79" x2="-4.35" y2="841.24" gradientTransform="matrix(81.52, 0, 0, -98.51, 766.1, 83251.21)" xlink:href="#linear-gradient"/><linearGradient id="linear-gradient-33" x1="-3.81" y1="840.79" x2="-3.81" y2="841.24" gradientTransform="matrix(81.52, 0, 0, -98.51, 686.3, 83251.21)" xlink:href="#linear-gradient"/><linearGradient id="linear-gradient-34" x1="-0.59" y1="841.24" x2="-0.59" y2="841.69" gradientTransform="matrix(217.12, 0, 0, -83.03, 521.49, 70306.98)" xlink:href="#linear-gradient-23"/><linearGradient id="linear-gradient-35" x1="0.82" y1="841.83" x2="0.82" y2="842.28" gradientTransform="matrix(652.8, 0, 0, -35.43, -151.06, 30286.09)" xlink:href="#linear-gradient-9"/><linearGradient id="linear-gradient-36" x1="0.6" y1="842.03" x2="0.6" y2="842.47" gradientTransform="matrix(532.72, 0, 0, -20.68, 89.09, 17870.79)" gradientUnits="userSpaceOnUse"><stop offset="0.03" stop-color="#f58573"/><stop offset="1" stop-color="#f68f6e"/></linearGradient><linearGradient id="linear-gradient-37" x1="0.6" y1="841.66" x2="0.6" y2="842.11" gradientTransform="matrix(522.79, 0, 0, -238.19, 96.29, 201043.01)" gradientUnits="userSpaceOnUse"><stop offset="0.03" stop-color="#f58573"/><stop offset="1" stop-color="#f7996d"/></linearGradient><linearGradient id="linear-gradient-38" x1="-14.6" y1="841.93" x2="-15.04" y2="841.93" gradientTransform="matrix(33.51, 0, 0, -212.83, 964.04, 179700.65)" xlink:href="#linear-gradient-9"/><linearGradient id="linear-gradient-39" x1="-0.43" y1="841.64" x2="-0.43" y2="842.09" gradientTransform="matrix(249.26, 0, 0, -246.31, 523.54, 207873.61)" xlink:href="#linear-gradient-23"/><linearGradient id="linear-gradient-40" x1="-1.33" y1="840.76" x2="-1.33" y2="841.2" gradientTransform="matrix(160.27, 0, 0, -88.75, 605.27, 75036.15)" gradientUnits="userSpaceOnUse"><stop offset="0" stop-color="#edacb3"/><stop offset="1" stop-color="#feeae7"/></linearGradient><linearGradient id="linear-gradient-41" x1="-8.35" y1="841.64" x2="-8.35" y2="842.09" gradientTransform="matrix(41.19, 0, 0, -246.31, 697.46, 207873.61)" xlink:href="#linear-gradient-9"/><linearGradient id="linear-gradient-42" x1="-0.97" y1="841.66" x2="-0.97" y2="842.11" gradientTransform="matrix(121.04, 0, 0, -238.19, 385.44, 201043.01)" xlink:href="#linear-gradient-9"/><linearGradient id="linear-gradient-43" x1="-0.17" y1="841.67" x2="-0.17" y2="842.11" gradientTransform="matrix(283.41, 0, 0, -38.59, 455.24, 32937.87)" gradientUnits="userSpaceOnUse"><stop offset="0" stop-color="#e96360"/><stop offset="1" stop-color="#e56881"/></linearGradient><linearGradient id="linear-gradient-44" x1="-0.24" y1="841.93" x2="-0.69" y2="841.93" gradientTransform="matrix(245.72, 0, 0, -27.49, 530.63, 23595.02)" xlink:href="#linear-gradient-21"/><linearGradient id="linear-gradient-45" x1="-77.22" y1="839.43" x2="-77.22" y2="839.88" gradientTransform="matrix(5.78, 0, 0, -47.28, 839.81, 40066.43)" gradientUnits="userSpaceOnUse"><stop offset="0" stop-color="#eaa295"/><stop offset="1" stop-color="#e56881"/></linearGradient><linearGradient id="linear-gradient-46" x1="-44.62" y1="840.29" x2="-44.62" y2="840.74" gradientTransform="matrix(10.77, 0, 0, -31.01, 907.59, 26484.58)" xlink:href="#linear-gradient-23"/><linearGradient id="linear-gradient-47" x1="-35.97" y1="840.13" x2="-35.97" y2="840.58" gradientTransform="matrix(12.71, 0, 0, -28.8, 867.64, 24612.96)" xlink:href="#linear-gradient-23"/><linearGradient id="linear-gradient-48" x1="-28.74" y1="840.18" x2="-28.74" y2="840.62" gradientTransform="matrix(14.45, 0, 0, -30.58, 794.15, 26112.96)" xlink:href="#linear-gradient-23"/><linearGradient id="linear-gradient-49" x1="-30.41" y1="840.21" x2="-30.41" y2="840.66" gradientTransform="matrix(12.9, 0, 0, -27.15, 750.55, 23234.37)" xlink:href="#linear-gradient-23"/><linearGradient id="linear-gradient-50" x1="-103.38" y1="840.36" x2="-103.82" y2="840.36" gradientTransform="matrix(4.19, 0, 0, -29.76, 814.68, 25419.99)" xlink:href="#linear-gradient-43"/><linearGradient id="linear-gradient-51" x1="-126.39" y1="840.09" x2="-126.39" y2="840.54" gradientTransform="matrix(3.71, 0, 0, -28.02, 876.65, 23958.72)" xlink:href="#linear-gradient-43"/><linearGradient id="linear-gradient-52" x1="-9.86" y1="841.88" x2="-10.3" y2="841.88" gradientTransform="matrix(52.08, 0, 0, -238.19, 1037.71, 201045.53)" xlink:href="#linear-gradient-21"/><linearGradient id="linear-gradient-53" x1="-34.99" y1="841.66" x2="-34.99" y2="842.11" gradientTransform="matrix(16.08, 0, 0, -238.19, 1062.28, 201045.53)" gradientUnits="userSpaceOnUse"><stop offset="0" stop-color="#feeae7"/><stop offset="1" stop-color="#edacb3"/></linearGradient><linearGradient id="linear-gradient-54" x1="-0.82" y1="841.63" x2="-0.82" y2="842.08" gradientTransform="matrix(129.07, 0, 0, -249.29, 372.67, 210374.76)" xlink:href="#linear-gradient-53"/><linearGradient id="linear-gradient-55" x1="-3.24" y1="841.88" x2="-3.69" y2="841.88" gradientTransform="matrix(66.12, 0, 0, -240.36, 519.74, 202866.07)" gradientUnits="userSpaceOnUse"><stop offset="0" stop-color="#f9aa73"/><stop offset="0.97" stop-color="#f16067"/></linearGradient><linearGradient id="linear-gradient-56" x1="-13.29" y1="840.88" x2="-13.29" y2="841.33" gradientTransform="matrix(39.38, 0, 0, -209.53, 1019.74, 176614.69)" xlink:href="#linear-gradient-9"/><linearGradient id="linear-gradient-57" x1="-12.78" y1="840.89" x2="-12.78" y2="841.34" gradientTransform="matrix(42.29, 0, 0, -211.34, 1053.72, 178136.16)" xlink:href="#linear-gradient-23"/><linearGradient id="linear-gradient-58" x1="-8.14" y1="838.24" x2="-8.14" y2="838.69" gradientTransform="matrix(61.55, 0, 0, -32.34, 1006.22, 27478.97)" xlink:href="#linear-gradient-9"/><linearGradient id="linear-gradient-59" x1="-8.14" y1="836.79" x2="-8.14" y2="837.24" gradientTransform="matrix(61.55, 0, 0, -32.37, 1006.2, 27415.05)" xlink:href="#linear-gradient-9"/><linearGradient id="linear-gradient-60" x1="-11.51" y1="834.53" x2="-11.51" y2="834.98" gradientTransform="matrix(45.45, 0, 0, -25.32, 1026.28, 21437.84)" xlink:href="#linear-gradient-23"/><linearGradient id="linear-gradient-61" x1="-11.51" y1="834.53" x2="-11.51" y2="834.98" gradientTransform="matrix(45.45, 0, 0, -25.32, 1026.28, 21437.84)" xlink:href="#linear-gradient-9"/><linearGradient id="linear-gradient-62" x1="-224.82" y1="832.89" x2="-224.82" y2="833.33" gradientTransform="matrix(2.61, 0, 0, -24.22, 1088.31, 20456.07)" xlink:href="#linear-gradient-45"/><linearGradient id="linear-gradient-63" x1="-159.88" y1="834.11" x2="-159.88" y2="834.56" gradientTransform="matrix(2.03, 0, 0, -19.03, 615.43, 16207.87)" xlink:href="#linear-gradient-45"/><linearGradient id="linear-gradient-64" x1="-5.51" y1="841.76" x2="-5.51" y2="842.21" gradientTransform="matrix(73.81, 0, 0, -206.47, 849.93, 174365.65)" xlink:href="#linear-gradient-37"/><linearGradient id="linear-gradient-65" x1="-85.28" y1="841.76" x2="-85.28" y2="842.21" gradientTransform="matrix(6.18, 0, 0, -206.47, 985.2, 174365.65)" xlink:href="#linear-gradient-9"/><linearGradient id="linear-gradient-66" x1="-4.61" y1="841.76" x2="-4.61" y2="842.21" gradientTransform="matrix(73.81, 0, 0, -206.47, 730.38, 174365.65)" xlink:href="#linear-gradient-37"/><linearGradient id="linear-gradient-67" x1="-71.32" y1="841.76" x2="-71.32" y2="842.21" gradientTransform="matrix(6.45, 0, 0, -206.47, 865.09, 174365.65)" xlink:href="#linear-gradient-9"/><linearGradient id="linear-gradient-68" x1="-8.86" y1="841.86" x2="-8.86" y2="842.31" gradientTransform="matrix(43.3, 0, 0, -182.75, 771.82, 154417.97)" xlink:href="#linear-gradient-9"/><linearGradient id="linear-gradient-69" x1="-9.61" y1="841.93" x2="-10.06" y2="841.93" gradientTransform="matrix(33.48, 0, 0, -212.83, 661.58, 179700.54)" xlink:href="#linear-gradient-9"/><linearGradient id="linear-gradient-70" x1="-10.39" y1="841.86" x2="-10.39" y2="842.31" gradientTransform="matrix(43.27, 0, 0, -182.75, 890.83, 154420.49)" xlink:href="#linear-gradient-9"/><linearGradient id="linear-gradient-71" x1="-72.29" y1="841.89" x2="-72.74" y2="841.89" gradientTransform="matrix(8.28, 0, 0, -237, 1121.04, 200042.22)" xlink:href="#linear-gradient-40"/><linearGradient id="linear-gradient-72" x1="-42.96" y1="841.88" x2="-43.4" y2="841.88" gradientTransform="matrix(7.32, 0, 0, -240.11, 605.88, 202661.11)" xlink:href="#linear-gradient-40"/><linearGradient id="linear-gradient-73" x1="-60.19" y1="841.88" x2="-60.64" y2="841.88" gradientTransform="matrix(5.08, 0, 0, -238.19, 586.42, 201045.53)" xlink:href="#linear-gradient-40"/><linearGradient id="linear-gradient-74" x1="-71.11" y1="841.88" x2="-71.56" y2="841.88" gradientTransform="matrix(8.28, 0, 0, -238.19, 1103.4, 201043.01)" xlink:href="#linear-gradient-40"/><linearGradient id="linear-gradient-75" x1="-48.79" y1="841.88" x2="-49.23" y2="841.88" gradientTransform="matrix(6.73, 0, 0, -240.16, 629.65, 202699.79)" xlink:href="#linear-gradient-40"/><linearGradient id="linear-gradient-76" x1="-2.6" y1="842.08" x2="-2.6" y2="842.53" gradientTransform="matrix(71.02, 0, 0, -145.38, 445.36, 122987.28)" xlink:href="#linear-gradient-40"/><linearGradient id="linear-gradient-77" x1="-9.83" y1="841.82" x2="-9.83" y2="842.27" gradientTransform="matrix(24.18, 0, 0, -109.03, 484.79, 92299.65)" xlink:href="#linear-gradient-53"/><linearGradient id="linear-gradient-78" x1="-6.58" y1="842.06" x2="-6.58" y2="842.51" gradientTransform="matrix(70.63, 0, 0, -148.74, 951.43, 125816.42)" xlink:href="#linear-gradient-40"/><linearGradient id="linear-gradient-79" x1="-8.55" y1="841.31" x2="-8.55" y2="841.76" gradientTransform="matrix(28.59, 0, 0, -292.74, 502.34, 246798.9)" xlink:href="#linear-gradient-23"/><linearGradient id="linear-gradient-80" x1="-1.9" y1="841.44" x2="-1.9" y2="841.88" gradientTransform="matrix(63.2, 0, 0, -114.04, 319.84, 96436.05)" xlink:href="#linear-gradient"/><linearGradient id="linear-gradient-81" x1="-1.35" y1="841.44" x2="-1.35" y2="841.88" gradientTransform="matrix(63.2, 0, 0, -114.05, 256.97, 96440.25)" xlink:href="#linear-gradient"/><linearGradient id="linear-gradient-82" x1="-38.2" y1="843.73" x2="-38.2" y2="844.17" gradientTransform="matrix(5.72, 0, 0, -15.87, 427.55, 13861.75)" xlink:href="#linear-gradient-45"/><linearGradient id="linear-gradient-83" x1="-36.58" y1="843.66" x2="-36.58" y2="844.11" gradientTransform="matrix(5.7, 0, 0, -15.87, 409.56, 13859.9)" xlink:href="#linear-gradient-45"/><linearGradient id="linear-gradient-84" x1="-34.83" y1="843.62" x2="-34.83" y2="844.06" gradientTransform="matrix(5.7, 0, 0, -15.87, 391.54, 13861.18)" xlink:href="#linear-gradient-45"/><linearGradient id="linear-gradient-85" x1="-33.08" y1="843.62" x2="-33.08" y2="844.06" gradientTransform="matrix(5.7, 0, 0, -15.87, 373.54, 13861.18)" xlink:href="#linear-gradient-45"/><linearGradient id="linear-gradient-86" x1="-31.33" y1="843.66" x2="-31.33" y2="844.11" gradientTransform="matrix(5.7, 0, 0, -15.62, 355.52, 13650.08)" xlink:href="#linear-gradient-45"/><linearGradient id="linear-gradient-87" x1="-29.49" y1="843.58" x2="-29.49" y2="844.02" gradientTransform="matrix(5.72, 0, 0, -16.44, 337.48, 14343.75)" xlink:href="#linear-gradient-45"/><linearGradient id="linear-gradient-88" x1="-27.84" y1="843.77" x2="-27.84" y2="844.22" gradientTransform="matrix(5.7, 0, 0, -15.62, 319.49, 13653.18)" xlink:href="#linear-gradient-45"/><linearGradient id="linear-gradient-89" x1="-0.07" y1="841.49" x2="-0.07" y2="841.94" gradientTransform="matrix(126.07, 0, 0, -88.38, 194.09, 74844.33)" xlink:href="#linear-gradient-40"/><linearGradient id="linear-gradient-90" x1="-32.84" y1="840.74" x2="-32.84" y2="841.19" gradientTransform="matrix(5.76, 0, 0, -47.28, 374.73, 40174.69)" xlink:href="#linear-gradient"/><linearGradient id="linear-gradient-91" x1="0.97" y1="842.25" x2="0.97" y2="842.7" gradientTransform="matrix(365.91, 0, 0, -129.23, -169.28, 109411.41)" xlink:href="#linear-gradient-37"/><linearGradient id="linear-gradient-92" x1="0.55" y1="842.25" x2="0.55" y2="842.7" gradientTransform="matrix(77.17, 0, 0, -129.23, 42.28, 109413.93)" xlink:href="#linear-gradient-9"/><linearGradient id="linear-gradient-93" x1="-3.97" y1="842.53" x2="-3.46" y2="842.96" gradientTransform="matrix(49.47, 0, 0, -101.85, 417.49, 86373)" xlink:href="#linear-gradient-9"/><linearGradient id="linear-gradient-94" x1="0.12" y1="842.05" x2="0.12" y2="842.5" gradientTransform="matrix(155.23, 0, 0, -154.3, 181.23, 130496.11)" xlink:href="#linear-gradient-23"/><linearGradient id="linear-gradient-95" x1="-0.85" y1="842.05" x2="-0.85" y2="842.5" gradientTransform="matrix(67.11, 0, 0, -154.3, 210.3, 130496.11)" xlink:href="#linear-gradient-9"/><linearGradient id="linear-gradient-96" x1="0.55" y1="842.14" x2="0.55" y2="842.58" gradientTransform="matrix(210.17, 0, 0, -69.58, 71.36, 59094.95)" xlink:href="#linear-gradient-23"/><linearGradient id="linear-gradient-97" x1="-0.49" y1="842.14" x2="-0.49" y2="842.58" gradientTransform="matrix(82.43, 0, 0, -69.58, 199.1, 59094.93)" xlink:href="#linear-gradient-9"/><linearGradient id="linear-gradient-98" x1="-0.63" y1="842.44" x2="-0.18" y2="842.89" gradientTransform="matrix(61.16, 0, 0, -108.23, 146.56, 91741.79)" xlink:href="#linear-gradient-9"/><linearGradient id="linear-gradient-99" x1="-3" y1="842.28" x2="-2.45" y2="842.7" gradientTransform="matrix(56.43, 0, 0, -128.24, 371.78, 108583.86)" xlink:href="#linear-gradient-9"/><linearGradient id="linear-gradient-100" x1="-2.28" y1="842.28" x2="-1.73" y2="842.7" gradientTransform="matrix(56.43, 0, 0, -128.24, 298.55, 108583.86)" xlink:href="#linear-gradient-9"/><linearGradient id="linear-gradient-101" x1="-36.03" y1="837.55" x2="-36.48" y2="837.55" gradientTransform="matrix(7.71, 0, 0, -14.54, 540.22, 12566.18)" xlink:href="#linear-gradient-9"/><linearGradient id="linear-gradient-102" x1="-48.07" y1="837.55" x2="-48.51" y2="837.55" gradientTransform="matrix(5.67, 0, 0, -14.54, 527.82, 12566.18)" xlink:href="#linear-gradient-9"/><linearGradient id="linear-gradient-103" x1="-3.73" y1="842.48" x2="-4.18" y2="842.48" gradientTransform="matrix(52.58, 0, 0, -129.23, 465.2, 109411.41)" xlink:href="#linear-gradient-21"/><linearGradient id="linear-gradient-104" x1="-3.73" y1="841.4" x2="-4.18" y2="841.4" gradientTransform="matrix(52.58, 0, 0, -37.19, 465.19, 31725.38)" xlink:href="#linear-gradient-9"/><linearGradient id="linear-gradient-105" x1="-3.73" y1="841.23" x2="-4.18" y2="841.23" gradientTransform="matrix(52.58, 0, 0, -25.94, 465.19, 22250.37)" xlink:href="#linear-gradient-21"/><linearGradient id="linear-gradient-106" x1="-4.61" y1="840.29" x2="-4.61" y2="840.74" gradientTransform="matrix(46.89, 0, 0, -94.56, 473.52, 79836.24)" xlink:href="#linear-gradient"/><linearGradient id="linear-gradient-107" x1="-4.67" y1="841.54" x2="-5.11" y2="841.54" gradientTransform="matrix(104.64, 0, 0, -483.18, 1072.89, 407075.97)" xlink:href="#linear-gradient-9"/><linearGradient id="linear-gradient-108" x1="-33.12" y1="841.35" x2="-33.12" y2="841.79" gradientTransform="matrix(18.14, 0, 0, -441.14, 1129, 371718.57)" xlink:href="#linear-gradient-2"/><linearGradient id="linear-gradient-109" x1="-38.08" y1="841.57" x2="-38.52" y2="841.57" gradientTransform="matrix(17.41, 0, 0, -441.14, 1247.65, 371718.57)" xlink:href="#linear-gradient-2"/><linearGradient id="linear-gradient-110" x1="-3.87" y1="841.31" x2="-3.87" y2="841.75" gradientTransform="matrix(122.89, 0, 0, -497.74, 1030.74, 419319.21)" xlink:href="#linear-gradient-2"/><linearGradient id="linear-gradient-111" x1="-20.77" y1="834.47" x2="-20.77" y2="834.92" gradientTransform="matrix(29.67, 0, 0, -26.05, 1170.59, 22046.54)" xlink:href="#linear-gradient"/><linearGradient id="linear-gradient-112" x1="-11.17" y1="828.86" x2="-11.62" y2="828.86" gradientTransform="matrix(51.21, 0, 0, -13.24, 1123.33, 11039.81)" gradientUnits="userSpaceOnUse"><stop offset="0" stop-color="#fff0d2"/><stop offset="0.97" stop-color="#fabfb7"/></linearGradient><linearGradient id="linear-gradient-113" x1="-4.43" y1="840.3" x2="-4.43" y2="840.74" gradientTransform="matrix(111.59, 0, 0, -129.39, 1048.94, 109096.21)" gradientUnits="userSpaceOnUse"><stop offset="0.03" stop-color="#f69b98"/><stop offset="1" stop-color="#fff0d2"/></linearGradient><radialGradient id="radial-gradient-13" cx="26.14" cy="833.62" r="0.66" gradientTransform="translate(1255.51 16470.65) rotate(180) scale(26.81 19.37)" xlink:href="#radial-gradient"/><radialGradient id="radial-gradient-14" cx="29.8" cy="833.23" r="0.76" gradientTransform="translate(1250.3 14377.5) rotate(180) scale(23.34 16.86)" xlink:href="#radial-gradient"/><linearGradient id="linear-gradient-114" x1="-4.33" y1="807.24" x2="-4.78" y2="807.24" gradientTransform="matrix(109.1, 0, 0, -4.78, 1051.44, 4170.65)" gradientUnits="userSpaceOnUse"><stop offset="0" stop-color="#fcf7bf"/><stop offset="0.18" stop-color="#c7d3c2"/><stop offset="0.32" stop-color="#9fb3c3"/><stop offset="0.4" stop-color="#8fa6c4"/><stop offset="0.53" stop-color="#9eafc5"/><stop offset="0.82" stop-color="#b6bbc4"/><stop offset="1" stop-color="#bfc0c4"/></linearGradient><linearGradient id="linear-gradient-115" x1="-11.17" y1="769.83" x2="-11.62" y2="769.83" gradientTransform="matrix(51.21, 0, 0, -2.38, 1138.27, 2137.3)" xlink:href="#linear-gradient-114"/><linearGradient id="linear-gradient-116" x1="-36.2" y1="839.33" x2="-36.2" y2="839.78" gradientTransform="matrix(17.51, 0, 0, -110.7, 1188.23, 93209.45)" xlink:href="#linear-gradient"/><linearGradient id="linear-gradient-117" x1="-2.65" y1="841.64" x2="-3.92" y2="841.42" gradientTransform="matrix(138, 0, 0, -497.71, 1008.08, 419293.83)" xlink:href="#linear-gradient-112"/></defs><title>buildings</title><g id="Group_19" data-name="Group 19"><path id="Path_1" data-name="Path 1" class="cls-1" d="M222.74,335.91,217,318.77h-2.5l-5-58.37h-2.22l-1.77,58.53h-2.65l-5,18.73Z" transform="translate(-14.94 -245.82)"/><path id="Path_2" data-name="Path 2" class="cls-2" d="M207.27,260.4s-.66,55,0,55.86,7.2,2.49,7.2,2.49H207l-2.69,17.15-6,.6,4.55-17.58h2.65Z" transform="translate(-14.94 -245.82)"/><path id="Path_3" data-name="Path 3" class="cls-3" d="M240.58,345v-3.93l-7.14-1.43v-2.25l-27.94-4.48L188,336.72V339l-6,2.12v4.69Z" transform="translate(-14.94 -245.82)"/><path id="Path_4" data-name="Path 4" class="cls-4" d="M250,549.89l-5.11-205-47.05-4.68,1.42,208.13Z" transform="translate(-14.94 -245.82)"/><path id="Path_5" data-name="Path 5" class="cls-5" d="M197.81,340.19l-22.23,3V551.47l23.65-3.15Z" transform="translate(-14.94 -245.82)"/><path id="Path_6" data-name="Path 6" class="cls-6" d="M240.58,341.07l-42.28-4.56v3.68l42.28,4.25Z" transform="translate(-14.94 -245.82)"/><path id="Path_7" data-name="Path 7" class="cls-7" d="M233.44,337.39v2.25l-29.15-3.73,1.21-3Z" transform="translate(-14.94 -245.82)"/><path id="Path_8" data-name="Path 8" class="cls-8" d="M204.29,548.32l40,1.58L240.35,350l-35-3.32Z" transform="translate(-14.94 -245.82)"/><g id="Group_1" data-name="Group 1"><rect id="Rectangle_3" data-name="Rectangle 3" class="cls-9" x="222.57" y="353.44" width="0.88" height="35.7" transform="translate(-180.25 317.3) rotate(-85.3)"/></g><g id="Group_2" data-name="Group 2"><rect id="Rectangle_4" data-name="Rectangle 4" class="cls-9" x="222.54" y="367.48" width="0.88" height="35.74" transform="translate(-192.52 333.87) rotate(-85.82)"/></g><g id="Group_3" data-name="Group 3"><rect id="Rectangle_5" data-name="Rectangle 5" class="cls-9" x="222.76" y="379.97" width="0.88" height="36.34" transform="translate(-205.7 344.61) rotate(-85.64)"/></g><g id="Group_4" data-name="Group 4"><rect id="Rectangle_6" data-name="Rectangle 6" class="cls-9" x="222.77" y="392.34" width="0.88" height="36.21" transform="translate(-212.38 367.96) rotate(-87.26)"/></g><g id="Group_5" data-name="Group 5"><rect id="Rectangle_7" data-name="Rectangle 7" class="cls-9" x="222.77" y="404.99" width="0.88" height="36.21" transform="translate(-225.02 380) rotate(-87.26)"/></g><g id="Group_6" data-name="Group 6"><rect id="Rectangle_8" data-name="Rectangle 8" class="cls-9" x="222.77" y="417.64" width="0.88" height="36.21" transform="translate(-237.65 392.05) rotate(-87.26)"/></g><g id="Group_7" data-name="Group 7"><rect id="Rectangle_9" data-name="Rectangle 9" class="cls-9" x="222.77" y="430.3" width="0.88" height="36.21" transform="translate(-250.3 404.1) rotate(-87.26)"/></g><g id="Group_8" data-name="Group 8"><rect id="Rectangle_10" data-name="Rectangle 10" class="cls-9" x="223.37" y="442.37" width="0.88" height="37.44" transform="translate(-262.39 416.78) rotate(-87.26)"/></g><g id="Group_9" data-name="Group 9"><rect id="Rectangle_11" data-name="Rectangle 11" class="cls-9" x="223.5" y="454.91" width="0.88" height="37.68" transform="translate(-274.91 428.97) rotate(-87.26)"/></g><g id="Group_10" data-name="Group 10"><rect id="Rectangle_12" data-name="Rectangle 12" class="cls-9" x="223.62" y="467.44" width="0.88" height="37.93" transform="translate(-287.44 441.14) rotate(-87.26)"/></g><g id="Group_11" data-name="Group 11"><rect id="Rectangle_13" data-name="Rectangle 13" class="cls-9" x="223.81" y="479.83" width="0.8" height="38.16" transform="translate(-298.21 457.16) rotate(-87.71)"/></g><g id="Group_12" data-name="Group 12"><rect id="Rectangle_14" data-name="Rectangle 14" class="cls-9" x="223.75" y="492.63" width="0.88" height="38.17" transform="translate(-312.61 465.37) rotate(-87.26)"/></g><g id="Group_13" data-name="Group 13"><rect id="Rectangle_15" data-name="Rectangle 15" class="cls-9" x="223.75" y="505.28" width="0.88" height="38.17" transform="translate(-325.24 477.41) rotate(-87.26)"/></g><g id="Group_14" data-name="Group 14"><rect id="Rectangle_16" data-name="Rectangle 16" class="cls-9" x="224.12" y="517.58" width="0.88" height="38.92" transform="translate(-337.54 489.85) rotate(-87.26)"/></g><g id="Group_15" data-name="Group 15"><rect id="Rectangle_17" data-name="Rectangle 17" class="cls-9" x="222.29" y="341.67" width="0.88" height="35.34" transform="translate(-169.94 303.38) rotate(-84.89)"/></g><g id="Group_16" data-name="Group 16"><rect id="Rectangle_18" data-name="Rectangle 18" class="cls-9" x="235.08" y="349.31" width="0.88" height="199.16" transform="translate(-23.87 -241.02) rotate(-1.15)"/></g><g id="Group_17" data-name="Group 17"><rect id="Rectangle_19" data-name="Rectangle 19" class="cls-9" x="224.66" y="348.4" width="0.88" height="201.53" transform="translate(-23.08 -241.65) rotate(-1.04)"/></g><g id="Group_18" data-name="Group 18"><rect id="Rectangle_20" data-name="Rectangle 20" class="cls-9" x="215.35" y="347.57" width="0.88" height="202.32" transform="translate(-19.01 -243.84) rotate(-0.52)"/></g></g><g id="Group_68" data-name="Group 68"><path id="Path_42" data-name="Path 42" class="cls-10" d="M107.53,287.42l-3.76-11.85-42.55-9.06v14Z" transform="translate(-14.94 -245.82)"/><path id="Path_43" data-name="Path 43" class="cls-11" d="M61.22,266.51,31,278.73l-3,12.21,33.21-10.4Z" transform="translate(-14.94 -245.82)"/><path id="Path_44" data-name="Path 44" class="cls-12" d="M125.65,293.78,73.53,306.14l-58.59-6.69,42.27-14.67Z" transform="translate(-14.94 -245.82)"/><path id="Path_45" data-name="Path 45" class="cls-13" d="M108,322.26l-1.4-25.17L59.86,292.4l-22.89,8-1.64,21.9Z" transform="translate(-14.94 -245.82)"/><path id="Path_46" data-name="Path 46" class="cls-14" d="M59.86,292.4l.26,26.86-28.83,3.49V300.64Z" transform="translate(-14.94 -245.82)"/><path id="Path_47" data-name="Path 47" class="cls-15" d="M125.65,293.78l-.47-3.92-68-10.32v5.24Z" transform="translate(-14.94 -245.82)"/><path id="Path_48" data-name="Path 48" class="cls-16" d="M57.21,279.54,14.94,296v3.41l42.27-14.66Z" transform="translate(-14.94 -245.82)"/><path id="Path_49" data-name="Path 49" class="cls-17" d="M103.86,319.88l-.65-23.13-5.88-.59L98,319.71Z" transform="translate(-14.94 -245.82)"/><path id="Path_50" data-name="Path 50" class="cls-18" d="M96,319.3l-.67-23.52-5.87-.41.66,23.76Z" transform="translate(-14.94 -245.82)"/><path id="Path_51" data-name="Path 51" class="cls-19" d="M87.58,318.8l-.68-23.69L81,294.52l.67,24.11Z" transform="translate(-14.94 -245.82)"/><path id="Path_52" data-name="Path 52" class="cls-20" d="M79,318.12l-.67-23.86-5.88-.6.68,24.28Z" transform="translate(-14.94 -245.82)"/><path id="Path_53" data-name="Path 53" class="cls-21" d="M70.2,317.25l-.68-23.88-5.87-.58.67,24.28Z" transform="translate(-14.94 -245.82)"/><path id="Path_54" data-name="Path 54" class="cls-22" d="M34,323.61l.39-23.86,3.33-1-.38,24.66Z" transform="translate(-14.94 -245.82)"/><path id="Path_55" data-name="Path 55" class="cls-23" d="M38.45,322.34l.38-23.87,3.34-1-.4,24.66Z" transform="translate(-14.94 -245.82)"/><path id="Path_56" data-name="Path 56" class="cls-24" d="M43.22,320.9l.38-23.8,3.34-1-.4,24.66Z" transform="translate(-14.94 -245.82)"/><path id="Path_57" data-name="Path 57" class="cls-25" d="M48.15,319.42l.37-23.75,3.35-1.09-.4,24.67Z" transform="translate(-14.94 -245.82)"/><path id="Path_58" data-name="Path 58" class="cls-26" d="M53.07,318.11l.38-24,3.34-.87-.4,24.66Z" transform="translate(-14.94 -245.82)"/><path id="Path_59" data-name="Path 59" class="cls-27" d="M125.65,567.75l-4.76-242.81-61.34-3.7,2.73,246.51Z" transform="translate(-14.94 -245.82)"/><path id="Path_60" data-name="Path 60" class="cls-28" d="M59.55,321.24l-39.9,5.92-4,240.59H62.28Z" transform="translate(-14.94 -245.82)"/><path id="Path_61" data-name="Path 61" class="cls-29" d="M117.16,567.75,113.7,329.36l-44.55-2.57,2.51,240.35Z" transform="translate(-14.94 -245.82)"/><path id="Path_62" data-name="Path 62" class="cls-30" d="M52.23,567.14l1.14-240-27.16,4-6.09,236Z" transform="translate(-14.94 -245.82)"/><path id="Path_63" data-name="Path 63" class="cls-31" d="M106.82,301.53l-46.7,1.81-28.83,5.14v-7.84l28.57-8.24,46.71,4.69Z" transform="translate(-14.94 -245.82)"/><g id="Group_45" data-name="Group 45"><g id="Group_24" data-name="Group 24"><rect id="Rectangle_21" data-name="Rectangle 21" class="cls-32" x="109.34" y="328.93" width="0.49" height="238.77" transform="translate(-20.31 -244.47) rotate(-0.69)"/></g><g id="Group_25" data-name="Group 25"><rect id="Rectangle_22" data-name="Rectangle 22" class="cls-32" x="102" y="328.59" width="0.49" height="239" transform="translate(-20.31 -244.56) rotate(-0.69)"/></g><g id="Group_26" data-name="Group 26"><rect id="Rectangle_23" data-name="Rectangle 23" class="cls-32" x="95.19" y="328.58" width="0.49" height="239.16" transform="translate(-18.6 -245.02) rotate(-0.47)"/></g><g id="Group_27" data-name="Group 27"><rect id="Rectangle_24" data-name="Rectangle 24" class="cls-32" x="86.75" y="327.73" width="0.49" height="239.83" transform="translate(-18.6 -245.09) rotate(-0.47)"/></g><g id="Group_28" data-name="Group 28"><rect id="Rectangle_25" data-name="Rectangle 25" class="cls-32" x="78.09" y="327.63" width="0.49" height="239.93" transform="matrix(1, -0.01, 0.01, 1, -18.6, -245.16)"/></g><g id="Group_29" data-name="Group 29"><path id="Path_64" data-name="Path 64" class="cls-32" d="M113.89,343.4l0-.49-44.6-2.68,0,.49Z" transform="translate(-14.94 -245.82)"/></g><g id="Group_30" data-name="Group 30"><path id="Path_65" data-name="Path 65" class="cls-32" d="M114.5,357.45l0-.48-45.21-2.71,0,.48Z" transform="translate(-14.94 -245.82)"/></g><g id="Group_31" data-name="Group 31"><path id="Path_66" data-name="Path 66" class="cls-32" d="M114.91,371.5l0-.48-45.62-2.74,0,.48Z" transform="translate(-14.94 -245.82)"/></g><g id="Group_32" data-name="Group 32"><path id="Path_67" data-name="Path 67" class="cls-32" d="M114.5,385.49l0-.48L69.32,382.3l0,.49Z" transform="translate(-14.94 -245.82)"/></g><g id="Group_33" data-name="Group 33"><path id="Path_68" data-name="Path 68" class="cls-32" d="M114.91,399.54l0-.49-45.62-2.73,0,.48Z" transform="translate(-14.94 -245.82)"/></g><g id="Group_34" data-name="Group 34"><path id="Path_69" data-name="Path 69" class="cls-32" d="M114.91,413.56l0-.48-45.62-2.74,0,.48Z" transform="translate(-14.94 -245.82)"/></g><g id="Group_35" data-name="Group 35"><path id="Path_70" data-name="Path 70" class="cls-32" d="M115.11,427.59l0-.48-44.95-2.7,0,.49Z" transform="translate(-14.94 -245.82)"/></g><g id="Group_36" data-name="Group 36"><path id="Path_71" data-name="Path 71" class="cls-32" d="M115.31,441.63l0-.48-45-2.71,0,.49Z" transform="translate(-14.94 -245.82)"/></g><g id="Group_37" data-name="Group 37"><path id="Path_72" data-name="Path 72" class="cls-32" d="M115.51,455.05l0-.48-45-2.11,0,.49Z" transform="translate(-14.94 -245.82)"/></g><g id="Group_38" data-name="Group 38"><rect id="Rectangle_26" data-name="Rectangle 26" class="cls-32" x="93.04" y="444.82" width="0.49" height="45.36" transform="translate(-392.28 297.65) rotate(-87.88)"/></g><g id="Group_39" data-name="Group 39"><path id="Path_73" data-name="Path 73" class="cls-32" d="M115.92,483.74l0-.49-45.18-2.71,0,.48Z" transform="translate(-14.94 -245.82)"/></g><g id="Group_40" data-name="Group 40"><path id="Path_74" data-name="Path 74" class="cls-32" d="M116.12,497.76l0-.48-44.88-2.69,0,.49Z" transform="translate(-14.94 -245.82)"/></g><g id="Group_41" data-name="Group 41"><rect id="Rectangle_27" data-name="Rectangle 27" class="cls-32" x="93.44" y="486.82" width="0.49" height="45.3" transform="translate(-433.2 342.66) rotate(-88.35)"/></g><g id="Group_42" data-name="Group 42"><rect id="Rectangle_28" data-name="Rectangle 28" class="cls-32" x="93.82" y="500.6" width="0.49" height="45.76" transform="translate(-446.83 356.65) rotate(-88.35)"/></g><g id="Group_43" data-name="Group 43"><rect id="Rectangle_29" data-name="Rectangle 29" class="cls-32" x="94" y="514.58" width="0.49" height="45.85" transform="translate(-460.63 370.85) rotate(-88.4)"/></g><g id="Group_44" data-name="Group 44"><rect id="Rectangle_30" data-name="Rectangle 30" class="cls-32" x="93.98" y="528.89" width="0.49" height="45.46" transform="translate(-474.47 386.48) rotate(-88.6)"/></g></g><g id="Group_67" data-name="Group 67"><g id="Group_46" data-name="Group 46"><rect id="Rectangle_31" data-name="Rectangle 31" class="cls-32" x="-91.4" y="448.83" width="236.2" height="0.39" transform="translate(-437.49 225.92) rotate(-89.49)"/></g><g id="Group_47" data-name="Group 47"><path id="Path_75" data-name="Path 75" class="cls-32" d="M30.65,567l2.13-236.79h-.39L30.26,567Z" transform="translate(-14.94 -245.82)"/></g><g id="Group_48" data-name="Group 48"><rect id="Rectangle_32" data-name="Rectangle 32" class="cls-32" x="-82.84" y="448.2" width="237.58" height="0.39" transform="translate(-427.59 235.86) rotate(-89.66)"/></g><g id="Group_49" data-name="Group 49"><rect id="Rectangle_33" data-name="Rectangle 33" class="cls-32" x="-77.64" y="447.71" width="238.23" height="0.39" transform="matrix(0.01, -1, 1, 0.01, -421.6, 240.94)"/></g><g id="Group_50" data-name="Group 50"><rect id="Rectangle_34" data-name="Rectangle 34" class="cls-32" x="-72.37" y="447.31" width="239.03" height="0.39" transform="translate(-415.5 246.81) rotate(-89.74)"/></g><g id="Group_51" data-name="Group 51"><rect id="Rectangle_35" data-name="Rectangle 35" class="cls-32" x="25.82" y="342.69" width="27.3" height="0.39" transform="translate(-45.84 -240.83) rotate(-5.2)"/></g><g id="Group_52" data-name="Group 52"><rect id="Rectangle_36" data-name="Rectangle 36" class="cls-32" x="25.47" y="356.62" width="27.66" height="0.39" transform="translate(-47.1 -240.79) rotate(-5.2)"/></g><g id="Group_53" data-name="Group 53"><rect id="Rectangle_37" data-name="Rectangle 37" class="cls-32" x="25.1" y="370.56" width="28.02" height="0.39" transform="translate(-48.37 -240.75) rotate(-5.2)"/></g><g id="Group_54" data-name="Group 54"><rect id="Rectangle_38" data-name="Rectangle 38" class="cls-32" x="24.74" y="384.48" width="28.38" height="0.39" transform="translate(-49.63 -240.71) rotate(-5.2)"/></g><g id="Group_55" data-name="Group 55"><rect id="Rectangle_39" data-name="Rectangle 39" class="cls-32" x="24.38" y="398.41" width="28.74" height="0.39" transform="translate(-50.89 -240.67) rotate(-5.2)"/></g><g id="Group_56" data-name="Group 56"><rect id="Rectangle_40" data-name="Rectangle 40" class="cls-32" x="24.05" y="412.34" width="29.1" height="0.39" transform="translate(-52.15 -240.63) rotate(-5.2)"/></g><g id="Group_57" data-name="Group 57"><rect id="Rectangle_41" data-name="Rectangle 41" class="cls-32" x="23.66" y="426.27" width="29.47" height="0.39" transform="translate(-53.42 -240.59) rotate(-5.2)"/></g><g id="Group_58" data-name="Group 58"><rect id="Rectangle_42" data-name="Rectangle 42" class="cls-32" x="23.31" y="440.2" width="29.83" height="0.39" transform="translate(-54.68 -240.55) rotate(-5.2)"/></g><g id="Group_59" data-name="Group 59"><rect id="Rectangle_43" data-name="Rectangle 43" class="cls-32" x="22.82" y="453.85" width="30.31" height="0.39" transform="translate(-46.86 -242.01) rotate(-4.04)"/></g><g id="Group_60" data-name="Group 60"><path id="Path_76" data-name="Path 76" class="cls-32" d="M22.57,468.73l30.5-1.65,0-.4-30.5,1.66Z" transform="translate(-14.94 -245.82)"/></g><g id="Group_61" data-name="Group 61"><rect id="Rectangle_44" data-name="Rectangle 44" class="cls-32" x="22.51" y="481.99" width="30.62" height="0.39" transform="translate(-58.47 -240.41) rotate(-5.2)"/></g><g id="Group_62" data-name="Group 62"><rect id="Rectangle_45" data-name="Rectangle 45" class="cls-32" x="22.37" y="495.9" width="30.76" height="0.39" transform="translate(-59.73 -240.36) rotate(-5.2)"/></g><g id="Group_63" data-name="Group 63"><path id="Path_77" data-name="Path 77" class="cls-32" d="M22.32,510.18l30.75-1.36,0-.39L22.3,509.79Z" transform="translate(-14.94 -245.82)"/></g><g id="Group_64" data-name="Group 64"><path id="Path_78" data-name="Path 78" class="cls-32" d="M21.92,524.06l31.15-1.32,0-.39L21.9,523.67Z" transform="translate(-14.94 -245.82)"/></g><g id="Group_65" data-name="Group 65"><path id="Path_79" data-name="Path 79" class="cls-32" d="M21.78,538l31.29-1.33,0-.39-31.3,1.32Z" transform="translate(-14.94 -245.82)"/></g><g id="Group_66" data-name="Group 66"><path id="Path_80" data-name="Path 80" class="cls-32" d="M21.92,551.89l31.15-1.33,0-.39L21.9,551.5Z" transform="translate(-14.94 -245.82)"/></g></g><path id="Path_81" data-name="Path 81" class="cls-33" d="M109.09,410.14v14l-7.16-.43V409.12H95.44l-1.08-14-8.42-.61.49-13.42-.24-28-14.53-1.22.79-14.16L100.78,339l-.15-10.89,7.38,1.34.12,9.55,5.78,5.75,1,65.75Z" transform="translate(-14.94 -245.82)"/><path id="Path_82" data-name="Path 82" class="cls-34" d="M86.8,423.83l.2,14.35-8.66-.84-.16-14Z" transform="translate(-14.94 -245.82)"/><path id="Path_83" data-name="Path 83" class="cls-35" d="M39,567.57V551H36l-.51-16.56V508.63l.22-12.52-4.59.6.43-28.38-4.8,0-.54,41.35L22.3,510l-2.18,57.15Z" transform="translate(-14.94 -245.82)"/><path id="Path_84" data-name="Path 84" class="cls-36" d="M103.46,537.45l-.2-14.24-6.73-.45-1.09-13.34H87.55L87,495.77l-8.66-1.06L78.85,523l.31,14.43-7.82-.61L71.48,551H79l.11,13.9H96.53l-.15-13.23h14.8l-.4-13.76Z" transform="translate(-14.94 -245.82)"/><path id="Path_85" data-name="Path 85" class="cls-37" d="M41.54,438.19l.08-13.83-5.53.5L36,438.59Z" transform="translate(-14.94 -245.82)"/><path id="Path_86" data-name="Path 86" class="cls-37" d="M47.38,395.4l-.22-13.92-5,.64-.38,13.39Z" transform="translate(-14.94 -245.82)"/><path id="Path_87" data-name="Path 87" class="cls-34" d="M108.35,354.46v13.65l-7.18-.63v14.18l-6.31-.51V367.48l5.74-.09L101,353.5Z" transform="translate(-14.94 -245.82)"/></g><g id="Group_69" data-name="Group 69"><path id="Path_89" data-name="Path 89" class="cls-38" d="M294.15,351s1.73-1,2.54-4.6-6.13-12.71-6.13-12.71-5.49,7.39-6.07,11.51a6.32,6.32,0,0,0,2,6l3.34-1.06Z" transform="translate(-14.94 -245.82)"/><path id="Path_90" data-name="Path 90" class="cls-39" d="M291.73,452.63l-1.66-22.75-13,.48L276,452.63Z" transform="translate(-14.94 -245.82)"/><path id="Path_91" data-name="Path 91" class="cls-40" d="M290.06,429.88,304.91,431l.76,21.92H290.11Z" transform="translate(-14.94 -245.82)"/><path id="Path_92" data-name="Path 92" class="cls-41" d="M277.11,430.36l6-6.37.74-65.41,6.84-1.78.23,65.59-.87,7.49Z" transform="translate(-14.94 -245.82)"/><path id="Path_93" data-name="Path 93" class="cls-42" d="M304.91,431l-5.8-6.86-1.63-65.89-6.78-1.44.23,65.59-.87,7.49Z" transform="translate(-14.94 -245.82)"/><path id="Path_94" data-name="Path 94" class="cls-43" d="M283.86,389.2l-3.26-2.58-.46-7.27,9.92-1.51,11.69.56-.39,7.65-3.15,3.15Z" transform="translate(-14.94 -245.82)"/><path id="Path_95" data-name="Path 95" class="cls-44" d="M301.37,386.05l-11.31-.72v-7.49l11.69.56Z" transform="translate(-14.94 -245.82)"/><path id="Path_96" data-name="Path 96" class="cls-45" d="M297,359.36l3.51-4.49-3.11-4.25-8-.95-7,2-1.77,3.66,3.54,4.69,5.82-1.15Z" transform="translate(-14.94 -245.82)"/><path id="Path_97" data-name="Path 97" class="cls-46" d="M300.5,354.87,289,354.16l.36-4.49-7,2-1.77,3.66,3.23,4.75,6.13-1.21,7.54.55Z" transform="translate(-14.94 -245.82)"/><path id="Path_98" data-name="Path 98" class="cls-47" d="M299.11,424.13h-8.38l-.67,5.75L304.91,431Z" transform="translate(-14.94 -245.82)"/><path id="Path_99" data-name="Path 99" class="cls-48" d="M506.67,298.69s1.72-1.09,2.37-4.83-6.87-12.7-6.87-12.7-5.26,7.82-5.66,12a6.5,6.5,0,0,0,2.3,6.05l3.36-1.23Z" transform="translate(-14.94 -245.82)"/><path id="Path_100" data-name="Path 100" class="cls-49" d="M510.88,324.4l-1-19.19-7.09-.87-5.87,2.18v16.86Z" transform="translate(-14.94 -245.82)"/><path id="Path_101" data-name="Path 101" class="cls-50" d="M502.78,304.34v15.81h-5.87V306.52Z" transform="translate(-14.94 -245.82)"/><path id="Path_102" data-name="Path 102" class="cls-51" d="M506,449.24l-2.12-28.92-16.48.61L486,449.24Z" transform="translate(-14.94 -245.82)"/><path id="Path_103" data-name="Path 103" class="cls-52" d="M503.89,420.32l18.89,1.42,1,27.88h-19.8Z" transform="translate(-14.94 -245.82)"/><path id="Path_104" data-name="Path 104" class="cls-53" d="M429.34,424s-.72-8.72-8.41-21.78c-9-15.28-28-22.23-28-22.23v44Z" transform="translate(-14.94 -245.82)"/><path id="Path_105" data-name="Path 105" class="cls-54" d="M357.28,424s.72-8.72,8.4-21.78c9-15.28,28-22.23,28-22.23v44Z" transform="translate(-14.94 -245.82)"/><path id="Path_106" data-name="Path 106" class="cls-55" d="M441.22,455.78l-1-19.74L434,432.6V424s-12.91-3.68-32.55-4.31C369.64,418.69,353,424,353,424v9.17l-5.24,4.3-3.55,19.19Z" transform="translate(-14.94 -245.82)"/><path id="Path_107" data-name="Path 107" class="cls-56" d="M524,461.34l4.6-3.62,1.46-9.24h-238l-53.65,4.24v8.62l4.21,3Z" transform="translate(-14.94 -245.82)"/><path id="Path_108" data-name="Path 108" class="cls-57" d="M530,448.48l-1.46,9.24-234-1.33-2.55-7.91Z" transform="translate(-14.94 -245.82)"/><path id="Path_109" data-name="Path 109" class="cls-58" d="M524,461.34H294.6l-3.77,106.41H524.38Z" transform="translate(-14.94 -245.82)"/><path id="Path_110" data-name="Path 110" class="cls-59" d="M473.89,562.35l1-95.07H462.43l-2.53,95.07Z" transform="translate(-14.94 -245.82)"/><path id="Path_111" data-name="Path 111" class="cls-60" d="M470.86,567.75l-3.33-106.41-104.88-3.63-3.15,110Z" transform="translate(-14.94 -245.82)"/><path id="Path_112" data-name="Path 112" class="cls-61" d="M426.05,413.48s-.7,5.65-24.95,2.48S372,404.65,370.86,400c-1.35-5.62,15.39-16.48,15.39-16.48s-20.54,9-30,39.65c0,0,28.06-8,71.59-.58C427.84,422.59,426.66,416.64,426.05,413.48Z" transform="translate(-14.94 -245.82)"/><path id="Path_113" data-name="Path 113" class="cls-62" d="M362.65,457.71l-16.33,3.63-2.07,106.41H359.5Z" transform="translate(-14.94 -245.82)"/><path id="Path_114" data-name="Path 114" class="cls-63" d="M294.6,461.34l-52,3-2.09,103.45H294.6Z" transform="translate(-14.94 -245.82)"/><path id="Path_115" data-name="Path 115" class="cls-64" d="M467.53,461.34l2.17-4.95,1.16-10.78L361.09,444.1l-16.84,4.64v6.62l2.07,6,16.29-2Z" transform="translate(-14.94 -245.82)"/><path id="Path_116" data-name="Path 116" class="cls-65" d="M470.86,445.61l-1.16,10.77-107-2.26-1.56-10Z" transform="translate(-14.94 -245.82)"/><path id="Path_117" data-name="Path 117" class="cls-66" d="M440.28,436.05s-41.33-7.65-92.49,1.43l5.25-4.3s34.83-6,81-.57Z" transform="translate(-14.94 -245.82)"/><path id="Path_118" data-name="Path 118" class="cls-67" d="M394.6,380.68l-.93-21.12H393L392,380.68Z" transform="translate(-14.94 -245.82)"/><path id="Path_119" data-name="Path 119" class="cls-68" d="M429.34,422.89,426,409.35l-1.45-.31s2,4.06,3.31,13.55Z" transform="translate(-14.94 -245.82)"/><path id="Path_120" data-name="Path 120" class="cls-69" d="M413.23,420.46l-1.42-12.09-3.71-.77-.29.54L407.55,420Z" transform="translate(-14.94 -245.82)"/><path id="Path_121" data-name="Path 121" class="cls-70" d="M380.08,419.94,382,406.88l-.25-.23H378l-2.48,13.66Z" transform="translate(-14.94 -245.82)"/><path id="Path_122" data-name="Path 122" class="cls-71" d="M357.44,422.89a43.3,43.3,0,0,1,3.65-11.64H359.5l-4.18,12.13Z" transform="translate(-14.94 -245.82)"/><path id="Path_123" data-name="Path 123" class="cls-72" d="M382,406.88l-.25-.23-1.62,13.29,1.73-.12Z" transform="translate(-14.94 -245.82)"/><path id="Path_124" data-name="Path 124" class="cls-73" d="M409.2,420.11l-1.1-12.51-.29.54L407.55,420Z" transform="translate(-14.94 -245.82)"/><path id="Path_125" data-name="Path 125" class="cls-74" d="M501.11,567.75l2.07-106.41H524l.4,106.41Z" transform="translate(-14.94 -245.82)"/><path id="Path_126" data-name="Path 126" class="cls-75" d="M503.18,461.34l-2.07,106.41H496l2.65-106.41Z" transform="translate(-14.94 -245.82)"/><path id="Path_127" data-name="Path 127" class="cls-76" d="M276.36,462.39,276,567.75h-4.64l4.27-105.32-33,1.87-4.21-3,56.19-4.95,1.47,3.85Z" transform="translate(-14.94 -245.82)"/><path id="Path_128" data-name="Path 128" class="cls-77" d="M305.53,461.34a76.81,76.81,0,0,0-28.42.78L276,567.75h29.54Z" transform="translate(-14.94 -245.82)"/><path id="Path_129" data-name="Path 129" class="cls-78" d="M487.41,420.93l5.63-7.45,1-84.41,10.65-1.74.3,83.46-1.11,9.53Z" transform="translate(-14.94 -245.82)"/><path id="Path_130" data-name="Path 130" class="cls-79" d="M522.78,421.74l-5.1-8.74-2-84.26-10.95-1.41.29,83.46-1.11,9.53Z" transform="translate(-14.94 -245.82)"/><path id="Path_131" data-name="Path 131" class="cls-80" d="M493.57,368.57l-1.71-3.28-.59-9.25,12.62-1.92,14.88.7-.5,9.73-1.65,4H493.57Z" transform="translate(-14.94 -245.82)"/><path id="Path_132" data-name="Path 132" class="cls-44" d="M518.28,364.55l-14.39-.91v-9.52l14.88.7Z" transform="translate(-14.94 -245.82)"/><path id="Path_133" data-name="Path 133" class="cls-81" d="M494,330.62l-2.18-3.29-.59-9.25,12.62-1.92,14.87.7-.49,9.74-2.56,4Z" transform="translate(-14.94 -245.82)"/><path id="Path_134" data-name="Path 134" class="cls-44" d="M518.27,326.6l-14.39-.92v-9.52l14.88.7Z" transform="translate(-14.94 -245.82)"/><path id="Path_135" data-name="Path 135" class="cls-82" d="M510,307.08l3.38-4.75L510,298.14l-7.49-1.1-7.81,2.85L493,303.72l3.83,4.63,5.9-1.46Z" transform="translate(-14.94 -245.82)"/><path id="Path_136" data-name="Path 136" class="cls-83" d="M513.34,302.33l-11.73-.67.86-4.62-7.81,2.85L493,303.72l3.83,4.63,5.9-1.46,7.19.18Z" transform="translate(-14.94 -245.82)"/><path id="Path_137" data-name="Path 137" class="cls-84" d="M502.78,281.91l-.31-10.82h-.55l-.31,10.82Z" transform="translate(-14.94 -245.82)"/><path id="Path_138" data-name="Path 138" class="cls-85" d="M291,334.74l-.23-8.5h-.44l-.23,8.5Z" transform="translate(-14.94 -245.82)"/><path id="Path_139" data-name="Path 139" class="cls-47" d="M517.68,413H504.75l-.86,7.32,18.89,1.42Z" transform="translate(-14.94 -245.82)"/><path id="Path_140" data-name="Path 140" class="cls-86" d="M457.81,475.51H429.34l-2.41,92.24h33Z" transform="translate(-14.94 -245.82)"/><path id="Path_141" data-name="Path 141" class="cls-87" d="M457.81,475.51l2.09,92.24h-1.84l-.92-92.24Z" transform="translate(-14.94 -245.82)"/><path id="Path_142" data-name="Path 142" class="cls-88" d="M404.4,475.51H375.92l-2.4,92.24h33Z" transform="translate(-14.94 -245.82)"/><path id="Path_143" data-name="Path 143" class="cls-89" d="M404.4,475.51l2.09,92.24h-2.07l-.81-92.24Z" transform="translate(-14.94 -245.82)"/><path id="Path_144" data-name="Path 144" class="cls-90" d="M378.41,567.75h19.34V500.38s-1.38-7.6-9.43-14.27a16.77,16.77,0,0,0-3.68,3.25,26.76,26.76,0,0,0-5.76,11Z" transform="translate(-14.94 -245.82)"/><path id="Path_145" data-name="Path 145" class="cls-91" d="M338.76,562.3l1-95.07H327.3l-2.53,95.07Z" transform="translate(-14.94 -245.82)"/><path id="Path_146" data-name="Path 146" class="cls-92" d="M378.41,567.75h12.28V500.38a25,25,0,0,0-6.06-11,26.76,26.76,0,0,0-5.76,11Z" transform="translate(-14.94 -245.82)"/><path id="Path_147" data-name="Path 147" class="cls-93" d="M431.56,567.75h19.33V500.38s-1.38-7.6-9.43-14.27a16.77,16.77,0,0,0-3.68,3.25,26.76,26.76,0,0,0-5.76,11Z" transform="translate(-14.94 -245.82)"/><path id="Path_148" data-name="Path 148" class="cls-92" d="M431.56,567.75h12.28V500.38a25,25,0,0,0-6.06-11,26.76,26.76,0,0,0-5.76,11Z" transform="translate(-14.94 -245.82)"/><path id="Path_149" data-name="Path 149" class="cls-31" d="M344.25,448.74l-7.42-.26-2.17,8.19,2.17,4.67L324.77,567.75h19.48l2.07-106.41-2.07-4.67Z" transform="translate(-14.94 -245.82)"/><path id="Path_150" data-name="Path 150" class="cls-94" d="M522.46,567.75,521,461.87h-1.38l-.87,105.88Z" transform="translate(-14.94 -245.82)"/><path id="Path_151" data-name="Path 151" class="cls-95" d="M291.47,567.75l-1-107.27h-1.38l-.89,107.27Z" transform="translate(-14.94 -245.82)"/><path id="Path_152" data-name="Path 152" class="cls-96" d="M280.14,567.75l.64-106.41-1.39.3-.88,106.11Z" transform="translate(-14.94 -245.82)"/><path id="Path_153" data-name="Path 153" class="cls-97" d="M514.59,567.75l-.77-106.41h-2l-.89,106.41Z" transform="translate(-14.94 -245.82)"/><path id="Path_154" data-name="Path 154" class="cls-98" d="M301.56,567.75l-.78-107.19-1.07-.1-1.15,107.29Z" transform="translate(-14.94 -245.82)"/><path id="Path_155" data-name="Path 155" class="cls-99" d="M276,567.75l.69-64.95h-6.63l-1.15,9.27-1.66.66-2.71,24.37-5.76.46V517.77l-10.13,2.3L245,567.75Z" transform="translate(-14.94 -245.82)"/><path id="Path_156" data-name="Path 156" class="cls-100" d="M252.45,464v23l-5.19,1.55v-7.42l-1,.69L245,512.07l-3.31.66,1-48.43Z" transform="translate(-14.94 -245.82)"/><path id="Path_157" data-name="Path 157" class="cls-101" d="M501.11,567.75l1.3-66.45-2.81,1.5v31.72l-10.27.76v7.12h-1.92V526.93l-12.54-1.79-4,3.41v39.2Z" transform="translate(-14.94 -245.82)"/></g><g id="Group_70" data-name="Group 70"><path id="Path_159" data-name="Path 159" class="cls-102" d="M264.22,510,263,381.47l-11.58-1.57V510.67Z" transform="translate(-14.94 -245.82)"/><path id="Path_160" data-name="Path 160" class="cls-103" d="M213.62,473.76V462.84a51.3,51.3,0,0,0-10.49-22.52c-8.81-10.9-17.74-14.24-17.74-14.24V477Z" transform="translate(-14.94 -245.82)"/><path id="Path_161" data-name="Path 161" class="cls-104" d="M157.3,473.76V462.84a51.21,51.21,0,0,1,10.48-22.52c8.82-10.9,17.75-14.24,17.75-14.24V477Z" transform="translate(-14.94 -245.82)"/><path id="Path_162" data-name="Path 162" class="cls-105" d="M210.38,471.81v-7l-2.56-.11v7Z" transform="translate(-14.94 -245.82)"/><path id="Path_163" data-name="Path 163" class="cls-106" d="M202.33,471v-7l-2.55-.12v7Z" transform="translate(-14.94 -245.82)"/><path id="Path_164" data-name="Path 164" class="cls-107" d="M194.27,470.43v-7l-2.54-.11v7Z" transform="translate(-14.94 -245.82)"/><path id="Path_165" data-name="Path 165" class="cls-108" d="M186.23,470.43v-7l-2.54-.11v7Z" transform="translate(-14.94 -245.82)"/><path id="Path_166" data-name="Path 166" class="cls-109" d="M178.18,470.43v-7l-2.54.11v6.81Z" transform="translate(-14.94 -245.82)"/><path id="Path_167" data-name="Path 167" class="cls-110" d="M170.14,471.12v-7.35l-2.55.26v7Z" transform="translate(-14.94 -245.82)"/><path id="Path_168" data-name="Path 168" class="cls-111" d="M162.09,471.81v-7l-2.55.5v6.42Z" transform="translate(-14.94 -245.82)"/><path id="Path_169" data-name="Path 169" class="cls-112" d="M213.62,462.84s-33.52-1.63-43.48-7.18,1.24-20.15,5.5-23.33c0,0-11.81,7.07-18.34,30.51l.12,9,56.19-2.14v-6.83Z" transform="translate(-14.94 -245.82)"/><path id="Path_170" data-name="Path 170" class="cls-113" d="M186.82,427l-.93-21.12h-.71L184.25,427Z" transform="translate(-14.94 -245.82)"/><path id="Path_171" data-name="Path 171" class="cls-114" d="M265.57,567.75,264.22,510H102.11v57.73Z" transform="translate(-14.94 -245.82)"/><path id="Path_172" data-name="Path 172" class="cls-115" d="M102.11,510l-33.5.68-1,57.05h34.47Z" transform="translate(-14.94 -245.82)"/><path id="Path_173" data-name="Path 173" class="cls-116" d="M245,561.72l0-45.5H222.87v45.5Z" transform="translate(-14.94 -245.82)"/><path id="Path_174" data-name="Path 174" class="cls-117" d="M233.93,567.75v-68.5l-65.75-.43-3.6,68.93Z" transform="translate(-14.94 -245.82)"/><path id="Path_175" data-name="Path 175" class="cls-118" d="M168.18,498.82,140,500.75l-1.84,67h28.42Z" transform="translate(-14.94 -245.82)"/><path id="Path_176" data-name="Path 176" class="cls-119" d="M233.93,499.25l-14.77-17.61-1.72-11-40.58-.93-23,2.53-1.37,11.74L140,500.75l28.14-1.93Z" transform="translate(-14.94 -245.82)"/><path id="Path_177" data-name="Path 177" class="cls-120" d="M168.18,498.82,175.59,482l1.27-12.33-23,2.53-1.38,11.74L140,500.75Z" transform="translate(-14.94 -245.82)"/><path id="Path_178" data-name="Path 178" class="cls-47" d="M233.93,499.25l-14.77-17.61-43.57.36-7.41,16.82Z" transform="translate(-14.94 -245.82)"/><path id="Path_179" data-name="Path 179" class="cls-121" d="M134.39,563.14l-27.32-.45,2.11-47.9h25.21Z" transform="translate(-14.94 -245.82)"/><path id="Path_180" data-name="Path 180" class="cls-122" d="M230.77,567.75h-25l-.2-57.29h25.21Z" transform="translate(-14.94 -245.82)"/><path id="Path_181" data-name="Path 181" class="cls-123" d="M198.06,567.75H173l-.19-57.29h25.21Z" transform="translate(-14.94 -245.82)"/><path id="Path_182" data-name="Path 182" class="cls-124" d="M224.83,567.74s0-24.17-6.45-25.09-6.88,25.09-6.88,25.09Z" transform="translate(-14.94 -245.82)"/><path id="Path_183" data-name="Path 183" class="cls-124" d="M192.9,567.74s0-24.17-6.45-25.09-6.88,25.09-6.88,25.09Z" transform="translate(-14.94 -245.82)"/><path id="Path_184" data-name="Path 184" class="cls-125" d="M262.49,393.71s0-6.25-1.67-6.49-1.77,6.49-1.77,6.49Z" transform="translate(-14.94 -245.82)"/><path id="Path_185" data-name="Path 185" class="cls-126" d="M255.13,393.71s0-6.25-1.23-6.49-1.3,6.49-1.3,6.49Z" transform="translate(-14.94 -245.82)"/><path id="Path_186" data-name="Path 186" class="cls-127" d="M264.22,510H245.58l7.6,9.55-.46,48.18h12.85l-1.11-48.81,4.61-8.92Z" transform="translate(-14.94 -245.82)"/><path id="Path_187" data-name="Path 187" class="cls-128" d="M264.46,518.94s-5.72-.46-8.52,1.84-3.22,47-3.22,47H248l2-47.88L245.59,510h23.48Z" transform="translate(-14.94 -245.82)"/><path id="Path_188" data-name="Path 188" class="cls-129" d="M269.07,425.51v10.56l-5.48,6.05H251.45l-5.87-5V425.51Z" transform="translate(-14.94 -245.82)"/><path id="Path_189" data-name="Path 189" class="cls-130" d="M269.07,436.07l-23.49,1V425.51h23.49Z" transform="translate(-14.94 -245.82)"/><path id="Path_190" data-name="Path 190" class="cls-131" d="M263,379.9l-6.56-39.49-5.73,39.49-3.92,2.75H267.7Z" transform="translate(-14.94 -245.82)"/></g><g id="Group_72" data-name="Group 72"><path id="Path_191" data-name="Path 191" class="cls-132" d="M537.79,567.75h46.75l-.14-5.06-.1-3.86-.21-8.4-.17-6.46-.18-7.25-.19-6.83-.31-12.67-.07-2.72-.37-14.62-.19-7.1-.32-12.61-.22-8.37-.49-19.08,0-1.13L581,429v-.34l-.51-20.34-.07-2.79-.68-25.93v-.06l-.6-23.86-.36,9.71-2.94-1.16L567,360.84l-.55-.21L562,358.89l-2.24-.87-8.16-3.19-3.75-1.46-3.8-1.47-.14,5.06-.28,9.78L543,388l0,.37-.47,16.57-.13,4.55-.53,18.2-.09,3-.59,20-.12,4-.48,16.41-.29,10.51L540,493.53l-.22,7.24-.37,13.2-.12,3.94-.34,11.7-.2,6.87-.23,7.88-.17,5.84-.26,8.91-.11,3.44Z" transform="translate(-14.94 -245.82)"/><g id="Group_71" data-name="Group 71"><path id="Path_192" data-name="Path 192" class="cls-133" d="M524.21,567.75,529.76,372l2.55-1.3-5.19,197.07Z" transform="translate(-14.94 -245.82)"/><path id="Path_193" data-name="Path 193" class="cls-134" d="M584.67,567.75l-5.23-197.07h-2.55L582,567.75Z" transform="translate(-14.94 -245.82)"/><path id="Path_194" data-name="Path 194" class="cls-135" d="M527.3,562.68c.83-.38,1.73-.8,2.69-1.27-.85-.67-1.71-1.37-2.56-2.07l.31-8.68c1.21-.68,2.51-1.47,3.94-2.33-1.25-1.07-2.5-2.2-3.75-3.36l.27-7.67c1.75-.94,3.75-2.06,5.91-3.39q-2-2.14-3.91-4.46l-1.77,1.15.41-11.39c.83,1.13,1.65,2.23,2.5,3.32,1.25-.93,2.58-2,4-3.09-1.55-1.83-3.08-3.75-4.57-5.72L529,515.38l.45-12.85c.68,1.08,1.39,2.14,2.09,3.2.87-.89,1.79-1.83,2.73-2.83-1.59-2.36-3.14-4.84-4.56-7.43l.41-11.52c.3.72.59,1.41.92,2.12,1.32-1.3,2.76-2.74,4.26-4.32q-2.19-4.1-4.22-8.55c-.2.18-.42.35-.61.51l.56-16q1.08,3.34,2.28,6.52,1.71-1.67,3.58-3.6-2.22-4.14-4.21-8.47c-.54.58-1,1.12-1.53,1.62l.69-19.5c.79,2.71,1.68,5.4,2.67,8,.87-1,1.77-2.07,2.68-3.18-1.45-2.89-2.84-5.9-4.2-9l-1,1.17.62-17.74c.72,2.18,1.48,4.29,2.26,6.38l1.57-2q-1.93-4.26-3.68-8.84l.56-16.13h.06c.52,2,1.08,3.92,1.68,5.85.79-.93,1.61-1.92,2.44-3-.85-1.8-1.68-3.61-2.48-5.46-.59.8-1.14,1.54-1.67,2.24L534,372c.65,2.16,1.36,4.32,2.12,6.44.86-1.62,1.72-3.33,2.56-5.14q-2.32-5.27-4.34-10.82a140.92,140.92,0,0,1-4.79-16.22l5.52-.83A132.46,132.46,0,0,0,539,359c.81,2.4,1.69,4.76,2.62,7.1.65-1.8,1.23-3.7,1.78-5.67.39-1.43.76-2.91,1.08-4.42-1-3.09-1.87-6.32-2.69-9.71l5.53-.86q1,4.32,2.27,8.32l1,.13c-.12.64-.25,1.27-.38,1.9.87,2.67,1.78,5.26,2.74,7.72.48,1.24,1,2.46,1.48,3.65.38-.92.77-1.85,1.14-2.8,1.09-2.73,2.12-5.59,3.08-8.56-.13-.64-.27-1.28-.38-1.92l1-.13c.82-2.66,1.58-5.43,2.26-8.31l5.52.87c-.8,3.37-1.71,6.6-2.68,9.71a81.6,81.6,0,0,0,2.87,10.08,143.21,143.21,0,0,0,6.52-20.63l5.54.82a146.41,146.41,0,0,1-7.55,23.31c-.52,1.25-1,2.48-1.58,3.71.83,1.81,1.69,3.52,2.56,5.13.89-2.54,1.73-5.1,2.49-7.72l.71.22.42,13.55v0a0,0,0,0,1,0,0l.79,25.26c-.29-.25-.58-.54-.91-.84-1.18,3.12-2.44,6.13-3.76,9.06.54.67,1.06,1.31,1.57,2,.91-2.47,1.81-5,2.65-7.56l.52.11.59,19.81c-.59-.64-1.25-1.38-2-2.18q-2,4.68-4.18,9c.91,1.12,1.8,2.17,2.67,3.17,1.2-3.19,2.26-6.44,3.14-9.73l.34,0,.69,22c-.68-.71-1.45-1.54-2.33-2.47q-2,4.3-4.21,8.45c1.25,1.31,2.44,2.5,3.58,3.61q1.57-4.11,2.9-8.51l.07,0,.57,18.58c-.4-.35-.85-.71-1.33-1.12-1.33,3-2.74,5.81-4.22,8.55,1.52,1.58,3,3,4.28,4.31.53-1.17,1-2.37,1.53-3.58l.38,12.27a.52.52,0,0,0-.11-.1c-1.57,2.9-3.27,5.64-5,8.25.93,1,1.84,1.94,2.71,2.83q1.36-2,2.65-4.08l.43,14.25c-.68-.64-1.45-1.36-2.29-2.18q-2.25,3-4.58,5.72c1.39,1.14,2.72,2.16,4,3.09,1-1.3,2-2.62,3-4l.38,12.35c-.67-.42-1.41-.89-2.22-1.43-1.29,1.54-2.61,3-3.91,4.45,2.35,1.43,4.49,2.65,6.35,3.62l.22,7.07c-1.37,1.31-2.76,2.55-4.13,3.74,1.58,1,3,1.81,4.33,2.56l.25,8.18c-1,.81-1.93,1.58-2.88,2.34,1.06.52,2.06,1,3,1.41l.14,4.93h-.83c-1.84-.78-4.1-1.79-6.65-3.08-1.18.86-2.33,1.7-3.49,2.49l1.52.59H560.71q-2.9-1.43-6.3-3.33c-2.25,1.27-4.36,2.38-6.28,3.33H536.28l1.52-.59c-1.14-.79-2.33-1.62-3.51-2.49-2.56,1.29-4.79,2.3-6.64,3.08h-.54Zm4.08-21.55c1.6,1.51,3.2,3,4.8,4.33,1.77-1.16,3.63-2.44,5.54-3.83q-2.06-1.93-4.13-4C535.31,539,533.22,540.15,531.38,541.13ZM547.68,391c-1.33,2-2.65,3.77-3.92,5.46,1.14,2.3,2.29,4.56,3.49,6.76,1.34-2,2.69-4,4-6.16-1.21-2-2.42-4-3.6-6.06Zm.29-10.81c1.15-2,2.29-4.17,3.4-6.42-1.26-2.7-2.51-5.52-3.67-8.53-.93,2.85-2,5.55-3,8.06,1.06,2.36,2.16,4.64,3.3,6.89Zm-.78,144.52q1.65-1.34,3.33-2.77c-1.58-1.49-3.18-3.06-4.74-4.71-1,1-2.08,1.86-3.08,2.73C544.19,521.59,545.69,523.19,547.19,524.71Zm-.44,6.78q-2.41,1.75-4.7,3.27c1.29,1.31,2.58,2.55,3.87,3.75q2.24-1.71,4.56-3.63c-1.24-1.1-2.49-2.22-3.74-3.39Zm7.67-13.07c1.61-1.53,3.23-3.13,4.81-4.83-1.58-1.56-3.19-3.24-4.81-5q-2.45,2.64-4.82,5c1.6,1.71,3.2,3.3,4.81,4.83Zm-3.51,9.9c1.18,1.09,2.34,2.16,3.51,3.2q1.74-1.56,3.5-3.2-1.75-1.4-3.5-2.91-1.75,1.51-3.51,2.91Zm3.51-80.09c-1.16,1.53-2.3,3-3.45,4.42,1.14,1.81,2.29,3.58,3.45,5.29,1.15-1.71,2.29-3.48,3.44-5.29-1.14-1.41-2.29-2.9-3.45-4.42Zm0-9.28c1.57-2.34,3.16-4.78,4.7-7.35-1.55-2.09-3.14-4.28-4.71-6.58-1.58,2.29-3.17,4.48-4.7,6.57,1.53,2.57,3.12,5,4.71,7.36Zm-4.13,33.64c1.36,2.05,2.74,4,4.12,6q2.07-2.9,4.11-6c-1.36-1.68-2.73-3.46-4.11-5.32q-2.08,2.79-4.12,5.32Zm-1.06,21.19c1.71,2.35,3.44,4.59,5.19,6.7q2.61-3.17,5.19-6.7-2.58-3.07-5.19-6.44c-1.75,2.24-3.49,4.39-5.19,6.44Zm-3.15,15.9c1.58-1.59,3.19-3.29,4.8-5.09-1.77-2.07-3.52-4.26-5.24-6.59-1.61,1.83-3.17,3.57-4.66,5.19,1.64,2.29,3.35,4.44,5.1,6.49Zm.07-20.34c1.64-2,3.31-4.14,5-6.35q-2.19-3-4.35-6.14c-1.7,2-3.34,3.83-4.92,5.54,1.38,2.41,2.82,4.73,4.29,6.95Zm1.07-21.51c1.28-1.64,2.57-3.37,3.87-5.17-1.26-1.82-2.54-3.69-3.8-5.65-1.33,1.53-2.65,3-3.91,4.33,1.25,2.21,2.54,4.37,3.84,6.49Zm.78-20.07c1-1.3,2.06-2.67,3.09-4.08-1.65-2.35-3.31-4.84-4.92-7.43l-2.65,3.35q2.18,4.25,4.48,8.16Zm-1.18-21.17c1.45-2,2.92-4.13,4.39-6.31-1.51-2.32-3-4.7-4.52-7.19q-2.07,2.84-4.05,5.37,2,4.21,4.18,8.13Zm3.3-18.24q2.11,3.64,4.28,7,2.19-3.4,4.29-7c-1.41-2-2.85-4.14-4.29-6.34-1.44,2.19-2.86,4.32-4.29,6.34Zm11.45-5.13q1.8-3.32,3.51-6.76c-1.28-1.68-2.6-3.49-3.93-5.45-1.18,2.06-2.39,4.08-3.6,6,1.33,2.13,2.69,4.18,4,6.16Zm-4,17.06c1.48,2.2,2.94,4.31,4.4,6.33q2.15-3.92,4.16-8.14c-1.31-1.68-2.67-3.48-4.07-5.36-1.48,2.47-3,4.86-4.5,7.17Zm5.06,16q-2.45,3.89-4.93,7.41,1.54,2.11,3.08,4.09,2.31-3.92,4.5-8.14C564.46,438.52,563.56,437.41,562.67,436.26Zm-4.94,26.4q1.95,2.7,3.87,5.17c1.31-2.12,2.59-4.28,3.82-6.49q-1.89-2-3.89-4.33c-1.26,2-2.54,3.83-3.8,5.65Zm0,20.33c1.67,2.21,3.34,4.32,5,6.34,1.47-2.21,2.91-4.53,4.29-6.94-1.57-1.7-3.22-3.55-4.91-5.53-1.44,2.1-2.89,4.15-4.36,6.13Zm.26,21.6q2.4,2.7,4.79,5.09c1.75-2.06,3.46-4.2,5.12-6.48-1.5-1.63-3.06-3.36-4.66-5.2q-2.62,3.48-5.25,6.59Zm5.09,12.64c-1.57,1.65-3.16,3.22-4.74,4.71,1.12,1,2.23,1.89,3.33,2.77,1.5-1.52,3-3.12,4.49-4.76-1-.86-2-1.77-3.08-2.72Zm-4.68,17.65q2.31,1.9,4.56,3.64c1.29-1.21,2.58-2.45,3.85-3.75-1.52-1-3.09-2.1-4.69-3.28-1.25,1.17-2.49,2.29-3.73,3.39Zm4.94,10.21c-1.59,1.39-3.16,2.7-4.73,4,1.71,1.25,3.4,2.43,5,3.53,1.65-1.19,3.32-2.46,5-3.81-1.71-1.12-3.49-2.36-5.33-3.68Zm-4.2-3.11c-1.53-1.18-3.1-2.42-4.69-3.74-1.58,1.31-3.14,2.55-4.69,3.74,1.58,1.37,3.14,2.65,4.7,3.9,1.55-1.23,3.11-2.52,4.68-3.9Zm-13.57,3.11c-1.85,1.32-3.63,2.56-5.34,3.68,1.71,1.35,3.39,2.63,5,3.82,1.64-1.09,3.31-2.26,5-3.53Q547.91,547.17,545.54,545.09Zm-11-18.63c1.34,1.59,2.7,3.13,4,4.6,1.47-1,3-2,4.53-3.17-1.47-1.47-2.94-3-4.39-4.61C537.21,524.45,535.8,525.5,534.5,526.46Zm4.81-10.4q1.46-1.29,3-2.7-2.56-3-5-6.21L534.51,510Q536.83,513.14,539.31,516.06Zm-5.94-25.15c1.45,2.77,3,5.41,4.62,7.92,1.48-1.62,3-3.35,4.55-5.17-1.57-2.29-3.1-4.68-4.59-7.19C536.29,488.14,534.76,489.61,533.37,490.91Zm2-21.53c1.21,2.82,2.5,5.52,3.84,8.13,1.47-1.65,3-3.4,4.52-5.27-1.44-2.23-2.83-4.52-4.19-6.86-1.47,1.46-2.88,2.81-4.17,4Zm1.32-21.65c1.26,2.95,2.65,5.86,4.1,8.69,1.18-1.31,2.39-2.69,3.61-4.15-1.56-2.6-3.11-5.31-4.62-8.13q-1.62,1.94-3.09,3.59Zm4.29-13.3c.77-1,1.54-2,2.33-3-1.51-2.62-3-5.35-4.4-8.2-.65.8-1.29,1.56-1.9,2.29,1.25,3.08,2.6,6.05,4,8.93Zm-4-29.83c1,2.91,2.13,5.71,3.29,8.44,1.19-1.56,2.39-3.2,3.62-4.91-1.31-2.29-2.57-4.63-3.82-7C538.94,402.39,537.89,403.55,536.92,404.6Zm4.72-25q-1.5,2.85-3.06,5.34c.83,2,1.67,4,2.57,6,1.17-1.64,2.36-3.42,3.56-5.3-1.05-2-2.07-4-3.07-6Zm12.78.18c-1.14,2.12-2.3,4.15-3.45,6.05,1.14,2.06,2.29,4.08,3.45,6,1.16-2,2.32-4,3.44-6-1.14-1.91-2.31-3.93-3.45-6.06Zm6.72-14.57c-.11.25-.21.52-.32.77-1.07,2.72-2.2,5.29-3.36,7.75,1.11,2.26,2.25,4.39,3.4,6.42,1.14-2.23,2.24-4.53,3.3-6.87-1-2.23-1.86-4.59-2.68-7.08-.13-.33-.24-.67-.35-1Zm6.05,14.39c-1,2.05-2,4-3.07,6,1.2,1.89,2.39,3.67,3.56,5.31q1.32-3,2.55-6c-1-1.65-2-3.43-3-5.33Zm6.64,19.21c.6-1.91,1.17-3.85,1.68-5.84l.37.06c-.64-.81-1.3-1.7-2-2.66-.81,1.84-1.63,3.67-2.48,5.46.83,1.06,1.65,2.06,2.43,3Zm-5,2.25c-1.23,2.4-2.5,4.75-3.79,7,1.22,1.72,2.43,3.35,3.6,4.91,1.16-2.72,2.26-5.52,3.29-8.44-1-1.06-2-2.21-3.11-3.5Zm3.05,24.4c-.61-.73-1.25-1.49-1.9-2.29-1.41,2.84-2.89,5.58-4.4,8.21.78,1,1.56,2,2.34,3,1.37-2.88,2.7-5.86,4-8.93Zm.31,22.23c-1-1.11-2-2.31-3.09-3.57-1.51,2.82-3.06,5.51-4.62,8.1,1.22,1.47,2.43,2.84,3.6,4.16q2.22-4.26,4.11-8.69Zm-2.85,17.63c-1.36,2.34-2.75,4.63-4.19,6.86,1.55,1.88,3,3.64,4.52,5.28,1.34-2.61,2.63-5.31,3.84-8.13-1.29-1.18-2.7-2.53-4.17-4Zm6.15,25.55q-2.1-1.94-4.57-4.43-2.25,3.75-4.6,7.19,2.34,2.71,4.56,5.17c1.61-2.52,3.16-5.17,4.61-7.93ZM574.32,510c-.87-.89-1.81-1.82-2.76-2.82q-2.44,3.25-5,6.21c1,.94,2,1.84,3,2.7,1.64-2,3.24-4,4.79-6.09Zm-4.16,13.3c-1.45,1.59-2.92,3.14-4.38,4.61,1.55,1.13,3.05,2.2,4.52,3.17,1.36-1.47,2.71-3,4-4.6-1.31-1-2.71-2-4.18-3.18Zm7.31,17.85c-1.85-1-3.94-2.15-6.22-3.53-1.37,1.4-2.74,2.73-4.13,4q2.91,2.08,5.55,3.82c1.59-1.36,3.19-2.81,4.8-4.32Zm-3.56,17.72q2.39-1.85,4.83-3.91c-1.64-.92-3.53-2-5.58-3.28q-2.53,2.05-5,3.84c2,1.24,4,2.36,5.76,3.35Zm-8.27,5.91c1.29-.85,2.61-1.74,3.94-2.7-1.85-1-3.8-2.17-5.84-3.44-1.52,1-3,2-4.44,2.9C561.62,562.79,563.75,563.86,565.64,564.76Zm-11.23-6.08c1.54-.93,3.14-1.94,4.77-3q-2.32-1.57-4.77-3.39-2.42,1.8-4.76,3.39Q552.11,557.29,554.41,558.68Zm-11.18,6.08c1.87-.89,4-2,6.3-3.24q-2.16-1.35-4.44-2.9c-2,1.27-4,2.41-5.81,3.43C540.61,563,541.92,563.91,543.23,564.76ZM535,558.85c1.8-1,3.72-2.09,5.74-3.33-1.66-1.22-3.33-2.49-5-3.85-2,1.25-3.94,2.35-5.58,3.27,1.63,1.37,3.26,2.67,4.85,3.91Z" transform="translate(-14.94 -245.82)"/><path id="Path_195" data-name="Path 195" class="cls-136" d="M561.19,306.91l-.44-11.64h-12.5l-.31,11.38Z" transform="translate(-14.94 -245.82)"/><rect id="Rectangle_46" data-name="Rectangle 46" class="cls-137" x="528.19" y="60.29" width="22.88" height="5.92"/><path id="Path_196" data-name="Path 196" class="cls-138" d="M580.05,370.9l-1.61-57.8H530.2l1,57.8Z" transform="translate(-14.94 -245.82)"/><path id="Path_197" data-name="Path 197" class="cls-139" d="M578.88,316.64H530.2v8.65l48.88-.25Z" transform="translate(-14.94 -245.82)"/><path id="Path_198" data-name="Path 198" class="cls-140" d="M579.16,328.56l-49-.61v7.53h49Z" transform="translate(-14.94 -245.82)"/><path id="Path_199" data-name="Path 199" class="cls-141" d="M578.85,313.1l.09-1.39L530.2,311v2.13Z" transform="translate(-14.94 -245.82)"/><path id="Path_200" data-name="Path 200" class="cls-142" d="M566,306.11v.69l-22.88.38v-1.07Z" transform="translate(-14.94 -245.82)"/><path id="Path_201" data-name="Path 201" class="cls-143" d="M558.22,295.27s-5-27.47-3.54-49.45h-1.07s.35,32.73-3.22,49.45Z" transform="translate(-14.94 -245.82)"/><path id="Path_202" data-name="Path 202" class="cls-144" d="M523.94,562.68c.93-.38,1.94-.8,3-1.27-1-.67-1.91-1.37-2.88-2.07l.35-8.68c1.35-.68,2.83-1.47,4.43-2.33-1.4-1.07-2.8-2.2-4.2-3.36l.3-7.67c2-.94,4.2-2.06,6.64-3.39-1.47-1.43-3-2.92-4.39-4.46-.71.41-1.36.8-2,1.15l.46-11.39c.92,1.13,1.86,2.23,2.8,3.32,1.41-.93,2.9-2,4.46-3.09-1.74-1.83-3.46-3.75-5.14-5.72-.69.6-1.35,1.15-2,1.66l.49-12.85c.76,1.08,1.56,2.14,2.35,3.2,1-.89,2-1.83,3.07-2.83-1.79-2.36-3.52-4.84-5.14-7.43l.46-11.52c.34.72.68,1.41,1,2.12,1.48-1.3,3.09-2.74,4.8-4.32q-2.48-4.1-4.75-8.55l-.69.51.63-16c.81,2.22,1.66,4.4,2.55,6.52q1.93-1.68,4-3.61c-1.66-2.76-3.25-5.59-4.72-8.47-.6.58-1.18,1.12-1.71,1.62l.77-19.5q1.34,4.08,3,8c1-1,2-2.07,3-3.18-1.62-2.89-3.18-5.9-4.7-9-.41.41-.82.8-1.18,1.17l.71-17.74c.81,2.18,1.66,4.29,2.54,6.38.59-.63,1.16-1.3,1.78-2-1.45-2.84-2.84-5.79-4.14-8.84l.63-16.13h.05c.59,2,1.23,3.92,1.89,5.85.89-.93,1.81-1.92,2.75-3-1-1.8-1.89-3.61-2.79-5.46-.66.8-1.27,1.54-1.89,2.24l.81-20.68c.74,2.16,1.54,4.32,2.38,6.43q1.47-2.42,2.86-5.13c-1.74-3.51-5.08,2.57-5.24-1.3-.53-13-4.87-20.15-6.29-25.68l7.49-.87A122,122,0,0,0,537,359c.92,2.4,1.9,4.76,3,7.1.72-1.81,1.39-3.71,2-5.67.44-1.43.85-2.91,1.23-4.42-1.09-3.11-2.11-6.34-3-9.72l6.21-.87c.78,2.88,1.64,5.65,2.55,8.33,0,0,.87,1.4.72,2q1.45,4,3.08,7.73c.53,1.23,1.1,2.46,1.66,3.64.43-.92.86-1.85,1.28-2.8,1.22-2.72,2.38-5.59,3.46-8.56-.15-.63.72-2,.72-2q1.38-4,2.55-8.31l6.21.87c-.91,3.37-1.93,6.6-3,9.7a81.07,81.07,0,0,0,3.22,10.09,130.17,130.17,0,0,0,7.32-20.64l8.33,1.66c-2.19,7.42-5,14.28-5.91,23.82-.13,1.32-5.86,1.14-6.46,2.36.92,1.81,1.89,3.53,2.87,5.14,1-2.55,2-5.11,2.81-7.73l.79.23.48,13.55s0,0,0,0,0,0,0,0l.89,25.26-1-.84q-2,4.67-4.24,9.05l1.78,2c1-2.47,2-5,3-7.56l.59.11.68,19.82c-.67-.65-1.4-1.38-2.2-2.18-1.51,3.12-3.08,6.11-4.71,9,1,1.12,2,2.18,3,3.18a93.54,93.54,0,0,0,3.53-9.74l.38,0,.72,22-2.62-2.46q-2.21,4.31-4.72,8.45,2.1,1.95,4,3.6c1.16-2.74,2.27-5.58,3.26-8.51l.08,0,.64,18.59-1.49-1.13c-1.5,3-3.08,5.82-4.75,8.55,1.71,1.59,3.32,3,4.81,4.32.59-1.18,1.18-2.37,1.73-3.59l.42,12.27-.13-.1c-1.78,2.9-3.68,5.64-5.66,8.25,1,1,2.08,1.95,3,2.84q1.53-2,3-4.08l.48,14.24c-.76-.63-1.62-1.36-2.57-2.17-1.67,2-3.4,3.89-5.13,5.72,1.56,1.13,3,2.15,4.45,3.08,1.14-1.29,2.24-2.61,3.36-4l.42,12.34c-.76-.42-1.59-.89-2.51-1.43q-2.18,2.31-4.39,4.46c2.65,1.43,5,2.64,7.13,3.61l.25,7.08c-1.55,1.3-3.09,2.54-4.64,3.73,1.78,1,3.41,1.81,4.86,2.56l.28,8.18c-1.09.81-2.16,1.59-3.22,2.34,1.19.52,2.31,1,3.35,1.41l.17,4.94h-.92c-2.08-.78-4.6-1.79-7.48-3.08-1.32.86-2.63,1.7-3.92,2.49l1.71.59H561.46c-2.16-1-4.53-2.06-7.07-3.33q-3.81,1.9-7.07,3.33H534l1.7-.59c-1.28-.79-2.61-1.62-3.93-2.49-2.87,1.29-5.39,2.3-7.47,3.08h-.59Zm4.57-21.55c1.8,1.51,3.61,3,5.4,4.33,2-1.16,4.06-2.44,6.22-3.83-1.54-1.3-3.09-2.64-4.63-4C532.94,539,530.6,540.15,528.51,541.13ZM546.82,391c-1.5,2-3,3.77-4.41,5.46q1.92,3.45,3.94,6.76,2.25-3,4.52-6.16c-1.35-2-2.72-4-4-6.06Zm.33-10.81q1.94-3,3.82-6.43c-1.43-2.69-2.82-5.51-4.13-8.52a82.74,82.74,0,0,1-3.4,8.06c1.2,2.36,2.43,4.64,3.71,6.89Zm-.87,144.52q1.88-1.34,3.73-2.77-2.67-2.24-5.33-4.71c-1.18,1-2.32,1.86-3.46,2.73,1.69,1.63,3.37,3.23,5.06,4.75Zm-.5,6.77c-1.79,1.18-3.56,2.27-5.28,3.28,1.46,1.31,2.9,2.55,4.35,3.75,1.68-1.14,3.4-2.36,5.13-3.63-1.41-1.1-2.8-2.22-4.2-3.39Zm8.61-13.07q2.72-2.28,5.41-4.82c-1.78-1.56-3.59-3.24-5.41-5q-2.73,2.66-5.41,5c1.8,1.71,3.6,3.3,5.41,4.83Zm-3.93,9.91c1.32,1.09,2.64,2.16,3.94,3.19,1.31-1,2.63-2.1,4-3.19-1.31-.93-2.62-1.9-4-2.92q-2,1.53-3.94,2.92Zm3.93-80.09c-1.3,1.53-2.58,3-3.86,4.41q1.92,2.73,3.86,5.3c1.3-1.71,2.59-3.47,3.87-5.3-1.29-1.4-2.57-2.89-3.87-4.41Zm0-9.28c1.79-2.34,3.56-4.78,5.29-7.35-1.75-2.09-3.51-4.28-5.3-6.58-1.78,2.28-3.55,4.48-5.28,6.57,1.73,2.57,3.51,5,5.29,7.36Zm-4.63,33.64q2.29,3.06,4.62,6,2.34-2.9,4.61-6-2.28-2.54-4.61-5.32c-1.54,1.86-3.09,3.63-4.62,5.32Zm-1.2,21.19q2.88,3.53,5.82,6.7c2-2.11,3.91-4.34,5.82-6.7-1.91-2-3.87-4.2-5.82-6.45-1.95,2.25-3.9,4.4-5.82,6.45Zm-3.52,15.9q2.67-2.39,5.37-5.09c-2-2.07-3.94-4.26-5.88-6.59-1.8,1.83-3.55,3.57-5.24,5.19C541.16,505.48,543.07,507.63,545.05,509.68Zm.07-20.34c1.84-2,3.73-4.14,5.59-6.35-1.65-2-3.29-4-4.9-6.14-1.9,2-3.75,3.83-5.52,5.54q2.34,3.62,4.82,6.95Zm1.22-21.51c1.44-1.65,2.88-3.37,4.35-5.17-1.43-1.82-2.86-3.69-4.28-5.65-1.49,1.53-3,3-4.39,4.33,1.39,2.21,2.85,4.37,4.31,6.49Zm.86-20.07c1.15-1.31,2.32-2.67,3.47-4.09-1.86-2.35-3.72-4.83-5.54-7.42q-1.53,1.72-3,3.35c1.64,2.83,3.33,5.56,5.05,8.16Zm-1.33-21.17c1.64-2,3.29-4.13,4.94-6.32-1.7-2.31-3.4-4.7-5.07-7.18q-2.34,2.84-4.56,5.37Q543.46,422.67,545.87,426.59Zm3.71-18.24q2.38,3.63,4.81,7,2.45-3.42,4.81-7c-1.59-2-3.2-4.15-4.81-6.34-1.61,2.19-3.22,4.32-4.81,6.34Zm12.87-5.14c1.35-2.2,2.64-4.45,3.93-6.75-1.44-1.69-2.91-3.49-4.4-5.46q-2,3.11-4.05,6.05c1.51,2.13,3,4.18,4.52,6.16ZM558,420.28c1.66,2.2,3.3,4.3,4.94,6.32,1.61-2.6,3.18-5.32,4.69-8.13q-2.21-2.54-4.58-5.36-2.49,3.7-5,7.17Zm5.7,16q-2.74,3.89-5.53,7.42c1.15,1.41,2.32,2.77,3.46,4.08,1.71-2.61,3.4-5.33,5-8.14-1-1.09-2-2.21-3-3.36Zm-5.56,26.4c1.45,1.8,2.91,3.52,4.35,5.17,1.47-2.12,2.91-4.28,4.3-6.49q-2.14-2-4.38-4.33c-1.41,2-2.84,3.83-4.27,5.65Zm0,20.33q2.82,3.31,5.6,6.35c1.65-2.22,3.26-4.54,4.81-6.95-1.77-1.7-3.62-3.55-5.52-5.53-1.6,2.1-3.24,4.15-4.89,6.13Zm.3,21.6c1.8,1.8,3.61,3.5,5.38,5.09,2-2.05,3.89-4.2,5.75-6.48-1.68-1.63-3.44-3.36-5.24-5.2q-2.93,3.48-5.88,6.59Zm5.73,12.64q-2.65,2.46-5.33,4.71c1.24,1,2.5,1.89,3.73,2.77,1.69-1.52,3.38-3.12,5-4.76C566.42,519.09,565.28,518.18,564.1,517.23Zm-5.28,17.65q2.61,1.9,5.14,3.64c1.45-1.21,2.89-2.45,4.34-3.75-1.71-1-3.48-2.1-5.29-3.28-1.4,1.17-2.79,2.29-4.19,3.39Zm5.56,10.21c-1.79,1.39-3.55,2.7-5.31,4,1.91,1.25,3.81,2.43,5.65,3.53,1.86-1.19,3.73-2.46,5.66-3.81-1.93-1.12-3.92-2.36-6-3.68ZM559.67,542c-1.73-1.18-3.48-2.42-5.27-3.74-1.78,1.31-3.52,2.55-5.25,3.74,1.78,1.37,3.53,2.65,5.27,3.9C556.15,544.65,557.9,543.36,559.67,542Zm-15.25,3.11c-2.07,1.32-4.08,2.56-6,3.68,1.91,1.35,3.81,2.63,5.67,3.82,1.85-1.09,3.73-2.27,5.66-3.53-1.77-1.26-3.54-2.58-5.33-4ZM532,526.46c1.51,1.59,3,3.12,4.55,4.6,1.65-1,3.34-2,5.07-3.17-1.65-1.47-3.29-3-4.92-4.61C535.06,524.45,533.49,525.5,532,526.46Zm5.41-10.4c1.1-.86,2.22-1.76,3.34-2.7-1.91-2-3.8-4-5.62-6.21-1.09,1-2.11,1.94-3.09,2.82q2.6,3.16,5.37,6.09Zm-6.67-25.15c1.63,2.77,3.37,5.41,5.19,7.92q2.5-2.44,5.11-5.17c-1.75-2.29-3.48-4.68-5.15-7.19C534,488.14,532.32,489.61,530.75,490.91ZM533,469.38c1.35,2.82,2.8,5.52,4.31,8.13,1.65-1.65,3.35-3.4,5.09-5.27-1.62-2.23-3.18-4.52-4.71-6.86-1.66,1.46-3.25,2.81-4.69,4Zm1.47-21.65c1.43,2.95,3,5.86,4.6,8.7,1.34-1.32,2.67-2.7,4.05-4.16-1.76-2.6-3.5-5.31-5.19-8.13q-1.81,1.94-3.46,3.59Zm4.81-13.3c.86-1,1.74-2,2.62-3-1.69-2.62-3.36-5.35-4.94-8.2l-2.14,2.29q2.15,4.62,4.46,8.93Zm-4.52-29.83c1.15,2.91,2.39,5.7,3.7,8.44q2-2.34,4-4.91c-1.45-2.29-2.88-4.63-4.27-7C537,402.39,535.84,403.55,534.74,404.6Zm5.3-25c-1.12,1.9-2.28,3.68-3.42,5.33.92,2,1.89,4,2.87,6,1.31-1.64,2.65-3.42,4-5.3C542.31,383.68,541.17,381.67,540,379.64Zm14.35.17c-1.28,2.13-2.58,4.15-3.88,6.05,1.27,2.07,2.57,4.09,3.88,6.05,1.31-2,2.61-4,3.88-6.05Q556.32,383,554.39,379.81Zm7.55-14.57c-.12.26-.23.53-.35.78-1.21,2.72-2.48,5.28-3.78,7.75q1.88,3.38,3.83,6.42c1.27-2.24,2.52-4.53,3.71-6.87-1.08-2.23-2.1-4.59-3-7.08-.13-.33-.26-.67-.38-1Zm6.82,14.4c-1.13,2-2.27,4-3.45,6,1.35,1.89,2.67,3.67,4,5.31,1-2,1.94-4,2.85-6-1.14-1.65-2.28-3.42-3.41-5.33Zm7.45,19.21c.67-1.91,1.31-3.85,1.89-5.84l.4.06c-.7-.81-1.45-1.7-2.24-2.66-.91,1.84-1.83,3.67-2.79,5.46.93,1.06,1.86,2.06,2.74,3Zm-5.65,2.25c-1.37,2.4-2.8,4.75-4.26,7,1.37,1.71,2.73,3.35,4.05,4.91,1.31-2.73,2.55-5.53,3.71-8.44-1.1-1.06-2.28-2.21-3.5-3.5ZM574,425.5c-.7-.73-1.41-1.49-2.14-2.29-1.58,2.84-3.25,5.58-4.94,8.2.88,1,1.76,2,2.62,3,1.53-2.88,3-5.86,4.45-8.93Zm.35,22.23c-1.1-1.11-2.27-2.31-3.47-3.58q-2.53,4.23-5.18,8.11c1.36,1.47,2.73,2.84,4,4.16,1.62-2.84,3.17-5.75,4.6-8.69Zm-3.22,17.63q-2.28,3.51-4.71,6.86,2.61,2.82,5.09,5.27c1.5-2.6,3-5.3,4.31-8.12-1.44-1.18-3-2.53-4.69-4Zm6.92,25.55c-1.58-1.3-3.29-2.77-5.14-4.44-1.68,2.51-3.41,4.91-5.16,7.2q2.63,2.71,5.12,5.17c1.81-2.52,3.55-5.17,5.17-7.93ZM576.75,510c-1-.89-2-1.82-3.09-2.82-1.82,2.17-3.71,4.25-5.62,6.21,1.14.94,2.24,1.84,3.34,2.69,1.83-2,3.64-4,5.37-6.08Zm-4.67,13.3c-1.62,1.59-3.27,3.14-4.91,4.61,1.74,1.13,3.43,2.19,5.07,3.16,1.54-1.47,3-3,4.55-4.59-1.48-1-3.07-2-4.71-3.18Zm8.2,17.85c-2.07-1-4.42-2.16-7-3.54-1.55,1.4-3.08,2.74-4.64,4q3.27,2.08,6.24,3.82C576.68,544.09,578.48,542.64,580.28,541.13Zm-4,17.72c1.78-1.23,3.61-2.54,5.43-3.92-1.85-.92-4-2-6.27-3.28q-2.85,2.05-5.62,3.85c2.27,1.24,4.43,2.36,6.46,3.35Zm-9.29,5.9c1.45-.85,2.92-1.73,4.43-2.69-2.08-1-4.27-2.17-6.55-3.44-1.71,1-3.37,2-5,2.89,2.6,1.28,5,2.35,7.12,3.24Zm-12.62-6.06c1.73-.93,3.51-2,5.35-3-1.74-1-3.53-2.18-5.35-3.39-1.81,1.2-3.6,2.33-5.34,3.39C550.88,556.74,552.66,557.76,554.39,558.69Zm-12.56,6.06c2.11-.88,4.48-2,7.07-3.23-1.61-.9-3.29-1.87-5-2.9-2.28,1.27-4.47,2.41-6.54,3.43,1.52,1,3,1.86,4.45,2.7Zm-9.3-5.9c2-1,4.18-2.1,6.45-3.33-1.86-1.22-3.73-2.49-5.63-3.85-2.31,1.25-4.42,2.35-6.27,3.26,1.84,1.38,3.66,2.68,5.45,3.92Z" transform="translate(-14.94 -245.82)"/></g></g></svg>