<svg id="Layer_1" data-name="Layer 1" xmlns="http://www.w3.org/2000/svg" xmlns:xlink="http://www.w3.org/1999/xlink" viewBox="0 0 766.25 435.86"><defs><style>.cls-1{opacity:0.19;}.cls-100,.cls-101,.cls-102,.cls-103,.cls-104,.cls-105,.cls-106,.cls-107,.cls-108,.cls-109,.cls-11,.cls-110,.cls-111,.cls-112,.cls-113,.cls-114,.cls-115,.cls-116,.cls-117,.cls-118,.cls-119,.cls-12,.cls-120,.cls-121,.cls-122,.cls-123,.cls-124,.cls-125,.cls-126,.cls-127,.cls-128,.cls-129,.cls-13,.cls-130,.cls-131,.cls-132,.cls-133,.cls-137,.cls-139,.cls-14,.cls-140,.cls-141,.cls-142,.cls-143,.cls-144,.cls-15,.cls-16,.cls-17,.cls-18,.cls-19,.cls-2,.cls-20,.cls-21,.cls-22,.cls-23,.cls-24,.cls-25,.cls-26,.cls-27,.cls-28,.cls-29,.cls-3,.cls-30,.cls-31,.cls-32,.cls-38,.cls-39,.cls-4,.cls-40,.cls-41,.cls-42,.cls-43,.cls-44,.cls-45,.cls-46,.cls-47,.cls-48,.cls-49,.cls-5,.cls-50,.cls-51,.cls-52,.cls-53,.cls-54,.cls-55,.cls-56,.cls-57,.cls-58,.cls-59,.cls-6,.cls-60,.cls-61,.cls-62,.cls-63,.cls-64,.cls-65,.cls-66,.cls-67,.cls-68,.cls-69,.cls-7,.cls-70,.cls-71,.cls-72,.cls-73,.cls-74,.cls-75,.cls-76,.cls-77,.cls-78,.cls-79,.cls-8,.cls-80,.cls-81,.cls-82,.cls-83,.cls-84,.cls-85,.cls-86,.cls-87,.cls-88,.cls-89,.cls-9,.cls-90,.cls-91,.cls-92,.cls-93,.cls-94,.cls-95,.cls-96,.cls-97,.cls-98,.cls-99{fill-rule:evenodd;}.cls-2{fill:url(#linear-gradient);}.cls-3{fill:#e3c1dc;}.cls-4{fill:url(#linear-gradient-2);}.cls-5{fill:url(#linear-gradient-3);}.cls-6{fill:url(#linear-gradient-4);}.cls-7{fill:url(#linear-gradient-5);}.cls-8{fill:url(#linear-gradient-6);}.cls-9{fill:#f9bab4;}.cls-10{fill:#fde0d1;}.cls-11{fill:url(#linear-gradient-7);}.cls-12{fill:url(#linear-gradient-8);}.cls-13{fill:url(#linear-gradient-9);}.cls-14{fill:url(#linear-gradient-10);}.cls-15{fill:url(#linear-gradient-11);}.cls-16{fill:url(#linear-gradient-12);}.cls-17{fill:url(#linear-gradient-13);}.cls-18{fill:url(#radial-gradient);}.cls-19{fill:url(#radial-gradient-2);}.cls-20{fill:url(#radial-gradient-3);}.cls-21{fill:url(#radial-gradient-4);}.cls-22{fill:url(#radial-gradient-5);}.cls-23{fill:url(#radial-gradient-6);}.cls-24{fill:url(#radial-gradient-7);}.cls-25{fill:url(#radial-gradient-8);}.cls-26{fill:url(#radial-gradient-9);}.cls-27{fill:url(#radial-gradient-10);}.cls-28{fill:url(#linear-gradient-14);}.cls-29{fill:url(#linear-gradient-15);}.cls-30{fill:url(#radial-gradient-11);}.cls-31{fill:url(#radial-gradient-12);}.cls-32{fill:#dbb0d2;}.cls-33{fill:#ffdbab;}.cls-34{fill:url(#linear-gradient-16);}.cls-35{fill:#fdfbdc;}.cls-36{fill:url(#linear-gradient-17);}.cls-113,.cls-117,.cls-122,.cls-123,.cls-124,.cls-37,.cls-38,.cls-62{opacity:0.5;}.cls-102,.cls-113,.cls-117,.cls-122,.cls-123,.cls-124,.cls-37,.cls-38,.cls-62{isolation:isolate;}.cls-37{fill:url(#linear-gradient-18);}.cls-38{fill:#84a4cc;}.cls-39{fill:url(#linear-gradient-19);}.cls-40{fill:url(#linear-gradient-20);}.cls-41{fill:url(#linear-gradient-21);}.cls-42{fill:url(#linear-gradient-22);}.cls-43{fill:url(#linear-gradient-23);}.cls-44{fill:url(#linear-gradient-24);}.cls-45{fill:#fdc58b;}.cls-46{fill:url(#linear-gradient-25);}.cls-47{fill:url(#linear-gradient-26);}.cls-48{fill:#ffe094;}.cls-49{fill:url(#linear-gradient-27);}.cls-50{fill:url(#linear-gradient-28);}.cls-51{fill:url(#linear-gradient-29);}.cls-52{fill:url(#linear-gradient-30);}.cls-53{fill:url(#linear-gradient-31);}.cls-54{fill:url(#linear-gradient-32);}.cls-55{fill:url(#linear-gradient-33);}.cls-56{fill:url(#linear-gradient-34);}.cls-57{fill:url(#linear-gradient-35);}.cls-58{fill:url(#linear-gradient-36);}.cls-59{fill:url(#linear-gradient-37);}.cls-60{fill:url(#linear-gradient-38);}.cls-61{fill:url(#linear-gradient-39);}.cls-62{fill:url(#linear-gradient-40);}.cls-63{fill:url(#linear-gradient-41);}.cls-64{fill:url(#linear-gradient-42);}.cls-65{fill:url(#linear-gradient-43);}.cls-66{fill:url(#linear-gradient-44);}.cls-67{fill:#fcc7a1;}.cls-68{fill:url(#linear-gradient-45);}.cls-69{fill:url(#linear-gradient-46);}.cls-70{fill:url(#linear-gradient-47);}.cls-71{fill:url(#linear-gradient-48);}.cls-72{fill:url(#linear-gradient-49);}.cls-73{fill:url(#linear-gradient-50);}.cls-74{fill:url(#linear-gradient-51);}.cls-75{fill:url(#linear-gradient-52);}.cls-76{fill:url(#linear-gradient-53);}.cls-77{fill:url(#linear-gradient-54);}.cls-78{fill:url(#linear-gradient-55);}.cls-79{fill:url(#linear-gradient-56);}.cls-80{fill:url(#linear-gradient-57);}.cls-81{fill:url(#linear-gradient-58);}.cls-82{fill:url(#linear-gradient-59);}.cls-83{fill:url(#linear-gradient-60);}.cls-84{fill:url(#linear-gradient-61);}.cls-85{fill:url(#linear-gradient-62);}.cls-86{fill:url(#linear-gradient-63);}.cls-87{fill:url(#linear-gradient-64);}.cls-88{fill:url(#linear-gradient-65);}.cls-89{fill:url(#linear-gradient-66);}.cls-90{fill:url(#linear-gradient-67);}.cls-91{fill:url(#linear-gradient-68);}.cls-92{fill:url(#linear-gradient-69);}.cls-93{fill:#722d59;}.cls-94{fill:url(#linear-gradient-70);}.cls-95{fill:url(#linear-gradient-71);}.cls-96{fill:url(#linear-gradient-72);}.cls-97{fill:url(#linear-gradient-73);}.cls-98{fill:url(#linear-gradient-74);}.cls-99{fill:url(#linear-gradient-75);}.cls-100{fill:url(#linear-gradient-76);}.cls-101{fill:url(#linear-gradient-77);}.cls-102{opacity:0.63;fill:url(#linear-gradient-78);}.cls-103{fill:url(#linear-gradient-79);}.cls-104{fill:url(#linear-gradient-80);}.cls-105{fill:url(#linear-gradient-81);}.cls-106{fill:url(#linear-gradient-82);}.cls-107{fill:url(#linear-gradient-83);}.cls-108{fill:url(#linear-gradient-84);}.cls-109{fill:url(#linear-gradient-85);}.cls-110{fill:url(#linear-gradient-86);}.cls-111{fill:url(#linear-gradient-87);}.cls-112{fill:url(#linear-gradient-88);}.cls-113{fill:url(#linear-gradient-89);}.cls-114{fill:url(#linear-gradient-90);}.cls-115{fill:url(#linear-gradient-91);}.cls-116{fill:url(#linear-gradient-92);}.cls-117{fill:url(#linear-gradient-93);}.cls-118{fill:url(#linear-gradient-94);}.cls-119{fill:url(#linear-gradient-95);}.cls-120{fill:url(#linear-gradient-96);}.cls-121{fill:url(#linear-gradient-97);}.cls-122{fill:url(#linear-gradient-98);}.cls-123{fill:url(#linear-gradient-99);}.cls-124{fill:url(#linear-gradient-100);}.cls-125{fill:#853c59;}.cls-126{fill:url(#linear-gradient-101);}.cls-127{fill:url(#linear-gradient-102);}.cls-128{fill:url(#linear-gradient-103);}.cls-129{fill:#efa6a9;}.cls-130{fill:url(#linear-gradient-104);}.cls-131{fill:url(#linear-gradient-105);}.cls-132{fill:url(#linear-gradient-106);}.cls-133{fill:url(#linear-gradient-107);}.cls-134{fill:url(#linear-gradient-108);}.cls-135{fill:url(#linear-gradient-109);}.cls-136{fill:url(#linear-gradient-110);}.cls-137{fill:url(#linear-gradient-111);}.cls-138{fill:url(#linear-gradient-112);}.cls-139{fill:url(#linear-gradient-113);}.cls-140{fill:url(#radial-gradient-13);}.cls-141{fill:url(#radial-gradient-14);}.cls-142{fill:url(#linear-gradient-114);}.cls-143{fill:url(#linear-gradient-115);}.cls-144{fill:url(#linear-gradient-116);}.cls-145{fill:url(#linear-gradient-117);}</style><linearGradient id="linear-gradient" x1="-1.14" y1="596.59" x2="-1.14" y2="596" gradientTransform="matrix(55.81, 0, 0, -172.94, 354.85, 103591.57)" gradientUnits="userSpaceOnUse"><stop offset="0.03" stop-color="#fabfb7"/><stop offset="1" stop-color="#fff0d2"/></linearGradient><linearGradient id="linear-gradient-2" x1="0.37" y1="599.34" x2="0.37" y2="598.72" gradientTransform="matrix(131.12, 0, 0, -28.77, 244.16, 17648.71)" gradientUnits="userSpaceOnUse"><stop offset="0" stop-color="#d84880"/><stop offset="1" stop-color="#ea9f95"/></linearGradient><linearGradient id="linear-gradient-3" x1="0.13" y1="595.81" x2="0.13" y2="595.21" gradientTransform="matrix(116.76, 0, 0, -469.41, 293.9, 279813.22)" xlink:href="#linear-gradient"/><linearGradient id="linear-gradient-4" x1="-0.94" y1="595.81" x2="-0.84" y2="595.21" gradientTransform="matrix(52.95, 0, 0, -472.95, 307.94, 281923.07)" xlink:href="#linear-gradient-2"/><linearGradient id="linear-gradient-5" x1="-0.14" y1="601.44" x2="-0.14" y2="600.84" gradientTransform="matrix(94.65, 0, 0, -17.75, 317.11, 11083.74)" xlink:href="#linear-gradient"/><linearGradient id="linear-gradient-6" x1="-0.87" y1="602.7" x2="-0.87" y2="602.1" gradientTransform="matrix(65.25, 0, 0, -15.07, 359.9, 9499.59)" xlink:href="#linear-gradient"/><linearGradient id="linear-gradient-7" x1="1.18" y1="599.14" x2="1.18" y2="598.54" gradientTransform="matrix(103.68, 0, 0, -46.82, 0.85, 28535.54)" xlink:href="#linear-gradient"/><linearGradient id="linear-gradient-8" x1="1.53" y1="598.64" x2="1.54" y2="598.03" gradientTransform="matrix(74.34, 0, 0, -54.69, -44.14, 33217)" xlink:href="#linear-gradient-2"/><linearGradient id="linear-gradient-9" x1="1.71" y1="598.43" x2="1.12" y2="598.43" gradientTransform="matrix(247.82, 0, 0, -47.8, -246.88, 29079.51)" gradientUnits="userSpaceOnUse"><stop offset="0" stop-color="#d84880"/><stop offset="1" stop-color="#e96360"/></linearGradient><linearGradient id="linear-gradient-10" x1="1.36" y1="597.73" x2="1.36" y2="597.13" gradientTransform="matrix(162.6, 0, 0, -66.86, -116, 40400.2)" xlink:href="#linear-gradient"/><linearGradient id="linear-gradient-11" x1="1.52" y1="597.7" x2="1.53" y2="597.09" gradientTransform="matrix(64.55, 0, 0, -67.95, -27.01, 41052.31)" xlink:href="#linear-gradient-2"/><linearGradient id="linear-gradient-12" x1="1.24" y1="600.44" x2="1.24" y2="599.84" gradientTransform="matrix(153.2, 0, 0, -31.86, -57.63, 19605.75)" xlink:href="#linear-gradient"/><linearGradient id="linear-gradient-13" x1="1.6" y1="599.07" x2="1.61" y2="598.45" gradientTransform="matrix(94.62, 0, 0, -44.55, -93.68, 27158.68)" xlink:href="#linear-gradient-2"/><radialGradient id="radial-gradient" cx="4.98" cy="593.41" r="1.37" gradientTransform="matrix(-53.11, 0, 0, 60.6, 429.2, -35500.14)" gradientUnits="userSpaceOnUse"><stop offset="0.01" stop-color="#31a7a6"/><stop offset="1" stop-color="#19638c"/></radialGradient><radialGradient id="radial-gradient-2" cx="6.17" cy="593.45" r="1.36" gradientTransform="matrix(-53.56, 0, 0, 61.12, 495.05, -35811.89)" xlink:href="#radial-gradient"/><radialGradient id="radial-gradient-3" cx="7.43" cy="593.5" r="1.35" gradientTransform="matrix(-54.35, 0, 0, 62.01, 568.63, -36341.52)" xlink:href="#radial-gradient"/><radialGradient id="radial-gradient-4" cx="8.73" cy="593.54" r="1.34" gradientTransform="matrix(-54.76, 0, 0, 62.48, 642.98, -36623.07)" xlink:href="#radial-gradient"/><radialGradient id="radial-gradient-5" cx="10.08" cy="593.58" r="1.34" gradientTransform="matrix(-54.76, 0, 0, 62.47, 716.51, -36622.49)" xlink:href="#radial-gradient"/><radialGradient id="radial-gradient-6" cx="-2.57" cy="594.05" r="0.71" gradientTransform="matrix(-55.6, 0, 0, 63.45, -103.46, -37248.27)" xlink:href="#radial-gradient"/><radialGradient id="radial-gradient-7" cx="-3.78" cy="594.11" r="0.71" gradientTransform="matrix(-55.62, 0, 0, 63.47, -170.31, -37264.41)" xlink:href="#radial-gradient"/><radialGradient id="radial-gradient-8" cx="-5.06" cy="594.16" r="0.71" gradientTransform="matrix(-55.6, 0, 0, 63.44, -241.55, -37252.45)" xlink:href="#radial-gradient"/><radialGradient id="radial-gradient-9" cx="-6.38" cy="594.22" r="0.71" gradientTransform="matrix(-55.6, 0, 0, 63.44, -315.17, -37255.57)" xlink:href="#radial-gradient"/><radialGradient id="radial-gradient-10" cx="-7.71" cy="594.27" r="0.71" gradientTransform="matrix(-55.6, 0, 0, 63.44, -388.8, -37259.61)" xlink:href="#radial-gradient"/><linearGradient id="linear-gradient-14" x1="1.22" y1="595.81" x2="1.22" y2="595.21" gradientTransform="matrix(147.96, 0, 0, -551.82, -47.15, 328885.63)" xlink:href="#linear-gradient"/><linearGradient id="linear-gradient-15" x1="1.57" y1="595.81" x2="1.63" y2="595.21" gradientTransform="matrix(104.39, 0, 0, -551.82, -101.87, 328887.45)" xlink:href="#linear-gradient-2"/><radialGradient id="radial-gradient-11" cx="2.15" cy="594.97" r="0.28" gradientTransform="matrix(-539.43, 0, 0, 615.42, 1329.58, -365758.76)" gradientUnits="userSpaceOnUse"><stop offset="0" stop-color="#e4ecad"/><stop offset="1" stop-color="#1a88a9"/></radialGradient><radialGradient id="radial-gradient-12" cx="1.8" cy="595.26" r="0.2" gradientTransform="matrix(-537.3, 0, 0, 613, 1040.55, -364568.25)" xlink:href="#radial-gradient"/><linearGradient id="linear-gradient-16" x1="1.37" y1="595.81" x2="0.77" y2="595.81" gradientTransform="matrix(96.84, 0, 0, -215.04, 31.07, 128489.17)" gradientUnits="userSpaceOnUse"><stop offset="0" stop-color="#fcf9ce"/><stop offset="1" stop-color="#aed4b3"/></linearGradient><linearGradient id="linear-gradient-17" x1="1.88" y1="595.53" x2="1.88" y2="594.93" gradientTransform="matrix(42.18, 0, 0, -222.21, -29.64, 132438.48)" gradientUnits="userSpaceOnUse"><stop offset="0" stop-color="#84a4cc"/><stop offset="1" stop-color="#feeae7"/></linearGradient><linearGradient id="linear-gradient-18" x1="1.05" y1="595.34" x2="1.05" y2="594.75" gradientTransform="matrix(89.19, 0, 0, -157.18, 38.01, 93690.66)" xlink:href="#linear-gradient-17"/><linearGradient id="linear-gradient-19" x1="-6.44" y1="598.06" x2="-6.44" y2="597.45" gradientTransform="matrix(27.65, 0, 0, -39.2, 576.84, 23855.14)" gradientUnits="userSpaceOnUse"><stop offset="0.03" stop-color="#dd897c"/><stop offset="1" stop-color="#fff0d2"/></linearGradient><linearGradient id="linear-gradient-20" x1="-4.56" y1="595.98" x2="-4.56" y2="595.38" gradientTransform="matrix(35.22, 0, 0, -50.91, 550.45, 30607.91)" xlink:href="#linear-gradient-9"/><linearGradient id="linear-gradient-21" x1="-4.68" y1="595.68" x2="-5.27" y2="595.68" gradientTransform="matrix(34.93, 0, 0, -51.55, 582.25, 30988.71)" gradientUnits="userSpaceOnUse"><stop offset="0" stop-color="#fcb972"/><stop offset="0.97" stop-color="#f58573"/></linearGradient><linearGradient id="linear-gradient-22" x1="-5.4" y1="596.12" x2="-5.4" y2="595.52" gradientTransform="matrix(30.95, 0, 0, -164.68, 557.22, 98461.09)" xlink:href="#linear-gradient-9"/><linearGradient id="linear-gradient-23" x1="-5.29" y1="596.11" x2="-5.29" y2="595.51" gradientTransform="matrix(33.23, 0, 0, -166.1, 583.94, 99304.2)" gradientUnits="userSpaceOnUse"><stop offset="0.03" stop-color="#f58573"/><stop offset="1" stop-color="#fcb972"/></linearGradient><linearGradient id="linear-gradient-24" x1="-3.05" y1="598.21" x2="-3.05" y2="597.61" gradientTransform="matrix(48.38, 0, 0, -25.43, 546.58, 15563.79)" xlink:href="#linear-gradient-9"/><linearGradient id="linear-gradient-25" x1="-3.43" y1="599.15" x2="-3.43" y2="598.54" gradientTransform="matrix(44.51, 0, 0, -23.12, 551.51, 14252.99)" xlink:href="#linear-gradient-23"/><linearGradient id="linear-gradient-26" x1="-3.43" y1="599.13" x2="-3.43" y2="598.52" gradientTransform="matrix(44.51, 0, 0, -23.26, 551.5, 14333.91)" xlink:href="#linear-gradient-9"/><linearGradient id="linear-gradient-27" x1="-13.06" y1="599.39" x2="-13.06" y2="598.79" gradientTransform="matrix(28.22, 0, 0, -40.51, 1051, 24748.65)" xlink:href="#linear-gradient-19"/><linearGradient id="linear-gradient-28" x1="-11.67" y1="598.55" x2="-11.67" y2="597.95" gradientTransform="matrix(31.27, 0, 0, -44.92, 1048.93, 27323.11)" xlink:href="#linear-gradient-23"/><linearGradient id="linear-gradient-29" x1="-29.59" y1="599.35" x2="-29.59" y2="598.75" gradientTransform="matrix(13.13, 0, 0, -35.41, 1067.07, 21661.68)" xlink:href="#linear-gradient-9"/><linearGradient id="linear-gradient-30" x1="-7.53" y1="596.03" x2="-7.53" y2="595.44" gradientTransform="matrix(44.81, 0, 0, -64.75, 1010.96, 38862.92)" xlink:href="#linear-gradient-9"/><linearGradient id="linear-gradient-31" x1="-7.67" y1="595.73" x2="-8.27" y2="595.73" gradientTransform="matrix(44.44, 0, 0, -65.6, 1051.38, 39366.29)" xlink:href="#linear-gradient-21"/><linearGradient id="linear-gradient-32" x1="-2.53" y1="596.25" x2="-2.53" y2="595.65" gradientTransform="matrix(81.52, 0, 0, -98.51, 765.91, 59039.78)" xlink:href="#linear-gradient"/><linearGradient id="linear-gradient-33" x1="-2.13" y1="596.25" x2="-2.13" y2="595.65" gradientTransform="matrix(81.52, 0, 0, -98.51, 686.11, 59039.78)" xlink:href="#linear-gradient"/><linearGradient id="linear-gradient-34" x1="0.06" y1="595.94" x2="0.06" y2="595.35" gradientTransform="matrix(217.12, 0, 0, -83.03, 521.3, 49742.14)" xlink:href="#linear-gradient-23"/><linearGradient id="linear-gradient-35" x1="1.03" y1="595.68" x2="1.03" y2="595.08" gradientTransform="matrix(652.8, 0, 0, -35.43, -151.25, 21350.33)" xlink:href="#linear-gradient-9"/><linearGradient id="linear-gradient-36" x1="0.88" y1="595.73" x2="0.88" y2="595.13" gradientTransform="matrix(532.72, 0, 0, -20.68, 88.9, 12575.27)" gradientUnits="userSpaceOnUse"><stop offset="0.03" stop-color="#f58573"/><stop offset="1" stop-color="#f68f6e"/></linearGradient><linearGradient id="linear-gradient-37" x1="0.88" y1="595.56" x2="0.88" y2="594.96" gradientTransform="matrix(522.79, 0, 0, -238.19, 96.09, 141966.7)" gradientUnits="userSpaceOnUse"><stop offset="0.03" stop-color="#f58573"/><stop offset="1" stop-color="#f7996d"/></linearGradient><linearGradient id="linear-gradient-38" x1="-9.51" y1="595.23" x2="-10.11" y2="595.23" gradientTransform="matrix(33.51, 0, 0, -212.83, 963.84, 126862.43)" xlink:href="#linear-gradient-9"/><linearGradient id="linear-gradient-39" x1="0.17" y1="595.57" x2="0.17" y2="594.98" gradientTransform="matrix(249.26, 0, 0, -246.31, 523.35, 146807.41)" xlink:href="#linear-gradient-23"/><linearGradient id="linear-gradient-40" x1="-0.44" y1="596.29" x2="-0.44" y2="595.69" gradientTransform="matrix(160.27, 0, 0, -88.75, 605.07, 53221.13)" gradientUnits="userSpaceOnUse"><stop offset="0" stop-color="#edacb3"/><stop offset="1" stop-color="#feeae7"/></linearGradient><linearGradient id="linear-gradient-41" x1="-5.21" y1="595.57" x2="-5.21" y2="594.98" gradientTransform="matrix(41.19, 0, 0, -246.31, 697.27, 146807.41)" xlink:href="#linear-gradient-9"/><linearGradient id="linear-gradient-42" x1="-0.14" y1="595.56" x2="-0.14" y2="594.96" gradientTransform="matrix(121.04, 0, 0, -238.19, 385.25, 141966.7)" xlink:href="#linear-gradient-9"/><linearGradient id="linear-gradient-43" x1="0.35" y1="595.77" x2="0.35" y2="595.17" gradientTransform="matrix(283.41, 0, 0, -38.59, 455.05, 23240.32)" gradientUnits="userSpaceOnUse"><stop offset="0" stop-color="#e96360"/><stop offset="1" stop-color="#e56881"/></linearGradient><linearGradient id="linear-gradient-44" x1="0.44" y1="595.54" x2="-0.15" y2="595.54" gradientTransform="matrix(245.72, 0, 0, -27.49, 530.44, 16640.57)" xlink:href="#linear-gradient-21"/><linearGradient id="linear-gradient-45" x1="-52.45" y1="597.35" x2="-52.45" y2="596.75" gradientTransform="matrix(5.79, 0, 0, -47.28, 839.6, 28601.29)" gradientUnits="userSpaceOnUse"><stop offset="0" stop-color="#eaa295"/><stop offset="1" stop-color="#e56881"/></linearGradient><linearGradient id="linear-gradient-46" x1="-30.29" y1="596.83" x2="-30.29" y2="596.24" gradientTransform="matrix(10.77, 0, 0, -31.01, 907.4, 18814.66)" xlink:href="#linear-gradient-23"/><linearGradient id="linear-gradient-47" x1="-24.27" y1="596.97" x2="-24.27" y2="596.38" gradientTransform="matrix(12.71, 0, 0, -28.8, 867.45, 17497.58)" xlink:href="#linear-gradient-23"/><linearGradient id="linear-gradient-48" x1="-19.19" y1="596.92" x2="-19.19" y2="596.32" gradientTransform="matrix(14.45, 0, 0, -30.58, 793.95, 18561.19)" xlink:href="#linear-gradient-23"/><linearGradient id="linear-gradient-49" x1="-20.25" y1="596.94" x2="-20.25" y2="596.34" gradientTransform="matrix(12.9, 0, 0, -27.15, 750.36, 16510.03)" xlink:href="#linear-gradient-23"/><linearGradient id="linear-gradient-50" x1="-70.13" y1="596.66" x2="-70.73" y2="596.66" gradientTransform="matrix(4.19, 0, 0, -29.76, 814.49, 18071.5)" xlink:href="#linear-gradient-43"/><linearGradient id="linear-gradient-51" x1="-86.43" y1="597.01" x2="-86.43" y2="596.41" gradientTransform="matrix(3.71, 0, 0, -28.02, 876.45, 17035.26)" xlink:href="#linear-gradient-43"/><linearGradient id="linear-gradient-52" x1="-6.26" y1="595.26" x2="-6.86" y2="595.26" gradientTransform="matrix(52.08, 0, 0, -238.19, 1037.52, 141968.48)" xlink:href="#linear-gradient-21"/><linearGradient id="linear-gradient-53" x1="-23.87" y1="595.56" x2="-23.87" y2="594.96" gradientTransform="matrix(16.08, 0, 0, -238.19, 1062.08, 141966.7)" gradientUnits="userSpaceOnUse"><stop offset="0" stop-color="#feeae7"/><stop offset="1" stop-color="#edacb3"/></linearGradient><linearGradient id="linear-gradient-54" x1="-0.04" y1="595.58" x2="-0.04" y2="594.98" gradientTransform="matrix(129.07, 0, 0, -249.28, 372.48, 148578.14)" xlink:href="#linear-gradient-53"/><linearGradient id="linear-gradient-55" x1="-1.52" y1="595.27" x2="-2.12" y2="595.27" gradientTransform="matrix(66.12, 0, 0, -240.36, 519.55, 143258.06)" gradientUnits="userSpaceOnUse"><stop offset="0" stop-color="#f9aa73"/><stop offset="0.97" stop-color="#f16067"/></linearGradient><linearGradient id="linear-gradient-56" x1="-8.78" y1="596.13" x2="-8.78" y2="595.53" gradientTransform="matrix(39.38, 0, 0, -209.53, 1019.54, 125216.37)" xlink:href="#linear-gradient-9"/><linearGradient id="linear-gradient-57" x1="-8.44" y1="596.13" x2="-8.44" y2="595.53" gradientTransform="matrix(42.29, 0, 0, -211.34, 1053.53, 126290.96)" xlink:href="#linear-gradient-23"/><linearGradient id="linear-gradient-58" x1="-5.21" y1="598.31" x2="-5.21" y2="597.72" gradientTransform="matrix(61.55, 0, 0, -32.34, 1006.03, 19727.16)" xlink:href="#linear-gradient-9"/><linearGradient id="linear-gradient-59" x1="-5.21" y1="599.37" x2="-5.21" y2="598.77" gradientTransform="matrix(61.55, 0, 0, -32.37, 1006, 19827.01)" xlink:href="#linear-gradient-9"/><linearGradient id="linear-gradient-60" x1="-7.55" y1="601.1" x2="-7.55" y2="600.5" gradientTransform="matrix(45.45, 0, 0, -25.32, 1026.08, 15676.24)" xlink:href="#linear-gradient-23"/><linearGradient id="linear-gradient-61" x1="-7.55" y1="601.1" x2="-7.55" y2="600.5" gradientTransform="matrix(45.45, 0, 0, -25.32, 1026.08, 15676.24)" xlink:href="#linear-gradient-9"/><linearGradient id="linear-gradient-62" x1="-155.91" y1="602.31" x2="-155.91" y2="601.72" gradientTransform="matrix(2.61, 0, 0, -24.22, 1088.11, 15081.63)" xlink:href="#linear-gradient-45"/><linearGradient id="linear-gradient-63" x1="-106.55" y1="601.53" x2="-106.55" y2="600.94" gradientTransform="matrix(2.03, 0, 0, -19.03, 615.23, 11868.92)" xlink:href="#linear-gradient-45"/><linearGradient id="linear-gradient-64" x1="-3.34" y1="595.49" x2="-3.34" y2="594.9" gradientTransform="matrix(73.81, 0, 0, -206.47, 849.74, 123060.98)" xlink:href="#linear-gradient-37"/><linearGradient id="linear-gradient-65" x1="-58.57" y1="595.49" x2="-58.57" y2="594.9" gradientTransform="matrix(6.18, 0, 0, -206.47, 985, 123060.98)" xlink:href="#linear-gradient-9"/><linearGradient id="linear-gradient-66" x1="-2.69" y1="595.49" x2="-2.69" y2="594.9" gradientTransform="matrix(73.81, 0, 0, -206.47, 730.18, 123060.98)" xlink:href="#linear-gradient-37"/><linearGradient id="linear-gradient-67" x1="-48.54" y1="595.49" x2="-48.54" y2="594.9" gradientTransform="matrix(6.45, 0, 0, -206.47, 864.9, 123060.98)" xlink:href="#linear-gradient-9"/><linearGradient id="linear-gradient-68" x1="-5.6" y1="595.43" x2="-5.6" y2="594.83" gradientTransform="matrix(43.3, 0, 0, -182.75, 771.63, 108924.46)" xlink:href="#linear-gradient-9"/><linearGradient id="linear-gradient-69" x1="-5.88" y1="595.23" x2="-6.48" y2="595.23" gradientTransform="matrix(33.48, 0, 0, -212.83, 661.38, 126864.33)" xlink:href="#linear-gradient-9"/><linearGradient id="linear-gradient-70" x1="-6.71" y1="595.43" x2="-6.71" y2="594.83" gradientTransform="matrix(43.27, 0, 0, -182.75, 890.63, 108926.26)" xlink:href="#linear-gradient-9"/><linearGradient id="linear-gradient-71" x1="-49.77" y1="595.26" x2="-50.37" y2="595.26" gradientTransform="matrix(8.28, 0, 0, -237, 1120.84, 141257.46)" xlink:href="#linear-gradient-40"/><linearGradient id="linear-gradient-72" x1="-28.11" y1="595.27" x2="-28.71" y2="595.27" gradientTransform="matrix(7.32, 0, 0, -240.11, 605.69, 143113.39)" xlink:href="#linear-gradient-40"/><linearGradient id="linear-gradient-73" x1="-39.5" y1="595.26" x2="-40.1" y2="595.26" gradientTransform="matrix(5.08, 0, 0, -238.19, 586.22, 141966.7)" xlink:href="#linear-gradient-40"/><linearGradient id="linear-gradient-74" x1="-48.91" y1="595.26" x2="-49.51" y2="595.26" gradientTransform="matrix(8.28, 0, 0, -238.19, 1103.21, 141966.7)" xlink:href="#linear-gradient-40"/><linearGradient id="linear-gradient-75" x1="-32.12" y1="595.27" x2="-32.72" y2="595.27" gradientTransform="matrix(6.73, 0, 0, -240.16, 629.45, 143140.83)" xlink:href="#linear-gradient-40"/><linearGradient id="linear-gradient-76" x1="-1.21" y1="595.28" x2="-1.21" y2="594.68" gradientTransform="matrix(71.02, 0, 0, -145.38, 445.17, 86650.15)" xlink:href="#linear-gradient-40"/><linearGradient id="linear-gradient-77" x1="-5.96" y1="595.49" x2="-5.96" y2="594.9" gradientTransform="matrix(24.18, 0, 0, -109.03, 484.6, 65110.52)" xlink:href="#linear-gradient-53"/><linearGradient id="linear-gradient-78" x1="-4.11" y1="595.3" x2="-4.11" y2="594.7" gradientTransform="matrix(70.63, 0, 0, -148.74, 951.24, 88653.9)" xlink:href="#linear-gradient-40"/><linearGradient id="linear-gradient-79" x1="-5.15" y1="595.81" x2="-5.15" y2="595.21" gradientTransform="matrix(28.59, 0, 0, -292.74, 502.14, 174603.44)" xlink:href="#linear-gradient-23"/><linearGradient id="linear-gradient-80" x1="-0.68" y1="595.78" x2="-0.68" y2="595.19" gradientTransform="matrix(63.2, 0, 0, -114.04, 319.65, 68172.97)" xlink:href="#linear-gradient"/><linearGradient id="linear-gradient-81" x1="-0.27" y1="595.78" x2="-0.27" y2="595.19" gradientTransform="matrix(63.2, 0, 0, -114.04, 256.77, 68172.97)" xlink:href="#linear-gradient"/><linearGradient id="linear-gradient-82" x1="-24.06" y1="594.73" x2="-24.06" y2="594.14" gradientTransform="matrix(5.72, 0, 0, -15.87, 427.35, 9676.51)" xlink:href="#linear-gradient-45"/><linearGradient id="linear-gradient-83" x1="-22.86" y1="594.78" x2="-22.86" y2="594.18" gradientTransform="matrix(5.7, 0, 0, -15.87, 409.37, 9678.34)" xlink:href="#linear-gradient-45"/><linearGradient id="linear-gradient-84" x1="-21.59" y1="594.81" x2="-21.59" y2="594.21" gradientTransform="matrix(5.7, 0, 0, -15.87, 391.34, 9678.41)" xlink:href="#linear-gradient-45"/><linearGradient id="linear-gradient-85" x1="-20.32" y1="594.81" x2="-20.32" y2="594.21" gradientTransform="matrix(5.7, 0, 0, -15.87, 373.34, 9678.41)" xlink:href="#linear-gradient-45"/><linearGradient id="linear-gradient-86" x1="-19.04" y1="594.79" x2="-19.04" y2="594.2" gradientTransform="matrix(5.7, 0, 0, -15.62, 355.32, 9529.41)" xlink:href="#linear-gradient-45"/><linearGradient id="linear-gradient-87" x1="-17.71" y1="594.82" x2="-17.71" y2="594.22" gradientTransform="matrix(5.72, 0, 0, -16.44, 337.28, 10018.38)" xlink:href="#linear-gradient-45"/><linearGradient id="linear-gradient-88" x1="-16.5" y1="594.71" x2="-16.5" y2="594.12" gradientTransform="matrix(5.7, 0, 0, -15.62, 319.3, 9526.32)" xlink:href="#linear-gradient-45"/><linearGradient id="linear-gradient-89" x1="0.51" y1="595.77" x2="0.51" y2="595.18" gradientTransform="matrix(126.07, 0, 0, -88.38, 193.9, 52891.28)" xlink:href="#linear-gradient-40"/><linearGradient id="linear-gradient-90" x1="-20.18" y1="596.43" x2="-20.18" y2="595.83" gradientTransform="matrix(5.76, 0, 0, -47.28, 374.55, 28493.05)" xlink:href="#linear-gradient"/><linearGradient id="linear-gradient-91" x1="1.16" y1="595.18" x2="1.16" y2="594.58" gradientTransform="matrix(365.91, 0, 0, -129.23, -169.48, 77021.35)" xlink:href="#linear-gradient-37"/><linearGradient id="linear-gradient-92" x1="1.06" y1="595.18" x2="1.06" y2="594.58" gradientTransform="matrix(77.17, 0, 0, -129.23, 42.09, 77023.13)" xlink:href="#linear-gradient-9"/><linearGradient id="linear-gradient-93" x1="-2.25" y1="594.99" x2="-1.57" y2="594.42" gradientTransform="matrix(49.47, 0, 0, -101.85, 417.29, 60717.56)" xlink:href="#linear-gradient-9"/><linearGradient id="linear-gradient-94" x1="0.62" y1="595.31" x2="0.62" y2="594.71" gradientTransform="matrix(155.23, 0, 0, -154.3, 181.04, 91961.87)" xlink:href="#linear-gradient-23"/><linearGradient id="linear-gradient-95" x1="0.07" y1="595.31" x2="0.07" y2="594.71" gradientTransform="matrix(67.11, 0, 0, -154.3, 210.11, 91963.65)" xlink:href="#linear-gradient-9"/><linearGradient id="linear-gradient-96" x1="0.9" y1="595.34" x2="0.9" y2="594.74" gradientTransform="matrix(210.17, 0, 0, -69.58, 71.16, 41618.73)" xlink:href="#linear-gradient-23"/><linearGradient id="linear-gradient-97" x1="0.28" y1="595.34" x2="0.28" y2="594.74" gradientTransform="matrix(82.43, 0, 0, -69.58, 198.91, 41619.33)" xlink:href="#linear-gradient-9"/><linearGradient id="linear-gradient-98" x1="0.13" y1="595.05" x2="0.73" y2="594.46" gradientTransform="matrix(61.16, 0, 0, -108.23, 146.37, 64516.86)" xlink:href="#linear-gradient-9"/><linearGradient id="linear-gradient-99" x1="-1.6" y1="595.15" x2="-0.87" y2="594.59" gradientTransform="matrix(56.43, 0, 0, -128.24, 371.59, 76434.88)" xlink:href="#linear-gradient-9"/><linearGradient id="linear-gradient-100" x1="-1.08" y1="595.15" x2="-0.34" y2="594.59" gradientTransform="matrix(56.43, 0, 0, -128.24, 298.35, 76434.88)" xlink:href="#linear-gradient-9"/><linearGradient id="linear-gradient-101" x1="-23.2" y1="599.16" x2="-23.8" y2="599.16" gradientTransform="matrix(7.71, 0, 0, -14.54, 540.03, 9054.73)" xlink:href="#linear-gradient-9"/><linearGradient id="linear-gradient-102" x1="-31.07" y1="599.16" x2="-31.67" y2="599.16" gradientTransform="matrix(5.67, 0, 0, -14.54, 527.62, 9054.73)" xlink:href="#linear-gradient-9"/><linearGradient id="linear-gradient-103" x1="-1.81" y1="594.88" x2="-2.4" y2="594.88" gradientTransform="matrix(52.58, 0, 0, -129.23, 465, 77021.35)" xlink:href="#linear-gradient-21"/><linearGradient id="linear-gradient-104" x1="-1.81" y1="595.88" x2="-2.4" y2="595.88" gradientTransform="matrix(52.58, 0, 0, -37.19, 465, 22447.31)" xlink:href="#linear-gradient-9"/><linearGradient id="linear-gradient-105" x1="-1.81" y1="596.13" x2="-2.4" y2="596.13" gradientTransform="matrix(52.58, 0, 0, -25.94, 465, 15751.78)" xlink:href="#linear-gradient-21"/><linearGradient id="linear-gradient-106" x1="-2.54" y1="596.64" x2="-2.54" y2="596.04" gradientTransform="matrix(46.89, 0, 0, -94.56, 473.33, 56769.98)" xlink:href="#linear-gradient"/><linearGradient id="linear-gradient-107" x1="-2.65" y1="595.49" x2="-3.25" y2="595.49" gradientTransform="matrix(104.64, 0, 0, -483.18, 1072.7, 287985.26)" xlink:href="#linear-gradient-9"/><linearGradient id="linear-gradient-108" x1="-22.55" y1="595.77" x2="-22.55" y2="595.17" gradientTransform="matrix(18.14, 0, 0, -441.13, 1128.8, 262925.87)" xlink:href="#linear-gradient-2"/><linearGradient id="linear-gradient-109" x1="-25.97" y1="595.47" x2="-26.57" y2="595.47" gradientTransform="matrix(17.41, 0, 0, -441.14, 1247.46, 262928.82)" xlink:href="#linear-gradient-2"/><linearGradient id="linear-gradient-110" x1="-2.24" y1="595.79" x2="-2.24" y2="595.2" gradientTransform="matrix(122.89, 0, 0, -497.74, 1030.55, 296661.82)" xlink:href="#linear-gradient-2"/><linearGradient id="linear-gradient-111" x1="-14" y1="601.08" x2="-14" y2="600.48" gradientTransform="matrix(29.67, 0, 0, -26.05, 1170.4, 16120.87)" xlink:href="#linear-gradient"/><linearGradient id="linear-gradient-112" x1="-7.18" y1="605.34" x2="-7.78" y2="605.34" gradientTransform="matrix(51.21, 0, 0, -13.24, 1108.07, 8367.79)" gradientUnits="userSpaceOnUse"><stop offset="0" stop-color="#fff0d2"/><stop offset="0.97" stop-color="#fabfb7"/></linearGradient><linearGradient id="linear-gradient-113" x1="-2.63" y1="596.58" x2="-2.63" y2="595.98" gradientTransform="matrix(111.59, 0, 0, -129.39, 1048.75, 77566.47)" gradientUnits="userSpaceOnUse"><stop offset="0.03" stop-color="#f69b98"/><stop offset="1" stop-color="#fff0d2"/></linearGradient><radialGradient id="radial-gradient-13" cx="18.66" cy="589.33" r="0.89" gradientTransform="matrix(-26.81, 0, 0, 19.37, 1255.32, -10974.21)" xlink:href="#radial-gradient"/><radialGradient id="radial-gradient-14" cx="21.2" cy="588.98" r="1.02" gradientTransform="matrix(-23.34, 0, 0, 16.86, 1250.11, -9500.01)" xlink:href="#radial-gradient"/><linearGradient id="linear-gradient-114" x1="-2.42" y1="622.2" x2="-3.01" y2="622.2" gradientTransform="matrix(109.1, 0, 0, -4.78, 1051.24, 3428.89)" gradientUnits="userSpaceOnUse"><stop offset="0" stop-color="#fcf7bf"/><stop offset="0.18" stop-color="#c7d3c2"/><stop offset="0.32" stop-color="#9fb3c3"/><stop offset="0.4" stop-color="#8fa6c4"/><stop offset="0.53" stop-color="#9eafc5"/><stop offset="0.82" stop-color="#b6bbc4"/><stop offset="1" stop-color="#bfc0c4"/></linearGradient><linearGradient id="linear-gradient-115" x1="-7.18" y1="651.19" x2="-7.78" y2="651.19" gradientTransform="matrix(51.21, 0, 0, -2.38, 1138.08, 2011.16)" xlink:href="#linear-gradient-114"/><linearGradient id="linear-gradient-116" x1="-24.75" y1="597.29" x2="-24.75" y2="596.69" gradientTransform="matrix(17.51, 0, 0, -110.7, 1188.04, 66597.12)" xlink:href="#linear-gradient"/><linearGradient id="linear-gradient-117" x1="-0.99" y1="595.35" x2="-2.68" y2="595.64" gradientTransform="matrix(138, 0, 0, -497.71, 1007.89, 296644.61)" xlink:href="#linear-gradient-112"/></defs><title>buildings-reflection</title><g id="Group_240" data-name="Group 240" class="cls-1"><g id="Group_19" data-name="Group 19"><path id="Path_1" data-name="Path 1" class="cls-2" d="M308,420.16l-7.69,22.92H297l-6.68,78h-3L285,442.87h-3.55l-6.74-25Z" transform="translate(-30.01 -107.45)"/><path id="Path_2" data-name="Path 2" class="cls-3" d="M287.36,521.11s-.89-73.49,0-74.68S297,443.1,297,443.1H287l-3.61-22.92-8-.81,6.07,23.51H285Z" transform="translate(-30.01 -107.45)"/><path id="Path_3" data-name="Path 3" class="cls-4" d="M331.9,408v5.26l-9.55,1.91v3l-37.35,6-23.41-5.1v-3l-8-2.83V407Z" transform="translate(-30.01 -107.45)"/><path id="Path_4" data-name="Path 4" class="cls-5" d="M344.45,134.08l-6.83,274.1-62.91,6.26,1.9-278.27Z" transform="translate(-30.01 -107.45)"/><path id="Path_5" data-name="Path 5" class="cls-6" d="M274.71,414.44l-29.72-4V132l31.62,4.21Z" transform="translate(-30.01 -107.45)"/><path id="Path_6" data-name="Path 6" class="cls-7" d="M331.9,413.26l-56.53,6.1v-4.92l56.53-5.69Z" transform="translate(-30.01 -107.45)"/><path id="Path_7" data-name="Path 7" class="cls-8" d="M322.35,418.18v-3l-39,5,1.63,4Z" transform="translate(-30.01 -107.45)"/><path id="Path_8" data-name="Path 8" class="cls-9" d="M283.37,136.17l53.44-2.1L331.58,401.3l-46.8,4.44Z" transform="translate(-30.01 -107.45)"/><g id="Group_1" data-name="Group 1"><rect id="Rectangle_3" data-name="Rectangle 3" class="cls-10" x="284.54" y="372.26" width="47.73" height="1.18" transform="translate(-59.53 -80.92) rotate(-4.7)"/></g><g id="Group_2" data-name="Group 2"><rect id="Rectangle_4" data-name="Rectangle 4" class="cls-10" x="284.48" y="353.47" width="47.78" height="1.17" transform="translate(-54.97 -84.06) rotate(-4.18)"/></g><g id="Group_3" data-name="Group 3"><rect id="Rectangle_5" data-name="Rectangle 5" class="cls-10" x="284.36" y="336.37" width="48.59" height="1.17" transform="matrix(1, -0.08, 0.08, 1, -54.73, -83.02)"/></g><g id="Group_4" data-name="Group 4"><rect id="Rectangle_6" data-name="Rectangle 6" class="cls-10" x="284.46" y="319.92" width="48.42" height="1.17" transform="translate(-44.98 -92.33) rotate(-2.74)"/></g><g id="Group_5" data-name="Group 5"><rect id="Rectangle_7" data-name="Rectangle 7" class="cls-10" x="284.46" y="303.01" width="48.42" height="1.17" transform="translate(-44.17 -92.35) rotate(-2.74)"/></g><g id="Group_6" data-name="Group 6"><rect id="Rectangle_8" data-name="Rectangle 8" class="cls-10" x="284.46" y="286.1" width="48.42" height="1.17" transform="translate(-43.36 -92.37) rotate(-2.74)"/></g><g id="Group_7" data-name="Group 7"><rect id="Rectangle_9" data-name="Rectangle 9" class="cls-10" x="284.46" y="269.17" width="48.42" height="1.17" transform="translate(-42.55 -92.39) rotate(-2.74)"/></g><g id="Group_8" data-name="Group 8"><rect id="Rectangle_10" data-name="Rectangle 10" class="cls-10" x="284.44" y="252.21" width="50.05" height="1.17" transform="translate(-41.74 -92.37) rotate(-2.74)"/></g><g id="Group_9" data-name="Group 9"><rect id="Rectangle_11" data-name="Rectangle 11" class="cls-10" x="284.46" y="235.29" width="50.38" height="1.17" transform="translate(-40.93 -92.38) rotate(-2.74)"/></g><g id="Group_10" data-name="Group 10"><rect id="Rectangle_12" data-name="Rectangle 12" class="cls-10" x="284.46" y="218.36" width="50.71" height="1.17" transform="translate(-40.12 -92.39) rotate(-2.74)"/></g><g id="Group_11" data-name="Group 11"><rect id="Rectangle_13" data-name="Rectangle 13" class="cls-10" x="284.49" y="201.7" width="51.02" height="1.07" transform="matrix(1, -0.04, 0.04, 1, -37.85, -94.89)"/></g><g id="Group_12" data-name="Group 12"><rect id="Rectangle_14" data-name="Rectangle 14" class="cls-10" x="284.46" y="184.52" width="51.04" height="1.17" transform="translate(-38.5 -92.42) rotate(-2.74)"/></g><g id="Group_13" data-name="Group 13"><rect id="Rectangle_15" data-name="Rectangle 15" class="cls-10" x="284.46" y="167.61" width="51.04" height="1.17" transform="translate(-37.7 -92.44) rotate(-2.74)"/></g><g id="Group_14" data-name="Group 14"><rect id="Rectangle_16" data-name="Rectangle 16" class="cls-10" x="284.46" y="150.67" width="52.04" height="1.17" transform="translate(-36.88 -92.44) rotate(-2.74)"/></g><g id="Group_15" data-name="Group 15"><rect id="Rectangle_17" data-name="Rectangle 17" class="cls-10" x="284.41" y="388.25" width="47.25" height="1.17" transform="translate(-63.39 -78.5) rotate(-5.11)"/></g><g id="Group_16" data-name="Group 16"><rect id="Rectangle_18" data-name="Rectangle 18" class="cls-10" x="192" y="268.53" width="266.27" height="1.18" transform="matrix(0.02, -1, 1, 0.02, 19.56, 481.35)"/></g><g id="Group_17" data-name="Group 17"><rect id="Rectangle_19" data-name="Rectangle 19" class="cls-10" x="176.49" y="268.16" width="269.43" height="1.17" transform="translate(6.83 467.55) rotate(-88.96)"/></g><g id="Group_18" data-name="Group 18"><rect id="Rectangle_20" data-name="Rectangle 20" class="cls-10" x="163.51" y="268.74" width="270.49" height="1.17" transform="translate(-3.29 458.17) rotate(-89.48)"/></g></g><g id="Group_68" data-name="Group 68"><path id="Path_42" data-name="Path 42" class="cls-11" d="M153.8,483.7l-5,15.85L91.88,511.67V492.9Z" transform="translate(-30.01 -107.45)"/><path id="Path_43" data-name="Path 43" class="cls-12" d="M91.88,511.67,51.52,495.33l-4-16.33,44.4,13.9Z" transform="translate(-30.01 -107.45)"/><path id="Path_44" data-name="Path 44" class="cls-13" d="M178,475.21l-69.68-16.53L30,467.62l56.51,19.61Z" transform="translate(-30.01 -107.45)"/><path id="Path_45" data-name="Path 45" class="cls-14" d="M154.39,437.12l-1.87,33.66-62.46,6.27-30.6-10.64-2.18-29.29Z" transform="translate(-30.01 -107.45)"/><path id="Path_46" data-name="Path 46" class="cls-15" d="M90.06,477.05l.36-35.91-38.55-4.68V466Z" transform="translate(-30.01 -107.45)"/><path id="Path_47" data-name="Path 47" class="cls-16" d="M178,475.21l-.63,5.23-90.87,13.8v-7Z" transform="translate(-30.01 -107.45)"/><path id="Path_48" data-name="Path 48" class="cls-17" d="M86.52,494.24,30,472.19v-4.57l56.51,19.61Z" transform="translate(-30.01 -107.45)"/><path id="Path_49" data-name="Path 49" class="cls-18" d="M148.9,440.3,148,471.23l-7.85.79.89-31.48Z" transform="translate(-30.01 -107.45)"/><path id="Path_50" data-name="Path 50" class="cls-19" d="M138.38,441.08l-.89,31.45-7.85.55.88-31.77Z" transform="translate(-30.01 -107.45)"/><path id="Path_51" data-name="Path 51" class="cls-20" d="M127.12,441.75l-.9,31.67-7.85.79.9-32.23Z" transform="translate(-30.01 -107.45)"/><path id="Path_52" data-name="Path 52" class="cls-21" d="M115.66,442.65l-.9,31.91-7.85.8.9-32.46Z" transform="translate(-30.01 -107.45)"/><path id="Path_53" data-name="Path 53" class="cls-22" d="M103.89,443.83,103,475.75l-7.85.78.9-32.46Z" transform="translate(-30.01 -107.45)"/><path id="Path_54" data-name="Path 54" class="cls-23" d="M55.47,435.32,56,467.21l4.45,1.32-.51-33Z" transform="translate(-30.01 -107.45)"/><path id="Path_55" data-name="Path 55" class="cls-24" d="M61.44,437,62,468.94l4.46,1.29-.53-33Z" transform="translate(-30.01 -107.45)"/><path id="Path_56" data-name="Path 56" class="cls-25" d="M67.82,438.94l.51,31.83,4.46,1.38-.53-33Z" transform="translate(-30.01 -107.45)"/><path id="Path_57" data-name="Path 57" class="cls-26" d="M74.41,440.92l.5,31.76,4.47,1.45-.53-33Z" transform="translate(-30.01 -107.45)"/><path id="Path_58" data-name="Path 58" class="cls-27" d="M81,442.67l.51,32L86,475.88l-.53-33Z" transform="translate(-30.01 -107.45)"/><path id="Path_59" data-name="Path 59" class="cls-28" d="M178,108.92l-6.36,324.62-82,4.95L93.3,108.92Z" transform="translate(-30.01 -107.45)"/><path id="Path_60" data-name="Path 60" class="cls-29" d="M89.65,438.49l-53.34-7.92L31,108.92H93.3Z" transform="translate(-30.01 -107.45)"/><path id="Path_61" data-name="Path 61" class="cls-30" d="M166.67,108.92l-4.62,318.71-59.56,3.43,3.35-321.34Z" transform="translate(-30.01 -107.45)"/><path id="Path_62" data-name="Path 62" class="cls-31" d="M79.87,109.72,81.39,430.6l-36.31-5.37L36.94,109.72Z" transform="translate(-30.01 -107.45)"/><path id="Path_63" data-name="Path 63" class="cls-32" d="M152.85,464.84l-62.43-2.42-38.55-6.87V466l38.19,11,62.46-6.27Z" transform="translate(-30.01 -107.45)"/><g id="Group_45" data-name="Group 45"><g id="Group_24" data-name="Group 24"><rect id="Rectangle_21" data-name="Rectangle 21" class="cls-33" x="-3.06" y="268.27" width="319.22" height="0.66" transform="translate(-143.92 314.46) rotate(-89.31)"/></g><g id="Group_25" data-name="Group 25"><rect id="Rectangle_22" data-name="Rectangle 22" class="cls-33" x="-13.03" y="268.56" width="319.54" height="0.66" transform="translate(-153.9 304.93) rotate(-89.31)"/></g><g id="Group_26" data-name="Group 26"><rect id="Rectangle_23" data-name="Rectangle 23" class="cls-33" x="-22.25" y="268.48" width="319.75" height="0.66" transform="translate(-162.3 296.78) rotate(-89.53)"/></g><g id="Group_27" data-name="Group 27"><rect id="Rectangle_24" data-name="Rectangle 24" class="cls-33" x="-33.98" y="269.16" width="320.64" height="0.66" transform="translate(-174.18 286.17) rotate(-89.53)"/></g><g id="Group_28" data-name="Group 28"><rect id="Rectangle_25" data-name="Rectangle 25" class="cls-33" x="-45.63" y="269.23" width="320.78" height="0.66" transform="translate(-185.74 274.66) rotate(-89.53)"/></g><g id="Group_29" data-name="Group 29"><path id="Path_64" data-name="Path 64" class="cls-33" d="M162.3,408.86l0,.66-59.63,3.58,0-.66Z" transform="translate(-30.01 -107.45)"/></g><g id="Group_30" data-name="Group 30"><path id="Path_65" data-name="Path 65" class="cls-33" d="M163.12,390.08l0,.64-60.45,3.62,0-.64Z" transform="translate(-30.01 -107.45)"/></g><g id="Group_31" data-name="Group 31"><path id="Path_66" data-name="Path 66" class="cls-33" d="M163.66,371.3l.05.64-61,3.66,0-.64Z" transform="translate(-30.01 -107.45)"/></g><g id="Group_32" data-name="Group 32"><path id="Path_67" data-name="Path 67" class="cls-33" d="M163.12,352.58l0,.64-60.45,3.64,0-.66Z" transform="translate(-30.01 -107.45)"/></g><g id="Group_33" data-name="Group 33"><path id="Path_68" data-name="Path 68" class="cls-33" d="M163.66,333.8l.05.66-61,3.64,0-.64Z" transform="translate(-30.01 -107.45)"/></g><g id="Group_34" data-name="Group 34"><path id="Path_69" data-name="Path 69" class="cls-33" d="M163.66,315.06l.05.64-61,3.66,0-.64Z" transform="translate(-30.01 -107.45)"/></g><g id="Group_35" data-name="Group 35"><path id="Path_70" data-name="Path 70" class="cls-33" d="M163.94,296.3l0,.64-60.11,3.61,0-.66Z" transform="translate(-30.01 -107.45)"/></g><g id="Group_36" data-name="Group 36"><path id="Path_71" data-name="Path 71" class="cls-33" d="M164.2,277.53l0,.64-60.16,3.62,0-.65Z" transform="translate(-30.01 -107.45)"/></g><g id="Group_37" data-name="Group 37"><path id="Path_72" data-name="Path 72" class="cls-33" d="M164.47,259.59l0,.65-60.23,2.81,0-.66Z" transform="translate(-30.01 -107.45)"/></g><g id="Group_38" data-name="Group 38"><rect id="Rectangle_26" data-name="Rectangle 26" class="cls-33" x="104.44" y="242.61" width="60.64" height="0.66" transform="translate(-38.88 -102.32) rotate(-2.12)"/></g><g id="Group_39" data-name="Group 39"><path id="Path_73" data-name="Path 73" class="cls-33" d="M165,221.24l0,.65-60.41,3.62,0-.64Z" transform="translate(-30.01 -107.45)"/></g><g id="Group_40" data-name="Group 40"><path id="Path_74" data-name="Path 74" class="cls-33" d="M165.29,202.48l0,.64-60,3.61,0-.66Z" transform="translate(-30.01 -107.45)"/></g><g id="Group_41" data-name="Group 41"><rect id="Rectangle_27" data-name="Rectangle 27" class="cls-33" x="105.01" y="186.51" width="60.56" height="0.66" transform="translate(-35.32 -103.49) rotate(-1.65)"/></g><g id="Group_42" data-name="Group 42"><rect id="Rectangle_28" data-name="Rectangle 28" class="cls-33" x="105.21" y="167.78" width="61.17" height="0.66" transform="translate(-34.78 -103.49) rotate(-1.65)"/></g><g id="Group_43" data-name="Group 43"><rect id="Rectangle_29" data-name="Rectangle 29" class="cls-33" x="105.41" y="149.03" width="61.28" height="0.66" transform="translate(-34.21 -103.52) rotate(-1.63)"/></g><g id="Group_44" data-name="Group 44"><rect id="Rectangle_30" data-name="Rectangle 30" class="cls-33" x="105.62" y="130.16" width="60.78" height="0.66" transform="translate(-33.17 -104.08) rotate(-1.4)"/></g></g><g id="Group_67" data-name="Group 67"><g id="Group_46" data-name="Group 46"><rect id="Rectangle_31" data-name="Rectangle 31" class="cls-33" x="45.47" y="109.74" width="0.52" height="315.79" transform="translate(-32.39 -107.04) rotate(-0.51)"/></g><g id="Group_47" data-name="Group 47"><path id="Path_75" data-name="Path 75" class="cls-33" d="M51,109.9l2.84,316.59h-.52L50.49,109.9Z" transform="translate(-30.01 -107.45)"/></g><g id="Group_48" data-name="Group 48"><rect id="Rectangle_32" data-name="Rectangle 32" class="cls-33" x="57.85" y="109.66" width="0.52" height="317.64" transform="translate(-31.61 -107.1) rotate(-0.34)"/></g><g id="Group_49" data-name="Group 49"><rect id="Rectangle_33" data-name="Rectangle 33" class="cls-33" x="65.23" y="109.89" width="0.52" height="318.5" transform="translate(-31.58 -107.07) rotate(-0.34)"/></g><g id="Group_50" data-name="Group 50"><rect id="Rectangle_34" data-name="Rectangle 34" class="cls-33" x="72.81" y="109.89" width="0.52" height="319.58" transform="translate(-31.22 -107.12) rotate(-0.26)"/></g><g id="Group_51" data-name="Group 51"><rect id="Rectangle_35" data-name="Rectangle 35" class="cls-33" x="62.54" y="391.3" width="0.52" height="36.5" transform="translate(-380.76 327.53) rotate(-84.8)"/></g><g id="Group_52" data-name="Group 52"><rect id="Rectangle_36" data-name="Rectangle 36" class="cls-33" x="62.32" y="372.44" width="0.52" height="36.98" transform="translate(-362.42 310.38) rotate(-84.8)"/></g><g id="Group_53" data-name="Group 53"><rect id="Rectangle_37" data-name="Rectangle 37" class="cls-33" x="62.07" y="353.57" width="0.52" height="37.46" transform="translate(-344.09 293.18) rotate(-84.8)"/></g><g id="Group_54" data-name="Group 54"><rect id="Rectangle_38" data-name="Rectangle 38" class="cls-33" x="61.83" y="334.7" width="0.52" height="37.95" transform="translate(-325.77 276.01) rotate(-84.8)"/></g><g id="Group_55" data-name="Group 55"><rect id="Rectangle_39" data-name="Rectangle 39" class="cls-33" x="61.59" y="315.84" width="0.52" height="38.43" transform="translate(-307.44 258.84) rotate(-84.8)"/></g><g id="Group_56" data-name="Group 56"><rect id="Rectangle_40" data-name="Rectangle 40" class="cls-33" x="61.38" y="296.98" width="0.52" height="38.91" transform="translate(-289.09 241.7) rotate(-84.8)"/></g><g id="Group_57" data-name="Group 57"><rect id="Rectangle_41" data-name="Rectangle 41" class="cls-33" x="61.11" y="278.11" width="0.52" height="39.4" transform="translate(-270.78 224.49) rotate(-84.8)"/></g><g id="Group_58" data-name="Group 58"><rect id="Rectangle_42" data-name="Rectangle 42" class="cls-33" x="60.87" y="259.24" width="0.52" height="39.88" transform="translate(-252.44 207.31) rotate(-84.8)"/></g><g id="Group_59" data-name="Group 59"><rect id="Rectangle_43" data-name="Rectangle 43" class="cls-33" x="60.54" y="240.68" width="0.52" height="40.52" transform="translate(-233.78 195.74) rotate(-85.96)"/></g><g id="Group_60" data-name="Group 60"><path id="Path_76" data-name="Path 76" class="cls-33" d="M40.21,241.3,81,243.5l0,.53-40.77-2.21Z" transform="translate(-30.01 -107.45)"/></g><g id="Group_61" data-name="Group 61"><rect id="Rectangle_44" data-name="Rectangle 44" class="cls-33" x="60.34" y="202.85" width="0.52" height="40.94" transform="translate(-197.3 155.98) rotate(-84.8)"/></g><g id="Group_62" data-name="Group 62"><rect id="Rectangle_45" data-name="Rectangle 45" class="cls-33" x="60.24" y="184.15" width="0.52" height="41.12" transform="translate(-178.86 138.96) rotate(-84.8)"/></g><g id="Group_63" data-name="Group 63"><path id="Path_77" data-name="Path 77" class="cls-33" d="M39.87,185.88,81,187.7l0,.52L39.84,186.4Z" transform="translate(-30.01 -107.45)"/></g><g id="Group_64" data-name="Group 64"><path id="Path_78" data-name="Path 78" class="cls-33" d="M39.34,167.32,81,169.09l0,.52-41.65-1.76Z" transform="translate(-30.01 -107.45)"/></g><g id="Group_65" data-name="Group 65"><path id="Path_79" data-name="Path 79" class="cls-33" d="M39.15,148.71,81,150.49l0,.53-41.84-1.78Z" transform="translate(-30.01 -107.45)"/></g><g id="Group_66" data-name="Group 66"><path id="Path_80" data-name="Path 80" class="cls-33" d="M39.34,130.12,81,131.89l0,.52-41.65-1.77Z" transform="translate(-30.01 -107.45)"/></g></g><path id="Path_81" data-name="Path 81" class="cls-34" d="M155.89,319.63V300.89l-9.57.57V321h-8.68l-1.45,18.74-11.25.82.65,17.93-.32,37.5-19.43,1.63,1.07,18.93,37.86-1.79-.19,14.56,9.86-1.79.17-12.77,7.72-7.69,1.35-87.9Z" transform="translate(-30.01 -107.45)"/><path id="Path_82" data-name="Path 82" class="cls-35" d="M126.08,301.33l.28-19.18-11.59,1.12-.2,18.75Z" transform="translate(-30.01 -107.45)"/><path id="Path_83" data-name="Path 83" class="cls-36" d="M62.13,109.15v22.2h-4l-.68,22.14V188l.3,16.73-6.13-.8.57,38-6.42,0L45,186.58l-5.17-.44-2.93-76.42Z" transform="translate(-30.01 -107.45)"/><path id="Path_84" data-name="Path 84" class="cls-37" d="M148.35,149.42l-.26,19-9,.6-1.45,17.83H127.08l-.72,18.25-11.59,1.42.69-37.85.4-19.29-10.45.82.19-19h10.11l.15-18.58h23.23l-.19,17.69h19.78l-.53,18.39Z" transform="translate(-30.01 -107.45)"/><path id="Path_85" data-name="Path 85" class="cls-38" d="M65.57,282.13l.11,18.49L58.29,300l-.11-18.35Z" transform="translate(-30.01 -107.45)"/><path id="Path_86" data-name="Path 86" class="cls-38" d="M73.38,339.33,73.08,358l-6.68-.86-.5-17.89Z" transform="translate(-30.01 -107.45)"/><path id="Path_87" data-name="Path 87" class="cls-35" d="M154.9,394.08V375.83l-9.61.84v-19l-8.43.68v18.28l7.68.12.55,18.57Z" transform="translate(-30.01 -107.45)"/></g><g id="Group_69" data-name="Group 69"><path id="Path_89" data-name="Path 89" class="cls-39" d="M403.52,400s2.31,1.32,3.39,6.14-8.19,17-8.19,17-7.35-9.88-8.12-15.38,2.63-8,2.63-8l4.47,1.41Z" transform="translate(-30.01 -107.45)"/><path id="Path_90" data-name="Path 90" class="cls-40" d="M400.28,264.12l-2.23,30.4-17.32-.64-1.49-29.76Z" transform="translate(-30.01 -107.45)"/><path id="Path_91" data-name="Path 91" class="cls-41" d="M398.05,294.52,417.9,293l1-29.31h-20.8Z" transform="translate(-30.01 -107.45)"/><path id="Path_92" data-name="Path 92" class="cls-42" d="M380.73,293.88l8,8.53,1,87.44,9.14,2.39.32-87.7-1.17-10Z" transform="translate(-30.01 -107.45)"/><path id="Path_93" data-name="Path 93" class="cls-43" d="M417.9,293l-7.76,9.18L408,390.31l-9.07,1.93.31-87.7-1.16-10Z" transform="translate(-30.01 -107.45)"/><path id="Path_94" data-name="Path 94" class="cls-44" d="M389.76,348.91l-4.36,3.45-.61,9.72,13.26,2,15.63-.75-.52-10.22-4.22-4.22Z" transform="translate(-30.01 -107.45)"/><path id="Path_95" data-name="Path 95" class="cls-45" d="M413.16,353.13l-15.11.95v10l15.63-.75Z" transform="translate(-30.01 -107.45)"/><path id="Path_96" data-name="Path 96" class="cls-46" d="M407.32,388.81l4.68,6-4.15,5.68-10.68,1.27-9.39-2.65-2.36-4.89,4.73-6.27,7.78,1.54Z" transform="translate(-30.01 -107.45)"/><path id="Path_97" data-name="Path 97" class="cls-47" d="M412,394.81l-15.31.95.48,6-9.39-2.65-2.36-4.89,4.32-6.35,8.19,1.62,10.08-.73Z" transform="translate(-30.01 -107.45)"/><path id="Path_98" data-name="Path 98" class="cls-48" d="M410.14,302.22h-11.2l-.89-7.7L417.9,293Z" transform="translate(-30.01 -107.45)"/><path id="Path_99" data-name="Path 99" class="cls-49" d="M687.65,469.93s2.29,1.46,3.17,6.45-9.18,17-9.18,17-7-10.45-7.57-16.11,3.07-8.09,3.07-8.09l4.5,1.64Z" transform="translate(-30.01 -107.45)"/><path id="Path_100" data-name="Path 100" class="cls-50" d="M693.27,435.54l-1.35,25.67-9.48,1.16-7.84-2.92V436.91Z" transform="translate(-30.01 -107.45)"/><path id="Path_101" data-name="Path 101" class="cls-51" d="M682.44,462.37V441.23H674.6v18.22Z" transform="translate(-30.01 -107.45)"/><path id="Path_102" data-name="Path 102" class="cls-52" d="M686.77,268.64l-2.84,38.67-22-.82L660,268.64Z" transform="translate(-30.01 -107.45)"/><path id="Path_103" data-name="Path 103" class="cls-53" d="M683.93,307.31l25.26-1.9,1.28-37.28H684Z" transform="translate(-30.01 -107.45)"/><path id="Path_104" data-name="Path 104" class="cls-54" d="M584.26,302.38s-1,11.65-11.24,29.11c-12,20.44-37.44,29.73-37.44,29.73V302.38Z" transform="translate(-30.01 -107.45)"/><path id="Path_105" data-name="Path 105" class="cls-55" d="M487.91,302.38s1,11.65,11.25,29.11c12,20.44,37.44,29.73,37.44,29.73V302.38Z" transform="translate(-30.01 -107.45)"/><path id="Path_106" data-name="Path 106" class="cls-56" d="M600.15,259.9l-1.27,26.39-8.35,4.6v11.5s-17.26,4.92-43.52,5.75c-42.57,1.34-64.79-5.75-64.79-5.75V290.13l-7-5.75-4.74-25.66Z" transform="translate(-30.01 -107.45)"/><path id="Path_107" data-name="Path 107" class="cls-57" d="M710.79,252.46l6.16,4.85,1.94,12.35H400.72L329,264V252.47l5.63-4Z" transform="translate(-30.01 -107.45)"/><path id="Path_108" data-name="Path 108" class="cls-58" d="M718.89,269.66,717,257.31l-312.83,1.78-3.4,10.57Z" transform="translate(-30.01 -107.45)"/><path id="Path_109" data-name="Path 109" class="cls-59" d="M710.79,252.46H404.12l-5-142.26H711.32Z" transform="translate(-30.01 -107.45)"/><path id="Path_110" data-name="Path 110" class="cls-60" d="M643.82,117.41l1.32,127.12H628.51l-3.39-127.12Z" transform="translate(-30.01 -107.45)"/><path id="Path_111" data-name="Path 111" class="cls-61" d="M639.77,110.2l-4.44,142.26L495.1,257.31,490.89,110.2Z" transform="translate(-30.01 -107.45)"/><path id="Path_112" data-name="Path 112" class="cls-62" d="M579.86,316.45s-.94-7.55-33.36-3.32-39,15.12-40.43,21.34c-1.8,7.52,20.59,22,20.59,22s-27.48-12.05-40.11-53c0,0,37.53,10.68,95.72.78C582.25,304.28,580.68,312.23,579.86,316.45Z" transform="translate(-30.01 -107.45)"/><path id="Path_113" data-name="Path 113" class="cls-63" d="M495.1,257.31l-21.83-4.85L470.5,110.2h20.39Z" transform="translate(-30.01 -107.45)"/><path id="Path_114" data-name="Path 114" class="cls-64" d="M404.12,252.46l-69.49-4-2.8-138.3h72.29Z" transform="translate(-30.01 -107.45)"/><path id="Path_115" data-name="Path 115" class="cls-65" d="M635.33,252.46l2.89,6.63,1.55,14.41-146.76,2-22.51-6.2v-8.85l2.77-8L495,255.21Z" transform="translate(-30.01 -107.45)"/><path id="Path_116" data-name="Path 116" class="cls-66" d="M639.77,273.5l-1.55-14.41-143.12,3L493,275.51Z" transform="translate(-30.01 -107.45)"/><path id="Path_117" data-name="Path 117" class="cls-67" d="M598.89,286.27s-55.26,10.24-123.65-1.91l7,5.75s46.56,8.06,108.31.77Z" transform="translate(-30.01 -107.45)"/><path id="Path_118" data-name="Path 118" class="cls-68" d="M537.82,360.3l-1.24,28.24h-1l-1.25-28.24Z" transform="translate(-30.01 -107.45)"/><path id="Path_119" data-name="Path 119" class="cls-69" d="M584.26,303.87,579.77,322l-1.94.42s2.7-5.43,4.42-18.11Z" transform="translate(-30.01 -107.45)"/><path id="Path_120" data-name="Path 120" class="cls-70" d="M562.72,307.12l-1.9,16.16-5,1-.38-.73-.35-15.86Z" transform="translate(-30.01 -107.45)"/><path id="Path_121" data-name="Path 121" class="cls-71" d="M518.4,307.81l2.5,17.46-.34.32h-5l-3.31-18.27Z" transform="translate(-30.01 -107.45)"/><path id="Path_122" data-name="Path 122" class="cls-72" d="M488.13,303.87A58.2,58.2,0,0,0,493,319.43h-2.12l-5.58-16.22Z" transform="translate(-30.01 -107.45)"/><path id="Path_123" data-name="Path 123" class="cls-73" d="M520.9,325.27l-.34.32-2.16-17.77,2.31.16Z" transform="translate(-30.01 -107.45)"/><path id="Path_124" data-name="Path 124" class="cls-74" d="M557.34,307.58l-1.48,16.74-.38-.72-.36-15.87Z" transform="translate(-30.01 -107.45)"/><path id="Path_125" data-name="Path 125" class="cls-75" d="M680.21,110.2,683,252.46h27.8l.53-142.26Z" transform="translate(-30.01 -107.45)"/><path id="Path_126" data-name="Path 126" class="cls-76" d="M683,252.46,680.21,110.2h-6.83l3.54,142.26Z" transform="translate(-30.01 -107.45)"/><path id="Path_127" data-name="Path 127" class="cls-77" d="M379.74,251.06l-.5-140.86H373L378.75,251l-44.12-2.5-5.63,4,75.12,6.63,2-5.15Z" transform="translate(-30.01 -107.45)"/><path id="Path_128" data-name="Path 128" class="cls-78" d="M418.74,252.46a102.74,102.74,0,0,1-38-1L379.24,110.2h39.5Z" transform="translate(-30.01 -107.45)"/><path id="Path_129" data-name="Path 129" class="cls-79" d="M661.9,306.49l7.52,10,1.35,112.85L685,431.64l.4-111.6-1.49-12.73Z" transform="translate(-30.01 -107.45)"/><path id="Path_130" data-name="Path 130" class="cls-80" d="M709.19,305.41l-6.82,11.68-2.7,112.66L685,431.64l.4-111.6-1.49-12.73Z" transform="translate(-30.01 -107.45)"/><path id="Path_131" data-name="Path 131" class="cls-81" d="M670.13,376.5l-2.28,4.39-.79,12.36,16.87,2.57,19.89-.94-.66-13L701,376.5Z" transform="translate(-30.01 -107.45)"/><path id="Path_132" data-name="Path 132" class="cls-45" d="M703.16,381.87l-19.23,1.22v12.73l19.89-.94Z" transform="translate(-30.01 -107.45)"/><path id="Path_133" data-name="Path 133" class="cls-82" d="M670.75,427.24l-2.91,4.4L667.05,444l16.87,2.57,19.88-.94-.65-13-3.43-5.37Z" transform="translate(-30.01 -107.45)"/><path id="Path_134" data-name="Path 134" class="cls-45" d="M703.15,432.61l-19.23,1.23v12.73l19.89-.94Z" transform="translate(-30.01 -107.45)"/><path id="Path_135" data-name="Path 135" class="cls-83" d="M692.05,458.71l4.52,6.34-4.52,5.62-10,1.46-10.43-3.81-2.18-5.13,5.13-6.18,7.88,1.95Z" transform="translate(-30.01 -107.45)"/><path id="Path_136" data-name="Path 136" class="cls-84" d="M696.57,465.05l-15.69.9,1.15,6.18-10.43-3.81-2.18-5.13,5.13-6.18,7.88,1.95,9.62-.25Z" transform="translate(-30.01 -107.45)"/><path id="Path_137" data-name="Path 137" class="cls-85" d="M682.44,492.36,682,506.82h-.74l-.41-14.46Z" transform="translate(-30.01 -107.45)"/><path id="Path_138" data-name="Path 138" class="cls-86" d="M399.32,421.72,399,433.08h-.58l-.32-11.36Z" transform="translate(-30.01 -107.45)"/><path id="Path_139" data-name="Path 139" class="cls-48" d="M702.37,317.09H685.08l-1.15-9.78,25.26-1.9Z" transform="translate(-30.01 -107.45)"/><path id="Path_140" data-name="Path 140" class="cls-87" d="M622.32,233.52H584.26L581,110.2h44.08Z" transform="translate(-30.01 -107.45)"/><path id="Path_141" data-name="Path 141" class="cls-88" d="M622.32,233.52l2.8-123.32h-2.46l-1.23,123.32Z" transform="translate(-30.01 -107.45)"/><path id="Path_142" data-name="Path 142" class="cls-89" d="M550.92,233.52H512.84L509.63,110.2h44.09Z" transform="translate(-30.01 -107.45)"/><path id="Path_143" data-name="Path 143" class="cls-90" d="M550.92,233.52l2.8-123.32h-2.78l-1.08,123.32Z" transform="translate(-30.01 -107.45)"/><path id="Path_144" data-name="Path 144" class="cls-91" d="M516.16,110.2H542v90.07s-1.85,10.16-12.61,19.08A22.88,22.88,0,0,1,524.5,215a35.88,35.88,0,0,1-7.71-14.73Z" transform="translate(-30.01 -107.45)"/><path id="Path_145" data-name="Path 145" class="cls-92" d="M463.16,117.48l1.3,127.12H447.83l-3.37-127.12Z" transform="translate(-30.01 -107.45)"/><path id="Path_146" data-name="Path 146" class="cls-93" d="M516.16,110.2h16.42v90.07s-1.29,7.16-8.1,14.72a35.88,35.88,0,0,1-7.7-14.72Z" transform="translate(-30.01 -107.45)"/><path id="Path_147" data-name="Path 147" class="cls-94" d="M587.23,110.2h25.84v90.07s-1.84,10.16-12.61,19.08a22.56,22.56,0,0,1-4.91-4.34,35.82,35.82,0,0,1-7.71-14.73Z" transform="translate(-30.01 -107.45)"/><path id="Path_148" data-name="Path 148" class="cls-93" d="M587.23,110.2h16.42v90.07s-1.3,7.16-8.1,14.72a35.78,35.78,0,0,1-7.71-14.72Z" transform="translate(-30.01 -107.45)"/><path id="Path_149" data-name="Path 149" class="cls-32" d="M470.5,269.31l-9.92.35-2.9-11,2.9-6.25L444.46,110.2h26l2.77,142.26-2.77,6.25Z" transform="translate(-30.01 -107.45)"/><path id="Path_150" data-name="Path 150" class="cls-95" d="M708.77,110.2l-1.93,141.55H705L703.82,110.2Z" transform="translate(-30.01 -107.45)"/><path id="Path_151" data-name="Path 151" class="cls-96" d="M399.94,110.2,398.6,253.61h-1.84L395.57,110.2Z" transform="translate(-30.01 -107.45)"/><path id="Path_152" data-name="Path 152" class="cls-97" d="M384.79,110.2l.85,142.26-1.86-.39L382.6,110.2Z" transform="translate(-30.01 -107.45)"/><path id="Path_153" data-name="Path 153" class="cls-98" d="M698.23,110.2l-1,142.26h-2.73L693.29,110.2Z" transform="translate(-30.01 -107.45)"/><path id="Path_154" data-name="Path 154" class="cls-99" d="M413.42,110.2l-1,143.3-1.43.14L409.41,110.2Z" transform="translate(-30.01 -107.45)"/><path id="Path_155" data-name="Path 155" class="cls-100" d="M379.24,110.2l.92,86.83h-8.87l-1.53-12.39-2.22-.88-3.62-32.59-7.71-.61V177l-13.54-3.07-4.93-63.74Z" transform="translate(-30.01 -107.45)"/><path id="Path_156" data-name="Path 156" class="cls-101" d="M347.76,248.88V218.19l-6.93-2.08V226l-1.39-.91-1.7-40.48-4.42-.87,1.31,64.73Z" transform="translate(-30.01 -107.45)"/><path id="Path_157" data-name="Path 157" class="cls-102" d="M680.21,110.2,682,199l-3.76-2V154.62l-13.73-1v-9.52h-2.57v20.69l-16.76,2.38-5.37-4.56V110.2Z" transform="translate(-30.01 -107.45)"/></g><g id="Group_70" data-name="Group 70"><path id="Path_159" data-name="Path 159" class="cls-103" d="M363.51,184.64l-1.6,171.86-15.48,2.11V183.76Z" transform="translate(-30.01 -107.45)"/><path id="Path_160" data-name="Path 160" class="cls-104" d="M295.85,233.11v14.6a68.61,68.61,0,0,1-14,30.11c-11.79,14.57-23.73,19-23.73,19V228.75Z" transform="translate(-30.01 -107.45)"/><path id="Path_161" data-name="Path 161" class="cls-105" d="M220.55,233.11v14.6a68.52,68.52,0,0,0,14,30.11c11.79,14.57,23.73,19,23.73,19V228.75Z" transform="translate(-30.01 -107.45)"/><path id="Path_162" data-name="Path 162" class="cls-106" d="M291.52,235.72v9.33l-3.42.15v-9.4Z" transform="translate(-30.01 -107.45)"/><path id="Path_163" data-name="Path 163" class="cls-107" d="M280.75,236.81v9.33l-3.4.15v-9.4Z" transform="translate(-30.01 -107.45)"/><path id="Path_164" data-name="Path 164" class="cls-108" d="M270,237.56v9.33l-3.41.15v-9.4Z" transform="translate(-30.01 -107.45)"/><path id="Path_165" data-name="Path 165" class="cls-109" d="M259.23,237.56v9.33l-3.4.15v-9.4Z" transform="translate(-30.01 -107.45)"/><path id="Path_166" data-name="Path 166" class="cls-110" d="M248.47,237.56v9.33l-3.4-.14v-9.11Z" transform="translate(-30.01 -107.45)"/><path id="Path_167" data-name="Path 167" class="cls-111" d="M237.72,236.64v9.83l-3.42-.34v-9.42Z" transform="translate(-30.01 -107.45)"/><path id="Path_168" data-name="Path 168" class="cls-112" d="M227,235.72v9.33l-3.4-.66V235.8Z" transform="translate(-30.01 -107.45)"/><path id="Path_169" data-name="Path 169" class="cls-113" d="M295.85,247.71s-44.81,2.19-58.13,9.6,1.65,26.94,7.35,31.19c0,0-15.79-9.45-24.52-40.79l.16-12,75.12,2.87v9.13Z" transform="translate(-30.01 -107.45)"/><path id="Path_170" data-name="Path 170" class="cls-114" d="M260,295.65l-1.24,28.23h-.95l-1.25-28.23Z" transform="translate(-30.01 -107.45)"/><path id="Path_171" data-name="Path 171" class="cls-115" d="M365.31,107.46l-1.8,77.18H146.77V107.46Z" transform="translate(-30.01 -107.45)"/><path id="Path_172" data-name="Path 172" class="cls-116" d="M146.77,184.64l-44.8-.92-1.3-76.27h46.1Z" transform="translate(-30.01 -107.45)"/><path id="Path_173" data-name="Path 173" class="cls-117" d="M337.77,115.52l0,60.83H308.22V115.52Z" transform="translate(-30.01 -107.45)"/><path id="Path_174" data-name="Path 174" class="cls-118" d="M323,107.46V199l-87.9.57-4.81-92.15Z" transform="translate(-30.01 -107.45)"/><path id="Path_175" data-name="Path 175" class="cls-119" d="M235.1,199.61,197.48,197,195,107.46h38Z" transform="translate(-30.01 -107.45)"/><path id="Path_176" data-name="Path 176" class="cls-120" d="M323,199l-19.74,23.53L301,237.34l-54.25,1.24L216,235.2l-1.84-15.7L197.48,197l37.62,2.58Z" transform="translate(-30.01 -107.45)"/><path id="Path_177" data-name="Path 177" class="cls-121" d="M235.1,199.61,245,222.1l1.71,16.48L216,235.2l-1.84-15.7L197.48,197Z" transform="translate(-30.01 -107.45)"/><path id="Path_178" data-name="Path 178" class="cls-48" d="M323,199l-19.74,23.53L245,222.1l-9.9-22.49Z" transform="translate(-30.01 -107.45)"/><path id="Path_179" data-name="Path 179" class="cls-122" d="M189.92,113.62l-36.53.6,2.83,64h33.7Z" transform="translate(-30.01 -107.45)"/><path id="Path_180" data-name="Path 180" class="cls-123" d="M318.78,107.46H285.34l-.26,76.59h33.7Z" transform="translate(-30.01 -107.45)"/><path id="Path_181" data-name="Path 181" class="cls-124" d="M275,107.46H241.6l-.26,76.59H275Z" transform="translate(-30.01 -107.45)"/><path id="Path_182" data-name="Path 182" class="cls-125" d="M310.83,107.46s0,32.32-8.62,33.55S293,107.46,293,107.46Z" transform="translate(-30.01 -107.45)"/><path id="Path_183" data-name="Path 183" class="cls-125" d="M268.14,107.46s0,32.32-8.62,33.55-9.19-33.55-9.19-33.55Z" transform="translate(-30.01 -107.45)"/><path id="Path_184" data-name="Path 184" class="cls-126" d="M361.19,340.14s0,8.36-2.23,8.67-2.38-8.67-2.38-8.67Z" transform="translate(-30.01 -107.45)"/><path id="Path_185" data-name="Path 185" class="cls-127" d="M351.35,340.14s0,8.36-1.64,8.67-1.75-8.67-1.75-8.67Z" transform="translate(-30.01 -107.45)"/><path id="Path_186" data-name="Path 186" class="cls-128" d="M363.51,184.64H338.58l10.16-12.78-.62-64.4h17.19l-1.49,65.25L370,184.64Z" transform="translate(-30.01 -107.45)"/><path id="Path_187" data-name="Path 187" class="cls-129" d="M363.82,172.71s-7.65.62-11.39-2.46-4.3-62.78-4.3-62.78h-6.32l2.63,64-5.85,13.17H370Z" transform="translate(-30.01 -107.45)"/><path id="Path_188" data-name="Path 188" class="cls-130" d="M370,297.63V283.5l-7.32-8.09H346.43l-7.85,6.72v15.5Z" transform="translate(-30.01 -107.45)"/><path id="Path_189" data-name="Path 189" class="cls-131" d="M370,283.5l-31.4-1.37v15.5H370Z" transform="translate(-30.01 -107.45)"/><path id="Path_190" data-name="Path 190" class="cls-132" d="M361.81,358.61,353,411.39l-7.66-52.78-5.23-3.69h28Z" transform="translate(-30.01 -107.45)"/></g><g id="Group_72" data-name="Group 72"><path id="Path_191" data-name="Path 191" class="cls-133" d="M732.62,112.91h62.49l-.17,6.76-.14,5.16-.29,11.23-.22,8.63-.24,9.7-.25,9.13-.42,16.94-.1,3.63-.49,19.55-.25,9.5L792.11,230l-.29,11.19-.66,25.52,0,1.5-.77,30.18,0,.45-.68,27.2-.1,3.73-.9,34.67v.08l-.8,31.9-.48-13L783.43,385l-11.7,4.57-.74.28-6,2.33-3,1.16-10.91,4.26-5,1.95-5.06,2-.2-6.76-.38-13.08-.82-28.38,0-.5L739,330.62l-.18-6.08-.71-24.35-.13-4.05-.77-26.78L737,264,736.36,242,736,228l-.47-15.82-.28-9.69-.51-17.65-.15-5.26-.47-15.64-.26-9.19-.31-10.54-.22-7.81-.36-11.91-.13-4.59Z" transform="translate(-30.01 -107.45)"/><g id="Group_71" data-name="Group 71"><path id="Path_192" data-name="Path 192" class="cls-134" d="M714.46,112.91l7.42,261.73,3.42,1.74-6.94-263.47Z" transform="translate(-30.01 -107.45)"/><path id="Path_193" data-name="Path 193" class="cls-135" d="M795.29,112.91l-7,263.47h-3.41l6.85-263.47Z" transform="translate(-30.01 -107.45)"/><path id="Path_194" data-name="Path 194" class="cls-136" d="M718.6,119.68c1.1.51,2.3,1.07,3.59,1.7-1.14.9-2.29,1.83-3.43,2.77l.42,11.6c1.61.91,3.36,2,5.26,3.11-1.67,1.44-3.34,2.95-5,4.5l.37,10.26c2.34,1.25,5,2.75,7.89,4.53q-2.64,2.86-5.23,6c-.83-.55-1.63-1.07-2.36-1.53l.55,15.23c1.11-1.52,2.21-3,3.34-4.44,1.67,1.24,3.45,2.62,5.3,4.12-2.07,2.45-4.12,5-6.12,7.65q-1.24-1.2-2.34-2.22l.6,17.18c.91-1.45,1.85-2.87,2.79-4.27,1.16,1.18,2.4,2.44,3.65,3.78-2.12,3.15-4.19,6.46-6.1,9.93l.55,15.4c.4-1,.8-1.89,1.23-2.83,1.76,1.73,3.69,3.66,5.7,5.78-2,3.64-3.84,7.46-5.64,11.43-.28-.25-.57-.48-.82-.68l.74,21.36c1-3,2-5.88,3.05-8.71,1.53,1.49,3.12,3.1,4.79,4.82-2,3.69-3.86,7.47-5.62,11.33-.73-.78-1.4-1.51-2-2.18l.92,26.08q1.57-5.44,3.58-10.76c1.16,1.34,2.36,2.76,3.57,4.25-1.94,3.86-3.79,7.88-5.61,12-.49-.55-1-1.06-1.39-1.57L725.6,319c1-2.91,2-5.72,3-8.52q1,1.27,2.1,2.64c-1.72,3.79-3.37,7.73-4.92,11.81l.75,21.57.07,0c.71-2.65,1.45-5.25,2.25-7.83,1,1.24,2.16,2.57,3.27,4-1.15,2.4-2.25,4.82-3.32,7.29-.78-1.06-1.53-2.06-2.24-3l1,27.65c.87-2.89,1.81-5.78,2.83-8.61q1.74,3.24,3.43,6.87-3.1,7-5.81,14.47A187.8,187.8,0,0,0,721.59,409l7.39,1.11a174.75,174.75,0,0,1,5.21-18.1c1.09-3.21,2.27-6.37,3.5-9.5.87,2.42,1.65,5,2.38,7.58.53,1.91,1,3.9,1.45,5.91-1.29,4.14-2.5,8.46-3.59,13l7.39,1.16c.92-3.85,1.94-7.55,3-11.13l1.38-.16c-.17-.86-.33-1.71-.51-2.54,1.16-3.58,2.38-7,3.66-10.33.64-1.66,1.31-3.29,2-4.88.51,1.23,1,2.47,1.53,3.74,1.45,3.65,2.83,7.48,4.12,11.45-.18.85-.36,1.71-.51,2.57l1.38.16c1.09,3.57,2.11,7.27,3,11.11l7.39-1.16c-1.07-4.51-2.29-8.82-3.59-13A110.72,110.72,0,0,1,772,382.55a191.69,191.69,0,0,1,8.72,27.59l7.4-1.1a194.63,194.63,0,0,0-10.09-31.16c-.69-1.67-1.4-3.32-2.11-5q1.66-3.63,3.42-6.87c1.19,3.41,2.32,6.83,3.34,10.33l.94-.3.56-18.11s0,0,0-.06,0,0,0,0l1-33.77c-.38.34-.78.73-1.21,1.12-1.58-4.16-3.27-8.19-5-12.1l2.11-2.62c1.21,3.3,2.41,6.65,3.54,10.11l.69-.16.79-26.48c-.79.86-1.67,1.84-2.61,2.91-1.8-4.17-3.67-8.17-5.59-12.05,1.22-1.5,2.41-2.91,3.58-4.25,1.59,4.28,3,8.62,4.19,13l.45-.07.93-29.38c-.91.94-1.94,2.05-3.12,3.29q-2.64-5.76-5.63-11.3c1.67-1.75,3.27-3.34,4.79-4.82,1.4,3.66,2.71,7.46,3.88,11.38l.09,0,.77-24.84c-.55.46-1.15.95-1.78,1.5-1.78-4-3.67-7.77-5.65-11.44,2-2.11,4-4,5.72-5.76.71,1.57,1.4,3.17,2.05,4.79l.51-16.4a1,1,0,0,1-.15.14c-2.1-3.89-4.37-7.55-6.73-11,1.26-1.33,2.47-2.6,3.63-3.79q1.83,2.67,3.54,5.45l.58-19c-.91.85-1.94,1.82-3.07,2.91-2-2.65-4-5.2-6.11-7.65,1.85-1.52,3.63-2.88,5.3-4.12,1.34,1.73,2.66,3.49,4,5.32l.51-16.5c-.91.56-1.89,1.19-3,1.91-1.72-2.06-3.48-4-5.23-6,3.14-1.92,6-3.54,8.5-4.84l.29-9.46c-1.83-1.74-3.69-3.4-5.52-5,2.11-1.29,4.05-2.41,5.79-3.41l.33-10.94c-1.29-1.08-2.58-2.12-3.85-3.13,1.42-.7,2.76-1.33,4-1.89l.2-6.58h-1.11c-2.47,1-5.48,2.39-8.89,4.11-1.58-1.15-3.12-2.27-4.67-3.32l2-.79H763.26c-2.58,1.27-5.39,2.74-8.42,4.45-3-1.71-5.83-3.18-8.41-4.45H730.59l2,.79c-1.52,1-3.1,2.16-4.68,3.32-3.43-1.72-6.4-3.07-8.89-4.11h-.71ZM724,148.49c2.14-2,4.28-4,6.43-5.79,2.36,1.56,4.84,3.26,7.4,5.12-1.83,1.73-3.68,3.53-5.51,5.38-3.06-1.82-5.85-3.4-8.32-4.71Zm21.8,200.72c-1.78-2.62-3.54-5-5.24-7.3,1.52-3.07,3.06-6.09,4.66-9q2.7,4,5.39,8.24c-1.61,2.63-3.23,5.33-4.81,8.1Zm.38,14.45c1.54,2.72,3.07,5.58,4.56,8.59-1.69,3.61-3.36,7.38-4.92,11.4-1.23-3.81-2.6-7.42-4.05-10.78,1.42-3.14,2.89-6.2,4.41-9.21Zm-1-193.21c1.47,1.18,3,2.41,4.44,3.7-2.1,2-4.24,4.1-6.33,6.3-1.4-1.29-2.78-2.49-4.12-3.65,2-2.19,4-4.32,6-6.35Zm-.6-9.06c-2.14-1.57-4.25-3-6.28-4.39,1.72-1.75,3.45-3.4,5.17-5q3,2.3,6.1,4.86c-1.65,1.46-3.32,3-5,4.54Zm10.26,17.47c2.16,2,4.32,4.18,6.44,6.45-2.12,2.09-4.27,4.33-6.44,6.69q-3.27-3.54-6.45-6.69c2.14-2.28,4.28-4.41,6.44-6.45Zm-4.69-13.24c1.58-1.46,3.12-2.89,4.69-4.27,1.56,1.38,3.12,2.81,4.68,4.27-1.56,1.25-3.12,2.54-4.68,3.9-1.57-1.36-3.13-2.65-4.69-3.9Zm4.69,107.08c-1.55-2.05-3.07-4-4.61-5.91q2.28-3.65,4.61-7.07c1.54,2.28,3.06,4.64,4.61,7.07-1.53,1.89-3.08,3.87-4.62,5.91Zm0,12.4c2.11,3.13,4.23,6.39,6.28,9.84-2.07,2.78-4.19,5.72-6.29,8.79-2.11-3.06-4.23-6-6.28-8.78,2-3.44,4.17-6.71,6.29-9.85Zm-5.51-45c1.81-2.74,3.66-5.39,5.5-8q2.77,3.87,5.49,8-2.72,3.38-5.49,7.11-2.79-3.72-5.51-7.11Zm-1.42-28.34q3.44-4.71,6.93-8.95,3.5,4.23,6.94,8.95-3.43,4.13-6.94,8.62c-2.34-3-4.66-5.87-6.93-8.61Zm-4.21-21.25c2.11,2.13,4.26,4.4,6.41,6.8q-3.54,4.16-7,8.81c-2.14-2.44-4.23-4.76-6.22-6.94,2.19-3.06,4.47-5.92,6.82-8.67Zm.09,27.2c2.2,2.7,4.43,5.53,6.66,8.48q-2.94,4-5.82,8.21-3.4-4-6.57-7.41c1.84-3.22,3.77-6.32,5.73-9.28Zm1.43,28.75q2.57,3.3,5.18,6.92c-1.69,2.43-3.4,4.93-5.09,7.55-1.77-2-3.53-4-5.22-5.79,1.66-2.95,3.39-5.85,5.13-8.68Zm1,26.83q2.07,2.63,4.14,5.47c-2.22,3.14-4.43,6.46-6.59,9.93-1.22-1.55-2.4-3.05-3.54-4.48,1.94-3.79,3.93-7.42,6-10.92Zm-1.58,28.31c1.94,2.69,3.9,5.52,5.88,8.44-2,3.1-4.05,6.28-6,9.6-1.86-2.52-3.66-4.91-5.43-7.17q2.71-5.64,5.59-10.87ZM749.11,326q2.83-4.86,5.73-9.42,2.92,4.56,5.74,9.42c-1.89,2.71-3.81,5.55-5.74,8.48-1.92-2.93-3.83-5.77-5.73-8.48Zm15.32,6.87q2.4,4.42,4.68,9c-1.71,2.25-3.46,4.67-5.24,7.29-1.58-2.75-3.2-5.46-4.81-8.08,1.77-2.84,3.59-5.59,5.37-8.24Zm-5.32-22.82q3-4.4,5.88-8.45c1.93,3.48,3.78,7.11,5.58,10.87-1.77,2.26-3.58,4.66-5.45,7.17-2-3.3-4-6.49-6-9.58Zm6.77-21.35q-3.27-5.2-6.59-9.92c1.38-1.89,2.76-3.7,4.12-5.47q3.08,5.25,6,10.89C768.27,285.67,767.07,287.16,765.88,288.71Zm-6.61-35.3q2.61-3.61,5.17-6.91,2.64,4.23,5.12,8.67c-1.69,1.82-3.42,3.75-5.21,5.79-1.69-2.62-3.39-5.12-5.08-7.55Zm0-27.19q3.36-4.42,6.67-8.48c2,3,3.88,6.07,5.73,9.29q-3.17,3.41-6.57,7.39c-1.92-2.8-3.87-5.55-5.83-8.2Zm.35-28.88q3.21-3.6,6.41-6.8c2.34,2.75,4.62,5.62,6.84,8.66-2,2.19-4.08,4.5-6.23,7-2.34-3.11-4.68-6-7-8.82Zm6.81-16.89q-3.17-3.3-6.34-6.3c1.49-1.28,3-2.53,4.45-3.7,2,2,4,4.16,6,6.36-1.35,1.15-2.71,2.36-4.12,3.63Zm-6.26-23.59c2.07-1.71,4.1-3.32,6.09-4.88,1.73,1.62,3.45,3.28,5.16,5-2,1.35-4.14,2.82-6.28,4.39-1.67-1.56-3.32-3.07-5-4.53Zm6.6-13.67c-2.12-1.85-4.23-3.6-6.31-5.28,2.28-1.68,4.54-3.25,6.71-4.73,2.22,1.6,4.45,3.29,6.74,5.1-2.29,1.5-4.67,3.15-7.14,4.91Zm-5.61,4.17q-3.07,2.35-6.28,5c-2.1-1.75-4.19-3.41-6.26-5,2.11-1.83,4.2-3.55,6.28-5.22,2.07,1.65,4.16,3.37,6.26,5.22ZM743,143.19c-2.46-1.76-4.84-3.41-7.13-4.91q3.43-2.72,6.75-5.11c2.2,1.46,4.43,3,6.73,4.72-2.12,1.68-4.23,3.44-6.35,5.3Zm-14.75,24.92c1.79-2.13,3.61-4.18,5.4-6.15,2,1.3,4,2.72,6,4.24-2,2-3.92,4-5.86,6.16C731.85,170.8,730,169.39,728.22,168.11ZM734.64,182c1.31,1.14,2.63,2.35,4,3.6-2.29,2.64-4.52,5.4-6.7,8.31q-1.93-2-3.69-3.77Q731.33,185.92,734.64,182Zm-7.93,33.61c1.94-3.7,4-7.22,6.17-10.58q3,3.25,6.08,6.91-3.13,4.59-6.13,9.62C730.61,219.34,728.56,217.37,726.71,215.63Zm2.63,28.79c1.61-3.77,3.34-7.38,5.14-10.86q2.94,3.3,6,7-2.88,4.49-5.61,9.18c-2-2-3.84-3.75-5.57-5.35Zm1.76,28.94c1.69-3.94,3.54-7.82,5.48-11.62,1.58,1.76,3.2,3.61,4.83,5.56-2.09,3.47-4.16,7.09-6.17,10.86q-2.18-2.58-4.14-4.8Zm5.74,17.79c1,1.3,2.06,2.65,3.12,4-2,3.51-4,7.16-5.88,11-.87-1.07-1.73-2.09-2.54-3.06,1.67-4.13,3.46-8.09,5.3-11.94ZM731.44,331c1.38-3.89,2.85-7.63,4.42-11.29q2.35,3.13,4.82,6.57c-1.74,3.06-3.43,6.19-5.1,9.4-1.43-1.72-2.83-3.28-4.13-4.68Zm6.32,33.37q-2-3.81-4.08-7.13c1.11-2.69,2.23-5.36,3.43-8,1.56,2.2,3.16,4.57,4.75,7.09Q739.78,360.32,737.76,364.4Zm17.08-.23c-1.52-2.84-3.06-5.55-4.61-8.09q2.29-4.14,4.61-8.09c1.56,2.63,3.11,5.33,4.61,8.09-1.52,2.54-3.08,5.25-4.61,8.09Zm9,19.48c-.15-.34-.27-.7-.42-1-1.43-3.63-2.94-7.06-4.5-10.36q2.24-4.51,4.56-8.59c1.52,3,3,6.07,4.41,9.2q-1.93,4.45-3.6,9.46c-.16.44-.31.89-.45,1.33Zm8.09-19.25q-2-4.09-4.1-8c1.6-2.53,3.2-4.9,4.76-7.1,1.18,2.63,2.31,5.3,3.41,8-1.35,2.2-2.7,4.57-4.07,7.12Zm8.88-25.68c.8,2.55,1.56,5.15,2.25,7.81l.49-.08c-.85,1.08-1.74,2.27-2.67,3.55-1.09-2.46-2.18-4.9-3.32-7.29,1.11-1.42,2.21-2.76,3.25-4Zm-6.72-3c-1.63-3.21-3.34-6.35-5.06-9.4,1.63-2.29,3.25-4.47,4.81-6.57,1.56,3.65,3,7.4,4.41,11.29C776.93,332.45,775.55,334,774.08,335.71Zm4.09-32.62c-.82,1-1.68,2-2.55,3.06-1.88-3.8-3.86-7.46-5.88-11,1-1.38,2.09-2.73,3.13-4,1.83,3.85,3.61,7.83,5.29,11.94Zm.41-29.72c-1.3,1.48-2.7,3.08-4.14,4.78-2-3.77-4.08-7.38-6.17-10.84,1.64-2,3.25-3.79,4.81-5.56q3,5.7,5.5,11.61Zm-3.81-23.57q-2.71-4.7-5.61-9.18,3.11-3.76,6.05-7.05c1.79,3.49,3.52,7.09,5.13,10.86-1.72,1.59-3.61,3.39-5.57,5.37ZM783,215.64q-2.81,2.6-6.11,5.93-3-5-6.15-9.62c2.08-2.42,4.12-4.72,6.09-6.91,2.16,3.37,4.23,6.91,6.17,10.59Zm-1.54-25.49c-1.16,1.19-2.41,2.43-3.68,3.77q-3.27-4.36-6.7-8.31c1.34-1.25,2.67-2.46,4-3.6,2.2,2.62,4.34,5.32,6.41,8.13Zm-5.55-17.79q-2.92-3.2-5.87-6.16c2.07-1.52,4.09-2.94,6.05-4.23,1.81,2,3.62,4,5.41,6.14-1.76,1.28-3.63,2.69-5.59,4.25Zm9.76-23.86c-2.47,1.29-5.26,2.88-8.31,4.72-1.83-1.87-3.67-3.66-5.52-5.39,2.6-1.86,5.06-3.56,7.42-5.11,2.13,1.81,4.27,3.75,6.41,5.77Zm-4.75-23.69q3.18,2.46,6.46,5.23c-2.2,1.23-4.72,2.69-7.46,4.39-2.27-1.84-4.51-3.55-6.7-5.14,2.7-1.67,5.3-3.16,7.7-4.48Zm-11.06-7.9c1.73,1.14,3.49,2.32,5.27,3.61-2.47,1.38-5.09,2.89-7.81,4.59q-3-2.06-5.93-3.87c3.1-1.71,6-3.14,8.47-4.33Zm-15,8.12c2,1.24,4.19,2.59,6.37,4.05q-3.11,2.11-6.37,4.54-3.24-2.42-6.37-4.54,3.3-2.19,6.37-4.06Zm-15-8.12c2.5,1.19,5.33,2.64,8.42,4.33-1.93,1.2-3.9,2.5-5.94,3.87-2.7-1.7-5.31-3.21-7.77-4.58Q737.27,118.61,739.89,116.91Zm-11.07,7.9q3.61,2,7.67,4.45c-2.21,1.62-4.44,3.33-6.69,5.15-2.75-1.68-5.27-3.14-7.46-4.37,2.17-1.85,4.35-3.58,6.47-5.23Z" transform="translate(-30.01 -107.45)"/><path id="Path_195" data-name="Path 195" class="cls-137" d="M763.91,461.64l-.6,15.56H746.6L746.19,462Z" transform="translate(-30.01 -107.45)"/><rect id="Rectangle_46" data-name="Rectangle 46" class="cls-138" x="709.75" y="347.34" width="30.59" height="7.91"/><path id="Path_196" data-name="Path 196" class="cls-139" d="M789.12,376.08,787,453.36H722.47l1.39-77.28Z" transform="translate(-30.01 -107.45)"/><path id="Path_197" data-name="Path 197" class="cls-140" d="M787.56,448.63H722.47V437.06l65.35.34Z" transform="translate(-30.01 -107.45)"/><path id="Path_198" data-name="Path 198" class="cls-141" d="M787.93,432.69l-65.46.82V423.44h65.46Z" transform="translate(-30.01 -107.45)"/><path id="Path_199" data-name="Path 199" class="cls-142" d="M787.52,453.36l.11,1.86-65.16,1v-2.85Z" transform="translate(-30.01 -107.45)"/><path id="Path_200" data-name="Path 200" class="cls-143" d="M770.34,462.7v-.91l-30.58-.51v1.42Z" transform="translate(-30.01 -107.45)"/><path id="Path_201" data-name="Path 201" class="cls-144" d="M759.92,477.2s-6.7,36.73-4.72,66.11h-1.43s.46-43.75-4.3-66.11Z" transform="translate(-30.01 -107.45)"/><path id="Path_202" data-name="Path 202" class="cls-145" d="M714.1,119.68c1.24.5,2.59,1.06,4,1.69-1.28.91-2.56,1.83-3.86,2.78l.48,11.59c1.8.92,3.78,2,5.92,3.12-1.88,1.43-3.75,2.95-5.63,4.49l.41,10.27c2.62,1.25,5.62,2.75,8.88,4.53-2,1.91-3.94,3.89-5.87,6-1-.55-1.82-1.07-2.66-1.53l.61,15.23c1.23-1.52,2.49-3,3.75-4.44,1.87,1.24,3.87,2.62,6,4.12-2.33,2.45-4.63,5-6.87,7.65-.93-.8-1.81-1.54-2.63-2.22l.67,17.18c1-1.45,2.08-2.87,3.13-4.28,1.32,1.19,2.68,2.45,4.1,3.79-2.38,3.15-4.69,6.46-6.87,9.93l.62,15.4c.45-1,.91-1.89,1.38-2.83,2,1.73,4.13,3.66,6.41,5.78q-3.31,5.46-6.34,11.43c-.32-.25-.63-.48-.93-.68l.84,21.36q1.64-4.47,3.42-8.71c1.72,1.48,3.52,3.1,5.39,4.82-2.22,3.69-4.34,7.47-6.3,11.32l-2.3-2.17,1,26.08c1.19-3.64,2.52-7.22,4-10.77,1.29,1.34,2.64,2.76,4,4.25q-3.25,5.81-6.29,12c-.54-.55-1.09-1.07-1.58-1.57L722,319c1.09-2.91,2.22-5.72,3.4-8.52.79.84,1.56,1.73,2.38,2.63-1.94,3.8-3.8,7.74-5.53,11.82l.84,21.57h.07c.78-2.65,1.64-5.24,2.52-7.82,1.19,1.24,2.42,2.56,3.68,4-1.28,2.4-2.52,4.82-3.73,7.29-.88-1.06-1.7-2.06-2.53-3l1.09,27.65c1-2.9,2.05-5.78,3.17-8.61q2,3.24,3.84,6.87c-2.33,4.69-6.8-3.44-7,1.73-.72,17.42-6.52,26.94-8.41,34.34l10,1.17a161.13,161.13,0,0,1,5.86-18.1c1.22-3.22,2.54-6.37,3.94-9.5,1,2.42,1.86,5,2.68,7.58.6,1.91,1.14,3.89,1.65,5.91-1.46,4.14-2.82,8.46-4,13l8.3,1.16c1-3.85,2.19-7.55,3.4-11.13,0,0,1.17-1.87,1-2.72,1.3-3.58,2.68-7,4.12-10.33.71-1.65,1.47-3.29,2.22-4.87.58,1.22,1.16,2.47,1.72,3.74q2.45,5.47,4.62,11.45c-.21.84,1,2.74,1,2.74q1.83,5.35,3.4,11.11l8.3-1.16c-1.21-4.51-2.58-8.82-4-13a107.83,107.83,0,0,1,4.31-13.48,173.29,173.29,0,0,1,9.77,27.59l11.15-2.22c-2.93-9.92-6.66-19.09-7.9-31.85-.18-1.76-7.84-1.51-8.64-3.15,1.23-2.42,2.52-4.71,3.84-6.87,1.34,3.4,2.61,6.83,3.74,10.33l1.07-.3.63-18.11s0-.05,0-.06,0,0,0,0l1.2-33.77-1.37,1.12Q785,318.94,782,313.1c.81-.9,1.59-1.77,2.38-2.63,1.37,3.31,2.72,6.66,4,10.11l.79-.15.91-26.49c-.9.87-1.88,1.85-2.94,2.91-2-4.16-4.12-8.16-6.29-12,1.36-1.51,2.71-2.91,4-4.25a128,128,0,0,1,4.71,13l.51-.07,1-29.36c-1,1-2.19,2.05-3.5,3.3-2-3.84-4.08-7.61-6.31-11.3,1.88-1.75,3.68-3.35,5.4-4.82,1.56,3.66,3,7.45,4.36,11.38l.1,0,.86-24.85c-.61.47-1.28,1-2,1.5-2-4-4.11-7.77-6.34-11.43q3.42-3.18,6.43-5.76c.79,1.57,1.58,3.17,2.31,4.79l.56-16.41-.17.14c-2.38-3.88-4.92-7.54-7.57-11,1.4-1.32,2.79-2.59,4.08-3.78,1.37,1.77,2.68,3.59,4,5.45l.65-19q-1.53,1.26-3.44,2.91c-2.24-2.65-4.55-5.21-6.86-7.65,2.08-1.52,4.08-2.89,6-4.13,1.53,1.73,3,3.5,4.49,5.33l.56-16.5c-1,.56-2.12,1.18-3.35,1.91-1.94-2.07-3.9-4.05-5.87-6,3.54-1.91,6.75-3.54,9.53-4.84l.34-9.45c-2.07-1.75-4.14-3.4-6.2-5,2.38-1.3,4.55-2.42,6.5-3.41l.36-11c-1.45-1.08-2.89-2.11-4.31-3.12q2.4-1,4.49-1.89l.23-6.6H795c-2.79,1-6.15,2.39-10,4.11-1.77-1.14-3.53-2.27-5.24-3.32l2.27-.79H764.27c-2.89,1.27-6.06,2.75-9.46,4.46-3.4-1.71-6.56-3.19-9.45-4.46H727.59l2.27.79c-1.71,1.06-3.48,2.16-5.25,3.32-3.84-1.72-7.2-3.07-10-4.11h-.79Zm6.11,28.81c2.4-2,4.82-4,7.22-5.79,2.64,1.55,5.43,3.26,8.32,5.12-2.07,1.73-4.13,3.53-6.2,5.38-3.42-1.82-6.55-3.4-9.34-4.71Zm24.48,200.72c-2-2.63-4-5-5.89-7.3q2.55-4.61,5.25-9,3,4,6.05,8.24c-1.8,2.63-3.63,5.33-5.41,8.1Zm.43,14.45c1.74,2.72,3.44,5.57,5.12,8.59-1.91,3.61-3.77,7.38-5.52,11.4a110.84,110.84,0,0,0-4.56-10.78c1.62-3.14,3.26-6.2,5-9.21ZM744,170.45c1.66,1.18,3.33,2.42,5,3.7q-3.57,3-7.13,6.3c-1.58-1.29-3.1-2.49-4.63-3.65C739.46,174.61,741.71,172.48,744,170.45Zm-.67-9.06c-2.4-1.57-4.76-3-7.06-4.39,2-1.74,3.87-3.4,5.82-5,2.24,1.53,4.54,3.16,6.85,4.86-1.88,1.46-3.73,3-5.61,4.54Zm11.51,17.47q3.63,3.06,7.24,6.45-3.57,3.13-7.24,6.7c-2.43-2.37-4.84-4.59-7.23-6.7,2.4-2.28,4.81-4.41,7.23-6.45Zm-5.25-13.24c1.77-1.46,3.52-2.89,5.27-4.27,1.75,1.38,3.5,2.81,5.27,4.27-1.75,1.25-3.5,2.55-5.27,3.9-1.77-1.36-3.52-2.65-5.27-3.9Zm5.25,107.08c-1.73-2.05-3.46-4-5.17-5.91q2.58-3.65,5.17-7.07,2.61,3.42,5.17,7.07C758.26,268.68,756.55,270.66,754.81,272.7Zm0,12.4c2.38,3.13,4.75,6.39,7.06,9.84-2.33,2.78-4.69,5.72-7.08,8.79-2.38-3.06-4.75-6-7.06-8.78,2.31-3.44,4.7-6.71,7.08-9.85Zm-6.2-45q3.07-4.11,6.18-8,3.13,3.87,6.17,8c-2,2.25-4.1,4.63-6.17,7.11q-3.1-3.72-6.18-7.11ZM747,211.79q3.84-4.71,7.78-8.95c2.61,2.82,5.22,5.8,7.78,8.95-2.56,2.75-5.17,5.62-7.78,8.62-2.61-3-5.22-5.87-7.78-8.61Zm-4.71-21.25q3.58,3.19,7.19,6.8c-2.65,2.78-5.28,5.7-7.87,8.81-2.4-2.44-4.75-4.76-7-6.94C737.12,196.15,739.68,193.29,742.32,190.54Zm.09,27.2c2.47,2.7,5,5.53,7.48,8.48-2.21,2.65-4.4,5.4-6.55,8.21-2.54-2.65-5-5.12-7.38-7.41,2.09-3.22,4.23-6.31,6.45-9.28ZM744,246.49c1.93,2.2,3.85,4.51,5.82,6.92-1.91,2.43-3.82,4.93-5.71,7.55-2-2-4-4-5.87-5.79,1.85-2.95,3.8-5.85,5.76-8.68Zm1.16,26.83c1.54,1.75,3.1,3.57,4.64,5.47-2.49,3.14-5,6.46-7.41,9.93-1.37-1.54-2.68-3.05-4-4.48,2.19-3.79,4.45-7.43,6.74-10.92Zm-1.77,28.31c2.19,2.69,4.39,5.52,6.6,8.44-2.28,3.1-4.55,6.28-6.78,9.6q-3.12-3.78-6.09-7.17,3-5.62,6.26-10.87Zm5,24.38q3.18-4.86,6.43-9.42,3.27,4.56,6.43,9.42c-2.12,2.71-4.27,5.55-6.43,8.48-2.15-2.93-4.31-5.77-6.43-8.48Zm17.21,6.87c1.8,2.95,3.53,6,5.25,9-1.93,2.25-3.89,4.67-5.89,7.3-1.78-2.76-3.59-5.47-5.41-8.09,2-2.84,4.05-5.59,6.05-8.24Zm-6-22.81c2.23-2.94,4.42-5.76,6.61-8.46,2.15,3.48,4.26,7.12,6.27,10.87-2,2.26-4,4.66-6.11,7.18q-3.35-5-6.77-9.59Zm7.62-21.37q-3.65-5.2-7.39-9.91c1.54-1.89,3.1-3.7,4.63-5.47,2.29,3.5,4.55,7.13,6.74,10.89-1.29,1.46-2.64,3-4,4.49Zm-7.42-35.29q2.91-3.61,5.81-6.92,3,4.24,5.75,8.68c-1.91,1.81-3.86,3.75-5.85,5.79C763.61,258.34,761.7,255.84,759.79,253.41Zm-.06-27.19q3.76-4.42,7.49-8.48c2.21,3,4.36,6.06,6.42,9.29-2.36,2.27-4.83,4.74-7.37,7.39-2.14-2.8-4.33-5.55-6.54-8.2Zm.41-28.88c2.4-2.4,4.82-4.67,7.18-6.8,2.63,2.75,5.2,5.61,7.69,8.66-2.24,2.19-4.59,4.49-7,7q-3.91-4.65-7.86-8.81Zm7.65-16.9q-3.54-3.3-7.13-6.29c1.67-1.29,3.35-2.53,5-3.71,2.26,2,4.52,4.17,6.74,6.37-1.51,1.15-3,2.36-4.61,3.63Zm-7.06-23.59c2.33-1.71,4.61-3.32,6.87-4.87,1.95,1.62,3.87,3.27,5.8,5-2.28,1.35-4.64,2.81-7.06,4.38-1.88-1.55-3.73-3.06-5.61-4.52Zm7.43-13.66c-2.38-1.86-4.75-3.6-7.09-5.29,2.55-1.68,5.09-3.25,7.55-4.72,2.49,1.6,5,3.29,7.57,5.09-2.58,1.51-5.24,3.16-8,4.92Zm-6.29,4.17q-3.47,2.35-7,5c-2.38-1.75-4.71-3.42-7-5,2.39-1.83,4.72-3.55,7.05-5.22,2.31,1.65,4.66,3.37,7,5.22Zm-20.39-4.17c-2.77-1.76-5.45-3.41-8-4.92,2.55-1.8,5.09-3.51,7.58-5.11q3.71,2.21,7.57,4.73-3.55,2.52-7.13,5.3Zm-16.59,24.92q3-3.2,6.08-6.15c2.21,1.3,4.47,2.72,6.78,4.24-2.21,2-4.4,4-6.57,6.16C729,170.8,726.87,169.39,724.89,168.11ZM732.12,182c1.48,1.14,3,2.35,4.47,3.6-2.56,2.64-5.08,5.4-7.51,8.31-1.46-1.34-2.83-2.6-4.14-3.77q3.46-4.24,7.18-8.14Zm-8.91,33.61c2.17-3.7,4.5-7.22,6.93-10.58q3.35,3.25,6.84,6.91c-2.35,3.06-4.66,6.26-6.89,9.62C727.6,219.34,725.31,217.37,723.21,215.63Zm3,28.79c1.8-3.77,3.74-7.38,5.76-10.86q3.31,3.3,6.8,7-3.24,4.49-6.29,9.18c-2.23-2-4.35-3.75-6.27-5.35Zm2,28.94c1.91-3.94,4-7.82,6.15-11.62,1.79,1.76,3.57,3.61,5.41,5.56-2.35,3.47-4.67,7.09-6.93,10.86Q730.35,275.58,728.15,273.36Zm6.43,17.79c1.15,1.3,2.33,2.65,3.5,4-2.26,3.51-4.48,7.16-6.6,11l-2.86-3.06C730.53,299,732.53,295,734.58,291.15ZM728.53,331c1.54-3.89,3.21-7.63,5-11.29q2.65,3.13,5.41,6.57-2.91,4.59-5.71,9.4C731.56,334,730,332.43,728.53,331Zm7.1,33.37c-1.51-2.54-3-4.92-4.57-7.13,1.22-2.69,2.52-5.36,3.83-8q2.63,3.3,5.35,7.09C738.66,359,737.14,361.68,735.63,364.4Zm19.18-.23c-1.72-2.84-3.45-5.55-5.18-8.09q2.55-4.14,5.18-8.09c1.75,2.63,3.49,5.33,5.19,8.09C758.26,358.62,756.53,361.33,754.81,364.17Zm10.1,19.48-.48-1c-1.61-3.63-3.31-7.06-5-10.36,1.66-3,3.38-5.87,5.11-8.59,1.7,3,3.37,6.07,5,9.2-1.44,3-2.8,6.13-4.05,9.46-.17.44-.35.89-.51,1.33ZM774,364.4q-2.26-4.09-4.61-8c1.8-2.53,3.57-4.9,5.34-7.1,1.33,2.63,2.61,5.3,3.82,8-1.53,2.2-3,4.57-4.56,7.12Zm10-25.68c.9,2.55,1.76,5.15,2.53,7.81l.54-.08c-.95,1.08-1.95,2.27-3,3.55-1.22-2.46-2.45-4.9-3.73-7.29,1.24-1.42,2.49-2.76,3.66-4Zm-7.55-3c-1.84-3.21-3.75-6.35-5.69-9.4,1.82-2.29,3.64-4.48,5.41-6.57,1.75,3.65,3.4,7.39,5,11.29-1.47,1.42-3.05,3-4.68,4.68ZM781,303.09c-.93,1-1.87,2-2.85,3.06-2.12-3.8-4.35-7.46-6.61-11,1.18-1.38,2.35-2.73,3.51-4,2,3.85,4,7.83,5.95,11.94Zm.48-29.73c-1.48,1.49-3,3.09-4.65,4.79q-3.39-5.65-6.92-10.84c1.82-2,3.65-3.8,5.42-5.56,2.17,3.8,4.23,7.68,6.14,11.61Zm-4.31-23.56q-3-4.7-6.29-9.18,3.5-3.76,6.79-7.05c2,3.49,4,7.09,5.77,10.86-1.93,1.59-4.05,3.39-6.28,5.37Zm9.25-34.16q-3.16,2.6-6.87,5.93c-2.25-3.35-4.56-6.56-6.9-9.62q3.51-3.63,6.85-6.91c2.41,3.37,4.74,6.91,6.91,10.59Zm-1.74-25.49c-1.31,1.18-2.69,2.43-4.13,3.77-2.44-2.91-5-5.69-7.52-8.31,1.53-1.25,3-2.46,4.47-3.61,2.45,2.63,4.87,5.33,7.18,8.14Zm-6.24-17.79c-2.17-2.13-4.38-4.2-6.57-6.16,2.33-1.52,4.59-2.94,6.78-4.24q3.08,3,6.08,6.15C782.77,169.39,780.65,170.8,778.46,172.36Zm11-23.87c-2.77,1.3-5.92,2.88-9.34,4.73-2.07-1.87-4.11-3.66-6.2-5.4,2.91-1.86,5.69-3.55,8.34-5.11,2.38,1.82,4.78,3.76,7.2,5.78ZM784.1,124.8c2.39,1.64,4.82,3.39,7.26,5.24-2.47,1.23-5.29,2.69-8.38,4.38q-3.81-2.74-7.51-5.13c3-1.67,5.92-3.16,8.63-4.48Zm-12.42-7.89c2,1.13,3.91,2.32,5.92,3.61-2.78,1.37-5.71,2.89-8.76,4.58-2.27-1.36-4.5-2.65-6.67-3.86,3.47-1.71,6.67-3.14,9.51-4.33ZM754.81,125c2.31,1.25,4.7,2.6,7.15,4.06q-3.5,2.11-7.15,4.54c-2.42-1.62-4.82-3.12-7.15-4.54Q751.35,126.89,754.81,125ZM738,116.91c2.82,1.19,6,2.64,9.46,4.33-2.15,1.2-4.4,2.5-6.67,3.87-3-1.7-6-3.21-8.75-4.58,2-1.28,4-2.49,6-3.62Zm-12.42,7.9c2.7,1.31,5.59,2.8,8.62,4.45q-3.74,2.43-7.54,5.15c-3.08-1.68-5.9-3.14-8.37-4.37,2.45-1.85,4.89-3.58,7.29-5.23Z" transform="translate(-30.01 -107.45)"/></g></g></g></svg>