<svg id="Group_227" data-name="Group 227" xmlns="http://www.w3.org/2000/svg" xmlns:xlink="http://www.w3.org/1999/xlink"  viewBox="0 0 1921 487.469">
  <defs>
    <linearGradient id="linear-gradient" x1="0.427" y1="-0.054" x2="0.819" y2="1.562" gradientUnits="objectBoundingBox">
      <stop offset="0" stop-color="#9a4794"/>
      <stop offset="0.075" stop-color="#ae6ca9"/>
      <stop offset="0.167" stop-color="#c393c0"/>
      <stop offset="0.266" stop-color="#d6b4d3"/>
      <stop offset="0.371" stop-color="#e5cfe3"/>
      <stop offset="0.485" stop-color="#f0e4ef"/>
      <stop offset="0.612" stop-color="#f8f3f8"/>
      <stop offset="0.762" stop-color="#fdfcfd"/>
      <stop offset="0.996" stop-color="#fff"/>
    </linearGradient>
    <linearGradient id="linear-gradient-2" x1="0.887" y1="0.946" x2="0.148" y2="0.291" xlink:href="#linear-gradient"/>
  </defs>
  <path id="Path_1352" data-name="Path 1352" d="M1250.947,10.587V435.682a1433.593,1433.593,0,0,1-416.133-42.458c-.154-.036-.281-.069-.435-.1-14.867-3.844-13.665-33.018,1.433-34.8q64.139-7.566,128.254-15.169a17.717,17.717,0,0,0,10.927-5.425c15.635-16.405-5.22-46.473-23.644-55.02-148.393-68.886-312.215-5.149-468.208-29.655-21.06-3.329-45.037-11.119-54.48-36.623,0-97.237,237.136-32.708,292.537-27.629,19.038,1.75,44.858-3.672,46.521-29.174,1.51-23.169-19.269-35.9-36.158-41.086A774.726,774.726,0,0,0,611.316,91.864c-5.988-.824-11.669-4.463-15.482-10.709-14.279-23.34,13.255-49.254,34.6-54.436C811.937-17.489,998.611,28.983,1182.8,15.6,1205.193,13.986,1228.122,11.616,1250.947,10.587Z" transform="translate(670.053 -7.158)" fill="url(#linear-gradient)" style="mix-blend-mode: multiply;isolation: isolate"/>
  <path id="Path_1353" data-name="Path 1353" d="M382.919,246.556c69.782,38.921,236.5-25.385,308.556,29.172,93.017,70.422-168.787,64.1-239.746,62.515-47.238-1.049-106.963-3.813-149.237,7.8-74.8,20.6-18.5,34.187,40.2,36.439,45.319,1.74,124.364-8.01,136.058,20.19,14.228,34.315-109.7,36.081-155.813,39.663C215.436,450.682,108.217,455.518,0,457.207V32.808c33.317-1.1,66.174-1.817,96.523-1.612,128.51.844,254.332,14.228,382,18.322,95.832,3.071,213.441.154,302.875,20.574,41.378,9.442,135.6,32.038,150.465,54.71,36.669,55.836-250.7,67.735-324.268,69.731C565.549,195.684,307.481,204.487,382.919,246.556Z" transform="translate(0 30.262)" fill="url(#linear-gradient-2)" style="mix-blend-mode: multiply;isolation: isolate"/>
</svg>
