<svg id="Layer_1" data-name="Layer 1" xmlns="http://www.w3.org/2000/svg" xmlns:xlink="http://www.w3.org/1999/xlink" viewBox="0 0 637.97 362.89"><defs><style>.cls-1,.cls-10,.cls-100,.cls-101,.cls-102,.cls-103,.cls-104,.cls-105,.cls-106,.cls-107,.cls-108,.cls-109,.cls-11,.cls-110,.cls-111,.cls-112,.cls-113,.cls-114,.cls-115,.cls-116,.cls-117,.cls-118,.cls-119,.cls-12,.cls-120,.cls-121,.cls-122,.cls-123,.cls-124,.cls-125,.cls-126,.cls-127,.cls-128,.cls-129,.cls-13,.cls-130,.cls-131,.cls-132,.cls-136,.cls-138,.cls-139,.cls-14,.cls-140,.cls-141,.cls-142,.cls-143,.cls-15,.cls-16,.cls-17,.cls-18,.cls-19,.cls-2,.cls-20,.cls-21,.cls-22,.cls-23,.cls-24,.cls-25,.cls-26,.cls-27,.cls-28,.cls-29,.cls-3,.cls-30,.cls-31,.cls-37,.cls-38,.cls-39,.cls-4,.cls-40,.cls-41,.cls-42,.cls-43,.cls-44,.cls-45,.cls-46,.cls-47,.cls-48,.cls-49,.cls-5,.cls-50,.cls-51,.cls-52,.cls-53,.cls-54,.cls-55,.cls-56,.cls-57,.cls-58,.cls-59,.cls-6,.cls-60,.cls-61,.cls-62,.cls-63,.cls-64,.cls-65,.cls-66,.cls-67,.cls-68,.cls-69,.cls-7,.cls-70,.cls-71,.cls-72,.cls-73,.cls-74,.cls-75,.cls-76,.cls-77,.cls-78,.cls-79,.cls-8,.cls-80,.cls-81,.cls-82,.cls-83,.cls-84,.cls-85,.cls-86,.cls-87,.cls-88,.cls-89,.cls-90,.cls-91,.cls-92,.cls-93,.cls-94,.cls-95,.cls-96,.cls-97,.cls-98,.cls-99{fill-rule:evenodd;}.cls-1{fill:url(#linear-gradient);}.cls-2{fill:#e3c1dc;}.cls-3{fill:url(#linear-gradient-2);}.cls-4{fill:url(#linear-gradient-3);}.cls-5{fill:url(#linear-gradient-4);}.cls-6{fill:url(#linear-gradient-5);}.cls-7{fill:url(#linear-gradient-6);}.cls-8{fill:#f9bab4;}.cls-9{fill:#fde0d1;}.cls-10{fill:url(#linear-gradient-7);}.cls-11{fill:url(#linear-gradient-8);}.cls-12{fill:url(#linear-gradient-9);}.cls-13{fill:url(#linear-gradient-10);}.cls-14{fill:url(#linear-gradient-11);}.cls-15{fill:url(#linear-gradient-12);}.cls-16{fill:url(#linear-gradient-13);}.cls-17{fill:url(#radial-gradient);}.cls-18{fill:url(#radial-gradient-2);}.cls-19{fill:url(#radial-gradient-3);}.cls-20{fill:url(#radial-gradient-4);}.cls-21{fill:url(#radial-gradient-5);}.cls-22{fill:url(#radial-gradient-6);}.cls-23{fill:url(#radial-gradient-7);}.cls-24{fill:url(#radial-gradient-8);}.cls-25{fill:url(#radial-gradient-9);}.cls-26{fill:url(#radial-gradient-10);}.cls-27{fill:url(#linear-gradient-14);}.cls-28{fill:url(#linear-gradient-15);}.cls-29{fill:url(#radial-gradient-11);}.cls-30{fill:url(#radial-gradient-12);}.cls-31{fill:#dbb0d2;}.cls-32{fill:#ffdbab;}.cls-33{fill:url(#linear-gradient-16);}.cls-34{fill:#fdfbdc;}.cls-35{fill:url(#linear-gradient-17);}.cls-112,.cls-116,.cls-121,.cls-122,.cls-123,.cls-36,.cls-37,.cls-61{opacity:0.5;}.cls-101,.cls-112,.cls-116,.cls-121,.cls-122,.cls-123,.cls-36,.cls-37,.cls-61{isolation:isolate;}.cls-36{fill:url(#linear-gradient-18);}.cls-37{fill:#84a4cc;}.cls-38{fill:url(#linear-gradient-19);}.cls-39{fill:url(#linear-gradient-20);}.cls-40{fill:url(#linear-gradient-21);}.cls-41{fill:url(#linear-gradient-22);}.cls-42{fill:url(#linear-gradient-23);}.cls-43{fill:url(#linear-gradient-24);}.cls-44{fill:#fdc58b;}.cls-45{fill:url(#linear-gradient-25);}.cls-46{fill:url(#linear-gradient-26);}.cls-47{fill:#ffe094;}.cls-48{fill:url(#linear-gradient-27);}.cls-49{fill:url(#linear-gradient-28);}.cls-50{fill:url(#linear-gradient-29);}.cls-51{fill:url(#linear-gradient-30);}.cls-52{fill:url(#linear-gradient-31);}.cls-53{fill:url(#linear-gradient-32);}.cls-54{fill:url(#linear-gradient-33);}.cls-55{fill:url(#linear-gradient-34);}.cls-56{fill:url(#linear-gradient-35);}.cls-57{fill:url(#linear-gradient-36);}.cls-58{fill:url(#linear-gradient-37);}.cls-59{fill:url(#linear-gradient-38);}.cls-60{fill:url(#linear-gradient-39);}.cls-61{fill:url(#linear-gradient-40);}.cls-62{fill:url(#linear-gradient-41);}.cls-63{fill:url(#linear-gradient-42);}.cls-64{fill:url(#linear-gradient-43);}.cls-65{fill:url(#linear-gradient-44);}.cls-66{fill:#fcc7a1;}.cls-67{fill:url(#linear-gradient-45);}.cls-68{fill:url(#linear-gradient-46);}.cls-69{fill:url(#linear-gradient-47);}.cls-70{fill:url(#linear-gradient-48);}.cls-71{fill:url(#linear-gradient-49);}.cls-72{fill:url(#linear-gradient-50);}.cls-73{fill:url(#linear-gradient-51);}.cls-74{fill:url(#linear-gradient-52);}.cls-75{fill:url(#linear-gradient-53);}.cls-76{fill:url(#linear-gradient-54);}.cls-77{fill:url(#linear-gradient-55);}.cls-78{fill:url(#linear-gradient-56);}.cls-79{fill:url(#linear-gradient-57);}.cls-80{fill:url(#linear-gradient-58);}.cls-81{fill:url(#linear-gradient-59);}.cls-82{fill:url(#linear-gradient-60);}.cls-83{fill:url(#linear-gradient-61);}.cls-84{fill:url(#linear-gradient-62);}.cls-85{fill:url(#linear-gradient-63);}.cls-86{fill:url(#linear-gradient-64);}.cls-87{fill:url(#linear-gradient-65);}.cls-88{fill:url(#linear-gradient-66);}.cls-89{fill:url(#linear-gradient-67);}.cls-90{fill:url(#linear-gradient-68);}.cls-91{fill:url(#linear-gradient-69);}.cls-92{fill:#722d59;}.cls-93{fill:url(#linear-gradient-70);}.cls-94{fill:url(#linear-gradient-71);}.cls-95{fill:url(#linear-gradient-72);}.cls-96{fill:url(#linear-gradient-73);}.cls-97{fill:url(#linear-gradient-74);}.cls-98{fill:url(#linear-gradient-75);}.cls-99{fill:url(#linear-gradient-76);}.cls-100{fill:url(#linear-gradient-77);}.cls-101{opacity:0.63;fill:url(#linear-gradient-78);}.cls-102{fill:url(#linear-gradient-79);}.cls-103{fill:url(#linear-gradient-80);}.cls-104{fill:url(#linear-gradient-81);}.cls-105{fill:url(#linear-gradient-82);}.cls-106{fill:url(#linear-gradient-83);}.cls-107{fill:url(#linear-gradient-84);}.cls-108{fill:url(#linear-gradient-85);}.cls-109{fill:url(#linear-gradient-86);}.cls-110{fill:url(#linear-gradient-87);}.cls-111{fill:url(#linear-gradient-88);}.cls-112{fill:url(#linear-gradient-89);}.cls-113{fill:url(#linear-gradient-90);}.cls-114{fill:url(#linear-gradient-91);}.cls-115{fill:url(#linear-gradient-92);}.cls-116{fill:url(#linear-gradient-93);}.cls-117{fill:url(#linear-gradient-94);}.cls-118{fill:url(#linear-gradient-95);}.cls-119{fill:url(#linear-gradient-96);}.cls-120{fill:url(#linear-gradient-97);}.cls-121{fill:url(#linear-gradient-98);}.cls-122{fill:url(#linear-gradient-99);}.cls-123{fill:url(#linear-gradient-100);}.cls-124{fill:#853c59;}.cls-125{fill:url(#linear-gradient-101);}.cls-126{fill:url(#linear-gradient-102);}.cls-127{fill:url(#linear-gradient-103);}.cls-128{fill:#efa6a9;}.cls-129{fill:url(#linear-gradient-104);}.cls-130{fill:url(#linear-gradient-105);}.cls-131{fill:url(#linear-gradient-106);}.cls-132{fill:url(#linear-gradient-107);}.cls-133{fill:url(#linear-gradient-108);}.cls-134{fill:url(#linear-gradient-109);}.cls-135{fill:url(#linear-gradient-110);}.cls-136{fill:url(#linear-gradient-111);}.cls-137{fill:url(#linear-gradient-112);}.cls-138{fill:url(#linear-gradient-113);}.cls-139{fill:url(#radial-gradient-13);}.cls-140{fill:url(#radial-gradient-14);}.cls-141{fill:url(#linear-gradient-114);}.cls-142{fill:url(#linear-gradient-115);}.cls-143{fill:url(#linear-gradient-116);}.cls-144{fill:url(#linear-gradient-117);}</style><linearGradient id="linear-gradient" x1="-0.57" y1="595.02" x2="-0.57" y2="595.51" gradientTransform="matrix(55.81, 0, 0, -172.94, 354.85, 103109.08)" gradientUnits="userSpaceOnUse"><stop offset="0.03" stop-color="#fabfb7"/><stop offset="1" stop-color="#fff0d2"/></linearGradient><linearGradient id="linear-gradient-2" x1="0.61" y1="595.4" x2="0.61" y2="595.91" gradientTransform="matrix(131.12, 0, 0, -28.78, 244.16, 17350.23)" gradientUnits="userSpaceOnUse"><stop offset="0" stop-color="#d84880"/><stop offset="1" stop-color="#ea9f95"/></linearGradient><linearGradient id="linear-gradient-3" x1="0.38" y1="595.52" x2="0.38" y2="596.01" gradientTransform="matrix(116.76, 0, 0, -469.41, 293.9, 279984.42)" xlink:href="#linear-gradient"/><linearGradient id="linear-gradient-4" x1="-0.24" y1="595.51" x2="-0.16" y2="596.01" gradientTransform="matrix(52.95, 0, 0, -472.95, 307.94, 282097.23)" xlink:href="#linear-gradient-2"/><linearGradient id="linear-gradient-5" x1="0.17" y1="595.6" x2="0.17" y2="596.1" gradientTransform="matrix(94.65, 0, 0, -17.75, 317.11, 10786.81)" xlink:href="#linear-gradient"/><linearGradient id="linear-gradient-6" x1="-0.42" y1="595.35" x2="-0.42" y2="595.84" gradientTransform="matrix(65.25, 0, 0, -15.07, 359.9, 9183.84)" xlink:href="#linear-gradient"/><linearGradient id="linear-gradient-7" x1="1.75" y1="593.88" x2="1.75" y2="594.38" gradientTransform="matrix(103.68, 0, 0, -46.82, 0.85, 27958.57)" xlink:href="#linear-gradient"/><linearGradient id="linear-gradient-8" x1="2.45" y1="594.11" x2="2.46" y2="594.62" gradientTransform="matrix(74.34, 0, 0, -54.69, -44.14, 32647.3)" xlink:href="#linear-gradient-2"/><linearGradient id="linear-gradient-9" x1="1.92" y1="594.59" x2="1.42" y2="594.59" gradientTransform="matrix(247.82, 0, 0, -47.8, -246.88, 28585.36)" gradientUnits="userSpaceOnUse"><stop offset="0" stop-color="#d84880"/><stop offset="1" stop-color="#e96360"/></linearGradient><linearGradient id="linear-gradient-10" x1="1.75" y1="594.8" x2="1.75" y2="595.3" gradientTransform="matrix(162.6, 0, 0, -66.86, -116, 39957.98)" xlink:href="#linear-gradient"/><linearGradient id="linear-gradient-11" x1="2.58" y1="594.81" x2="2.59" y2="595.31" gradientTransform="matrix(64.55, 0, 0, -67.95, -27.01, 40612.39)" xlink:href="#linear-gradient-2"/><linearGradient id="linear-gradient-12" x1="1.62" y1="593.58" x2="1.62" y2="594.07" gradientTransform="matrix(153.2, 0, 0, -31.86, -57.63, 19072.19)" xlink:href="#linear-gradient"/><linearGradient id="linear-gradient-13" x1="2.35" y1="594.12" x2="2.36" y2="594.63" gradientTransform="matrix(94.62, 0, 0, -44.56, -93.68, 26640.2)" xlink:href="#linear-gradient-2"/><radialGradient id="radial-gradient" cx="3.98" cy="594.89" r="1.14" gradientTransform="translate(429.2 36222.6) rotate(180) scale(53.11 60.6)" gradientUnits="userSpaceOnUse"><stop offset="0.01" stop-color="#31a7a6"/><stop offset="1" stop-color="#19638c"/></radialGradient><radialGradient id="radial-gradient-2" cx="5.18" cy="594.87" r="1.14" gradientTransform="translate(495.03 36531.43) rotate(180) scale(53.56 61.12)" xlink:href="#radial-gradient"/><radialGradient id="radial-gradient-3" cx="6.46" cy="594.86" r="1.12" gradientTransform="translate(568.63 37058.34) rotate(180) scale(54.35 62.01)" xlink:href="#radial-gradient"/><radialGradient id="radial-gradient-4" cx="7.77" cy="594.83" r="1.12" gradientTransform="translate(642.98 37335.69) rotate(180) scale(54.76 62.48)" xlink:href="#radial-gradient"/><radialGradient id="radial-gradient-5" cx="9.11" cy="594.8" r="1.12" gradientTransform="translate(716.51 37331.42) rotate(180) scale(54.76 62.47)" xlink:href="#radial-gradient"/><radialGradient id="radial-gradient-6" cx="-3.9" cy="594.77" r="0.59" gradientTransform="translate(-103.46 37923.93) rotate(180) scale(55.6 63.45)" xlink:href="#radial-gradient"/><radialGradient id="radial-gradient-7" cx="-5.1" cy="594.72" r="0.59" gradientTransform="translate(-170.44 37933.6) rotate(180) scale(55.65 63.47)" xlink:href="#radial-gradient"/><radialGradient id="radial-gradient-8" cx="-6.39" cy="594.66" r="0.59" gradientTransform="translate(-241.55 37914.32) rotate(180) scale(55.6 63.44)" xlink:href="#radial-gradient"/><radialGradient id="radial-gradient-9" cx="-7.71" cy="594.6" r="0.59" gradientTransform="translate(-315.17 37909.83) rotate(180) scale(55.6 63.44)" xlink:href="#radial-gradient"/><radialGradient id="radial-gradient-10" cx="-9.03" cy="594.55" r="0.59" gradientTransform="translate(-388.8 37907.19) rotate(180) scale(55.6 63.44)" xlink:href="#radial-gradient"/><linearGradient id="linear-gradient-14" x1="1.62" y1="595.48" x2="1.62" y2="595.97" gradientTransform="matrix(147.96, 0, 0, -551.82, -47.15, 329060.47)" xlink:href="#linear-gradient"/><linearGradient id="linear-gradient-15" x1="2.24" y1="595.48" x2="2.29" y2="595.97" gradientTransform="matrix(104.39, 0, 0, -551.82, -101.87, 329060.5)" xlink:href="#linear-gradient-2"/><radialGradient id="radial-gradient-11" cx="2.06" cy="595.92" r="0.23" gradientTransform="translate(1329.55 366966.69) rotate(180) scale(539.42 615.43)" gradientUnits="userSpaceOnUse"><stop offset="0" stop-color="#e4ecad"/><stop offset="1" stop-color="#1a88a9"/></radialGradient><radialGradient id="radial-gradient-12" cx="1.67" cy="595.8" r="0.17" gradientTransform="translate(1040.53 365506.54) rotate(180) scale(537.29 613)" xlink:href="#radial-gradient"/><linearGradient id="linear-gradient-16" x1="1.92" y1="595.72" x2="1.42" y2="595.72" gradientTransform="matrix(96.84, 0, 0, -215.04, 31.07, 128354.38)" gradientUnits="userSpaceOnUse"><stop offset="0" stop-color="#fcf9ce"/><stop offset="1" stop-color="#aed4b3"/></linearGradient><linearGradient id="linear-gradient-17" x1="3.59" y1="596.18" x2="3.59" y2="596.68" gradientTransform="matrix(42.18, 0, 0, -222.21, -29.64, 132940.37)" gradientUnits="userSpaceOnUse"><stop offset="0" stop-color="#84a4cc"/><stop offset="1" stop-color="#feeae7"/></linearGradient><linearGradient id="linear-gradient-18" x1="1.71" y1="596.65" x2="1.71" y2="597.15" gradientTransform="matrix(89.19, 0, 0, -157.18, 38.01, 94245.73)" xlink:href="#linear-gradient-17"/><linearGradient id="linear-gradient-19" x1="-5.95" y1="595.67" x2="-5.95" y2="596.18" gradientTransform="matrix(27.65, 0, 0, -39.2, 576.84, 23567.13)" gradientUnits="userSpaceOnUse"><stop offset="0.03" stop-color="#dd897c"/><stop offset="1" stop-color="#fff0d2"/></linearGradient><linearGradient id="linear-gradient-20" x1="-4.13" y1="597.6" x2="-4.13" y2="598.1" gradientTransform="matrix(35.22, 0, 0, -50.91, 550.46, 30762.16)" xlink:href="#linear-gradient-9"/><linearGradient id="linear-gradient-21" x1="-4.38" y1="597.82" x2="-4.88" y2="597.82" gradientTransform="matrix(34.93, 0, 0, -51.55, 582.25, 31143.6)" gradientUnits="userSpaceOnUse"><stop offset="0" stop-color="#fcb972"/><stop offset="0.97" stop-color="#f58573"/></linearGradient><linearGradient id="linear-gradient-22" x1="-4.91" y1="595.65" x2="-4.91" y2="596.15" gradientTransform="matrix(30.95, 0, 0, -164.68, 557.22, 98401.3)" xlink:href="#linear-gradient-9"/><linearGradient id="linear-gradient-23" x1="-4.93" y1="595.65" x2="-4.93" y2="596.15" gradientTransform="matrix(33.23, 0, 0, -166.1, 583.94, 99246.43)" gradientUnits="userSpaceOnUse"><stop offset="0.03" stop-color="#f58573"/><stop offset="1" stop-color="#fcb972"/></linearGradient><linearGradient id="linear-gradient-24" x1="-2.76" y1="597.4" x2="-2.76" y2="597.9" gradientTransform="matrix(48.38, 0, 0, -25.43, 546.58, 15459.58)" xlink:href="#linear-gradient-9"/><linearGradient id="linear-gradient-25" x1="-3.13" y1="596.57" x2="-3.13" y2="597.07" gradientTransform="matrix(44.51, 0, 0, -23.12, 551.51, 14020.36)" xlink:href="#linear-gradient-23"/><linearGradient id="linear-gradient-26" x1="-3.13" y1="596.56" x2="-3.13" y2="597.07" gradientTransform="matrix(44.51, 0, 0, -23.26, 551.5, 14101.42)" xlink:href="#linear-gradient-9"/><linearGradient id="linear-gradient-27" x1="-14.26" y1="594.01" x2="-14.26" y2="594.5" gradientTransform="matrix(28.22, 0, 0, -40.51, 1051, 24226.68)" xlink:href="#linear-gradient-19"/><linearGradient id="linear-gradient-28" x1="-12.76" y1="594.73" x2="-12.76" y2="595.23" gradientTransform="matrix(31.27, 0, 0, -44.92, 1048.93, 26909.3)" xlink:href="#linear-gradient-23"/><linearGradient id="linear-gradient-29" x1="-32.12" y1="594.53" x2="-32.12" y2="595.03" gradientTransform="matrix(13.13, 0, 0, -35.41, 1067.07, 21238.36)" xlink:href="#linear-gradient-9"/><linearGradient id="linear-gradient-30" x1="-8.25" y1="596.99" x2="-8.25" y2="597.48" gradientTransform="matrix(44.81, 0, 0, -64.75, 1010.97, 38988.2)" xlink:href="#linear-gradient-9"/><linearGradient id="linear-gradient-31" x1="-8.54" y1="597.21" x2="-9.03" y2="597.21" gradientTransform="matrix(44.44, 0, 0, -65.6, 1051.38, 39492.42)" xlink:href="#linear-gradient-21"/><linearGradient id="linear-gradient-32" x1="-2.69" y1="596.02" x2="-2.69" y2="596.51" gradientTransform="matrix(81.52, 0, 0, -98.51, 765.91, 59018.31)" xlink:href="#linear-gradient"/><linearGradient id="linear-gradient-33" x1="-2.2" y1="596.02" x2="-2.2" y2="596.51" gradientTransform="matrix(81.52, 0, 0, -98.51, 686.11, 59018.31)" xlink:href="#linear-gradient"/><linearGradient id="linear-gradient-34" x1="0.02" y1="596.65" x2="0.02" y2="597.15" gradientTransform="matrix(217.12, 0, 0, -83.03, 521.3, 49881.76)" xlink:href="#linear-gradient-23"/><linearGradient id="linear-gradient-35" x1="1.02" y1="599.11" x2="1.02" y2="599.6" gradientTransform="matrix(652.8, 0, 0, -35.43, -151.25, 21572.35)" xlink:href="#linear-gradient-9"/><linearGradient id="linear-gradient-36" x1="0.86" y1="601.68" x2="0.86" y2="602.17" gradientTransform="matrix(532.72, 0, 0, -20.68, 88.9, 12784.32)" gradientUnits="userSpaceOnUse"><stop offset="0.03" stop-color="#f58573"/><stop offset="1" stop-color="#f68f6e"/></linearGradient><linearGradient id="linear-gradient-37" x1="0.85" y1="596.1" x2="0.85" y2="596.6" gradientTransform="matrix(522.79, 0, 0, -238.19, 96.09, 142449.08)" gradientUnits="userSpaceOnUse"><stop offset="0.03" stop-color="#f58573"/><stop offset="1" stop-color="#f7996d"/></linearGradient><linearGradient id="linear-gradient-38" x1="-10.33" y1="596.45" x2="-10.83" y2="596.45" gradientTransform="matrix(33.51, 0, 0, -212.83, 963.84, 127346.02)" xlink:href="#linear-gradient-9"/><linearGradient id="linear-gradient-39" x1="0.11" y1="596.06" x2="0.11" y2="596.56" gradientTransform="matrix(249.26, 0, 0, -246.31, 523.35, 147281.67)" xlink:href="#linear-gradient-23"/><linearGradient id="linear-gradient-40" x1="-0.5" y1="596.12" x2="-0.5" y2="596.62" gradientTransform="matrix(160.27, 0, 0, -88.75, 605.07, 53205.68)" gradientUnits="userSpaceOnUse"><stop offset="0" stop-color="#edacb3"/><stop offset="1" stop-color="#feeae7"/></linearGradient><linearGradient id="linear-gradient-41" x1="-5.22" y1="596.06" x2="-5.22" y2="596.56" gradientTransform="matrix(41.19, 0, 0, -246.31, 697.27, 147281.67)" xlink:href="#linear-gradient-9"/><linearGradient id="linear-gradient-42" x1="0.01" y1="596.1" x2="0.01" y2="596.6" gradientTransform="matrix(121.04, 0, 0, -238.19, 385.25, 142449.08)" xlink:href="#linear-gradient-9"/><linearGradient id="linear-gradient-43" x1="0.31" y1="598.68" x2="0.31" y2="599.18" gradientTransform="matrix(283.41, 0, 0, -38.59, 455.05, 23446.52)" gradientUnits="userSpaceOnUse"><stop offset="0" stop-color="#e96360"/><stop offset="1" stop-color="#e56881"/></linearGradient><linearGradient id="linear-gradient-44" x1="0.34" y1="600.22" x2="-0.16" y2="600.22" gradientTransform="matrix(245.72, 0, 0, -27.49, 530.44, 16833.29)" xlink:href="#linear-gradient-21"/><linearGradient id="linear-gradient-45" x1="-54.1" y1="596.09" x2="-54.1" y2="596.58" gradientTransform="matrix(5.78, 0, 0, -47.28, 839.61, 28437.09)" gradientUnits="userSpaceOnUse"><stop offset="0" stop-color="#eaa295"/><stop offset="1" stop-color="#e56881"/></linearGradient><linearGradient id="linear-gradient-46" x1="-31.86" y1="598.19" x2="-31.86" y2="598.69" gradientTransform="matrix(10.77, 0, 0, -31.01, 907.4, 18855.69)" xlink:href="#linear-gradient-23"/><linearGradient id="linear-gradient-47" x1="-25.3" y1="598.34" x2="-25.3" y2="598.84" gradientTransform="matrix(12.71, 0, 0, -28.8, 867.45, 17529.95)" xlink:href="#linear-gradient-23"/><linearGradient id="linear-gradient-48" x1="-19.61" y1="598.14" x2="-19.61" y2="598.64" gradientTransform="matrix(14.45, 0, 0, -30.58, 793.95, 18591.08)" xlink:href="#linear-gradient-23"/><linearGradient id="linear-gradient-49" x1="-20.36" y1="598.66" x2="-20.36" y2="599.16" gradientTransform="matrix(12.9, 0, 0, -27.15, 750.36, 16556.52)" xlink:href="#linear-gradient-23"/><linearGradient id="linear-gradient-50" x1="-71.75" y1="598.46" x2="-72.25" y2="598.46" gradientTransform="matrix(4.19, 0, 0, -29.76, 814.49, 18100.58)" xlink:href="#linear-gradient-43"/><linearGradient id="linear-gradient-51" x1="-89.85" y1="598.42" x2="-89.85" y2="598.92" gradientTransform="matrix(3.71, 0, 0, -28.02, 876.45, 17066.85)" xlink:href="#linear-gradient-43"/><linearGradient id="linear-gradient-52" x1="-7.01" y1="596.35" x2="-7.5" y2="596.35" gradientTransform="matrix(52.08, 0, 0, -238.19, 1037.52, 142450.86)" xlink:href="#linear-gradient-21"/><linearGradient id="linear-gradient-53" x1="-25.93" y1="596.1" x2="-25.93" y2="596.6" gradientTransform="matrix(16.08, 0, 0, -238.19, 1062.08, 142450.86)" gradientUnits="userSpaceOnUse"><stop offset="0" stop-color="#feeae7"/><stop offset="1" stop-color="#edacb3"/></linearGradient><linearGradient id="linear-gradient-54" x1="0.11" y1="596.05" x2="0.11" y2="596.55" gradientTransform="matrix(129.07, 0, 0, -249.29, 372.48, 149051.21)" xlink:href="#linear-gradient-53"/><linearGradient id="linear-gradient-55" x1="-1.37" y1="596.34" x2="-1.87" y2="596.34" gradientTransform="matrix(66.12, 0, 0, -240.36, 519.55, 143738.88)" gradientUnits="userSpaceOnUse"><stop offset="0" stop-color="#f9aa73"/><stop offset="0.97" stop-color="#f16067"/></linearGradient><linearGradient id="linear-gradient-56" x1="-9.6" y1="595.46" x2="-9.6" y2="595.96" gradientTransform="matrix(39.38, 0, 0, -209.53, 1019.54, 125070.12)" xlink:href="#linear-gradient-9"/><linearGradient id="linear-gradient-57" x1="-9.3" y1="595.46" x2="-9.3" y2="595.96" gradientTransform="matrix(42.29, 0, 0, -211.34, 1053.53, 126147.08)" xlink:href="#linear-gradient-23"/><linearGradient id="linear-gradient-58" x1="-5.77" y1="596.17" x2="-5.77" y2="596.67" gradientTransform="matrix(61.55, 0, 0, -32.34, 1006.03, 19523.64)" xlink:href="#linear-gradient-9"/><linearGradient id="linear-gradient-59" x1="-5.77" y1="594.85" x2="-5.77" y2="595.34" gradientTransform="matrix(61.55, 0, 0, -32.37, 1006, 19453.58)" xlink:href="#linear-gradient-9"/><linearGradient id="linear-gradient-60" x1="-8.29" y1="593.82" x2="-8.29" y2="594.31" gradientTransform="matrix(45.45, 0, 0, -25.32, 1026.08, 15210.17)" xlink:href="#linear-gradient-23"/><linearGradient id="linear-gradient-61" x1="-8.3" y1="593.82" x2="-8.3" y2="594.31" gradientTransform="matrix(45.45, 0, 0, -25.32, 1026.08, 15210.17)" xlink:href="#linear-gradient-9"/><linearGradient id="linear-gradient-62" x1="-168.83" y1="592.53" x2="-168.83" y2="593.03" gradientTransform="matrix(2.61, 0, 0, -24.22, 1088.11, 14498.27)" xlink:href="#linear-gradient-45"/><linearGradient id="linear-gradient-63" x1="-99.82" y1="594.98" x2="-99.82" y2="595.48" gradientTransform="matrix(2.03, 0, 0, -19.03, 615.23, 11527.3)" xlink:href="#linear-gradient-45"/><linearGradient id="linear-gradient-64" x1="-3.62" y1="596.27" x2="-3.62" y2="596.77" gradientTransform="matrix(73.81, 0, 0, -206.47, 849.74, 123575.08)" xlink:href="#linear-gradient-37"/><linearGradient id="linear-gradient-65" x1="-62.44" y1="596.27" x2="-62.44" y2="596.77" gradientTransform="matrix(6.18, 0, 0, -206.47, 985, 123575.08)" xlink:href="#linear-gradient-9"/><linearGradient id="linear-gradient-66" x1="-2.81" y1="596.27" x2="-2.81" y2="596.77" gradientTransform="matrix(73.81, 0, 0, -206.47, 730.18, 123575.08)" xlink:href="#linear-gradient-37"/><linearGradient id="linear-gradient-67" x1="-50.4" y1="596.27" x2="-50.4" y2="596.77" gradientTransform="matrix(6.45, 0, 0, -206.47, 864.9, 123575.08)" xlink:href="#linear-gradient-9"/><linearGradient id="linear-gradient-68" x1="-5.79" y1="596.43" x2="-5.79" y2="596.93" gradientTransform="matrix(43.3, 0, 0, -182.75, 771.63, 109462.28)" xlink:href="#linear-gradient-9"/><linearGradient id="linear-gradient-69" x1="-5.8" y1="596.45" x2="-6.3" y2="596.45" gradientTransform="matrix(33.48, 0, 0, -212.83, 661.39, 127345.9)" xlink:href="#linear-gradient-9"/><linearGradient id="linear-gradient-70" x1="-7.18" y1="596.43" x2="-7.18" y2="596.93" gradientTransform="matrix(43.27, 0, 0, -182.75, 890.63, 109464.06)" xlink:href="#linear-gradient-9"/><linearGradient id="linear-gradient-71" x1="-54.38" y1="596.35" x2="-54.88" y2="596.35" gradientTransform="matrix(8.28, 0, 0, -237, 1120.84, 141741.03)" xlink:href="#linear-gradient-40"/><linearGradient id="linear-gradient-72" x1="-26.27" y1="596.34" x2="-26.77" y2="596.34" gradientTransform="matrix(7.32, 0, 0, -240.11, 605.69, 143593.87)" xlink:href="#linear-gradient-40"/><linearGradient id="linear-gradient-73" x1="-36.37" y1="596.35" x2="-36.87" y2="596.35" gradientTransform="matrix(5.08, 0, 0, -238.19, 586.22, 142450.86)" xlink:href="#linear-gradient-40"/><linearGradient id="linear-gradient-74" x1="-53.31" y1="596.35" x2="-53.81" y2="596.35" gradientTransform="matrix(8.28, 0, 0, -238.19, 1103.21, 142449.08)" xlink:href="#linear-gradient-40"/><linearGradient id="linear-gradient-75" x1="-30.45" y1="596.34" x2="-30.95" y2="596.34" gradientTransform="matrix(6.73, 0, 0, -240.16, 629.45, 143621.23)" xlink:href="#linear-gradient-40"/><linearGradient id="linear-gradient-76" x1="-0.93" y1="596.8" x2="-0.93" y2="597.3" gradientTransform="matrix(71.02, 0, 0, -145.38, 445.17, 87225.34)" xlink:href="#linear-gradient-40"/><linearGradient id="linear-gradient-77" x1="-4.99" y1="596.83" x2="-4.99" y2="597.33" gradientTransform="matrix(24.18, 0, 0, -109.03, 484.6, 65478.09)" xlink:href="#linear-gradient-53"/><linearGradient id="linear-gradient-78" x1="-4.54" y1="596.76" x2="-4.54" y2="597.26" gradientTransform="matrix(70.63, 0, 0, -148.74, 951.24, 89226.93)" xlink:href="#linear-gradient-40"/><linearGradient id="linear-gradient-79" x1="-4.41" y1="595.68" x2="-4.41" y2="596.18" gradientTransform="matrix(28.59, 0, 0, -292.74, 502.15, 174784.94)" xlink:href="#linear-gradient-23"/><linearGradient id="linear-gradient-80" x1="-0.14" y1="596.42" x2="-0.14" y2="596.92" gradientTransform="matrix(63.2, 0, 0, -114.04, 319.65, 68382.53)" xlink:href="#linear-gradient"/><linearGradient id="linear-gradient-81" x1="0.36" y1="596.42" x2="0.36" y2="596.92" gradientTransform="matrix(63.2, 0, 0, -114.05, 256.77, 68385.5)" xlink:href="#linear-gradient"/><linearGradient id="linear-gradient-82" x1="-18.47" y1="604.85" x2="-18.47" y2="605.34" gradientTransform="matrix(5.72, 0, 0, -15.87, 427.35, 9958.53)" xlink:href="#linear-gradient-45"/><linearGradient id="linear-gradient-83" x1="-16.95" y1="604.79" x2="-16.95" y2="605.29" gradientTransform="matrix(5.7, 0, 0, -15.87, 409.37, 9956.69)" xlink:href="#linear-gradient-45"/><linearGradient id="linear-gradient-84" x1="-15.36" y1="604.75" x2="-15.36" y2="605.24" gradientTransform="matrix(5.7, 0, 0, -15.87, 391.34, 9957.23)" xlink:href="#linear-gradient-45"/><linearGradient id="linear-gradient-85" x1="-13.77" y1="604.75" x2="-13.77" y2="605.24" gradientTransform="matrix(5.7, 0, 0, -15.87, 373.34, 9957.23)" xlink:href="#linear-gradient-45"/><linearGradient id="linear-gradient-86" x1="-12.18" y1="604.9" x2="-12.18" y2="605.4" gradientTransform="matrix(5.7, 0, 0, -15.62, 355.32, 9807.88)" xlink:href="#linear-gradient-45"/><linearGradient id="linear-gradient-87" x1="-10.55" y1="604.45" x2="-10.55" y2="604.95" gradientTransform="matrix(5.72, 0, 0, -16.44, 337.28, 10299.09)" xlink:href="#linear-gradient-45"/><linearGradient id="linear-gradient-88" x1="-9" y1="605" x2="-9" y2="605.5" gradientTransform="matrix(5.7, 0, 0, -15.62, 319.3, 9810.97)" xlink:href="#linear-gradient-45"/><linearGradient id="linear-gradient-89" x1="0.81" y1="596.77" x2="0.81" y2="597.27" gradientTransform="matrix(126.07, 0, 0, -88.38, 193.9, 53103.17)" xlink:href="#linear-gradient-40"/><linearGradient id="linear-gradient-90" x1="-13.72" y1="597.24" x2="-13.72" y2="597.74" gradientTransform="matrix(5.76, 0, 0, -47.28, 374.54, 28545.36)" xlink:href="#linear-gradient"/><linearGradient id="linear-gradient-91" x1="1.27" y1="597.04" x2="1.27" y2="597.54" gradientTransform="matrix(365.91, 0, 0, -129.23, -169.48, 77621.88)" xlink:href="#linear-gradient-37"/><linearGradient id="linear-gradient-92" x1="1.83" y1="597.04" x2="1.83" y2="597.54" gradientTransform="matrix(77.17, 0, 0, -129.23, 42.09, 77623.67)" xlink:href="#linear-gradient-9"/><linearGradient id="linear-gradient-93" x1="-1.66" y1="597.54" x2="-1.09" y2="598.02" gradientTransform="matrix(49.47, 0, 0, -101.85, 417.29, 61318.47)" xlink:href="#linear-gradient-9"/><linearGradient id="linear-gradient-94" x1="0.84" y1="596.71" x2="0.84" y2="597.21" gradientTransform="matrix(155.23, 0, 0, -154.3, 181.04, 92539.12)" xlink:href="#linear-gradient-23"/><linearGradient id="linear-gradient-95" x1="0.74" y1="596.71" x2="0.74" y2="597.21" gradientTransform="matrix(67.11, 0, 0, -154.3, 210.11, 92539.12)" xlink:href="#linear-gradient-9"/><linearGradient id="linear-gradient-96" x1="1.08" y1="597.71" x2="1.08" y2="598.21" gradientTransform="matrix(210.17, 0, 0, -69.58, 71.16, 41979.56)" xlink:href="#linear-gradient-23"/><linearGradient id="linear-gradient-97" x1="0.81" y1="597.71" x2="0.81" y2="598.21" gradientTransform="matrix(82.43, 0, 0, -69.58, 198.91, 41979.56)" xlink:href="#linear-gradient-9"/><linearGradient id="linear-gradient-98" x1="1.02" y1="597.39" x2="1.53" y2="597.88" gradientTransform="matrix(61.16, 0, 0, -108.23, 146.37, 65117.77)" xlink:href="#linear-gradient-9"/><linearGradient id="linear-gradient-99" x1="-1.01" y1="597.08" x2="-0.4" y2="597.54" gradientTransform="matrix(56.43, 0, 0, -128.24, 371.59, 77036.4)" xlink:href="#linear-gradient-9"/><linearGradient id="linear-gradient-100" x1="-0.36" y1="597.08" x2="0.25" y2="597.54" gradientTransform="matrix(56.43, 0, 0, -128.24, 298.35, 77036.4)" xlink:href="#linear-gradient-9"/><linearGradient id="linear-gradient-101" x1="-20.61" y1="599.95" x2="-21.11" y2="599.95" gradientTransform="matrix(7.71, 0, 0, -14.54, 540.03, 8990.79)" xlink:href="#linear-gradient-9"/><linearGradient id="linear-gradient-102" x1="-27.26" y1="599.95" x2="-27.76" y2="599.95" gradientTransform="matrix(5.67, 0, 0, -14.54, 527.62, 8990.79)" xlink:href="#linear-gradient-9"/><linearGradient id="linear-gradient-103" x1="-1.46" y1="597.29" x2="-1.95" y2="597.29" gradientTransform="matrix(52.58, 0, 0, -129.23, 465, 77621.88)" xlink:href="#linear-gradient-21"/><linearGradient id="linear-gradient-104" x1="-1.46" y1="598.55" x2="-1.95" y2="598.55" gradientTransform="matrix(52.58, 0, 0, -37.19, 465, 22577.45)" xlink:href="#linear-gradient-9"/><linearGradient id="linear-gradient-105" x1="-1.46" y1="599.77" x2="-1.95" y2="599.77" gradientTransform="matrix(52.58, 0, 0, -25.94, 465, 15870.67)" xlink:href="#linear-gradient-21"/><linearGradient id="linear-gradient-106" x1="-2.09" y1="595.59" x2="-2.09" y2="596.09" gradientTransform="matrix(46.89, 0, 0, -94.56, 473.33, 56576.52)" xlink:href="#linear-gradient"/><linearGradient id="linear-gradient-107" x1="-3.16" y1="595.79" x2="-3.65" y2="595.79" gradientTransform="matrix(104.64, 0, 0, -483.18, 1072.7, 288214.23)" xlink:href="#linear-gradient-9"/><linearGradient id="linear-gradient-108" x1="-24.75" y1="595.59" x2="-24.75" y2="596.09" gradientTransform="matrix(18.14, 0, 0, -441.14, 1128.8, 263199.19)" xlink:href="#linear-gradient-2"/><linearGradient id="linear-gradient-109" x1="-29" y1="595.84" x2="-29.49" y2="595.84" gradientTransform="matrix(17.41, 0, 0, -441.14, 1247.46, 263199.19)" xlink:href="#linear-gradient-2"/><linearGradient id="linear-gradient-110" x1="-2.62" y1="595.52" x2="-2.62" y2="596.02" gradientTransform="matrix(122.89, 0, 0, -497.74, 1030.55, 296876.22)" xlink:href="#linear-gradient-2"/><linearGradient id="linear-gradient-111" x1="-15.55" y1="593.7" x2="-15.55" y2="594.2" gradientTransform="matrix(29.67, 0, 0, -26.05, 1170.4, 15638.56)" xlink:href="#linear-gradient"/><linearGradient id="linear-gradient-112" x1="-8.13" y1="593.12" x2="-8.63" y2="593.12" gradientTransform="matrix(51.21, 0, 0, -13.24, 1032.65, 7925.15)" gradientUnits="userSpaceOnUse"><stop offset="0" stop-color="#fff0d2"/><stop offset="0.97" stop-color="#fabfb7"/></linearGradient><linearGradient id="linear-gradient-113" x1="-3.04" y1="595.29" x2="-3.04" y2="595.79" gradientTransform="matrix(111.59, 0, 0, -129.39, 1048.75, 77267.32)" gradientUnits="userSpaceOnUse"><stop offset="0.03" stop-color="#f69b98"/><stop offset="1" stop-color="#fff0d2"/></linearGradient><radialGradient id="radial-gradient-13" cx="20.37" cy="594.57" r="0.74" gradientTransform="translate(1255.32 11705.7) rotate(180) scale(26.81 19.37)" xlink:href="#radial-gradient"/><radialGradient id="radial-gradient-14" cx="23.17" cy="595.15" r="0.85" gradientTransform="translate(1250.11 10231.48) rotate(180) scale(23.34 16.86)" xlink:href="#radial-gradient"/><linearGradient id="linear-gradient-114" x1="-2.89" y1="589.62" x2="-3.38" y2="589.62" gradientTransform="matrix(109.1, 0, 0, -4.78, 1051.24, 2995.58)" gradientUnits="userSpaceOnUse"><stop offset="0" stop-color="#fcf7bf"/><stop offset="0.18" stop-color="#c7d3c2"/><stop offset="0.32" stop-color="#9fb3c3"/><stop offset="0.4" stop-color="#8fa6c4"/><stop offset="0.53" stop-color="#9eafc5"/><stop offset="0.82" stop-color="#b6bbc4"/><stop offset="1" stop-color="#bfc0c4"/></linearGradient><linearGradient id="linear-gradient-115" x1="-8.13" y1="581.12" x2="-8.63" y2="581.12" gradientTransform="matrix(51.21, 0, 0, -2.38, 1138.08, 1553.12)" xlink:href="#linear-gradient-114"/><linearGradient id="linear-gradient-116" x1="-27.37" y1="594.58" x2="-27.37" y2="595.07" gradientTransform="matrix(17.51, 0, 0, -110.7, 1188.04, 65978.06)" xlink:href="#linear-gradient"/><linearGradient id="linear-gradient-117" x1="-1.46" y1="595.89" x2="-2.87" y2="595.65" gradientTransform="matrix(138, 0, 0, -497.71, 1007.89, 296858.25)" xlink:href="#linear-gradient-112"/></defs><title>buildings</title><g id="Group_73" data-name="Group 73"><g id="Group_19" data-name="Group 19"><path id="Path_1" data-name="Path 1" class="cls-1" d="M336.91,206,330.51,187h-2.78l-5.57-65h-2.47l-2,65.15h-3L309.16,208Z" transform="translate(-105.42 -103.51)"/><path id="Path_2" data-name="Path 2" class="cls-2" d="M319.69,122s-.74,61.19,0,62.18,8,2.77,8,2.77h-8.35l-3,19.09-6.66.67,5.06-19.57h3Z" transform="translate(-105.42 -103.51)"/><path id="Path_3" data-name="Path 3" class="cls-3" d="M356.77,216.16v-4.38l-7.95-1.59v-2.5l-31.09-5-19.5,4.24v2.49l-6.66,2.35V217Z" transform="translate(-105.42 -103.51)"/><path id="Path_4" data-name="Path 4" class="cls-4" d="M367.22,444.23,361.54,216l-52.38-5.2,1.58,231.68Z" transform="translate(-105.42 -103.51)"/><path id="Path_5" data-name="Path 5" class="cls-5" d="M309.16,210.81l-24.75,3.34V446l26.33-3.5Z" transform="translate(-105.42 -103.51)"/><path id="Path_6" data-name="Path 6" class="cls-6" d="M356.77,211.78l-47.06-5.07v4.1l47.06,4.73Z" transform="translate(-105.42 -103.51)"/><path id="Path_7" data-name="Path 7" class="cls-7" d="M348.82,207.69v2.5L316.37,206l1.36-3.34Z" transform="translate(-105.42 -103.51)"/><path id="Path_8" data-name="Path 8" class="cls-8" d="M316.37,442.49l44.5,1.75-4.36-222.49-39-3.7Z" transform="translate(-105.42 -103.51)"/><g id="Group_1" data-name="Group 1"><rect id="Rectangle_3" data-name="Rectangle 3" class="cls-9" x="336.73" y="225.56" width="0.98" height="39.74" transform="matrix(0.08, -1, 1, 0.08, -40.46, 457.89)"/></g><g id="Group_2" data-name="Group 2"><rect id="Rectangle_4" data-name="Rectangle 4" class="cls-9" x="336.69" y="241.18" width="0.98" height="39.78" transform="translate(-53.17 474.85) rotate(-85.82)"/></g><g id="Group_3" data-name="Group 3"><rect id="Rectangle_5" data-name="Rectangle 5" class="cls-9" x="336.93" y="255.09" width="0.98" height="40.45" transform="translate(-68.17 487.33) rotate(-85.64)"/></g><g id="Group_4" data-name="Group 4"><rect id="Rectangle_6" data-name="Rectangle 6" class="cls-9" x="336.94" y="268.86" width="0.98" height="40.31" transform="translate(-72.8 508.74) rotate(-87.26)"/></g><g id="Group_5" data-name="Group 5"><rect id="Rectangle_7" data-name="Rectangle 7" class="cls-9" x="336.94" y="282.94" width="0.98" height="40.31" transform="translate(-86.87 522.14) rotate(-87.26)"/></g><g id="Group_6" data-name="Group 6"><rect id="Rectangle_8" data-name="Rectangle 8" class="cls-9" x="336.94" y="297.02" width="0.98" height="40.31" transform="translate(-100.93 535.55) rotate(-87.26)"/></g><g id="Group_7" data-name="Group 7"><rect id="Rectangle_9" data-name="Rectangle 9" class="cls-9" x="336.94" y="311.11" width="0.98" height="40.31" transform="translate(-115.01 548.97) rotate(-87.26)"/></g><g id="Group_8" data-name="Group 8"><rect id="Rectangle_10" data-name="Rectangle 10" class="cls-9" x="337.61" y="324.55" width="0.98" height="41.68" transform="translate(-128.47 563.08) rotate(-87.26)"/></g><g id="Group_9" data-name="Group 9"><rect id="Rectangle_11" data-name="Rectangle 11" class="cls-9" x="337.76" y="338.5" width="0.98" height="41.95" transform="translate(-142.41 576.65) rotate(-87.26)"/></g><g id="Group_10" data-name="Group 10"><rect id="Rectangle_12" data-name="Rectangle 12" class="cls-9" x="337.89" y="352.46" width="0.98" height="42.22" transform="translate(-156.36 590.2) rotate(-87.26)"/></g><g id="Group_11" data-name="Group 11"><rect id="Rectangle_13" data-name="Rectangle 13" class="cls-9" x="338.1" y="366.24" width="0.89" height="42.48" transform="translate(-167.59 606.75) rotate(-87.71)"/></g><g id="Group_12" data-name="Group 12"><rect id="Rectangle_14" data-name="Rectangle 14" class="cls-9" x="338.03" y="380.5" width="0.98" height="42.49" transform="matrix(0.05, -1, 1, 0.05, -184.37, 617.17)"/></g><g id="Group_13" data-name="Group 13"><rect id="Rectangle_15" data-name="Rectangle 15" class="cls-9" x="338.03" y="394.58" width="0.98" height="42.49" transform="translate(-198.43 630.57) rotate(-87.26)"/></g><g id="Group_14" data-name="Group 14"><rect id="Rectangle_16" data-name="Rectangle 16" class="cls-9" x="338.45" y="408.27" width="0.98" height="43.32" transform="translate(-212.13 644.42) rotate(-87.26)"/></g><g id="Group_15" data-name="Group 15"><rect id="Rectangle_17" data-name="Rectangle 17" class="cls-9" x="336.42" y="212.45" width="0.98" height="39.34" transform="translate(-29.7 443.52) rotate(-84.89)"/></g><g id="Group_16" data-name="Group 16"><rect id="Rectangle_18" data-name="Rectangle 18" class="cls-9" x="350.65" y="220.95" width="0.98" height="221.7" transform="translate(-111.99 -96.42) rotate(-1.15)"/></g><g id="Group_17" data-name="Group 17"><rect id="Rectangle_19" data-name="Rectangle 19" class="cls-9" x="339.05" y="219.95" width="0.98" height="224.33" transform="translate(-111.41 -97.27) rotate(-1.04)"/></g><g id="Group_18" data-name="Group 18"><rect id="Rectangle_20" data-name="Rectangle 20" class="cls-9" x="328.69" y="219.02" width="0.98" height="225.21" transform="translate(-108.43 -100.5) rotate(-0.52)"/></g></g><g id="Group_68" data-name="Group 68"><path id="Path_42" data-name="Path 42" class="cls-10" d="M208.49,153.14l-4.18-13.2-47.37-10.09v15.63Z" transform="translate(-105.42 -103.51)"/><path id="Path_43" data-name="Path 43" class="cls-11" d="M156.94,129.85l-33.6,13.61L120,157.05l37-11.57Z" transform="translate(-105.42 -103.51)"/><path id="Path_44" data-name="Path 44" class="cls-12" d="M228.66,160.21l-58,13.76-65.22-7.45,47.06-16.32Z" transform="translate(-105.42 -103.51)"/><path id="Path_45" data-name="Path 45" class="cls-13" d="M209,191.92l-1.56-28-52-5.23L130,167.54l-1.82,24.38Z" transform="translate(-105.42 -103.51)"/><path id="Path_46" data-name="Path 46" class="cls-14" d="M155.42,158.67l.3,29.91-32.1,3.89V167.85Z" transform="translate(-105.42 -103.51)"/><path id="Path_47" data-name="Path 47" class="cls-15" d="M228.66,160.21l-.52-4.36-75.66-11.48v5.83Z" transform="translate(-105.42 -103.51)"/><path id="Path_48" data-name="Path 48" class="cls-16" d="M152.48,144.37l-47.06,18.36v3.79l47.06-16.32Z" transform="translate(-105.42 -103.51)"/><path id="Path_49" data-name="Path 49" class="cls-17" d="M204.41,189.27l-.73-25.75-6.54-.66.74,26.22Z" transform="translate(-105.42 -103.51)"/><path id="Path_50" data-name="Path 50" class="cls-18" d="M195.65,188.62l-.74-26.18-6.54-.46.74,26.45Z" transform="translate(-105.42 -103.51)"/><path id="Path_51" data-name="Path 51" class="cls-19" d="M186.28,188.06l-.75-26.36L179,161l.75,26.83Z" transform="translate(-105.42 -103.51)"/><path id="Path_52" data-name="Path 52" class="cls-20" d="M176.74,187.31,176,160.74l-6.54-.65.75,27Z" transform="translate(-105.42 -103.51)"/><path id="Path_53" data-name="Path 53" class="cls-21" d="M166.93,186.34l-.75-26.58-6.54-.65.75,27Z" transform="translate(-105.42 -103.51)"/><path id="Path_54" data-name="Path 54" class="cls-22" d="M126.63,193.42l.43-26.56,3.7-1.09-.43,27.45Z" transform="translate(-105.42 -103.51)"/><path id="Path_55" data-name="Path 55" class="cls-23" d="M131.6,192l.42-26.58,3.72-1.08-.45,27.46Z" transform="translate(-105.42 -103.51)"/><path id="Path_56" data-name="Path 56" class="cls-24" d="M136.91,190.41l.42-26.5,3.72-1.15-.45,27.45Z" transform="translate(-105.42 -103.51)"/><path id="Path_57" data-name="Path 57" class="cls-25" d="M142.39,188.76l.42-26.45,3.72-1.2-.44,27.45Z" transform="translate(-105.42 -103.51)"/><path id="Path_58" data-name="Path 58" class="cls-26" d="M147.87,187.3l.42-26.67,3.72-1-.44,27.46Z" transform="translate(-105.42 -103.51)"/><path id="Path_59" data-name="Path 59" class="cls-27" d="M228.66,465.18l-5.3-270.28-68.28-4.12,3,274.4Z" transform="translate(-105.42 -103.51)"/><path id="Path_60" data-name="Path 60" class="cls-28" d="M155.08,190.78l-44.41,6.59-4.46,267.81h51.91Z" transform="translate(-105.42 -103.51)"/><path id="Path_61" data-name="Path 61" class="cls-29" d="M219.21,465.18l-3.85-265.36L165.77,197l2.79,267.55Z" transform="translate(-105.42 -103.51)"/><path id="Path_62" data-name="Path 62" class="cls-30" d="M146.94,464.51l1.26-267.16L118,201.82l-6.78,262.69Z" transform="translate(-105.42 -103.51)"/><path id="Path_63" data-name="Path 63" class="cls-31" d="M207.7,168.84l-52,2-32.1,5.72v-8.73l31.8-9.18,52,5.23Z" transform="translate(-105.42 -103.51)"/><g id="Group_45" data-name="Group 45"><g id="Group_24" data-name="Group 24"><rect id="Rectangle_21" data-name="Rectangle 21" class="cls-32" x="210.51" y="199.34" width="0.55" height="265.78" transform="translate(-109.4 -100.95) rotate(-0.69)"/></g><g id="Group_25" data-name="Group 25"><rect id="Rectangle_22" data-name="Rectangle 22" class="cls-32" x="202.34" y="198.97" width="0.55" height="266.04" transform="translate(-109.39 -101.05) rotate(-0.69)"/></g><g id="Group_26" data-name="Group 26"><rect id="Rectangle_23" data-name="Rectangle 23" class="cls-32" x="194.75" y="198.95" width="0.55" height="266.22" transform="translate(-108.14 -101.9) rotate(-0.47)"/></g><g id="Group_27" data-name="Group 27"><rect id="Rectangle_24" data-name="Rectangle 24" class="cls-32" x="185.36" y="198.01" width="0.55" height="266.96" transform="translate(-108.13 -101.98) rotate(-0.47)"/></g><g id="Group_28" data-name="Group 28"><rect id="Rectangle_25" data-name="Rectangle 25" class="cls-32" x="175.72" y="197.89" width="0.55" height="267.07" transform="translate(-108.13 -102.05) rotate(-0.47)"/></g><g id="Group_29" data-name="Group 29"><path id="Path_64" data-name="Path 64" class="cls-32" d="M215.57,215.45l0-.55-49.64-3,0,.55Z" transform="translate(-105.42 -103.51)"/></g><g id="Group_30" data-name="Group 30"><path id="Path_65" data-name="Path 65" class="cls-32" d="M216.25,231.08l0-.53-50.32-3,0,.53Z" transform="translate(-105.42 -103.51)"/></g><g id="Group_31" data-name="Group 31"><path id="Path_66" data-name="Path 66" class="cls-32" d="M216.7,246.72l0-.53L166,243.14l0,.53Z" transform="translate(-105.42 -103.51)"/></g><g id="Group_32" data-name="Group 32"><path id="Path_67" data-name="Path 67" class="cls-32" d="M216.25,262.31l0-.54-50.32-3,0,.54Z" transform="translate(-105.42 -103.51)"/></g><g id="Group_33" data-name="Group 33"><path id="Path_68" data-name="Path 68" class="cls-32" d="M216.7,277.94l0-.54-50.78-3,0,.54Z" transform="translate(-105.42 -103.51)"/></g><g id="Group_34" data-name="Group 34"><path id="Path_69" data-name="Path 69" class="cls-32" d="M216.7,293.55l0-.54L166,290l0,.53Z" transform="translate(-105.42 -103.51)"/></g><g id="Group_35" data-name="Group 35"><path id="Path_70" data-name="Path 70" class="cls-32" d="M216.93,309.16l0-.53-50.05-3,0,.54Z" transform="translate(-105.42 -103.51)"/></g><g id="Group_36" data-name="Group 36"><path id="Path_71" data-name="Path 71" class="cls-32" d="M217.15,324.79l0-.53-50.09-3,0,.55Z" transform="translate(-105.42 -103.51)"/></g><g id="Group_37" data-name="Group 37"><path id="Path_72" data-name="Path 72" class="cls-32" d="M217.38,339.73l0-.54-50.15-2.34,0,.54Z" transform="translate(-105.42 -103.51)"/></g><g id="Group_38" data-name="Group 38"><rect id="Rectangle_26" data-name="Rectangle 26" class="cls-32" x="192.36" y="328.35" width="0.55" height="50.49" transform="translate(-273.25 429.54) rotate(-87.88)"/></g><g id="Group_39" data-name="Group 39"><path id="Path_73" data-name="Path 73" class="cls-32" d="M217.83,371.66l0-.54-50.3-3,0,.54Z" transform="translate(-105.42 -103.51)"/></g><g id="Group_40" data-name="Group 40"><path id="Path_74" data-name="Path 74" class="cls-32" d="M218.06,387.28l0-.54-50-3,0,.55Z" transform="translate(-105.42 -103.51)"/></g><g id="Group_41" data-name="Group 41"><rect id="Rectangle_27" data-name="Rectangle 27" class="cls-32" x="192.81" y="375.09" width="0.55" height="50.42" transform="translate(-318.03 478.3) rotate(-88.35)"/></g><g id="Group_42" data-name="Group 42"><rect id="Rectangle_28" data-name="Rectangle 28" class="cls-32" x="193.23" y="390.43" width="0.55" height="50.93" transform="translate(-333.2 493.88) rotate(-88.35)"/></g><g id="Group_43" data-name="Group 43"><rect id="Rectangle_29" data-name="Rectangle 29" class="cls-32" x="193.43" y="406" width="0.55" height="51.04" transform="translate(-348.5 509.56) rotate(-88.4)"/></g><g id="Group_44" data-name="Group 44"><rect id="Rectangle_30" data-name="Rectangle 30" class="cls-32" x="193.41" y="421.92" width="0.55" height="50.6" transform="translate(-363.58 526.38) rotate(-88.6)"/></g></g><g id="Group_67" data-name="Group 67"><g id="Group_46" data-name="Group 46"><rect id="Rectangle_31" data-name="Rectangle 31" class="cls-32" x="-12.95" y="332.81" width="262.92" height="0.43" transform="translate(-320.98 345.07) rotate(-89.49)"/></g><g id="Group_47" data-name="Group 47"><path id="Path_75" data-name="Path 75" class="cls-32" d="M122.92,464.36l2.36-263.59h-.43l-2.38,263.6Z" transform="translate(-105.42 -103.51)"/></g><g id="Group_48" data-name="Group 48"><rect id="Rectangle_32" data-name="Rectangle 32" class="cls-32" x="-3.41" y="332.11" width="264.47" height="0.43" transform="translate(-309.69 355.66) rotate(-89.66)"/></g><g id="Group_49" data-name="Group 49"><rect id="Rectangle_33" data-name="Rectangle 33" class="cls-32" x="2.37" y="331.56" width="265.18" height="0.43" transform="translate(-303.02 361.29) rotate(-89.66)"/></g><g id="Group_50" data-name="Group 50"><rect id="Rectangle_34" data-name="Rectangle 34" class="cls-32" x="8.24" y="331.11" width="266.08" height="0.43" transform="translate(-296.1 367.61) rotate(-89.74)"/></g><g id="Group_51" data-name="Group 51"><rect id="Rectangle_35" data-name="Rectangle 35" class="cls-32" x="117.53" y="214.66" width="30.39" height="0.43" transform="translate(-124.35 -90.6) rotate(-5.2)"/></g><g id="Group_52" data-name="Group 52"><rect id="Rectangle_36" data-name="Rectangle 36" class="cls-32" x="117.15" y="230.16" width="30.79" height="0.43" transform="matrix(1, -0.09, 0.09, 1, -125.75, -90.55)"/></g><g id="Group_53" data-name="Group 53"><rect id="Rectangle_37" data-name="Rectangle 37" class="cls-32" x="116.74" y="245.68" width="31.19" height="0.43" transform="translate(-127.16 -90.51) rotate(-5.2)"/></g><g id="Group_54" data-name="Group 54"><rect id="Rectangle_38" data-name="Rectangle 38" class="cls-32" x="116.33" y="261.18" width="31.6" height="0.43" transform="matrix(1, -0.09, 0.09, 1, -128.56, -90.46)"/></g><g id="Group_55" data-name="Group 55"><rect id="Rectangle_39" data-name="Rectangle 39" class="cls-32" x="115.94" y="276.68" width="31.99" height="0.43" transform="matrix(1, -0.09, 0.09, 1, -129.97, -90.41)"/></g><g id="Group_56" data-name="Group 56"><rect id="Rectangle_40" data-name="Rectangle 40" class="cls-32" x="115.56" y="292.18" width="32.39" height="0.43" transform="matrix(1, -0.09, 0.09, 1, -131.37, -90.37)"/></g><g id="Group_57" data-name="Group 57"><rect id="Rectangle_41" data-name="Rectangle 41" class="cls-32" x="115.13" y="307.69" width="32.8" height="0.43" transform="translate(-132.78 -90.32) rotate(-5.2)"/></g><g id="Group_58" data-name="Group 58"><rect id="Rectangle_42" data-name="Rectangle 42" class="cls-32" x="114.74" y="323.21" width="33.2" height="0.43" transform="translate(-134.19 -90.28) rotate(-5.2)"/></g><g id="Group_59" data-name="Group 59"><rect id="Rectangle_43" data-name="Rectangle 43" class="cls-32" x="114.19" y="338.39" width="33.73" height="0.43" transform="matrix(1, -0.07, 0.07, 1, -128.97, -93.42)"/></g><g id="Group_60" data-name="Group 60"><path id="Path_76" data-name="Path 76" class="cls-32" d="M113.92,355l34-1.84,0-.44-33.95,1.84Z" transform="translate(-105.42 -103.51)"/></g><g id="Group_61" data-name="Group 61"><rect id="Rectangle_44" data-name="Rectangle 44" class="cls-32" x="113.85" y="369.71" width="34.09" height="0.43" transform="translate(-138.4 -90.13) rotate(-5.2)"/></g><g id="Group_62" data-name="Group 62"><rect id="Rectangle_45" data-name="Rectangle 45" class="cls-32" x="113.7" y="385.21" width="34.24" height="0.43" transform="translate(-139.81 -90.07) rotate(-5.2)"/></g><g id="Group_63" data-name="Group 63"><path id="Path_77" data-name="Path 77" class="cls-32" d="M113.64,401.1l34.23-1.51,0-.44-34.24,1.52Z" transform="translate(-105.42 -103.51)"/></g><g id="Group_64" data-name="Group 64"><path id="Path_78" data-name="Path 78" class="cls-32" d="M113.19,416.55l34.68-1.47,0-.44-34.68,1.47Z" transform="translate(-105.42 -103.51)"/></g><g id="Group_65" data-name="Group 65"><path id="Path_79" data-name="Path 79" class="cls-32" d="M113,432.05l34.84-1.48,0-.45L113,431.6Z" transform="translate(-105.42 -103.51)"/></g><g id="Group_66" data-name="Group 66"><path id="Path_80" data-name="Path 80" class="cls-32" d="M113.19,447.53l34.68-1.48,0-.43-34.68,1.47Z" transform="translate(-105.42 -103.51)"/></g></g><path id="Path_81" data-name="Path 81" class="cls-33" d="M210.23,289.74v15.61l-8-.48V288.6H195L193.83,273l-9.37-.68.55-14.94-.28-31.22-16.17-1.35.89-15.76L201,210.54l-.15-12.12,8.21,1.49.13,10.63,6.43,6.4,1.13,73.19Z" transform="translate(-105.42 -103.51)"/><path id="Path_82" data-name="Path 82" class="cls-34" d="M185.42,305l.22,16L176,320l-.17-15.62Z" transform="translate(-105.42 -103.51)"/><path id="Path_83" data-name="Path 83" class="cls-35" d="M132.16,465V446.5h-3.33l-.57-18.43v-28.7l.25-13.93-5.1.67.47-31.6-5.34,0-.61,46-4.31.36-2.43,63.63Z" transform="translate(-105.42 -103.51)"/><path id="Path_84" data-name="Path 84" class="cls-36" d="M204,431.45l-.22-15.85-7.5-.5L195,400.26h-8.79l-.61-15.2L176,383.88l.57,31.52.34,16.06-8.71-.69.16,15.8h8.42l.13,15.47h19.33l-.16-14.73h16.47L212.11,432Z" transform="translate(-105.42 -103.51)"/><path id="Path_85" data-name="Path 85" class="cls-37" d="M135,321l.09-15.39-6.15.56-.09,15.27Z" transform="translate(-105.42 -103.51)"/><path id="Path_86" data-name="Path 86" class="cls-37" d="M141.53,273.34l-.24-15.51-5.57.72-.42,14.9Z" transform="translate(-105.42 -103.51)"/><path id="Path_87" data-name="Path 87" class="cls-34" d="M209.4,227.76V243l-8-.7V258l-7-.56V242.25l6.39-.1.46-15.46Z" transform="translate(-105.42 -103.51)"/></g><g id="Group_69" data-name="Group 69"><path id="Path_89" data-name="Path 89" class="cls-38" d="M416.4,222.86s1.93-1.1,2.82-5.12-6.81-14.15-6.81-14.15-6.12,8.23-6.77,12.81,2.2,6.69,2.2,6.69l3.72-1.17Z" transform="translate(-105.42 -103.51)"/><path id="Path_90" data-name="Path 90" class="cls-39" d="M413.71,336l-1.86-25.32-14.42.54L396.19,336Z" transform="translate(-105.42 -103.51)"/><path id="Path_91" data-name="Path 91" class="cls-40" d="M411.85,310.64l16.53,1.24.84,24.4H411.9Z" transform="translate(-105.42 -103.51)"/><path id="Path_92" data-name="Path 92" class="cls-41" d="M397.43,311.18l6.69-7.1.83-72.8,7.61-2,.26,73-1,8.33Z" transform="translate(-105.42 -103.51)"/><path id="Path_93" data-name="Path 93" class="cls-42" d="M428.38,311.88l-6.46-7.64-1.81-73.35-7.55-1.6.26,73-1,8.33Z" transform="translate(-105.42 -103.51)"/><path id="Path_94" data-name="Path 94" class="cls-43" d="M405,265.36l-3.63-2.87-.51-8.09,11-1.68,13,.62-.43,8.51-3.51,3.51Z" transform="translate(-105.42 -103.51)"/><path id="Path_95" data-name="Path 95" class="cls-44" d="M424.43,261.85l-12.58-.8v-8.33l13,.62Z" transform="translate(-105.42 -103.51)"/><path id="Path_96" data-name="Path 96" class="cls-45" d="M419.57,232.14l3.9-5L420,222.42l-8.9-1.06-7.81,2.21-2,4.07,3.94,5.22,6.48-1.29Z" transform="translate(-105.42 -103.51)"/><path id="Path_97" data-name="Path 97" class="cls-46" d="M423.47,227.15l-12.75-.8.39-5-7.81,2.21-2,4.07,3.6,5.29,6.82-1.36,8.4.62Z" transform="translate(-105.42 -103.51)"/><path id="Path_98" data-name="Path 98" class="cls-47" d="M421.92,304.24h-9.33l-.74,6.4,16.53,1.24Z" transform="translate(-105.42 -103.51)"/><path id="Path_99" data-name="Path 99" class="cls-48" d="M653,164.61s1.91-1.22,2.63-5.37S648,145.1,648,145.1s-5.86,8.7-6.3,13.41,2.56,6.73,2.56,6.73l3.74-1.36Z" transform="translate(-105.42 -103.51)"/><path id="Path_100" data-name="Path 100" class="cls-49" d="M657.65,193.23l-1.12-21.37-7.9-1-6.53,2.44V192.1Z" transform="translate(-105.42 -103.51)"/><path id="Path_101" data-name="Path 101" class="cls-50" d="M648.63,170.89V188.5H642.1V173.33Z" transform="translate(-105.42 -103.51)"/><path id="Path_102" data-name="Path 102" class="cls-51" d="M652.24,332.2,649.87,300l-18.34.68L630,332.2Z" transform="translate(-105.42 -103.51)"/><path id="Path_103" data-name="Path 103" class="cls-52" d="M649.87,300l21,1.58,1.07,31h-22Z" transform="translate(-105.42 -103.51)"/><path id="Path_104" data-name="Path 104" class="cls-53" d="M566.89,304.1s-.81-9.7-9.36-24.23c-10-17-31.18-24.75-31.18-24.75v49Z" transform="translate(-105.42 -103.51)"/><path id="Path_105" data-name="Path 105" class="cls-54" d="M486.67,304.1s.81-9.7,9.36-24.23c10-17,31.18-24.75,31.18-24.75v49Z" transform="translate(-105.42 -103.51)"/><path id="Path_106" data-name="Path 106" class="cls-55" d="M580.12,339.48l-1.06-22-6.95-3.83v-9.58s-14.38-4.09-36.24-4.79c-35.44-1.11-53.94,4.79-53.94,4.79v10.22l-5.84,4.78-3.94,21.36Z" transform="translate(-105.42 -103.51)"/><path id="Path_107" data-name="Path 107" class="cls-56" d="M672.23,345.66l5.13-4L679,331.34H414.07l-59.71,4.72v9.6l4.69,3.3Z" transform="translate(-105.42 -103.51)"/><path id="Path_108" data-name="Path 108" class="cls-57" d="M679,331.34l-1.62,10.29L416.9,340.15l-2.83-8.8Z" transform="translate(-105.42 -103.51)"/><path id="Path_109" data-name="Path 109" class="cls-58" d="M672.23,345.66H416.9l-4.19,118.45h260Z" transform="translate(-105.42 -103.51)"/><path id="Path_110" data-name="Path 110" class="cls-59" d="M616.48,458.1l1.09-105.83H603.73L600.91,458.1Z" transform="translate(-105.42 -103.51)"/><path id="Path_111" data-name="Path 111" class="cls-60" d="M613.1,464.11l-3.7-118.45-116.75-4-3.5,122.48Z" transform="translate(-105.42 -103.51)"/><path id="Path_112" data-name="Path 112" class="cls-61" d="M563.23,292.39s-.79,6.29-27.78,2.76S503,282.56,501.79,277.39c-1.5-6.27,17.14-18.35,17.14-18.35s-22.88,10-33.4,44.13c0,0,31.25-8.89,79.7-.65C565.22,302.52,563.91,295.9,563.23,292.39Z" transform="translate(-105.42 -103.51)"/><path id="Path_113" data-name="Path 113" class="cls-62" d="M492.65,341.63l-18.17,4-2.31,118.45h17Z" transform="translate(-105.42 -103.51)"/><path id="Path_114" data-name="Path 114" class="cls-63" d="M416.9,345.66,359.05,349l-2.34,115.15H416.9Z" transform="translate(-105.42 -103.51)"/><path id="Path_115" data-name="Path 115" class="cls-64" d="M609.4,345.66l2.42-5.51,1.28-12-122.19-1.67-18.74,5.16V339l2.31,6.65,18.13-2.28Z" transform="translate(-105.42 -103.51)"/><path id="Path_116" data-name="Path 116" class="cls-65" d="M613.1,328.15l-1.29,12-119.16-2.53-1.74-11.14Z" transform="translate(-105.42 -103.51)"/><path id="Path_117" data-name="Path 117" class="cls-66" d="M579.07,317.51s-46-8.52-103,1.59l5.83-4.78s38.77-6.71,90.18-.64Z" transform="translate(-105.42 -103.51)"/><path id="Path_118" data-name="Path 118" class="cls-67" d="M528.22,255.88l-1-23.51h-.81l-1,23.51Z" transform="translate(-105.42 -103.51)"/><path id="Path_119" data-name="Path 119" class="cls-68" d="M566.89,302.86l-3.74-15.07-1.62-.35s2.25,4.53,3.69,15.08Z" transform="translate(-105.42 -103.51)"/><path id="Path_120" data-name="Path 120" class="cls-69" d="M549,300.16l-1.58-13.46-4.12-.86-.32.6-.3,13.2Z" transform="translate(-105.42 -103.51)"/><path id="Path_121" data-name="Path 121" class="cls-70" d="M512.06,299.58,514.14,285l-.29-.26H509.7L507,300Z" transform="translate(-105.42 -103.51)"/><path id="Path_122" data-name="Path 122" class="cls-71" d="M486.85,302.86a48.65,48.65,0,0,1,4.06-12.95h-1.76l-4.65,13.5Z" transform="translate(-105.42 -103.51)"/><path id="Path_123" data-name="Path 123" class="cls-72" d="M514.14,285l-.29-.26-1.79,14.8,1.92-.14Z" transform="translate(-105.42 -103.51)"/><path id="Path_124" data-name="Path 124" class="cls-73" d="M544.47,299.77l-1.23-13.93-.32.6-.29,13.2Z" transform="translate(-105.42 -103.51)"/><path id="Path_125" data-name="Path 125" class="cls-74" d="M646.78,464.11l2.31-118.45h23.14l.45,118.45Z" transform="translate(-105.42 -103.51)"/><path id="Path_126" data-name="Path 126" class="cls-75" d="M649.09,345.66l-2.31,118.45h-5.69L644,345.66Z" transform="translate(-105.42 -103.51)"/><path id="Path_127" data-name="Path 127" class="cls-76" d="M396.6,346.83l-.41,117.28H391l4.75-117.23L359.05,349l-4.69-3.3,62.55-5.51,1.63,4.28Z" transform="translate(-105.42 -103.51)"/><path id="Path_128" data-name="Path 128" class="cls-77" d="M429.07,345.66a85.42,85.42,0,0,0-31.64.87l-1.24,117.58h32.88Z" transform="translate(-105.42 -103.51)"/><path id="Path_129" data-name="Path 129" class="cls-78" d="M631.53,300.68l6.26-8.29,1.13-94,11.86-1.94.33,92.91L649.87,300Z" transform="translate(-105.42 -103.51)"/><path id="Path_130" data-name="Path 130" class="cls-79" d="M670.9,301.58l-5.67-9.73L663,198.05l-12.19-1.56.33,92.91L649.87,300Z" transform="translate(-105.42 -103.51)"/><path id="Path_131" data-name="Path 131" class="cls-80" d="M638.38,242.39l-1.89-3.65-.66-10.29,14-2.14,16.56.78-.55,10.83L664,242.39Z" transform="translate(-105.42 -103.51)"/><path id="Path_132" data-name="Path 132" class="cls-44" d="M665.89,237.92l-16-1v-10.6l16.56.78Z" transform="translate(-105.42 -103.51)"/><path id="Path_133" data-name="Path 133" class="cls-81" d="M638.9,200.15l-2.43-3.66-.66-10.3,14.05-2.14,16.56.79-.55,10.84L663,200.15Z" transform="translate(-105.42 -103.51)"/><path id="Path_134" data-name="Path 134" class="cls-44" d="M665.87,195.68l-16-1V184.05l16.56.79Z" transform="translate(-105.42 -103.51)"/><path id="Path_135" data-name="Path 135" class="cls-82" d="M656.63,173.94l3.76-5.27L656.63,164l-8.34-1.22L639.6,166l-1.81,4.26,4.27,5.15,6.56-1.62Z" transform="translate(-105.42 -103.51)"/><path id="Path_136" data-name="Path 136" class="cls-83" d="M660.39,168.67l-13-.76.95-5.14L639.6,166l-1.81,4.26,4.27,5.15,6.56-1.62,8,.2Z" transform="translate(-105.42 -103.51)"/><path id="Path_137" data-name="Path 137" class="cls-84" d="M648.63,145.93l-.34-12.05h-.61l-.34,12.05Z" transform="translate(-105.42 -103.51)"/><path id="Path_138" data-name="Path 138" class="cls-85" d="M412.91,204.74l-.26-9.46h-.49l-.26,9.46Z" transform="translate(-105.42 -103.51)"/><path id="Path_139" data-name="Path 139" class="cls-47" d="M665.23,291.85h-14.4l-1,8.15,21,1.58Z" transform="translate(-105.42 -103.51)"/><path id="Path_140" data-name="Path 140" class="cls-86" d="M598.58,361.44H566.89L564.2,464.11h36.71Z" transform="translate(-105.42 -103.51)"/><path id="Path_141" data-name="Path 141" class="cls-87" d="M598.58,361.44l2.33,102.67h-2l-1-102.67Z" transform="translate(-105.42 -103.51)"/><path id="Path_142" data-name="Path 142" class="cls-88" d="M539.13,361.44h-31.7l-2.68,102.67h36.71Z" transform="translate(-105.42 -103.51)"/><path id="Path_143" data-name="Path 143" class="cls-89" d="M539.13,361.44l2.33,102.67h-2.31l-.9-102.67Z" transform="translate(-105.42 -103.51)"/><path id="Path_144" data-name="Path 144" class="cls-90" d="M510.19,464.11h21.53v-75s-1.53-8.46-10.49-15.89a18.63,18.63,0,0,0-4.1,3.62,29.76,29.76,0,0,0-6.41,12.26Z" transform="translate(-105.42 -103.51)"/><path id="Path_145" data-name="Path 145" class="cls-91" d="M466.06,458.05l1.08-105.83H453.3l-2.81,105.83Z" transform="translate(-105.42 -103.51)"/><path id="Path_146" data-name="Path 146" class="cls-92" d="M510.19,464.11h13.67v-75s-1.08-6-6.74-12.26a29.9,29.9,0,0,0-6.42,12.26Z" transform="translate(-105.42 -103.51)"/><path id="Path_147" data-name="Path 147" class="cls-93" d="M569.36,464.11h21.52v-75s-1.54-8.46-10.5-15.89a19.1,19.1,0,0,0-4.1,3.62,29.88,29.88,0,0,0-6.41,12.26Z" transform="translate(-105.42 -103.51)"/><path id="Path_148" data-name="Path 148" class="cls-92" d="M569.36,464.11H583v-75s-1.08-6-6.75-12.26a29.88,29.88,0,0,0-6.41,12.26Z" transform="translate(-105.42 -103.51)"/><path id="Path_149" data-name="Path 149" class="cls-31" d="M472.17,331.64l-8.26-.3-2.41,9.13,2.41,5.19L450.49,464.11h21.68l2.31-118.45-2.31-5.2Z" transform="translate(-105.42 -103.51)"/><path id="Path_150" data-name="Path 150" class="cls-94" d="M670.55,464.11,669,346.26h-1.54l-1,117.85Z" transform="translate(-105.42 -103.51)"/><path id="Path_151" data-name="Path 151" class="cls-95" d="M413.42,464.11l-1.11-119.4h-1.54l-1,119.4Z" transform="translate(-105.42 -103.51)"/><path id="Path_152" data-name="Path 152" class="cls-96" d="M400.81,464.11l.71-118.45L400,346l-1,118.12Z" transform="translate(-105.42 -103.51)"/><path id="Path_153" data-name="Path 153" class="cls-97" d="M661.78,464.11l-.85-118.45h-2.28l-1,118.45Z" transform="translate(-105.42 -103.51)"/><path id="Path_154" data-name="Path 154" class="cls-98" d="M424.65,464.11l-.86-119.31-1.2-.12-1.28,119.43Z" transform="translate(-105.42 -103.51)"/><path id="Path_155" data-name="Path 155" class="cls-99" d="M396.19,464.11l.76-72.29h-7.38l-1.27,10.31-1.85.73-3,27.14-6.41.51v-22L365.75,411l-4.11,53.07Z" transform="translate(-105.42 -103.51)"/><path id="Path_156" data-name="Path 156" class="cls-100" d="M370,348.64V374.2l-5.77,1.73v-8.26l-1.16.76-1.41,33.7-3.69.73,1.1-53.9Z" transform="translate(-105.42 -103.51)"/><path id="Path_157" data-name="Path 157" class="cls-101" d="M646.78,464.11l1.44-74-3.13,1.67v35.3l-11.43.84v7.93h-2.14V418.67l-13.95-2-4.47,3.8v43.63Z" transform="translate(-105.42 -103.51)"/></g><g id="Group_70" data-name="Group 70"><path id="Path_159" data-name="Path 159" class="cls-102" d="M383.09,402.13,381.76,259l-12.89-1.75V402.86Z" transform="translate(-105.42 -103.51)"/><path id="Path_160" data-name="Path 160" class="cls-103" d="M326.76,361.78V349.62a57.19,57.19,0,0,0-11.67-25.07c-9.82-12.14-19.76-15.85-19.76-15.85v56.71Z" transform="translate(-105.42 -103.51)"/><path id="Path_161" data-name="Path 161" class="cls-104" d="M264.07,361.78V349.62a57.1,57.1,0,0,1,11.66-25.07c9.82-12.14,19.76-15.85,19.76-15.85v56.71Z" transform="translate(-105.42 -103.51)"/><path id="Path_162" data-name="Path 162" class="cls-105" d="M323.15,359.6v-7.76l-2.84-.13v7.83Z" transform="translate(-105.42 -103.51)"/><path id="Path_163" data-name="Path 163" class="cls-106" d="M314.19,358.69v-7.76l-2.84-.13v7.83Z" transform="translate(-105.42 -103.51)"/><path id="Path_164" data-name="Path 164" class="cls-107" d="M305.23,358.07V350.3l-2.84-.12V358Z" transform="translate(-105.42 -103.51)"/><path id="Path_165" data-name="Path 165" class="cls-108" d="M296.28,358.07V350.3l-2.84-.12V358Z" transform="translate(-105.42 -103.51)"/><path id="Path_166" data-name="Path 166" class="cls-109" d="M287.32,358.07V350.3l-2.84.12V358Z" transform="translate(-105.42 -103.51)"/><path id="Path_167" data-name="Path 167" class="cls-110" d="M278.36,358.83v-8.17l-2.84.28v7.84Z" transform="translate(-105.42 -103.51)"/><path id="Path_168" data-name="Path 168" class="cls-111" d="M269.4,359.61v-7.77l-2.84.55v7.15Z" transform="translate(-105.42 -103.51)"/><path id="Path_169" data-name="Path 169" class="cls-112" d="M326.76,349.62s-37.31-1.82-48.4-8,1.38-22.43,6.12-26c0,0-13.15,7.87-20.41,34l.13,10,62.55-2.39v-7.6Z" transform="translate(-105.42 -103.51)"/><path id="Path_170" data-name="Path 170" class="cls-113" d="M296.93,309.71l-1-23.51h-.8l-1,23.51Z" transform="translate(-105.42 -103.51)"/><path id="Path_171" data-name="Path 171" class="cls-114" d="M384.59,466.39l-1.5-64.26H202.64v64.26Z" transform="translate(-105.42 -103.51)"/><path id="Path_172" data-name="Path 172" class="cls-115" d="M202.64,402.13l-37.3.76-1.08,63.51h38.37Z" transform="translate(-105.42 -103.51)"/><path id="Path_173" data-name="Path 173" class="cls-116" d="M361.66,459.68l0-50.64H337.06v50.64Z" transform="translate(-105.42 -103.51)"/><path id="Path_174" data-name="Path 174" class="cls-117" d="M349.37,466.4V390.15l-73.19-.48-4,76.73Z" transform="translate(-105.42 -103.51)"/><path id="Path_175" data-name="Path 175" class="cls-118" d="M276.18,389.67l-31.32,2.15-2.05,74.58h31.63Z" transform="translate(-105.42 -103.51)"/><path id="Path_176" data-name="Path 176" class="cls-119" d="M349.37,390.15l-16.44-19.6L331,358.25l-45.16-1L260.26,360l-1.54,13.07-13.86,18.71,31.32-2.15Z" transform="translate(-105.42 -103.51)"/><path id="Path_177" data-name="Path 177" class="cls-120" d="M276.18,389.67,284.42,371l1.43-13.73L260.25,360l-1.53,13.07-13.86,18.71Z" transform="translate(-105.42 -103.51)"/><path id="Path_178" data-name="Path 178" class="cls-47" d="M349.37,390.15l-16.44-19.6-48.51.4-8.24,18.72Z" transform="translate(-105.42 -103.51)"/><path id="Path_179" data-name="Path 179" class="cls-121" d="M238.57,461.26l-30.42-.5,2.36-53.31h28.05Z" transform="translate(-105.42 -103.51)"/><path id="Path_180" data-name="Path 180" class="cls-122" d="M345.85,466.39H318l-.22-63.77h28.06Z" transform="translate(-105.42 -103.51)"/><path id="Path_181" data-name="Path 181" class="cls-123" d="M309.43,466.39H281.59l-.21-63.77h28.05Z" transform="translate(-105.42 -103.51)"/><path id="Path_182" data-name="Path 182" class="cls-124" d="M339.23,466.39s0-26.91-7.17-27.93-7.66,27.93-7.66,27.93Z" transform="translate(-105.42 -103.51)"/><path id="Path_183" data-name="Path 183" class="cls-124" d="M303.69,466.39s0-26.91-7.18-27.93-7.65,27.93-7.65,27.93Z" transform="translate(-105.42 -103.51)"/><path id="Path_184" data-name="Path 184" class="cls-125" d="M381.16,272.67s0-7-1.86-7.23-2,7.23-2,7.23Z" transform="translate(-105.42 -103.51)"/><path id="Path_185" data-name="Path 185" class="cls-126" d="M373,272.67s0-7-1.37-7.23-1.45,7.23-1.45,7.23Z" transform="translate(-105.42 -103.51)"/><path id="Path_186" data-name="Path 186" class="cls-127" d="M383.09,402.13H362.33l8.47,10.64-.52,53.62h14.31l-1.24-54.33,5.13-9.93Z" transform="translate(-105.42 -103.51)"/><path id="Path_187" data-name="Path 187" class="cls-128" d="M383.35,412.06s-6.36-.51-9.48,2.05-3.58,52.27-3.58,52.27H365l2.18-53.29-4.87-11h26.14Z" transform="translate(-105.42 -103.51)"/><path id="Path_188" data-name="Path 188" class="cls-129" d="M388.48,308.06v11.76l-6.09,6.73H368.87L362.33,321v-12.9Z" transform="translate(-105.42 -103.51)"/><path id="Path_189" data-name="Path 189" class="cls-130" d="M388.48,319.82,362.33,321v-12.9h26.15Z" transform="translate(-105.42 -103.51)"/><path id="Path_190" data-name="Path 190" class="cls-131" d="M381.68,257.29l-7.3-44-6.38,44-4.36,3.07H387Z" transform="translate(-105.42 -103.51)"/></g><g id="Group_72" data-name="Group 72"><path id="Path_191" data-name="Path 191" class="cls-132" d="M690.41,461.86h52l-.15-5.63-.11-4.3-.24-9.35-.18-7.19-.21-8.07-.2-7.6L741,405.61l-.08-3-.41-16.28-.21-7.9-.36-14-.24-9.31-.55-21.25,0-1.25-.65-25.12v-.38l-.57-22.65-.08-3.1-.75-28.87v-.06l-.67-26.56-.4,10.8-3.27-1.28-9.75-3.8-.61-.24-5-1.93-2.49-1-9.09-3.55-4.17-1.63-4.22-1.63-.16,5.63-.32,10.88-.68,23.64,0,.41-.52,18.44-.15,5.07-.6,20.26-.1,3.38-.64,22.29-.14,4.51-.53,18.26-.33,11.71-.39,13.17-.24,8.06-.42,14.7-.13,4.38-.38,13-.22,7.65-.26,8.77-.18,6.51-.3,9.92-.11,3.82Z" transform="translate(-105.42 -103.51)"/><g id="Group_71" data-name="Group 71"><path id="Path_192" data-name="Path 192" class="cls-133" d="M675.29,461.86l6.18-217.93,2.84-1.44-5.78,219.37Z" transform="translate(-105.42 -103.51)"/><path id="Path_193" data-name="Path 193" class="cls-134" d="M742.59,461.86l-5.82-219.37h-2.84l5.7,219.37Z" transform="translate(-105.42 -103.51)"/><path id="Path_194" data-name="Path 194" class="cls-135" d="M678.73,456.22c.93-.43,1.92-.89,3-1.42-1-.75-1.91-1.52-2.86-2.3l.35-9.66c1.34-.76,2.79-1.64,4.38-2.59-1.39-1.2-2.78-2.46-4.17-3.75l.3-8.54c1.95-1,4.17-2.29,6.58-3.77-1.47-1.59-2.92-3.25-4.36-5l-2,1.27.45-12.68q1.38,1.89,2.78,3.7,2.1-1.56,4.42-3.44c-1.73-2-3.44-4.17-5.1-6.37q-1,1-1.95,1.86l.5-14.31c.76,1.2,1.54,2.39,2.33,3.56,1-1,2-2,3-3.15-1.77-2.63-3.5-5.38-5.08-8.27l.45-12.82c.33.8.67,1.57,1,2.36,1.46-1.45,3.07-3.05,4.74-4.81q-2.45-4.56-4.7-9.52c-.22.2-.46.39-.68.56l.62-17.79q1.2,3.72,2.54,7.26,1.9-1.86,4-4c-1.65-3.07-3.22-6.23-4.68-9.43-.61.64-1.17,1.25-1.71,1.81l.77-21.72q1.32,4.54,3,9c1-1.12,2-2.3,3-3.54-1.61-3.22-3.15-6.56-4.67-10-.4.45-.8.89-1.16,1.31l.7-19.75c.8,2.42,1.64,4.77,2.51,7.1.57-.71,1.16-1.44,1.75-2.2q-2.16-4.74-4.1-9.83l.62-18h.06c.59,2.2,1.21,4.36,1.88,6.51.87-1,1.8-2.14,2.72-3.32-1-2-1.88-4-2.77-6.07L685.38,267l.81-23c.72,2.41,1.51,4.81,2.35,7.16q1.46-2.69,2.86-5.72-2.58-5.85-4.84-12a155,155,0,0,1-5.33-18l6.15-.92a146.39,146.39,0,0,0,4.34,15.07c.9,2.67,1.89,5.3,2.91,7.9.73-2,1.38-4.12,2-6.31.44-1.59.85-3.24,1.21-4.92-1.07-3.45-2.08-7-3-10.81l6.15-1c.77,3.2,1.62,6.29,2.52,9.27l1.15.13c-.13.72-.27,1.43-.42,2.12,1,3,2,5.86,3,8.6.53,1.37,1.09,2.74,1.65,4.06.42-1,.86-2.06,1.27-3.12q1.81-4.56,3.43-9.53c-.15-.71-.3-1.42-.42-2.14l1.14-.13c.91-3,1.76-6.06,2.51-9.25l6.15,1c-.89,3.76-1.9,7.35-3,10.81a91.39,91.39,0,0,0,3.21,11.22,159.06,159.06,0,0,0,7.25-23l6.16.92a162.54,162.54,0,0,1-8.4,25.94c-.57,1.39-1.16,2.77-1.75,4.13q1.38,3,2.84,5.72c1-2.83,1.93-5.69,2.78-8.6l.79.25.46,15.08v.05s0,0,0,0l.88,28.12-1-.94q-2,5.21-4.19,10.08c.61.75,1.18,1.47,1.75,2.19,1-2.76,2-5.54,3-8.42l.58.12.66,22.06c-.66-.72-1.39-1.54-2.18-2.43-1.49,3.47-3,6.81-4.65,10,1,1.25,2,2.42,3,3.53,1.33-3.56,2.51-7.17,3.49-10.84l.38.06.77,24.46c-.76-.78-1.62-1.7-2.6-2.74q-2.2,4.8-4.69,9.41c1.4,1.46,2.72,2.78,4,4,1.17-3,2.25-6.21,3.23-9.47l.08,0,.64,20.69-1.49-1.25c-1.48,3.31-3,6.47-4.7,9.52,1.7,1.76,3.3,3.36,4.76,4.8.59-1.31,1.17-2.64,1.71-4l.43,13.66a.74.74,0,0,0-.13-.12c-1.75,3.23-3.64,6.28-5.6,9.19q1.56,1.66,3,3.15c1-1.48,2-3,3-4.54l.48,15.86c-.75-.71-1.62-1.51-2.55-2.42-1.67,2.2-3.37,4.33-5.1,6.37,1.55,1.26,3,2.4,4.42,3.43,1.12-1.44,2.22-2.91,3.32-4.43l.43,13.73c-.76-.46-1.58-1-2.48-1.59-1.44,1.72-2.9,3.37-4.36,5,2.62,1.59,5,2.95,7.08,4l.24,7.87c-1.53,1.46-3.07,2.84-4.6,4.16,1.76,1.08,3.37,2,4.83,2.85l.27,9.11c-1.08.9-2.15,1.76-3.21,2.6,1.18.58,2.3,1.11,3.33,1.57l.16,5.49h-.92c-2.06-.87-4.56-2-7.41-3.43-1.31,1-2.59,1.89-3.88,2.77l1.69.66H715.92c-2.15-1.06-4.49-2.29-7-3.71-2.51,1.42-4.85,2.65-7,3.71H688.72c.49-.18,1.06-.41,1.69-.66-1.27-.88-2.58-1.8-3.9-2.77-2.85,1.44-5.33,2.56-7.4,3.43h-.59Zm4.54-24c1.78,1.68,3.56,3.3,5.35,4.82,2-1.3,4-2.72,6.16-4.26-1.52-1.45-3.06-2.94-4.59-4.49C687.65,429.83,685.32,431.14,683.27,432.23Zm18.15-167.12c-1.48,2.19-2.95,4.2-4.37,6.08,1.27,2.56,2.55,5.07,3.88,7.53q2.25-3.32,4.49-6.86c-1.34-2.2-2.69-4.43-4-6.75Zm.31-12q1.93-3.39,3.8-7.15c-1.41-3-2.8-6.15-4.1-9.49-1,3.17-2.16,6.18-3.37,9,1.18,2.62,2.4,5.17,3.67,7.67ZM700.87,414c1.23-1,2.46-2,3.7-3.08-1.75-1.66-3.53-3.42-5.27-5.25-1.16,1.07-2.31,2.07-3.43,3C697.53,410.48,699.19,412.26,700.87,414Zm-.5,7.54c-1.78,1.31-3.53,2.53-5.22,3.65,1.43,1.46,2.87,2.84,4.3,4.18,1.66-1.28,3.36-2.63,5.08-4.05-1.38-1.22-2.77-2.47-4.16-3.78Zm8.54-14.55c1.8-1.69,3.6-3.48,5.37-5.37-1.77-1.74-3.55-3.6-5.37-5.57q-2.71,3-5.36,5.57c1.78,1.9,3.56,3.68,5.36,5.37ZM705,418c1.32,1.22,2.6,2.42,3.9,3.56,1.3-1.14,2.6-2.34,3.9-3.56q-1.95-1.54-3.9-3.24Q707,416.42,705,418Zm3.9-89.14c-1.28,1.7-2.55,3.34-3.84,4.91q1.9,3,3.84,5.89c1.29-1.9,2.56-3.86,3.84-5.89-1.27-1.57-2.55-3.22-3.84-4.91Zm0-10.33c1.75-2.6,3.52-5.32,5.23-8.19-1.73-2.32-3.49-4.76-5.25-7.32-1.75,2.54-3.52,5-5.23,7.31,1.71,2.87,3.48,5.59,5.25,8.2Zm-4.6,37.44c1.52,2.28,3.06,4.49,4.58,6.64q2.31-3.22,4.58-6.64c-1.51-1.87-3-3.85-4.58-5.92q-2.31,3.11-4.58,5.92Zm-1.17,23.59q2.85,3.93,5.77,7.46c1.93-2.35,3.87-4.83,5.77-7.46-1.9-2.28-3.84-4.67-5.77-7.17-1.95,2.5-3.89,4.89-5.78,7.17Zm-3.51,17.7c1.75-1.77,3.55-3.66,5.33-5.66q-2.94-3.46-5.83-7.34c-1.78,2-3.52,4-5.18,5.78,1.82,2.54,3.73,4.93,5.68,7.22Zm.08-22.64c1.82-2.26,3.68-4.61,5.54-7.07-1.63-2.2-3.25-4.49-4.85-6.83-1.89,2.21-3.71,4.26-5.47,6.17,1.54,2.67,3.14,5.26,4.77,7.72Zm1.19-23.95c1.42-1.83,2.85-3.75,4.31-5.75-1.41-2-2.83-4.11-4.24-6.29-1.48,1.71-2.94,3.31-4.35,4.82,1.39,2.46,2.83,4.87,4.28,7.22Zm.86-22.33q1.72-2.19,3.45-4.55c-1.85-2.62-3.69-5.38-5.49-8.27-1,1.28-2,2.53-3,3.73q2.43,4.73,5,9.08Zm-1.31-23.57c1.61-2.24,3.24-4.59,4.89-7-1.69-2.58-3.37-5.23-5-8q-2.31,3.15-4.52,6,2.27,4.68,4.65,9.05Zm3.67-20.3q2.36,4,4.77,7.85,2.43-3.81,4.77-7.85c-1.57-2.25-3.17-4.62-4.77-7.06-1.6,2.44-3.19,4.8-4.77,7.06Zm12.75-5.72c1.33-2.46,2.63-5,3.9-7.52-1.42-1.88-2.88-3.89-4.37-6.07-1.31,2.29-2.66,4.55-4,6.73,1.48,2.36,3,4.65,4.47,6.86Zm-4.42,19q2.46,3.66,4.89,7c1.6-2.91,3.15-5.92,4.64-9.06-1.47-1.87-3-3.88-4.53-6-1.65,2.75-3.33,5.41-5,8Zm5.63,17.78q-2.72,4.33-5.49,8.26c1.15,1.56,2.3,3.08,3.44,4.54q2.55-4.37,5-9.06C720.09,318,719.09,316.77,718.1,315.49Zm-5.5,29.39q2.17,3,4.31,5.75,2.19-3.53,4.26-7.22c-1.41-1.51-2.85-3.12-4.34-4.82-1.41,2.18-2.83,4.26-4.23,6.29Zm0,22.63c1.86,2.46,3.72,4.81,5.54,7.06q2.46-3.7,4.78-7.73c-1.75-1.89-3.58-3.95-5.47-6.16-1.6,2.34-3.22,4.63-4.85,6.83Zm.29,24c1.78,2,3.56,3.89,5.33,5.67,1.95-2.29,3.85-4.68,5.7-7.21-1.67-1.82-3.4-3.74-5.19-5.79q-2.93,3.87-5.84,7.34Zm5.66,14.07c-1.75,1.83-3.52,3.58-5.27,5.25,1.24,1.07,2.48,2.1,3.7,3.08,1.68-1.69,3.34-3.47,5-5.3-1.12-1-2.25-2-3.43-3Zm-5.21,19.65c1.72,1.42,3.42,2.76,5.08,4.06,1.43-1.36,2.87-2.73,4.29-4.18-1.69-1.12-3.45-2.34-5.23-3.65-1.39,1.3-2.77,2.55-4.14,3.77Zm5.5,11.37c-1.77,1.55-3.52,3-5.26,4.4,1.91,1.4,3.78,2.71,5.59,3.94,1.85-1.33,3.71-2.74,5.61-4.25-1.91-1.25-3.89-2.62-5.94-4.09Zm-4.67-3.47q-2.57-2-5.23-4.16-2.62,2.17-5.21,4.16c1.75,1.52,3.49,3,5.23,4.34,1.72-1.37,3.46-2.8,5.21-4.34ZM699,436.64q-3.09,2.21-5.94,4.1c1.9,1.5,3.78,2.91,5.62,4.25,1.83-1.22,3.69-2.53,5.6-3.94C702.55,439.65,700.79,438.19,699,436.64ZM686.74,415.9c1.5,1.77,3,3.48,4.51,5.11,1.63-1.08,3.31-2.26,5-3.52-1.63-1.64-3.27-3.36-4.88-5.13C689.76,413.65,688.19,414.83,686.74,415.9Zm5.35-11.58q1.63-1.44,3.31-3-2.85-3.29-5.57-6.91-1.62,1.67-3.07,3.14Q689.34,401.06,692.09,404.32Zm-6.6-28q2.43,4.62,5.14,8.81,2.46-2.72,5.06-5.75c-1.74-2.55-3.45-5.21-5.11-8C688.74,373.24,687,374.88,685.49,376.33Zm2.19-24c1.34,3.14,2.78,6.14,4.28,9q2.44-2.75,5-5.85-2.4-3.74-4.67-7.65c-1.63,1.63-3.2,3.13-4.64,4.46Zm1.47-24.1c1.4,3.29,2.94,6.52,4.56,9.68,1.31-1.47,2.66-3,4-4.63q-2.61-4.33-5.14-9-1.82,2.14-3.44,4Zm4.77-14.81c.86-1.08,1.72-2.2,2.6-3.35-1.68-2.92-3.33-6-4.9-9.13-.72.88-1.43,1.74-2.11,2.54,1.39,3.44,2.88,6.74,4.41,9.94Zm-4.49-33.2c1.15,3.24,2.38,6.35,3.68,9.4q2-2.61,4-5.47c-1.45-2.55-2.85-5.15-4.24-7.83C691.68,277.78,690.52,279.08,689.43,280.25Zm5.26-27.78q-1.68,3.17-3.4,5.94c.92,2.24,1.86,4.45,2.86,6.65,1.3-1.83,2.63-3.81,4-5.9q-1.75-3.3-3.42-6.69Zm14.22.19q-1.9,3.56-3.84,6.74c1.27,2.29,2.56,4.55,3.84,6.73,1.3-2.19,2.59-4.44,3.84-6.73-1.27-2.12-2.57-4.37-3.84-6.74Zm7.48-16.22c-.12.29-.22.58-.34.87-1.2,3-2.45,5.88-3.75,8.62,1.24,2.51,2.51,4.89,3.79,7.15,1.27-2.49,2.49-5.05,3.67-7.65q-1.6-3.72-3-7.88c-.14-.37-.26-.74-.38-1.11Zm6.74,16c-1.12,2.27-2.25,4.49-3.41,6.68,1.33,2.1,2.66,4.08,4,5.91q1.47-3.3,2.84-6.66c-1.12-1.84-2.25-3.81-3.39-5.93Zm7.39,21.38c.67-2.13,1.3-4.29,1.88-6.5l.4.06c-.71-.89-1.45-1.89-2.22-3-.9,2-1.81,4.08-2.76,6.07.92,1.18,1.84,2.3,2.7,3.32Zm-5.59,2.5c-1.36,2.68-2.78,5.29-4.22,7.83,1.36,1.91,2.71,3.73,4,5.47,1.3-3,2.52-6.15,3.67-9.4-1.09-1.18-2.23-2.47-3.46-3.9Zm3.4,27.16c-.68-.8-1.39-1.66-2.11-2.54q-2.37,4.74-4.9,9.13c.86,1.15,1.74,2.27,2.6,3.35,1.52-3.2,3-6.51,4.41-9.94Zm.35,24.75c-1.09-1.24-2.25-2.57-3.45-4-1.67,3.14-3.4,6.14-5.13,9,1.36,1.64,2.7,3.16,4,4.63q2.48-4.74,4.58-9.67Zm-3.17,19.62q-2.28,3.92-4.67,7.65,2.58,3.14,5,5.86c1.49-2.9,2.93-5.9,4.28-9-1.44-1.32-3-2.82-4.65-4.47Zm6.84,28.45c-1.56-1.45-3.25-3.09-5.09-4.94q-2.49,4.19-5.12,8c1.73,2,3.43,3.93,5.07,5.75q2.7-4.22,5.14-8.82Zm-1.28,21.22c-1-1-2-2-3.07-3.14q-2.71,3.63-5.58,6.92,1.68,1.56,3.31,3c1.83-2.19,3.61-4.44,5.33-6.78Zm-4.63,14.81c-1.61,1.77-3.25,3.49-4.88,5.13,1.72,1.26,3.4,2.44,5,3.52,1.51-1.63,3-3.34,4.51-5.11-1.47-1.07-3-2.25-4.66-3.54Zm8.13,19.87c-2.05-1.08-4.38-2.4-6.92-3.94-1.52,1.56-3,3-4.59,4.5,2.16,1.54,4.21,2.95,6.18,4.25,1.76-1.51,3.55-3.13,5.33-4.81Zm-4,19.72c1.77-1.36,3.56-2.82,5.38-4.36-1.83-1-3.93-2.24-6.21-3.65-1.89,1.53-3.75,2.95-5.57,4.28,2.24,1.39,4.41,2.63,6.4,3.73Zm-9.2,6.58c1.43-.95,2.9-1.94,4.38-3-2-1.15-4.23-2.41-6.5-3.82q-2.53,1.71-4.94,3.22C716.94,456.34,719.31,457.53,721.41,458.53Zm-12.5-6.76c1.71-1,3.49-2.16,5.31-3.38q-2.6-1.75-5.31-3.78c-1.8,1.35-3.57,2.6-5.3,3.78C705.44,449.61,707.2,450.73,708.91,451.77Zm-12.45,6.76c2.09-1,4.44-2.2,7-3.61-1.6-1-3.25-2.08-4.94-3.22-2.25,1.41-4.43,2.67-6.47,3.81C693.54,456.58,695,457.58,696.46,458.53ZM687.24,452q3-1.63,6.39-3.71c-1.84-1.35-3.7-2.77-5.57-4.28-2.28,1.39-4.38,2.61-6.21,3.64,1.81,1.53,3.62,3,5.39,4.35Z" transform="translate(-105.42 -103.51)"/><path id="Path_195" data-name="Path 195" class="cls-136" d="M716.46,171.51l-.5-13H702.05l-.34,12.66Z" transform="translate(-105.42 -103.51)"/><rect id="Rectangle_46" data-name="Rectangle 46" class="cls-137" x="590.93" y="67.12" width="25.47" height="6.59"/><path id="Path_196" data-name="Path 196" class="cls-138" d="M737.45,242.74l-1.8-64.34H682l1.15,64.34Z" transform="translate(-105.42 -103.51)"/><path id="Path_197" data-name="Path 197" class="cls-139" d="M736.15,182.34H682V192l54.41-.28Z" transform="translate(-105.42 -103.51)"/><path id="Path_198" data-name="Path 198" class="cls-140" d="M736.46,195.61l-54.5-.68v8.38h54.5Z" transform="translate(-105.42 -103.51)"/><path id="Path_199" data-name="Path 199" class="cls-141" d="M736.11,178.4l.1-1.55L682,176v2.38Z" transform="translate(-105.42 -103.51)"/><path id="Path_200" data-name="Path 200" class="cls-142" d="M721.82,170.62v.76l-25.47.42v-1.18Z" transform="translate(-105.42 -103.51)"/><path id="Path_201" data-name="Path 201" class="cls-143" d="M713.14,158.55s-5.58-30.58-3.93-55H708s.38,36.43-3.58,55Z" transform="translate(-105.42 -103.51)"/><path id="Path_202" data-name="Path 202" class="cls-144" d="M675,456.22c1-.43,2.16-.89,3.35-1.42l-3.21-2.3.4-9.66c1.5-.76,3.15-1.64,4.93-2.59-1.56-1.2-3.12-2.46-4.68-3.75l.33-8.54c2.19-1,4.68-2.29,7.4-3.77-1.64-1.59-3.29-3.25-4.89-5-.79.45-1.52.88-2.22,1.27l.51-12.68c1,1.26,2.07,2.49,3.12,3.7,1.57-1,3.23-2.19,5-3.44-1.94-2-3.85-4.17-5.71-6.37l-2.19,1.86.55-14.31c.85,1.21,1.74,2.39,2.61,3.56,1.1-1,2.23-2,3.42-3.15-2-2.63-3.91-5.38-5.72-8.27l.51-12.82c.38.8.76,1.57,1.15,2.36,1.65-1.44,3.44-3.05,5.34-4.81q-2.76-4.56-5.28-9.52l-.77.57.7-17.79c.9,2.48,1.85,4.89,2.84,7.25q2.14-1.86,4.49-4c-1.85-3.07-3.61-6.22-5.25-9.43-.67.65-1.31,1.25-1.91,1.81l.86-21.71q1.49,4.53,3.34,9c1.08-1.12,2.21-2.3,3.34-3.54-1.81-3.22-3.54-6.56-5.23-10-.46.46-.91.89-1.32,1.31l.79-19.75c.91,2.42,1.85,4.77,2.83,7.1.66-.71,1.3-1.44,2-2.2-1.62-3.16-3.17-6.43-4.61-9.83l.7-18,0,0c.66,2.21,1.38,4.37,2.1,6.52q1.5-1.55,3.07-3.32c-1.07-2-2.1-4-3.11-6.07-.73.88-1.41,1.71-2.1,2.49l.9-23c.82,2.41,1.71,4.81,2.64,7.16,1.1-1.79,2.16-3.7,3.2-5.72-1.94-3.9-5.66,2.87-5.84-1.44-.59-14.5-5.42-22.42-7-28.59l8.33-1a134.39,134.39,0,0,0,4.88,15.07c1,2.68,2.11,5.3,3.28,7.91.8-2,1.54-4.13,2.23-6.31.5-1.59.95-3.24,1.37-4.93-1.21-3.45-2.35-7-3.36-10.81l6.92-1c.86,3.21,1.82,6.29,2.83,9.27,0,0,1,1.56.8,2.26,1.08,3,2.23,5.86,3.43,8.6.59,1.38,1.22,2.74,1.85,4.06.48-1,1-2.06,1.43-3.11q2-4.56,3.85-9.53c-.18-.71.8-2.29.8-2.29q1.53-4.46,2.83-9.25l6.91,1c-1,3.75-2.14,7.34-3.35,10.8A86.79,86.79,0,0,0,725,237.36a145.91,145.91,0,0,0,8.14-23l9.27,1.86c-2.43,8.25-5.54,15.89-6.58,26.51-.14,1.47-6.52,1.26-7.19,2.63,1,2,2.1,3.92,3.2,5.72,1.12-2.84,2.17-5.69,3.12-8.6l.89.25.52,15.08v0s0,0,0,0l1,28.11-1.14-.93q-2.24,5.21-4.71,10.08c.67.75,1.32,1.46,2,2.18,1.14-2.75,2.26-5.54,3.31-8.42l.66.13.76,22.05c-.75-.71-1.57-1.53-2.45-2.42-1.68,3.47-3.43,6.8-5.24,10,1.14,1.25,2.26,2.42,3.34,3.54a107,107,0,0,0,3.92-10.84l.43.05.8,24.45-2.92-2.74c-1.63,3.19-3.4,6.33-5.25,9.4,1.56,1.46,3.06,2.79,4.49,4,1.3-3.05,2.53-6.21,3.63-9.48l.09,0,.71,20.69-1.66-1.25c-1.66,3.31-3.43,6.47-5.28,9.52,1.9,1.76,3.69,3.37,5.35,4.8.66-1.31,1.32-2.64,1.93-4l.47,13.66-.15-.12c-2,3.24-4.1,6.28-6.3,9.19,1.17,1.11,2.32,2.16,3.4,3.15,1.14-1.47,2.23-3,3.31-4.53l.54,15.85c-.85-.7-1.81-1.51-2.86-2.42-1.87,2.2-3.79,4.33-5.72,6.37,1.74,1.26,3.4,2.4,5,3.43,1.27-1.44,2.49-2.91,3.73-4.43L742,420.8c-.84-.47-1.76-1-2.78-1.6-1.62,1.72-3.25,3.38-4.89,5,3,1.59,5.62,2.95,7.94,4l.27,7.87c-1.72,1.46-3.44,2.84-5.16,4.16,2,1.09,3.79,2,5.41,2.85l.31,9.11c-1.21.9-2.41,1.76-3.59,2.6,1.33.58,2.58,1.11,3.73,1.57l.19,5.5h-1c-2.32-.87-5.12-2-8.33-3.43-1.47,1-2.93,1.89-4.36,2.77.72.24,1.36.47,1.9.66H716.76c-2.41-1.06-5-2.29-7.88-3.71-2.83,1.42-5.45,2.65-7.86,3.71h-14.8l1.89-.66c-1.42-.88-2.9-1.8-4.37-2.77-3.2,1.44-6,2.56-8.32,3.43h-.65Zm5.09-24c2,1.68,4,3.29,6,4.82,2.2-1.3,4.52-2.72,6.93-4.27q-2.6-2.16-5.17-4.48C685,429.83,682.4,431.14,680.08,432.23Zm20.38-167.12c-1.67,2.19-3.32,4.2-4.91,6.08,1.42,2.56,2.88,5.06,4.38,7.53,1.68-2.21,3.35-4.5,5-6.86-1.5-2.2-3-4.44-4.5-6.75Zm.36-12c1.44-2.26,2.86-4.64,4.26-7.16-1.59-3-3.14-6.14-4.6-9.48a94.09,94.09,0,0,1-3.79,9c1.34,2.62,2.71,5.17,4.13,7.67Zm-1,160.87c1.38-1,2.77-2,4.15-3.08-2-1.67-4-3.41-5.93-5.25-1.32,1.07-2.58,2.07-3.85,3,1.88,1.82,3.75,3.6,5.63,5.29Zm-.56,7.54c-2,1.31-4,2.52-5.88,3.65,1.62,1.46,3.23,2.83,4.85,4.17,1.86-1.27,3.78-2.62,5.7-4.05-1.56-1.21-3.11-2.46-4.67-3.77Zm9.59-14.55q3-2.54,6-5.37c-2-1.74-4-3.6-6-5.57-2,2-4,3.82-6,5.57,2,1.9,4,3.68,6,5.37Zm-4.38,11q2.21,1.83,4.39,3.56,2.19-1.72,4.39-3.56-2.19-1.54-4.39-3.24-2.21,1.69-4.39,3.25Zm4.38-89.14c-1.45,1.7-2.88,3.34-4.31,4.91,1.43,2,2.87,4,4.31,5.89q2.16-2.85,4.3-5.89c-1.43-1.57-2.86-3.22-4.3-4.91Zm0-10.33c2-2.61,4-5.32,5.88-8.19q-2.91-3.48-5.89-7.32c-2,2.54-4,5-5.88,7.31,1.92,2.87,3.91,5.59,5.89,8.2Zm-5.16,37.44q2.55,3.42,5.15,6.63,2.6-3.22,5.13-6.63c-1.69-1.87-3.41-3.85-5.13-5.92-1.73,2.07-3.44,4-5.15,5.92Zm-1.33,23.59q3.2,3.93,6.48,7.46c2.17-2.35,4.34-4.83,6.47-7.46-2.13-2.29-4.3-4.67-6.47-7.17-2.18,2.5-4.35,4.89-6.48,7.17Zm-3.92,17.7c2-1.78,4-3.66,6-5.67q-3.3-3.45-6.55-7.33c-2,2-3.95,4-5.83,5.78C694.15,392.54,696.28,394.93,698.49,397.22Zm.07-22.65c2.06-2.25,4.16-4.6,6.23-7.06-1.84-2.2-3.66-4.49-5.46-6.83-2.11,2.2-4.17,4.26-6.14,6.16q2.61,4,5.37,7.73Zm1.36-23.94q2.4-2.75,4.84-5.75c-1.59-2-3.18-4.11-4.75-6.29-1.67,1.7-3.32,3.31-4.89,4.82,1.54,2.46,3.16,4.87,4.8,7.22Zm1-22.34c1.28-1.45,2.58-3,3.87-4.55-2.08-2.61-4.15-5.37-6.17-8.26-1.14,1.28-2.24,2.53-3.32,3.73q2.75,4.73,5.62,9.09Zm-1.48-23.56c1.83-2.24,3.67-4.6,5.5-7-1.89-2.58-3.79-5.23-5.64-8q-2.61,3.17-5.08,6Q696.73,300.36,699.4,304.73Zm4.13-20.31q2.65,4.05,5.36,7.85,2.7-3.79,5.35-7.85-2.65-3.37-5.35-7.06-2.7,3.67-5.36,7.07Zm14.32-5.71c1.51-2.46,2.95-5,4.38-7.52-1.61-1.88-3.24-3.89-4.9-6.08q-2.24,3.45-4.51,6.74c1.68,2.36,3.37,4.65,5,6.86Zm-5,19c1.86,2.45,3.68,4.79,5.5,7q2.7-4.35,5.23-9.05c-1.64-1.88-3.34-3.88-5.09-6q-2.79,4.13-5.63,8Zm6.35,17.79q-3,4.33-6.16,8.26c1.29,1.57,2.59,3.08,3.86,4.55,1.91-2.91,3.79-5.94,5.61-9.07-1.08-1.22-2.2-2.46-3.31-3.74ZM713,344.88c1.61,2,3.23,3.92,4.84,5.75,1.63-2.35,3.24-4.76,4.78-7.22q-2.39-2.27-4.87-4.82c-1.57,2.18-3.16,4.26-4.75,6.29Zm0,22.63q3.13,3.69,6.23,7.06c1.84-2.46,3.63-5.05,5.35-7.73-2-1.89-4-3.95-6.14-6.15-1.77,2.33-3.6,4.62-5.44,6.82Zm.34,24.05c2,2,4,3.89,6,5.66,2.19-2.29,4.33-4.67,6.4-7.21-1.87-1.82-3.82-3.74-5.83-5.79q-3.25,3.87-6.55,7.34Zm6.37,14.06q-2.94,2.75-5.93,5.25c1.38,1.06,2.78,2.1,4.16,3.08,1.88-1.7,3.76-3.47,5.61-5.3C722.28,407.69,721,406.68,719.69,405.62Zm-5.87,19.64c1.94,1.43,3.83,2.77,5.72,4.06,1.61-1.35,3.22-2.72,4.82-4.17-1.89-1.13-3.86-2.34-5.87-3.65-1.57,1.3-3.11,2.55-4.67,3.76ZM720,436.64c-2,1.55-4,3-5.91,4.4,2.13,1.4,4.25,2.71,6.29,3.94,2.07-1.34,4.16-2.75,6.3-4.25-2.14-1.24-4.36-2.62-6.68-4.09Zm-5.24-3.47c-1.92-1.31-3.88-2.69-5.86-4.16-2,1.45-3.92,2.84-5.85,4.16,2,1.53,3.93,3,5.87,4.35C710.84,436.14,712.8,434.71,714.76,433.17Zm-17,3.47c-2.31,1.47-4.54,2.84-6.68,4.09,2.12,1.51,4.24,2.93,6.31,4.26q3.09-1.83,6.3-3.94-3-2.1-5.93-4.41ZM684,415.9c1.68,1.77,3.37,3.48,5.06,5.11,1.84-1.08,3.72-2.26,5.65-3.52-1.84-1.64-3.66-3.36-5.47-5.13Q686.45,414.29,684,415.9Zm6-11.58q1.83-1.44,3.72-3c-2.13-2.19-4.23-4.49-6.26-6.91-1.21,1.11-2.35,2.16-3.44,3.14q2.88,3.52,6,6.78Zm-7.43-28c1.81,3.08,3.75,6,5.78,8.81q2.77-2.72,5.69-5.75c-2-2.55-3.88-5.21-5.74-8C686.23,373.24,684.32,374.88,682.57,376.33Zm2.48-24c1.5,3.14,3.12,6.14,4.8,9q2.76-2.75,5.66-5.85-2.68-3.74-5.24-7.65c-1.85,1.63-3.61,3.13-5.22,4.46Zm1.64-24.1c1.59,3.29,3.31,6.52,5.12,9.68,1.49-1.47,3-3,4.5-4.63-1.95-2.89-3.89-5.9-5.77-9-1.34,1.43-2.63,2.76-3.85,4ZM692,313.45c1-1.08,1.94-2.2,2.92-3.35-1.89-2.93-3.74-6-5.5-9.14-.82.89-1.62,1.74-2.38,2.55,1.59,3.44,3.25,6.74,5,9.94Zm-5-33.2c1.28,3.23,2.67,6.35,4.12,9.4,1.48-1.74,3-3.57,4.51-5.47q-2.43-3.82-4.75-7.83C689.53,277.78,688.23,279.08,687,280.25Zm5.9-27.78c-1.25,2.11-2.53,4.09-3.8,5.93,1,2.24,2.1,4.46,3.19,6.66,1.46-1.83,3-3.81,4.45-5.91C695.44,257,694.17,254.73,692.91,252.47Zm16,.19c-1.43,2.37-2.88,4.62-4.32,6.73,1.41,2.3,2.86,4.55,4.32,6.74,1.45-2.19,2.9-4.44,4.31-6.74C711.76,257.28,710.32,255,708.89,252.66Zm8.4-16.22-.39.87c-1.35,3-2.76,5.88-4.2,8.62,1.38,2.51,2.81,4.89,4.25,7.15,1.42-2.49,2.81-5.05,4.13-7.65-1.19-2.48-2.33-5.11-3.37-7.89-.14-.36-.29-.73-.42-1.1Zm7.58,16c-1.25,2.27-2.52,4.49-3.83,6.67,1.5,2.11,3,4.09,4.45,5.92q1.66-3.3,3.18-6.67-1.9-2.74-3.8-5.92Zm8.3,21.38c.75-2.13,1.46-4.29,2.1-6.51l.46.07c-.79-.9-1.62-1.89-2.5-3-1,2.05-2,4.09-3.1,6.08,1,1.18,2.07,2.3,3,3.32Zm-6.28,2.5c-1.53,2.67-3.12,5.29-4.74,7.83,1.51,1.91,3,3.73,4.5,5.47,1.46-3,2.83-6.16,4.13-9.4-1.22-1.18-2.54-2.47-3.89-3.9Zm3.82,27.16c-.77-.81-1.56-1.66-2.38-2.55-1.76,3.17-3.62,6.21-5.5,9.14,1,1.15,2,2.27,2.92,3.35,1.7-3.2,3.37-6.51,5-9.94Zm.39,24.75c-1.22-1.24-2.52-2.57-3.86-4q-2.82,4.71-5.76,9c1.51,1.64,3,3.16,4.5,4.63,1.81-3.16,3.53-6.39,5.12-9.67Zm-3.59,19.62q-2.53,3.92-5.23,7.64c1.94,2.1,3.82,4.05,5.66,5.87,1.67-2.9,3.29-5.9,4.8-9-1.61-1.32-3.37-2.82-5.23-4.47Zm7.71,28.44c-1.75-1.44-3.67-3.08-5.72-4.93-1.87,2.78-3.8,5.46-5.75,8q2.94,3,5.7,5.76c2-2.81,4-5.75,5.76-8.82Zm-1.45,21.23c-1.09-1-2.24-2-3.44-3.14-2,2.42-4.13,4.73-6.26,6.91,1.27,1.05,2.5,2.05,3.72,3,2-2.19,4.06-4.44,6-6.78Zm-5.19,14.81c-1.81,1.77-3.65,3.49-5.47,5.13,1.94,1.26,3.82,2.44,5.65,3.52,1.7-1.64,3.38-3.34,5.06-5.12-1.65-1.06-3.42-2.24-5.24-3.53Zm9.13,19.87c-2.31-1.08-4.93-2.4-7.78-3.94-1.72,1.56-3.42,3-5.16,4.49,2.42,1.55,4.74,3,6.94,4.26C733.7,435.53,735.7,433.91,737.71,432.23ZM733.27,452c2-1.37,4-2.82,6-4.36-2-1-4.4-2.24-7-3.65-2.11,1.53-4.2,2.95-6.26,4.28q3.79,2.08,7.19,3.73Zm-10.34,6.57c1.62-.94,3.25-1.93,4.93-3-2.32-1.15-4.75-2.41-7.29-3.82q-2.85,1.71-5.56,3.22c2.89,1.42,5.56,2.61,7.92,3.6Zm-14-6.75c1.92-1,3.91-2.16,6-3.38-1.94-1.17-3.93-2.43-6-3.78-2,1.35-4,2.6-5.95,3.78C705,449.61,707,450.73,708.89,451.77Zm-14,6.75c2.35-1,5-2.19,7.87-3.6-1.79-1-3.66-2.08-5.55-3.22-2.54,1.41-5,2.67-7.28,3.81,1.69,1.07,3.32,2.07,5,3ZM684.55,452c2.25-1.09,4.66-2.33,7.18-3.71-2.07-1.35-4.16-2.77-6.27-4.28-2.57,1.39-4.91,2.61-7,3.63,2,1.54,4.07,3,6.07,4.36Z" transform="translate(-105.42 -103.51)"/></g></g></g></svg>