<svg  preserveAspectRatio="none" id="Layer_1" data-name="Layer 1" xmlns="http://www.w3.org/2000/svg" xmlns:xlink="http://www.w3.org/1999/xlink" viewBox="0 0 796.08 278.81"><defs><style>.cls-1{fill:url(#linear-gradient);}.cls-2{fill:url(#linear-gradient-2);}.cls-3{fill:url(#linear-gradient-3);}.cls-4{fill:#d69f69;}</style><linearGradient id="linear-gradient" x1="1.21" y1="595.6" x2="1.21" y2="595.44" gradientTransform="matrix(1921, 0, 0, -672.78, -1895.06, 400979.98)" gradientUnits="userSpaceOnUse"><stop offset="0" stop-color="#c16f56"/><stop offset="0.34" stop-color="#e2b271"/><stop offset="1" stop-color="#efc87c"/></linearGradient><linearGradient id="linear-gradient-2" x1="0.98" y1="594.92" x2="0.95" y2="594.54" gradientTransform="matrix(512.46, 0, 0, -142.75, -264.11, 85114.99)" gradientUnits="userSpaceOnUse"><stop offset="0" stop-color="#c26856"/><stop offset="0.98" stop-color="#d69f69"/></linearGradient><linearGradient id="linear-gradient-3" x1="0.12" y1="595.05" x2="0.32" y2="595.38" gradientTransform="matrix(564.73, 0, 0, -246.86, 475.36, 147126.52)" gradientUnits="userSpaceOnUse"><stop offset="0.02" stop-color="#d69f69"/><stop offset="1" stop-color="#c26856"/></linearGradient></defs><title>sands</title><g id="Group_232" data-name="Group 232"><path id="Path_1355" data-name="Path 1355" class="cls-1" d="M823.16,221.39V460.76l-796.07-.47V219.5c5.75.78,11.64,1.58,17.34,2.15,24.69,2.45,49.85,4.14,74.88,3.9h0c32.06-.3,63.93-3.75,94.33-12.81,16.69-5,33-11.59,49.49-17.06,2-.65,3.89-1.29,5.86-1.89,15-4.67,30.26-8.15,46.28-8.32,18.08-.21,35.53,3.81,52.89,8.38,9.12,2.41,18.22,5,27.37,7.11a333.49,333.49,0,0,0,45.08,7.36q3.56.35,7.12.61,14.14,1,28.35.92c10.32-.08,20.64-.62,30.88-1.63a331.08,331.08,0,0,0,35-5.33c12.26-2.53,24.4-5.76,36.55-8.92,24.72-6.42,49.45-12.54,75.16-12A173.57,173.57,0,0,1,682,185.1a305.37,305.37,0,0,1,34.42,9c18.21,5.69,36.21,12.32,54.6,17.37A333.79,333.79,0,0,0,823.16,221.39Z" transform="translate(-27.09 -181.96)"/><g id="Group_231" data-name="Group 231"><path id="Path_1356" data-name="Path 1356" class="cls-2" d="M320.26,250.91c-18.61,7-42.09,5.94-61.52,3.28-45.82-6.28-91.65-12.75-136-23.37l-3.49-.84c32-.32,63.87-4.14,94.24-14.11,16.67-5.47,32.93-12.77,49.44-18.8-4.8,19.78,18.76,22.61,37.41,27.17C315,227.82,349.39,239.94,320.26,250.91Z" transform="translate(-27.09 -181.96)"/><path id="Path_1357" data-name="Path 1357" class="cls-3" d="M681.39,185.43c-.36,9.89-3.37,20.19-9.36,30.69-18.47,32.43-42.6,65.12-85.88,68-27,1.82-37.57-20.59-55.45-34.6-15.81-12.4-36.32-23.23-55.62-30-7.79-2.72-18.22-4.7-27.72-7.94A310.31,310.31,0,0,0,541.5,205c37.16-8.48,73.3-24,111.61-23A155.66,155.66,0,0,1,681.39,185.43Z" transform="translate(-27.09 -181.96)"/></g></g><path id="Path_1367" data-name="Path 1367" class="cls-4" d="M780.89,314.84c14.11-.63,28.21-1.7,42.27-2.84v77.81l-639.9-.46-156.17-.11v-94.6C116,278.86,206.33,267.56,297.4,270c1,0,2,.05,3,.09q22.14.65,44.14,2.3C490.67,283,632.85,321.43,780.89,314.84Z" transform="translate(-27.09 -181.96)"/></svg>